<svg xmlns="http://www.w3.org/2000/svg" xmlns:xlink="http://www.w3.org/1999/xlink" viewBox="0 0 309.48 65.37"><defs><style>.cls-1{fill:url(#linear-gradient);}.cls-2{fill:url(#linear-gradient-2);}.cls-3{fill:url(#linear-gradient-3);}.cls-4{fill:url(#linear-gradient-4);}.cls-5{fill:url(#linear-gradient-5);}.cls-6{fill:url(#linear-gradient-6);}.cls-7{fill:url(#linear-gradient-7);}.cls-8{fill:url(#linear-gradient-8);}.cls-9{fill:url(#linear-gradient-9);}.cls-10{fill:url(#linear-gradient-10);}.cls-11{fill:url(#linear-gradient-11);}.cls-12{fill:url(#linear-gradient-12);}.cls-13{fill:url(#linear-gradient-13);}.cls-14{fill:url(#linear-gradient-14);}.cls-15{fill:url(#linear-gradient-15);}.cls-16{fill:url(#linear-gradient-16);}.cls-17{fill:url(#linear-gradient-17);}.cls-18{fill:url(#linear-gradient-18);}.cls-19{fill:url(#linear-gradient-19);}.cls-20{fill:url(#linear-gradient-20);}.cls-21{fill:url(#linear-gradient-21);}.cls-22{fill:url(#linear-gradient-22);}.cls-23{fill:url(#linear-gradient-23);}.cls-24{fill:url(#linear-gradient-24);}.cls-25{fill:url(#linear-gradient-25);}.cls-26{fill:url(#linear-gradient-26);}.cls-27{fill:url(#linear-gradient-27);}.cls-28{fill:url(#linear-gradient-28);}.cls-29{fill:url(#linear-gradient-29);}.cls-30{fill:url(#linear-gradient-30);}.cls-31{fill:url(#linear-gradient-31);}.cls-32{fill:url(#linear-gradient-32);}</style><linearGradient id="linear-gradient" x1="201.42" y1="16.25" x2="302.98" y2="65.64" gradientUnits="userSpaceOnUse"><stop offset="0" stop-color="#00a94f"/><stop offset="1" stop-color="#60bb46"/></linearGradient><linearGradient id="linear-gradient-2" x1="203.16" y1="12.66" x2="304.73" y2="62.05" xlink:href="#linear-gradient"/><linearGradient id="linear-gradient-3" x1="205.5" y1="7.86" x2="307.06" y2="57.25" xlink:href="#linear-gradient"/><linearGradient id="linear-gradient-4" x1="208.3" y1="2.11" x2="309.86" y2="51.5" xlink:href="#linear-gradient"/><linearGradient id="linear-gradient-5" x1="210" y1="-1.4" x2="311.56" y2="47.99" xlink:href="#linear-gradient"/><linearGradient id="linear-gradient-6" x1="211.89" y1="-5.29" x2="313.46" y2="44.1" xlink:href="#linear-gradient"/><linearGradient id="linear-gradient-7" x1="194.02" y1="31.47" x2="295.58" y2="80.86" xlink:href="#linear-gradient"/><linearGradient id="linear-gradient-8" x1="196.18" y1="27.03" x2="297.74" y2="76.42" xlink:href="#linear-gradient"/><linearGradient id="linear-gradient-9" x1="197.81" y1="23.67" x2="299.37" y2="73.06" xlink:href="#linear-gradient"/><linearGradient id="linear-gradient-10" x1="199.73" y1="19.72" x2="301.3" y2="69.11" xlink:href="#linear-gradient"/><linearGradient id="linear-gradient-11" x1="200.57" y1="17.99" x2="302.14" y2="67.38" xlink:href="#linear-gradient"/><linearGradient id="linear-gradient-12" x1="202.47" y1="14.1" x2="304.03" y2="63.49" xlink:href="#linear-gradient"/><linearGradient id="linear-gradient-13" x1="204.12" y1="10.69" x2="305.68" y2="60.09" xlink:href="#linear-gradient"/><linearGradient id="linear-gradient-14" x1="205.93" y1="6.98" x2="307.49" y2="56.37" xlink:href="#linear-gradient"/><linearGradient id="linear-gradient-15" x1="208.05" y1="2.62" x2="309.61" y2="52.01" xlink:href="#linear-gradient"/><linearGradient id="linear-gradient-16" x1="209.83" y1="-1.06" x2="311.4" y2="48.33" xlink:href="#linear-gradient"/><linearGradient id="linear-gradient-17" x1="211.95" y1="-5.42" x2="313.52" y2="43.97" xlink:href="#linear-gradient"/><linearGradient id="linear-gradient-18" x1="187.59" y1="44.69" x2="289.15" y2="94.08" xlink:href="#linear-gradient"/><linearGradient id="linear-gradient-19" x1="189.72" y1="40.31" x2="291.28" y2="89.7" xlink:href="#linear-gradient"/><linearGradient id="linear-gradient-20" x1="192.67" y1="34.25" x2="294.23" y2="83.64" xlink:href="#linear-gradient"/><linearGradient id="linear-gradient-21" x1="195.59" y1="28.24" x2="297.15" y2="77.63" xlink:href="#linear-gradient"/><linearGradient id="linear-gradient-22" x1="197.82" y1="23.65" x2="299.38" y2="73.04" xlink:href="#linear-gradient"/><linearGradient id="linear-gradient-23" x1="199.38" y1="20.43" x2="300.95" y2="69.82" xlink:href="#linear-gradient"/><linearGradient id="linear-gradient-24" x1="202.09" y1="14.87" x2="303.65" y2="64.26" xlink:href="#linear-gradient"/><linearGradient id="linear-gradient-25" x1="203.91" y1="11.13" x2="305.47" y2="60.53" xlink:href="#linear-gradient"/><linearGradient id="linear-gradient-26" x1="142.25" y1="40.83" x2="156.59" y2="40.83" xlink:href="#linear-gradient"/><linearGradient id="linear-gradient-27" x1="198.61" y1="31.38" x2="210.73" y2="13.46" gradientTransform="matrix(-1, 0, 0, 1, 231.6, 0)" xlink:href="#linear-gradient"/><linearGradient id="linear-gradient-28" x1="39.11" y1="-40.47" x2="45.59" y2="-50.06" gradientTransform="translate(37.33 74.95) rotate(-31.31)" gradientUnits="userSpaceOnUse"><stop offset="0" stop-color="#00a94f"/><stop offset="1" stop-color="#f89521"/></linearGradient><linearGradient id="linear-gradient-29" x1="34.94" y1="40.34" x2="84.17" y2="40.34" gradientUnits="userSpaceOnUse"><stop offset="0" stop-color="#f15b2b"/><stop offset="1" stop-color="#f89521"/></linearGradient><linearGradient id="linear-gradient-30" x1="84.38" y1="40.34" x2="122.59" y2="40.34" xlink:href="#linear-gradient-29"/><linearGradient id="linear-gradient-31" x1="124.47" y1="40.34" x2="170.7" y2="40.34" xlink:href="#linear-gradient-29"/><linearGradient id="linear-gradient-32" x1="173.65" y1="40.27" x2="200.63" y2="40.27" gradientTransform="matrix(1, 0, 0, 1, 0, 0)" xlink:href="#linear-gradient-28"/></defs><g id="Layer_2" data-name="Layer 2"><g id="Layer_1-2" data-name="Layer 1"><path class="cls-1" d="M217.23,18.87a4.48,4.48,0,0,0-2.58-.77,4.59,4.59,0,0,0-4.59,4.59,4.59,4.59,0,0,0,7.84,3.24,4.34,4.34,0,0,0,1.24-2.22h-4.49v-2h6.63v1.52A6.63,6.63,0,1,1,210,18a6.42,6.42,0,0,1,4.69-1.94h0A6.36,6.36,0,0,1,219.35,18a3.07,3.07,0,0,1,.25.26l-1.44,1.44a3.07,3.07,0,0,0-.25-.26A4.47,4.47,0,0,0,217.23,18.87Z"/><path class="cls-2" d="M222.77,16.57h2v10.2h5.1v2h-7.14Z"/><path class="cls-3" d="M236,29.32a6.62,6.62,0,0,1-6.63-6.63,6.63,6.63,0,1,1,11.32,4.69A6.4,6.4,0,0,1,236,29.32Zm0-2a4.6,4.6,0,0,0,3.25-7.84,4.6,4.6,0,0,0-6.5,6.5A4.45,4.45,0,0,0,236,27.28Z"/><path class="cls-4" d="M250.61,18.1A4.59,4.59,0,0,0,246,22.69a4.59,4.59,0,0,0,4.6,4.59,4.37,4.37,0,0,0,3-1.1L255,27.63a6.33,6.33,0,0,1-4.42,1.69A6.62,6.62,0,0,1,244,22.69a6.64,6.64,0,0,1,6.63-6.63h0A6.38,6.38,0,0,1,255.31,18l.25.26-1.45,1.44-.24-.26a4.47,4.47,0,0,0-3.25-1.34Z"/><path class="cls-5" d="M258.64,26.77l-.93,2h-2.29l6.12-13.26,6.12,13.26h-2.29l-.93-2Zm4.87-2-2-4.34-2,4.34Z"/><path class="cls-6" d="M268.4,16.57h2v10.2h5.1v2H268.4Z"/><path class="cls-7" d="M212.63,39.1l.44.24a12.55,12.55,0,0,1,1.75,1.11A4.34,4.34,0,0,1,216,41.78a2.83,2.83,0,0,1,.34,1.41c0,.11,0,.23,0,.34a3.31,3.31,0,0,1-.78,1.91,3.88,3.88,0,0,1-1.75,1.14,5.26,5.26,0,0,1-1.75.28l-.63,0a5.25,5.25,0,0,1-2.66-.91,3.88,3.88,0,0,1-.74-.65l1.25-1.67a3.07,3.07,0,0,0,.72.67,3.63,3.63,0,0,0,1.64.55l.4,0a3.21,3.21,0,0,0,1.51-.36,1.31,1.31,0,0,0,.76-1.09.49.49,0,0,0,0-.12,1.3,1.3,0,0,0-.24-.74,3.26,3.26,0,0,0-.66-.7,9.13,9.13,0,0,0-1-.66l-1-.53-.13-.08q-.54-.29-1.08-.63a5.08,5.08,0,0,1-1-.77,3,3,0,0,1-.65-1,2.4,2.4,0,0,1-.19-1c0-.11,0-.21,0-.32a3.21,3.21,0,0,1,.72-1.79,3.67,3.67,0,0,1,1.6-1.11,4.41,4.41,0,0,1,1.63-.29l.49,0a4.29,4.29,0,0,1,2.29.82,3.64,3.64,0,0,1,.5.46l-1.2,1.61a2.67,2.67,0,0,0-.48-.47,2.71,2.71,0,0,0-1.27-.46h-.28a2.43,2.43,0,0,0-1.3.38,1.36,1.36,0,0,0-.67,1.07.41.41,0,0,0,0,.12,1.08,1.08,0,0,0,.24.67,2.58,2.58,0,0,0,.71.59c.32.19.68.39,1.1.6Z"/><path class="cls-8" d="M217.59,42.31V34.15h2v8.16a2.54,2.54,0,0,0,2.55,2.55,2.53,2.53,0,0,0,2.55-2.55V34.15h2v8.16a4.59,4.59,0,0,1-9.18,0Z"/><path class="cls-9" d="M232.44,39.1l.44.24a12.55,12.55,0,0,1,1.75,1.11,4.34,4.34,0,0,1,1.18,1.33,2.83,2.83,0,0,1,.34,1.41c0,.11,0,.23,0,.34a3.31,3.31,0,0,1-.78,1.91,3.88,3.88,0,0,1-1.75,1.14,5.26,5.26,0,0,1-1.75.28c-.21,0-.41,0-.62,0a5.25,5.25,0,0,1-2.67-.91,3.88,3.88,0,0,1-.74-.65l1.25-1.67a3.07,3.07,0,0,0,.72.67,3.63,3.63,0,0,0,1.64.55l.4,0a3.21,3.21,0,0,0,1.51-.36,1.31,1.31,0,0,0,.76-1.09.49.49,0,0,0,0-.12,1.3,1.3,0,0,0-.24-.74,3.26,3.26,0,0,0-.66-.7,9.13,9.13,0,0,0-1-.66l-1-.53-.13-.08q-.54-.29-1.08-.63a5.08,5.08,0,0,1-1-.77,3,3,0,0,1-.65-1,2.4,2.4,0,0,1-.19-1c0-.11,0-.21,0-.32a3.28,3.28,0,0,1,.72-1.79,3.67,3.67,0,0,1,1.6-1.11,4.41,4.41,0,0,1,1.63-.29l.49,0a4.26,4.26,0,0,1,2.29.82,3.64,3.64,0,0,1,.5.46l-1.2,1.61a2.67,2.67,0,0,0-.48-.47,2.71,2.71,0,0,0-1.27-.46h-.28A2.4,2.4,0,0,0,231,36a1.36,1.36,0,0,0-.67,1.07.41.41,0,0,0,0,.12,1.08,1.08,0,0,0,.24.67,2.58,2.58,0,0,0,.71.59c.32.19.68.39,1.1.6Z"/><path class="cls-10" d="M241.49,36.19v10.2h-2V36.19h-3.06v-2h8.16v2Z"/><path class="cls-11" d="M245.52,44.35l-.93,2H242.3l6.12-13.26,6.12,13.26h-2.3l-.92-2Zm4.86-2-2-4.33-2,4.33Z"/><path class="cls-12" d="M257.32,46.39h-2V34.15h2Z"/><path class="cls-13" d="M262.39,38.69v7.7h-2V33.13l7.14,8.73V34.15h2V47.41Z"/><path class="cls-14" d="M273.5,44.35l-.92,2h-2.3l6.12-13.26,6.12,13.26h-2.29l-.93-2Zm4.87-2-2-4.33-2,4.33Z"/><path class="cls-15" d="M283.26,34.15h3.57a3.57,3.57,0,0,1,3.57,3.57,3.59,3.59,0,0,1-.41,1.7,3.6,3.6,0,0,1,2.45,3.4,3.47,3.47,0,0,1-1,2.53,3.43,3.43,0,0,1-2.53,1h-5.61Zm2,5.1h1.53a1.53,1.53,0,0,0,1.09-2.61,1.48,1.48,0,0,0-1.09-.45H285.3Zm3.57,2H285.3v3.06h3.57A1.53,1.53,0,0,0,290,41.74,1.48,1.48,0,0,0,288.87,41.29Z"/><path class="cls-16" d="M293.8,34.15h2v10.2H301v2H293.8Z"/><path class="cls-17" d="M309.48,34.15v2h-5.1v3.06h4.08v2h-4.08v3.06h5.1v2h-7.14V34.15Z"/><path class="cls-18" d="M214.64,53.27a4.4,4.4,0,0,0-3.23,1.33,4.45,4.45,0,0,0-1.35,3.26,4.59,4.59,0,0,0,7.57,3.49l1.45,1.45a6.63,6.63,0,1,1-4.44-11.57h0a6.42,6.42,0,0,1,4.7,1.93l.24.27-1.44,1.44-.25-.27a4.43,4.43,0,0,0-3.25-1.33Z"/><path class="cls-19" d="M225.8,64.49a6.62,6.62,0,1,1,4.69-1.94A6.4,6.4,0,0,1,225.8,64.49Zm0-2a4.59,4.59,0,1,0-3.25-1.35A4.42,4.42,0,0,0,225.8,62.45Z"/><path class="cls-20" d="M236.09,58.2V64h-2V50.72l6.12,10.2,6.12-10.2V64h-2V58.2L240.17,65Z"/><path class="cls-21" d="M251.36,58.2V64h-2V50.72l6.12,10.2,6.12-10.2V64h-2V58.2L255.44,65Z"/><path class="cls-22" d="M271.74,51.74v2h-5.1v3.06h4.08v2h-4.08v3.06h5.1v2H264.6V51.74Z"/><path class="cls-23" d="M277.07,60.92h-1.53V64h-2V51.74h4.59a4.59,4.59,0,0,1,3.25,7.83,4.51,4.51,0,0,1-1.9,1.16L282.68,64h-2.55Zm-1.53-7.14v5.1h2.55a2.54,2.54,0,0,0,2.55-2.55,2.49,2.49,0,0,0-.74-1.81,2.45,2.45,0,0,0-1.81-.74Z"/><path class="cls-24" d="M290.47,53.27a4.4,4.4,0,0,0-3.23,1.33,4.45,4.45,0,0,0-1.35,3.26,4.59,4.59,0,0,0,7.57,3.49l1.45,1.45a6.63,6.63,0,1,1-4.44-11.57h0a6.42,6.42,0,0,1,4.7,1.93l.24.27L294,54.87l-.25-.27a4.43,4.43,0,0,0-3.25-1.33Z"/><path class="cls-25" d="M303.55,51.74v2h-5.1v3.06h4.08v2h-4.08v3.06h5.1v2h-7.14V51.74Z"/><path class="cls-26" d="M149.42,30.28a7.15,7.15,0,0,0-7.17,7.12c0,2,2,5.62,2,5.62l4.93,8.36,5.14-8.27s2.29-3.44,2.29-5.71A7.15,7.15,0,0,0,149.42,30.28Zm0,11a4.11,4.11,0,1,1,4.11-4.1A4.09,4.09,0,0,1,149.39,41.32Z"/><path class="cls-27" d="M42.32,24C41.81,20.05,39.51,11.51,29,9,15.34,5.76,0,7.54,0,7.54s7.93-.07,15.19,10.08c6.43,9,14.19,10.94,20.88,11.69C45,30,42.32,24,42.32,24ZM19.46,12.78a33.43,33.43,0,0,1,19.21,14c-2.85-2.52-5.73-5-8.81-7.26C27,17.4,23.93,15.61,21,13.73Z"/><path class="cls-28" d="M47.73,20c2.85-2.19,5.85-5.24,6.29-11.13C54.51,2.17,58.15,0,58.15,0A52,52,0,0,0,45.3,8.74a9,9,0,0,0-1.91,10.5S43.85,22.73,47.73,20ZM50.3,8.64c-.83,1.69-1.73,3.36-2.47,5.1s-1.4,3.82-2,5.76a17.86,17.86,0,0,1,4.9-11.7Z"/><path class="cls-29" d="M84.1,38.25c0,.69.07,1.39.07,2.09a25.67,25.67,0,0,1-1.85,9.72A24.68,24.68,0,0,1,77.23,58,23.77,23.77,0,0,1,59.9,65.3a24.54,24.54,0,0,1-9.73-1.95A24.87,24.87,0,0,1,36.89,50.06a25.23,25.23,0,0,1,0-19.45A24.81,24.81,0,0,1,50.17,17.33a24.55,24.55,0,0,1,9.73-2,23.87,23.87,0,0,1,12.31,3.25,25.62,25.62,0,0,1,8.89,8.54l-8.16,5.23a15.17,15.17,0,0,0-5.33-6,13.75,13.75,0,0,0-7.71-2.27A13.53,13.53,0,0,0,54,25.38a15.26,15.26,0,0,0-4.74,3.49,17,17,0,0,0-4.39,11.47A17,17,0,0,0,49.3,51.81,15.58,15.58,0,0,0,54,55.3a13.53,13.53,0,0,0,5.86,1.29,13.28,13.28,0,0,0,4.74-.84,12.78,12.78,0,0,0,4-2.37,16.48,16.48,0,0,0,3-3.59,15.79,15.79,0,0,0,1.92-4.57H60.32l-4.46-9.07h28Q84,37.2,84.1,38.25Z"/><path class="cls-30" d="M107.18,36.22a58,58,0,0,1,6.17,2A19.46,19.46,0,0,1,118.23,41a11.54,11.54,0,0,1,3.21,3.83,11.39,11.39,0,0,1,1.15,5.3v.21a13.79,13.79,0,0,1-1.36,6.14,14.3,14.3,0,0,1-3.76,4.77,17.4,17.4,0,0,1-5.65,3.07,22.27,22.27,0,0,1-7.08,1.08,26.56,26.56,0,0,1-6.8-.86,27.25,27.25,0,0,1-5.89-2.29A23.34,23.34,0,0,1,87.41,59a14.28,14.28,0,0,1-3-3.75l8.16-5.16a29.61,29.61,0,0,0,2.65,2.62,16.3,16.3,0,0,0,2.79,2,13,13,0,0,0,3.2,1.22,16.37,16.37,0,0,0,3.84.42A13.71,13.71,0,0,0,107.7,56a8.63,8.63,0,0,0,2.48-.91A5.65,5.65,0,0,0,112,53.55a3.8,3.8,0,0,0,.7-2.34,3.89,3.89,0,0,0-.49-1.89,5.71,5.71,0,0,0-1.67-1.78,14.74,14.74,0,0,0-3.21-1.68,42.19,42.19,0,0,0-5.09-1.57,52.92,52.92,0,0,1-6.76-2.06,19.87,19.87,0,0,1-5.1-2.79,11.16,11.16,0,0,1-3.2-3.95A12.27,12.27,0,0,1,86.05,30a14.42,14.42,0,0,1,1.29-6.18,13,13,0,0,1,3.59-4.64,16.44,16.44,0,0,1,5.41-2.9,21.17,21.17,0,0,1,6.66-1,24.79,24.79,0,0,1,6.69.84,25.7,25.7,0,0,1,5.37,2.13,20.5,20.5,0,0,1,4.15,2.93,26.39,26.39,0,0,1,3,3.17l-8,5.16a19.88,19.88,0,0,0-5.68-4,14,14,0,0,0-5.61-1.15,9.5,9.5,0,0,0-3.11.45,7.39,7.39,0,0,0-2.12,1.12,4.79,4.79,0,0,0-1.29,1.5,3.29,3.29,0,0,0-.46,1.6,4,4,0,0,0,.74,2.41,6.7,6.7,0,0,0,2.16,1.84,18.46,18.46,0,0,0,3.55,1.54C103.75,35.29,105.37,35.76,107.18,36.22Z"/><path class="cls-31" d="M170.7,53.52a25.2,25.2,0,0,1-3.93,4.81,26.71,26.71,0,0,1-5,3.73,24,24,0,0,1-5.86,2.4,24.93,24.93,0,0,1-6.48.84,24.51,24.51,0,0,1-9.73-1.95,24.79,24.79,0,0,1-13.28-13.29,25.11,25.11,0,0,1,0-19.45,24.72,24.72,0,0,1,13.28-13.28,24.51,24.51,0,0,1,9.73-2,24.93,24.93,0,0,1,6.48.84,24,24,0,0,1,5.86,2.41,26.28,26.28,0,0,1,5,3.73,24.9,24.9,0,0,1,3.93,4.81l-8.15,5.23a16,16,0,0,0-5.37-6,13.71,13.71,0,0,0-7.74-2.27,13.32,13.32,0,0,0-5.79,1.29,15.26,15.26,0,0,0-4.74,3.49A16.54,16.54,0,0,0,135.7,34a17.1,17.1,0,0,0,3.21,17.78,15.58,15.58,0,0,0,4.74,3.49,13.32,13.32,0,0,0,5.79,1.29,13.71,13.71,0,0,0,7.74-2.27,16,16,0,0,0,5.37-6Z"/><polygon class="cls-32" points="178.34 65.37 173.65 65.37 196 15.17 200.63 15.17 178.34 65.37"/></g></g></svg>