<?xml version="1.0" encoding="utf-8"?>
<!-- Generator: Adobe Illustrator 26.3.1, SVG Export Plug-In . SVG Version: 6.00 Build 0)  -->
<svg version="1.1" id="Layer_1" xmlns="http://www.w3.org/2000/svg" xmlns:xlink="http://www.w3.org/1999/xlink" x="0px" y="0px"
	 viewBox="0 0 512 512" style="enable-background:new 0 0 512 512;" xml:space="preserve">
<style type="text/css">
	.st0{fill:#F58220;}
</style>
<path class="st0" d="M503.9,170.4v64.9H49v-77.9h441.9C498.1,157.4,503.9,163.2,503.9,170.4L503.9,170.4z M32.8,164.1H43v-6.7H32.8
	V164.1z M49,376.3h454.9V264.4H49L49,376.3z M173,382.3V439h11.1v-56.8H173z M17.5,151.3c-5.2,0-9.5,4.2-9.5,9.5
	c0,5.2,4.2,9.5,9.5,9.5s9.5-4.2,9.5-9.5c0,0,0,0,0,0C27,155.5,22.7,151.3,17.5,151.3z M368.8,382.3V439h11.1v-56.8H368.8z M49,258.4
	h454.9v-17.1H49V258.4z M235.6,33.5v-7.8h-8.2v7.8c1.4,0,2.7-0.1,4.1-0.1S234.2,33.4,235.6,33.5z M398.8,32.2h-28.1
	c-0.8,3.7-2.5,11.4-4.2,19.5H403C401.3,43.6,399.6,35.9,398.8,32.2z M136.4,151.4h190.1c1.4,0,2.5-1.1,2.5-2.4
	c0-1.4-1.1-2.5-2.4-2.5c0,0-0.1,0-0.1,0H136.4c-1.4,0-2.5,1.1-2.5,2.4C133.9,150.3,135,151.4,136.4,151.4
	C136.4,151.4,136.4,151.4,136.4,151.4z M320.5,128.4c-0.2-49.2-40.2-88.9-89.3-88.7c-48.9,0.2-88.6,39.8-88.7,88.7v12.1h178.1V128.4
	z M377.3,151.4h14.9l-1.6-4.9h-11.4L377.3,151.4z M384.7,98.6c6.7,0,13-2.8,17.6-7.7c3.7-3.9,5.5-9.2,5.1-14.6
	c-0.4-3.6-1.4-9.9-3.1-18.6h-39c-1.7,8.7-2.8,14.9-3.1,18.6c-0.5,5.4,1.4,10.7,5.1,14.6C371.7,95.7,378.1,98.5,384.7,98.6
	L384.7,98.6z M456.1,438.5c-6.7,0-12.1,5.4-12.1,12.1c0,6.7,5.4,12.1,12.1,12.1c6.7,0,12.1-5.4,12.1-12.1
	C468.2,444,462.8,438.5,456.1,438.5z M96.9,438.5c-6.7,0-12.1,5.4-12.1,12.1c0,6.7,5.4,12.1,12.1,12.1s12.1-5.4,12.1-12.1
	C109,444,103.6,438.5,96.9,438.5L96.9,438.5z M147.4,453.5h258.3V445H147.4L147.4,453.5z M132.6,450.7c0,19.7-16,35.7-35.7,35.7
	c-19.7,0-35.7-16-35.7-35.7c0-19.7,16-35.7,35.7-35.7C116.6,415,132.5,431,132.6,450.7L132.6,450.7z M115,450.7
	c0-10-8.1-18.1-18.1-18.1c-10,0-18.1,8.1-18.1,18.1c0,10,8.1,18.1,18.1,18.1C106.9,468.8,115,460.7,115,450.7L115,450.7z
	 M491.8,450.7c0,19.7-16,35.7-35.7,35.7s-35.7-16-35.7-35.7s16-35.7,35.7-35.7c0,0,0,0,0,0C475.8,415,491.7,431,491.8,450.7
	L491.8,450.7z M474.2,450.7c0-10-8.1-18.1-18.1-18.1c-10,0-18.1,8.1-18.1,18.1c0,10,8.1,18.1,18.1,18.1
	C466.1,468.8,474.2,460.7,474.2,450.7L474.2,450.7z M381.7,105v33.8h6V105H381.7z"/>
</svg>
