<svg xmlns="http://www.w3.org/2000/svg" viewBox="0 0 1474.14 1544.62"><defs><style>.cls-1{fill:#001359;}</style></defs><g id="Layer_2" data-name="Layer 2"><g id="Layer_1-2" data-name="Layer 1"><path class="cls-1" d="M1025.84,636.84a24.39,24.39,0,0,0-5.59,15.15,25.25,25.25,0,0,0-6.94-.24,8.51,8.51,0,0,0-5.88,3.36c-1.55,2.31-1.4,5.37-.7,8.06a23.06,23.06,0,0,0,19.58,16.62c4,.39,8.76-.07,11.43,3,1.58,1.79,1.93,4.32,2.21,6.68.79,6.65,1.41,14-2.45,19.47-1.71,2.43-4.19,4.27-5.74,6.81s-1.77,6.35.67,8.06c1.83,1.28,4.29.83,6.52.71s5,.51,5.59,2.66c.41,1.42-.32,2.9-1.06,4.18s-1.54,2.69-1.27,4.14,2.26,2.55,3.27,1.46c3.33,0,5.79,4.86,4.08,7.72-1.15,1.9-3.52,2.86-4.53,4.83-.92,1.82-.47,4,0,6l4.41,18.38c.57,2.35,1.13,4.69,1.66,7,1.35,6.06,2.46,12.16,3.58,18.26l3.13,17.18c.54,3,1,6.4-.8,8.86-1.57,2.15-4.38,2.89-7,3.5-4,.93-8.15,1.85-12.08.72s-7.34-5.09-6.37-9a18.37,18.37,0,0,1-1.54,6.36,6.21,6.21,0,0,1-5.13,3.6c-2.19,0-4.35-2.1-3.85-4.24l-17-1c-1.87-.11-4-.34-5.13-1.83-1.65-2.14-.2-5.2,1.25-7.48s2.86-5.36,1.17-7.47c-2.24,2-3.82,4.62-5.73,6.93a31.48,31.48,0,0,1-21.15,11.19c-8.59.79-16.84,5.83-22.35,12.47s-7.67,16.48-3.69,24.14c1.4,2.69,3.47,5,4.67,7.82s1.25,6.44-1,8.47c-2.59,2.33-6.86,1.47-9.76,3.4-2.23,1.49-3.14,4.25-4.1,6.75a52.23,52.23,0,0,1-9.07,15.17c-13.07,15.23-33.47,21.54-52.74,27.15a9.24,9.24,0,0,1-4.94.5c-1.62-.43-3-2.14-2.48-3.73.72-2.16,4-2.26,5.16-4.24,1-1.72-.37-4-2.23-4.7s-3.94-.14-5.76.63a9,9,0,0,0-4.56,3.53c-1,1.7-.79,4.17.82,5.28s4.4-.18,4.14-2.12c2.07,1.91,1.61,5.49-.22,7.63s-4.58,3.21-7.21,4.19c0,0-9.4,8.09-20.21,23.79s-38.12,45.25-44.23,47.09-13.46,6.52-16.72,12.64-28.33,22.22-32.21,23.44-30,19.36-31,24.87,2.44,6.93,4.48,11.41,1,11-11.62,17.13-18.95,10.19-23.44,9-15.7-4.69-17.94-1-15.29,37.1-23.44,33.63-.61-10.19-10.4-7.54-32.21,10.4-28.33,40.77,11.82,20.18,8.56,33.43-6.12,16.11-1.43,31.6-3.67,8.36-4.69,9.37-3.87,4.08.41,3.27,11.83,5.3,12.64,11.62.2,22.83-7.13,36.89-22.94,46.48-22.94,56.88,0,29.35,3.37,35.16,6.42,38.53-.92,38.53-19.26-8.26-24.16-2.75-12.53,23.23-17.12,28.74-5.5,18.65,2.75,18.65,15.6,3.06,15.29,8.26-16.21-3.06-28.74,1.22-27.52,4-29,19.88-14.37,35.77-27.83,38.83-44.64,4.58-68.8-58.1c0,0-5.5-21.1-5.19-34.25s-19.57-46.78-20.49-56.87-11-33.94-26.91-53.2-23.54-37.92-29.35-63.91-16.51-78.28-26.91-85.92-13.76-20.49-15.6-26.61-25.68-51.06-27.21-58.4-12.23-83.17-16.21-89-3.66-11.62-5.8-21.71-6.73-13.15-3.67-16.82,6.72-8.25,6.72-10.7v-6.42s-4.58,9.48-5.81,8.87-7.34-.92-5.81-4.59-1.53-8.87-1.53-8.87,1.53-19-.61-24.15-.3-22.93,0-29.36,12.54-30.27,8.26-39.44-12.54-13.76-12.84-20.18-.62-19.88,10.39-19.27c0,0-7.34-2.14-12.84-.91s.61-9.48-.61-14.07-7-11.92-1.22-12.84,11.92-4,8.25-5.2-15.29-1.22-15.29-1.22.92,16.82-4.89,18.34-7,6.73-2.75,7.95,12.84,12.85,0,25.38-46.78,46.18-86.54,25.38S36.1,786.68,43.14,782.09s12.23-5.81,14.37-.92,3.05,8,5.19,5.51,6.43-11.93,14.68-10.09,8.87,5.5,12.84,0,7.65-1.84,12.85-4.28,12.23-17.43,7.64-17.43-13.45-.31-15.29,3.36-29.35,14.07-56.87-8.56-26.3-26.6-26.3-26.6-12.84,0-12.23-3.37,3.36-20.18,15.6-22.93,14.37,4.89,14.06-6.11,3.06-12.85,10.7-11.32,34.56-2.14,36.08-1.53,11.93,11.93,20.19,6.73,28.74-18,28.74-15.59-.31,15,6.42,12.84,18-9.18,11.62-24.16-15.9-38.83-17.12-43.42-7.65-4-15.6-5.2-13.76-15.9-9.78-27.21,4.89-21.4-2.45-21.4-28.74-.62-32.11-10.09,10.4-25.38,10.4-25.38,23.54-25.38,25.07-32.72,17.13-18.65,25.69-8.87,8.25,17.74,13.76,15.6,24.77-10.4,35.16-10.4,22.94-19.57,26.3-26.91-4.89-14.37,3.06-17.73,22.62-9.79,29.66-14.38,8.56-18.34,13.76-22,5.19-26.3,12.53-27.52,30.28-7.65,28.13-14.68-8.56-10.7,1.53-17.12,12.54-11.62,13.15-13.76,22.63-9.48,20.49-13.15-6.42-11-2.45-18,3.06-9.48-.3-13.45-2.45-12.85,3.05-15.6,38.84-13.45,34.56-16.51-6.12-7-15-7.95-17.43-2.75-17.12-8.56,4.89-7.65-1.83-8-12.24-3.06-17.74-3.67-8.56-9.48-19-9.48-17.12-6.73-15.9-11.93,3.06-42.8-3.67-54.12-8.25-13.76-4-16.2,16.51-10.09,19.57-15,8.87-3.67,10.39-6.11,6.43-8.26,1.53-10.09-19.26-4.89-18.34-8.56,6.11-6.73,4.28-9.79-15.29-5.5-18.65-5.2-14.68-12.23-14.68-13.45-18.65.3-21.71-.92-7.95,1.84-7-3.36.3-20.79,4.28-22.32,20.48-12.23,21.09-15.9.62-9.18,5.2-8.87,36.08,1.53,34.56-1.84-10.1-7.33-2.45-7.33,10.4,4,12.84,3.36,10.09-4.28,12.54-7S322.31,5.73,326,3,340-1.3,340,1.45s32.11,1.84,31.5,6.42-4,8.87-.31,8.56,18-5.19,19.57,1.53S410.37,39.06,418,40.59s23.85,2.45,22.33,8.56-1.84,14.37,10.09,15.9,19.57,6.12,21.71,8.87S478,84,479.78,83.7s20.49-1.83,24.46-6.72,16.51-7,19.57-10.4,7.34-10.09,13.76-7.64,17.12-1.53,18-1.84,15.9-3.36,22.63,6.12,8,12.23,11.31,11.62,8.26,1.22,8.56,3.36,2.14,13.15,4.29,8.26,16.81-7.34,17.42-1.53-11.61,22-11.31,25.38,3.06,15-3.36,18.34-3.67,8.87-8.56,5.81-10.09,15.9-15.29,11.93-1.53,11.62-3.37,14.37S570,169.93,566,169s-19-4.59-16.21,1.83,7.65,16.51,2.14,16.51-11,1.22-5.5,6.42,26.3,11.32,26,16.21-2.75,11.31,0,12.54,6.73,15.9,3.06,19.26-15.29,6.42-15.29,6.42-18.65,10.7-22.32,4.28,3.36-6.42-4-7.64-15.59-.92-12.23,6.11,13.76,21.41,15.6,22-.31,8.56.91,11,9.79,4.58,5.2,8.86-10.09,15.6-4.28,12.23,11.62-10.39,15.29-6.42,16.82,24.47,27.52,22.63,14.06,5.5,21.4,9.17,11.32,3.37,10.09,7.65-6.11,4,.31,7.64,36.39,10.7,36.69,16.51-.3,8.57-4.28,11.32-26.6,19.57-27.21,22.93,2.14,11.93-1.53,12.23S614.63,424,613.1,425s-8,11-7.34,12.53,11.62,10.1,16.82,8.57,6.42-2.14,10.7,1.22,14.68,12.54,18.34,11.62,11.62,15,16.52,15.29,15.9,13.76,22.62,13.45,15.9-1.83,19.27,1.53,6.11,7,15.59,5.2,16.21.3,15.9,8.25,20.8,17.74,23.85,11,17.43-7.95,19.27-2.75,5.19,6.73,7.64,1.53,21.41-4.28,23.24,0,14.68,3.67,16.51,5.5,2.45,16.21,4,17.13,8.56,0,12.53,2.14,9.48,8.71,13.61,9.93,10.09,1.23,10.24-.61,15-4.74,15-1.22-2.3,8.41,1.53,9.17,26.9-.15,30,1.68,4.43,7.34,12.39,7.34,10.24,3.21,10.85-.15,8.56-7.64,11.47-5,.91,4.58,7,6.11,27.37,3.67,28.59.92,5.2.3,7.64.76,3.52,1.84,3.06-2.9,2.75-8.72,4.74-9.33-.31-10.85-5-14.83-7.65-7.49-4.74-11.16,10.55-22.93,8.4-29.81-.91-12.84,1.53-13,4.28,1.23,7.19-2.14,8.71-1.53,11-2.9,19.72-4.28,20.64,4,2.14,19.72-1.07,21.41a5.22,5.22,0,0,0-.16,9c3.67,2.44,5.2,6.57,2.3,9.17s-5.35,7.34-1.84,10.7,12.39,8,15.29,9.63,11.62-.61,13.91.31,22.33,7.95,26,5.35,8.26-5.2,18.2-5.5,4.74,2.9,14.37,3.05,31.65,3.22,33-.45,9.94-7.19,12.23-3.83,28.59,3.52,25.54-1.83-6.88-8-5.05-10.24,4.74-11.17,2.14-11.62-12.54-1.38-17-4.59-6.11-11.93-2.14-14.22,7.34-7.95,11.62-7.49,13.3,2.14,19.57.61,9.78-4.28,13.45-5,10.25-.62,6.88-3.37-3.67-8.71,3.52-10.85,20.33-7.49,20.64-13.61.15-13.3,11.31-13.61,33.64-7.79,38.68-17.88,17.28-10.25,18.66-13.15,11.92-7.19,14.52-3.67,5.2,10.24,9.33,10.09,6-.46,7.33,1.83,14.53,4,14.68.92,17.58-17.89,23.7-18.35,15.59-4,17.28-.15-2.76,7.8,2,7.95,11,0,9.48,4.28-14.83,12.54-13,13.3,13.14-9.32,15.44-7.79,1.53,7.79,3.67,8,.3,4.74,2.6,6,5,.61,1.68,4.74-15,18.5-11.16,18.65,3.06-4.59,7-4,9.78-.92,10.86,1.83,13.91,6.12,18.95,5.2,11.47,10.39,12.85,13.61,5.35,7.49,1.68,10.54-19.11,13.76-22,15-3.06,2.44-1.37,6.72,11.92,17.28,11.46,20.64-3.67,4.9-7.18,4.74-2.45-3.05-6.12-2.14-1.53-1.07-4.89-4.74-6.88-12.38-8.87-9.32-10.24,5.2-12.69,4.58-13.3.77-15.29,4.13-18.19,17.89-23.24,20.8-25.53,12.68-25.53,17.12,1.07,14.52,2.6,18.34,4,9.48.31,10.71-6.88.46-5,3.67,1.68,5.81-2,9.32-21.09,20.64-20,23.24,5.81-.46,6.88,4.28-3.37,19.88-13.15,30.58-13.3,39.14-15.29,40.67-13.15,3.21-13.61.15-8.25-6.42-11.92-5.2-14.22-1.53-14.22-1.53,2.44,8.56,2.75,10.4,3.36,8.26,1.83,11.47-1.37,26.29-4,27.82-5.5,7.65-7.34,4.59-5.81,11.46-6.88,9,1.22,15.44,3.67,15.29,3.67,13.3-1.07,15.74-4.89,6.58-6,10.55-1.23,4.74-7.65,3.37-7.79-8.11-9.48-5.66-8.71,9.33-10.7,5,3.21-29.21-.61-30.73a7.93,7.93,0,0,1-5-8.26c.45-2.91-9-14.53-9-22.48s2.29-20.48-.46-22-4-1.84-2.76-5.66-7.64-4.58-7.49-.91,2,11.61-.91,11.46-7.95,3.82-7.34,8.41,10.09,12.38-3.52,16.21-16.82,2.6-16.21-2.45-2.14-9.63-2.9-5.81-1.83,6.73-5.5.46-4.74-6.42-5.2-11.93-3.82-7-3.82-11.16-1.69-20.79,1.68-23.24,11.92-12.23,15.13-12.69,18.5-.3,19.27-3.36,8.41-10.85,10.7-12.84,5.5-3.06,4.89-6.42-.3-10.55,1.22-10.7-4.12-4.74,2-4.74,12.69.3,10.09-1.23-7.18-10.7-17.73-9.78-98.16,5.65-112.22-6.73c0,0-4.28-1.53-3.21-10.4s1.83-28.43,0-31.18-5.81-9.33-7-5.05,2.44,9.48-.46,10.7-11.78,5.2-17.43-3.36-7-11.93-12.08-12.38-17.58,1.83-17.58-.77,0-5.35-2.14-6.11-5.35-9.33-8.41-9.79c0,0,5.66,7.49,3.51,8.41s-8.25,12.54-10.54,11.31-8.11,3.67-7.34,5.81l.76,2.14v7.19a1.09,1.09,0,0,0-1.22,1.22c0,1.38,5.35,1.53,7,1.53h1.68s9.18,9.33,10.71,11.47,6.87,6.11,11.77,3.82,1.83,3.36,4.28,5.35,10.09,3.52,9.94,6.57-.77,8.11-4.13,8.11-16.21,3.06-19.27,2.9A4.16,4.16,0,0,1,1025.84,636.84Z"/></g></g></svg>