<svg xmlns="http://www.w3.org/2000/svg" xmlns:xlink="http://www.w3.org/1999/xlink" viewBox="0 0 568.49 522.62"><defs><style>.cls-1{isolation:isolate;}.cls-2{fill:url(#linear-gradient);}.cls-3{fill:url(#linear-gradient-2);}.cls-4{fill:url(#linear-gradient-3);}.cls-5{fill:url(#linear-gradient-4);}.cls-6{fill:url(#linear-gradient-5);}.cls-7{fill:#818386;}.cls-8{fill:url(#linear-gradient-7);}.cls-9{fill:url(#linear-gradient-8);}.cls-10{fill:url(#linear-gradient-9);}.cls-11{fill:url(#linear-gradient-10);}.cls-12{fill:url(#linear-gradient-11);}.cls-13{fill:#2b424c;}.cls-14{fill:#1d323b;}.cls-15{fill:url(#linear-gradient-12);}.cls-16{fill:url(#linear-gradient-13);}.cls-17{fill:url(#linear-gradient-14);}.cls-18{fill:url(#linear-gradient-15);}.cls-19{fill:url(#linear-gradient-16);}.cls-20{fill:url(#linear-gradient-17);}.cls-21{fill:url(#linear-gradient-18);}.cls-22{fill:url(#linear-gradient-19);}.cls-23{fill:url(#linear-gradient-20);}.cls-24,.cls-54{fill:#231f20;}.cls-24,.cls-53{mix-blend-mode:overlay;opacity:0.3;}.cls-25{fill:url(#linear-gradient-21);}.cls-26{fill:url(#linear-gradient-22);}.cls-27{fill:url(#linear-gradient-23);}.cls-28{fill:url(#linear-gradient-24);}.cls-29{fill:url(#linear-gradient-25);}.cls-30{fill:url(#linear-gradient-26);}.cls-31{fill:url(#linear-gradient-27);}.cls-32{fill:url(#linear-gradient-28);}.cls-33{fill:url(#linear-gradient-29);}.cls-34{fill:url(#linear-gradient-30);}.cls-35{fill:url(#linear-gradient-31);}.cls-36{fill:url(#linear-gradient-32);}.cls-37{fill:url(#linear-gradient-33);}.cls-38{fill:url(#linear-gradient-34);}.cls-39{fill:url(#linear-gradient-35);}.cls-40{fill:url(#linear-gradient-36);}.cls-41{fill:url(#linear-gradient-37);}.cls-42{fill:url(#linear-gradient-38);}.cls-43{fill:url(#linear-gradient-39);}.cls-44{fill:url(#linear-gradient-40);}.cls-45{fill:url(#linear-gradient-41);}.cls-46{fill:url(#linear-gradient-42);}.cls-47{fill:url(#linear-gradient-43);}.cls-48{fill:url(#linear-gradient-44);}.cls-49{fill:url(#linear-gradient-45);}.cls-50{fill:url(#linear-gradient-46);}.cls-51{fill:url(#linear-gradient-47);}.cls-52{fill:url(#linear-gradient-48);}.cls-55{fill:url(#linear-gradient-49);}.cls-56{fill:url(#linear-gradient-50);}.cls-57{fill:url(#linear-gradient-51);}</style><linearGradient id="linear-gradient" x1="284.25" y1="466.43" x2="284.25" y2="504.45" gradientUnits="userSpaceOnUse"><stop offset="0" stop-color="#3a5560"/><stop offset="0.29" stop-color="#344e59"/><stop offset="0.73" stop-color="#243c45"/><stop offset="1" stop-color="#172d35"/></linearGradient><linearGradient id="linear-gradient-2" x1="284.25" y1="496.1" x2="284.25" y2="540.81" gradientUnits="userSpaceOnUse"><stop offset="0" stop-color="#fff"/><stop offset="0.4" stop-color="#e2e3e4"/><stop offset="1" stop-color="#afb1b4"/></linearGradient><linearGradient id="linear-gradient-3" x1="283.73" y1="227.85" x2="283.73" y2="17.79" xlink:href="#linear-gradient-2"/><linearGradient id="linear-gradient-4" x1="283.73" y1="-14.84" x2="283.73" y2="161.83" xlink:href="#linear-gradient"/><linearGradient id="linear-gradient-5" x1="283.73" y1="-10.84" x2="283.73" y2="114.58" xlink:href="#linear-gradient-2"/><linearGradient id="linear-gradient-7" x1="181.35" y1="130.21" x2="181.35" y2="214.67" xlink:href="#linear-gradient"/><linearGradient id="linear-gradient-8" x1="245.77" y1="130.21" x2="245.77" y2="214.67" xlink:href="#linear-gradient"/><linearGradient id="linear-gradient-9" x1="315.05" y1="130.21" x2="315.05" y2="214.67" xlink:href="#linear-gradient"/><linearGradient id="linear-gradient-10" x1="390.01" y1="130.21" x2="390.01" y2="214.67" xlink:href="#linear-gradient"/><linearGradient id="linear-gradient-11" x1="284.21" y1="267.84" x2="284.21" y2="470.64" xlink:href="#linear-gradient"/><linearGradient id="linear-gradient-12" x1="284.25" y1="438.43" x2="284.25" y2="473.77" xlink:href="#linear-gradient"/><linearGradient id="linear-gradient-13" x1="74.63" y1="350.85" x2="110.34" y2="350.85" xlink:href="#linear-gradient-2"/><linearGradient id="linear-gradient-14" x1="103.14" y1="350.85" x2="107.58" y2="350.85" xlink:href="#linear-gradient-2"/><linearGradient id="linear-gradient-15" x1="96.8" y1="350.85" x2="100.76" y2="350.85" xlink:href="#linear-gradient-2"/><linearGradient id="linear-gradient-16" x1="90.39" y1="350.85" x2="94.89" y2="350.85" xlink:href="#linear-gradient-2"/><linearGradient id="linear-gradient-17" x1="84.1" y1="350.85" x2="88.95" y2="350.85" xlink:href="#linear-gradient-2"/><linearGradient id="linear-gradient-18" x1="77.88" y1="350.85" x2="83.26" y2="350.85" xlink:href="#linear-gradient-2"/><linearGradient id="linear-gradient-19" x1="65.37" y1="244.46" x2="119.59" y2="244.46" gradientUnits="userSpaceOnUse"><stop offset="0" stop-color="#eceded"/><stop offset="0.36" stop-color="#c3c5c7"/><stop offset="0.52" stop-color="#afb1b4"/><stop offset="0.65" stop-color="#a8aaad"/><stop offset="0.84" stop-color="#94979a"/><stop offset="1" stop-color="#7f8285"/></linearGradient><linearGradient id="linear-gradient-20" x1="65.37" y1="456.11" x2="119.59" y2="456.11" xlink:href="#linear-gradient-19"/><linearGradient id="linear-gradient-21" x1="134.63" y1="350.85" x2="170.34" y2="350.85" xlink:href="#linear-gradient-2"/><linearGradient id="linear-gradient-22" x1="163.14" y1="350.85" x2="167.58" y2="350.85" xlink:href="#linear-gradient-2"/><linearGradient id="linear-gradient-23" x1="156.8" y1="350.85" x2="160.77" y2="350.85" xlink:href="#linear-gradient-2"/><linearGradient id="linear-gradient-24" x1="150.39" y1="350.85" x2="154.89" y2="350.85" xlink:href="#linear-gradient-2"/><linearGradient id="linear-gradient-25" x1="144.1" y1="350.85" x2="148.95" y2="350.85" xlink:href="#linear-gradient-2"/><linearGradient id="linear-gradient-26" x1="137.88" y1="350.85" x2="143.27" y2="350.85" xlink:href="#linear-gradient-2"/><linearGradient id="linear-gradient-27" x1="125.37" y1="244.46" x2="179.6" y2="244.46" xlink:href="#linear-gradient-19"/><linearGradient id="linear-gradient-28" x1="125.37" y1="456.11" x2="179.6" y2="456.11" xlink:href="#linear-gradient-19"/><linearGradient id="linear-gradient-29" x1="391.29" y1="350.85" x2="427.01" y2="350.85" xlink:href="#linear-gradient-2"/><linearGradient id="linear-gradient-30" x1="419.81" y1="350.85" x2="424.25" y2="350.85" xlink:href="#linear-gradient-2"/><linearGradient id="linear-gradient-31" x1="413.46" y1="350.85" x2="417.43" y2="350.85" xlink:href="#linear-gradient-2"/><linearGradient id="linear-gradient-32" x1="407.05" y1="350.85" x2="411.56" y2="350.85" xlink:href="#linear-gradient-2"/><linearGradient id="linear-gradient-33" x1="400.77" y1="350.85" x2="405.62" y2="350.85" xlink:href="#linear-gradient-2"/><linearGradient id="linear-gradient-34" x1="394.54" y1="350.85" x2="399.93" y2="350.85" xlink:href="#linear-gradient-2"/><linearGradient id="linear-gradient-35" x1="382.04" y1="244.46" x2="436.26" y2="244.46" xlink:href="#linear-gradient-19"/><linearGradient id="linear-gradient-36" x1="382.04" y1="456.11" x2="436.26" y2="456.11" xlink:href="#linear-gradient-19"/><linearGradient id="linear-gradient-37" x1="451.29" y1="350.85" x2="487.01" y2="350.85" xlink:href="#linear-gradient-2"/><linearGradient id="linear-gradient-38" x1="479.81" y1="350.85" x2="484.25" y2="350.85" xlink:href="#linear-gradient-2"/><linearGradient id="linear-gradient-39" x1="473.46" y1="350.85" x2="477.43" y2="350.85" xlink:href="#linear-gradient-2"/><linearGradient id="linear-gradient-40" x1="467.05" y1="350.85" x2="471.56" y2="350.85" xlink:href="#linear-gradient-2"/><linearGradient id="linear-gradient-41" x1="460.77" y1="350.85" x2="465.62" y2="350.85" xlink:href="#linear-gradient-2"/><linearGradient id="linear-gradient-42" x1="454.54" y1="350.85" x2="459.93" y2="350.85" xlink:href="#linear-gradient-2"/><linearGradient id="linear-gradient-43" x1="442.04" y1="244.46" x2="496.26" y2="244.46" xlink:href="#linear-gradient-19"/><linearGradient id="linear-gradient-44" x1="442.04" y1="456.11" x2="496.26" y2="456.11" xlink:href="#linear-gradient-19"/><linearGradient id="linear-gradient-45" x1="284.25" y1="187.85" x2="284.25" y2="246.52" xlink:href="#linear-gradient-2"/><linearGradient id="linear-gradient-46" x1="284.25" y1="460.76" x2="284.25" y2="506.78" xlink:href="#linear-gradient-2"/><linearGradient id="linear-gradient-47" x1="284.25" y1="191.35" x2="284.25" y2="240.59" xlink:href="#linear-gradient-19"/><linearGradient id="linear-gradient-48" x1="284.25" y1="192.35" x2="284.25" y2="245.9" xlink:href="#linear-gradient"/><linearGradient id="linear-gradient-49" x1="280.18" y1="291.85" x2="280.18" y2="419.99" gradientUnits="userSpaceOnUse"><stop offset="0" stop-color="#f2d76b"/><stop offset="0.53" stop-color="#efaf1e"/><stop offset="0.64" stop-color="#eea81f"/><stop offset="0.81" stop-color="#eb9421"/><stop offset="1" stop-color="#e77725"/></linearGradient><linearGradient id="linear-gradient-50" x1="209.67" y1="291.85" x2="209.67" y2="419.99" xlink:href="#linear-gradient-49"/><linearGradient id="linear-gradient-51" x1="353.75" y1="291.85" x2="353.75" y2="419.99" xlink:href="#linear-gradient-49"/></defs><g class="cls-1"><g id="Layer_2" data-name="Layer 2"><g id="Object"><polygon class="cls-2" points="568.49 500.54 0 500.54 32.51 483.96 535.83 484.11 568.49 500.54"/><rect class="cls-3" y="500.54" width="568.49" height="22.08"/><polygon class="cls-4" points="489.19 213.08 489.19 109.66 282.5 22.01 78.27 109.66 78.27 213.08 489.19 213.08"/><polygon class="cls-5" points="282.45 6.66 67.75 113.75 67.75 129.14 282.5 22.01 499.71 128.29 499.71 112.96 282.45 6.66"/><polygon class="cls-6" points="282.43 0 63.85 109.03 63.85 116.28 282.48 7.22 503.6 115.42 503.6 108.22 282.43 0"/><polygon class="cls-7" points="78.27 127.93 78.27 135.18 282.48 33.32 489.19 134.46 489.19 127.26 282.43 26.09 78.27 127.93"/><polygon class="cls-6" points="282.43 21.18 63.85 130.21 63.85 137.46 282.48 28.41 503.6 136.6 503.6 129.4 282.43 21.18"/><path class="cls-8" d="M152.83,137.46h35.69q8.92,0,13.7,4.42A14.28,14.28,0,0,1,207,152.82a13.74,13.74,0,0,1-3.41,9.38,15.14,15.14,0,0,1-6.65,4.13q6.65,1.6,9.79,5.49a15.12,15.12,0,0,1,3.13,9.79,16.82,16.82,0,0,1-2.23,8.63,16.5,16.5,0,0,1-6.1,6.06,20.24,20.24,0,0,1-7.24,2,83.64,83.64,0,0,1-8.54.84H152.83Zm19.24,24.2h8.29q4.45,0,6.21-1.54a5.6,5.6,0,0,0,1.74-4.44,5.28,5.28,0,0,0-1.74-4.21q-1.75-1.51-6.08-1.51h-8.42Zm0,24.24h9.72q4.92,0,7-1.75a5.88,5.88,0,0,0,2-4.69,5.43,5.43,0,0,0-2-4.4q-2-1.67-7-1.66h-9.68Z"/><path class="cls-9" d="M256.3,189H234.65l-3,10.19H212.18l23.19-61.7h20.8l23.18,61.7h-20Zm-4-13.34-6.82-22.18-6.74,22.18Z"/><path class="cls-10" d="M285.54,137.46h17.8l23.24,34.13V137.46h18v61.7h-18l-23.11-33.88v33.88H285.54Z"/><path class="cls-11" d="M357.3,137.46h19.07v23.31l20-23.31H421.7l-22.52,23.29,23.53,38.41H399.23l-13-25.38-9.85,10.32v15.06H357.3Z"/><rect class="cls-12" x="58.13" y="227.04" width="452.17" height="247.25"/><polygon class="cls-13" points="539.6 231.66 510.34 229.5 510.34 227.1 58.16 226.97 58.16 229.5 28.89 231.66 58.16 247.14 58.15 261.63 510.33 261.76 510.33 247.14 539.6 231.66"/><polygon class="cls-14" points="512.48 246.01 539.6 231.66 510.34 229.5 510.34 227.1 58.16 226.97 58.16 229.5 28.89 231.66 56.02 246.01 512.48 246.01"/><polygon class="cls-15" points="539.6 469.33 28.89 469.33 58.09 454.44 510.27 454.57 539.6 469.33"/><rect class="cls-16" x="74.63" y="245.4" width="35.71" height="210.9"/><rect class="cls-17" x="103.77" y="245.4" width="3.15" height="210.9"/><rect class="cls-18" x="97.3" y="245.4" width="3.16" height="210.9"/><rect class="cls-19" x="90.82" y="245.4" width="3.15" height="210.9"/><rect class="cls-20" x="84.35" y="245.4" width="3.16" height="210.9"/><rect class="cls-21" x="77.88" y="245.4" width="3.15" height="210.9"/><rect class="cls-22" x="65.37" y="237.92" width="54.22" height="13.09"/><rect class="cls-23" x="65.37" y="449.57" width="54.22" height="13.09"/><polygon class="cls-24" points="188.59 251.01 188.59 237.92 134.37 237.92 134.37 251.01 143.63 251.01 143.63 449.57 134.37 449.57 134.37 462.66 188.59 462.66 188.59 449.57 179.34 449.57 179.34 251.01 188.59 251.01"/><polygon class="cls-24" points="426.6 251.01 426.6 237.92 372.37 237.92 372.37 251.01 381.63 251.01 381.63 449.57 372.37 449.57 372.37 462.66 426.6 462.66 426.6 449.57 417.34 449.57 417.34 251.01 426.6 251.01"/><polygon class="cls-24" points="481.1 251.01 481.1 237.92 426.87 237.92 426.87 251.01 436.13 251.01 436.13 449.57 426.87 449.57 426.87 462.66 481.1 462.66 481.1 449.57 471.84 449.57 471.84 251.01 481.1 251.01"/><polygon class="cls-24" points="137.59 251.01 137.59 237.92 83.37 237.92 83.37 251.01 92.63 251.01 92.63 449.57 83.37 449.57 83.37 462.66 137.59 462.66 137.59 449.57 128.34 449.57 128.34 251.01 137.59 251.01"/><rect class="cls-25" x="134.63" y="245.4" width="35.71" height="210.9"/><rect class="cls-26" x="163.77" y="245.4" width="3.15" height="210.9"/><rect class="cls-27" x="157.3" y="245.4" width="3.16" height="210.9"/><rect class="cls-28" x="150.82" y="245.4" width="3.15" height="210.9"/><rect class="cls-29" x="144.35" y="245.4" width="3.16" height="210.9"/><rect class="cls-30" x="137.88" y="245.4" width="3.15" height="210.9"/><rect class="cls-31" x="125.37" y="237.92" width="54.22" height="13.09"/><rect class="cls-32" x="125.37" y="449.57" width="54.22" height="13.09"/><rect class="cls-33" x="391.29" y="245.4" width="35.71" height="210.9"/><rect class="cls-34" x="420.44" y="245.4" width="3.16" height="210.9"/><rect class="cls-35" x="413.96" y="245.4" width="3.16" height="210.9"/><rect class="cls-36" x="407.49" y="245.4" width="3.16" height="210.9"/><rect class="cls-37" x="401.02" y="245.4" width="3.16" height="210.9"/><rect class="cls-38" x="394.54" y="245.4" width="3.15" height="210.9"/><rect class="cls-39" x="382.04" y="237.92" width="54.22" height="13.09"/><rect class="cls-40" x="382.04" y="449.57" width="54.22" height="13.09"/><rect class="cls-41" x="451.29" y="245.4" width="35.71" height="210.9"/><rect class="cls-42" x="480.44" y="245.4" width="3.15" height="210.9"/><rect class="cls-43" x="473.96" y="245.4" width="3.16" height="210.9"/><rect class="cls-44" x="467.49" y="245.4" width="3.16" height="210.9"/><rect class="cls-45" x="461.02" y="245.4" width="3.16" height="210.9"/><rect class="cls-46" x="454.54" y="245.4" width="3.16" height="210.9"/><rect class="cls-47" x="442.04" y="237.92" width="54.22" height="13.09"/><rect class="cls-48" x="442.04" y="449.57" width="54.22" height="13.09"/><rect class="cls-49" x="28.89" y="198.54" width="510.72" height="33.12"/><rect class="cls-50" x="28.89" y="469.33" width="510.72" height="19.83"/><rect class="cls-51" x="28.89" y="204.57" width="510.72" height="21.05"/><rect class="cls-52" x="28.89" y="208.66" width="510.72" height="12.87"/><g class="cls-53"><path class="cls-54" d="M308.06,328.84,290.16,332a22.65,22.65,0,0,0-2.43-5.31,12.17,12.17,0,0,0-3.58-3v15.61q14.63,4.38,19.53,9.24,6.49,6.54,6.49,16.58a25,25,0,0,1-2.33,10.8,25.74,25.74,0,0,1-6,8.21,23.26,23.26,0,0,1-7.72,4.78,34.06,34.06,0,0,1-10,1.75v10.2h-7v-10.2a40,40,0,0,1-11.48-2.56,23.08,23.08,0,0,1-7.6-5.15,25.31,25.31,0,0,1-4.93-7.1,36,36,0,0,1-2.59-9.2L270,364.13c.58,3.56,1.35,6.14,2.33,7.72a12.53,12.53,0,0,0,4.84,4.21V357q-9.72-3-13.79-5.24a19.16,19.16,0,0,1-7-7.1,22.45,22.45,0,0,1-3-11.91,22.74,22.74,0,0,1,6-16.07q6-6.45,17.83-7.15v-5.34h7v5.34q10.77.75,16.47,5.72T308.06,328.84Zm-30.93-5.4a9,9,0,0,0-4.29,2.82,6.63,6.63,0,0,0-1.2,4,7.15,7.15,0,0,0,1.22,4.15,9.05,9.05,0,0,0,4.27,2.95Zm7,53.16a10.86,10.86,0,0,0,6-3.39,8.15,8.15,0,0,0,1.9-5.27,7.66,7.66,0,0,0-1.61-4.69c-1.07-1.42-3.16-2.75-6.28-4Z"/><path class="cls-54" d="M239.13,334l-14,2.49a17.65,17.65,0,0,0-1.9-4.15,9.62,9.62,0,0,0-2.8-2.34v12.19q11.41,3.42,15.25,7.21a17.61,17.61,0,0,1,5.07,12.95,19.48,19.48,0,0,1-1.82,8.43,20.39,20.39,0,0,1-4.66,6.41,18.43,18.43,0,0,1-6,3.73,26.63,26.63,0,0,1-7.81,1.37v8H215v-8a31.82,31.82,0,0,1-9-2,17.77,17.77,0,0,1-5.93-4,19.43,19.43,0,0,1-3.85-5.54,28.16,28.16,0,0,1-2-7.18l15.17-2a17.1,17.1,0,0,0,1.83,6A9.78,9.78,0,0,0,215,370.9V356a65.46,65.46,0,0,1-10.76-4.09,14.89,14.89,0,0,1-5.5-5.54,19.38,19.38,0,0,1,2.35-21.84q4.67-5,13.91-5.59v-4.17h5.48V319c5.61.4,9.9,1.88,12.86,4.47A18.38,18.38,0,0,1,239.13,334ZM215,329.82a7,7,0,0,0-3.34,2.2,5.17,5.17,0,0,0-.94,3.09,5.6,5.6,0,0,0,1,3.24,7,7,0,0,0,3.33,2.3Zm5.48,41.5a8.5,8.5,0,0,0,4.68-2.64,6.4,6.4,0,0,0,1.48-4.12,5.93,5.93,0,0,0-1.26-3.66c-.83-1.11-2.47-2.15-4.9-3.1Z"/><path class="cls-54" d="M367.55,334l-14,2.49a17.25,17.25,0,0,0-1.9-4.15,9.48,9.48,0,0,0-2.8-2.34v12.19q11.42,3.42,15.25,7.21a17.61,17.61,0,0,1,5.07,12.95,19.48,19.48,0,0,1-1.82,8.43,20.39,20.39,0,0,1-4.66,6.41,18.49,18.49,0,0,1-6,3.73,26.77,26.77,0,0,1-7.82,1.37v8H343.4v-8a31.74,31.74,0,0,1-8.95-2,17.81,17.81,0,0,1-5.94-4,19.63,19.63,0,0,1-3.85-5.54,28.16,28.16,0,0,1-2-7.18l15.18-2a17.13,17.13,0,0,0,1.82,6,9.78,9.78,0,0,0,3.77,3.29V356a65.46,65.46,0,0,1-10.76-4.09,15,15,0,0,1-5.5-5.54,19.38,19.38,0,0,1,2.35-21.84q4.67-5,13.91-5.59v-4.17h5.48V319c5.61.4,9.9,1.88,12.87,4.47A18.37,18.37,0,0,1,367.55,334Zm-24.15-4.21a7.06,7.06,0,0,0-3.34,2.2,5.17,5.17,0,0,0-.94,3.09,5.6,5.6,0,0,0,.95,3.24,7,7,0,0,0,3.33,2.3Zm5.48,41.5a8.5,8.5,0,0,0,4.68-2.64,6.4,6.4,0,0,0,1.48-4.12,6,6,0,0,0-1.25-3.66,11.25,11.25,0,0,0-4.91-3.1Z"/></g><path class="cls-55" d="M311.27,324.17l-20.08,3.18a21.24,21.24,0,0,0-2.72-5.31,13.47,13.47,0,0,0-4-3v15.62q16.4,4.36,21.91,9.23a21.33,21.33,0,0,1,7.28,16.58,22.63,22.63,0,0,1-2.61,10.8,26.25,26.25,0,0,1-6.7,8.21,26.77,26.77,0,0,1-8.66,4.78A42.45,42.45,0,0,1,284.45,386v10.2h-7.88V386a49.75,49.75,0,0,1-12.87-2.57,26.12,26.12,0,0,1-8.53-5.15,25.11,25.11,0,0,1-5.53-7.1,33,33,0,0,1-2.92-9.2l21.81-2.53c.64,3.56,1.52,6.13,2.61,7.71a13.63,13.63,0,0,0,5.43,4.21V352.32q-10.9-3-15.46-5.24a20.63,20.63,0,0,1-11.26-19A21.36,21.36,0,0,1,256.57,312q6.72-6.45,20-7.16v-5.34h7.88v5.34q12.09.76,18.48,5.72A23,23,0,0,1,311.27,324.17Zm-34.7-5.4a10.13,10.13,0,0,0-4.81,2.83,6.15,6.15,0,0,0-1.34,3.95,6.5,6.5,0,0,0,1.37,4.15,10,10,0,0,0,4.78,2.95Zm7.88,53.16a12.54,12.54,0,0,0,6.72-3.38,7.68,7.68,0,0,0,2.13-5.28,7.05,7.05,0,0,0-1.81-4.68q-1.8-2.14-7-4Z"/><path class="cls-56" d="M233.94,329.37l-15.68,2.48a16.86,16.86,0,0,0-2.12-4.15,10.7,10.7,0,0,0-3.14-2.34v12.19q12.8,3.42,17.1,7.21a16.64,16.64,0,0,1,5.69,12.95,17.69,17.69,0,0,1-2,8.43,20.72,20.72,0,0,1-5.23,6.41,21,21,0,0,1-6.76,3.73,33.26,33.26,0,0,1-8.76,1.37v8h-6.15v-8a38.53,38.53,0,0,1-10-2,20.3,20.3,0,0,1-6.66-4,19.59,19.59,0,0,1-4.32-5.53,25.88,25.88,0,0,1-2.27-7.19l17-2a15.94,15.94,0,0,0,2,6,10.7,10.7,0,0,0,4.24,3.28V351.34a79.45,79.45,0,0,1-12.08-4.08A16.12,16.12,0,0,1,186,332.41a16.68,16.68,0,0,1,5.25-12.54q5.23-5,15.61-5.59v-4.17H213v4.17q9.44.6,14.43,4.47A18,18,0,0,1,233.94,329.37Zm-27.09-4.22a7.9,7.9,0,0,0-3.75,2.21,4.73,4.73,0,0,0-1.06,3.09,5.11,5.11,0,0,0,1.07,3.23,7.91,7.91,0,0,0,3.74,2.31Zm6.15,41.5a9.71,9.71,0,0,0,5.24-2.64,6,6,0,0,0,1.67-4.12,5.58,5.58,0,0,0-1.41-3.66q-1.41-1.67-5.5-3.1Z"/><path class="cls-57" d="M378,329.37l-15.67,2.48a17.16,17.16,0,0,0-2.13-4.15,10.43,10.43,0,0,0-3.14-2.34v12.19q12.81,3.42,17.11,7.21a16.64,16.64,0,0,1,5.69,12.95,17.58,17.58,0,0,1-2.05,8.43,20.55,20.55,0,0,1-5.22,6.41,21.11,21.11,0,0,1-6.76,3.73,33.28,33.28,0,0,1-8.77,1.37v8h-6.15v-8a38.53,38.53,0,0,1-10.05-2,20.25,20.25,0,0,1-6.65-4,19.59,19.59,0,0,1-4.32-5.53,26.21,26.21,0,0,1-2.28-7.19l17-2a16.1,16.1,0,0,0,2.05,6,10.59,10.59,0,0,0,4.23,3.28V351.34a79.23,79.23,0,0,1-12.07-4.08,16.12,16.12,0,0,1-8.78-14.85,16.7,16.7,0,0,1,5.24-12.54q5.25-5,15.61-5.59v-4.17h6.15v4.17q9.45.6,14.43,4.47A17.9,17.9,0,0,1,378,329.37Zm-27.09-4.22a7.9,7.9,0,0,0-3.75,2.21,4.78,4.78,0,0,0-1.05,3.09,5.11,5.11,0,0,0,1.07,3.23,7.87,7.87,0,0,0,3.73,2.31Zm6.15,41.5a9.71,9.71,0,0,0,5.25-2.64,6,6,0,0,0,1.66-4.12,5.58,5.58,0,0,0-1.41-3.66c-.93-1.11-2.77-2.14-5.5-3.1Z"/></g></g></g></svg>