<svg xmlns="http://www.w3.org/2000/svg" viewBox="0 0 196.93 335.81"><defs><style>.cls-1{fill:#a196d6;stroke:#e6e6e6;stroke-linecap:round;stroke-linejoin:round;stroke-width:2.99px;}</style></defs><g id="Layer_2" data-name="Layer 2"><g id="MIDGROUND"><path class="cls-1" d="M187,40.23c-.29.53,2.85,5.78,3.06,6.45S188,56.23,188,56.23l-3-5.38L179.47,52l-.8,3.94-10.52-3.57-5.47-5.47-7.77-6.63-4.67-.43-2.37,6.23,7.82,4.72-5.47,2.73-11.35-1.6-7.77-9.76.41-5.84-7.43-8.61-4.26-6.25-3.19,7.8-4.65.41.43,7.4,5.43,4.69-5.11,14L102.16,67.88,100.6,80.76l25.33,9,9.8-3.9,14,1.21-2.34,6.65,3.07,14.09-7,5.43-6.61-2.37L129,115.53,124.26,130l-10.15,2.33-.4,21.43,12.08,14.48,14,5.48,13.21,16.79,0,18,5,13.67-2,9.76,2.71,16.78,15.52,22.07.15,14.73,3.71,9,1.6,17-2.65.88,6.18,12.24-5.76,9.81-8.39-9v5.9L163.26,328l-3.82-12.42-2.2-6.15L155.89,314l-1.52,6.29-1.2-2.69-2,3.72-8.54-.09-1,1.73-9-3-2.81-13.52,2.25-8.15-8.18-7.34-9.36,0,.82,3,6.28,1.64,4.31,5.11-3.26,3.07-3.32,7.57-.81,7.74-8,9L100,331.91,97.44,323l-7.84-1.89L82.12,317l-7.47-9s-7.49-.38-9,0S59,304.25,59,304.25s-1.74-1.34-3.37-2.4l4.12-6.21,3.39-8.22s-1.86-5.24-3.35-6S50,279.92,50,279.92s.38-6,.38-7.49-5.22-4.5-7.85-5.25-5.23-4.87-6.34-5.62,6-10.1,6-10.1l-4.86-1.87-13.47,1.84-5.24-3S4.43,239.79,2.58,238.29s-.74-6.73-.74-6.73,5.63-11.6,7.5-13.09,4.86,3.77,4.86,3.77,9.34,3,11.21,2.63.4-6.73.4-6.73l4.86-3.36,13.49-.73,1.12-8.22,5.25-3.73,7.86,2.25,11.22-1.47,3.76-9.35s7.12-1.85,8.61-1.85,7.49-4.1,8.61-4.85-1.85-9.73-1.85-13.1,3.76-4.48,5.25-5.22,3.76-8.61,5.26-10.1,1.52-14.59,1.52-14.59a69.34,69.34,0,0,0-4.48-6.36c-1.11-1.14-4.48-4.13-4.85-6s3.38-9,3.38-9-3.35-4.12-4.47-5.62A12.31,12.31,0,0,1,88.74,112a15.49,15.49,0,0,1-.24-2.65c0-2.26,3-4.5,4.5-5.25s4.11-1.49,6-3-.37-7.48-1.48-7.85-8.6-9.37-8.6-9.37L82.58,72l5.24-4.12,1.9-15.33L91.23,42.4l-4.81-6.7,9-1.85L99,11.07l4.71,5.5s8.6-1.31,8.75-1.85,10.57-7,11.45-7.22a28.28,28.28,0,0,1,4.79.26L131.5,1.5,137.41,11l18.35,3.91,7.41-4.65L189.66,25.5h4.47l1.31,2.68-3,4.08S187.3,39.71,187,40.23Z"/></g></g></svg>