<svg xmlns="http://www.w3.org/2000/svg" viewBox="0 0 464.62 351.23"><defs><style>.cls-1{fill:#b1c25e;stroke:#e6e6e6;stroke-linecap:round;stroke-linejoin:round;stroke-width:3px;}</style></defs><g id="Layer_2" data-name="Layer 2"><g id="MIDGROUND"><path class="cls-1" d="M463,164.39,457.83,170l2.8,6,1.59,7.18-8,8-9.18.8-20-4-5.59,2h-9.18l-4.39-6.79-3.19,7.19,6.78,6.39-4.39,10,2.8,3.19,19.56,2.4,6.79,2.4,3.19,12-8,10-6.38,4.79v8.39l-4.39,1.6L417.51,263s-5.59,6.39-7.59,8-8.38,7.18-8.38,7.18l-10.78-4.79-5.19,4.79L376.78,291l2.8,7.59L372,314.11l-6.38,7.18,1.19,9.58-.5,3.48H363s-11.63,0-13.13-.75-8.63-7.5-8.63-7.5l-13.5-3.75-13.08,1.87-8.68.38s-8.25-2.25-16.13-4.13-11.25,1.88-12.37,2.25l-12,4.13-11.62-1.13L241.06,322s-10.5,4.88-12.75,7.13-7.5,2.62-7.5,2.62-9,1.5-12,2.25-11.25-4.5-12.37-6,2.25-6,2.25-6l-2.25-6.75A17.79,17.79,0,0,0,192.3,313c-1.5-.38-10.88,1.5-13.13,1.87s-17.25,4.51-17.25,4.51l-9.38,10.5-2.63,8.63-6.75,7.5L127,349.73,125.91,331l-11.63-4.12h-30s-10.88-3-13.88-3.38-7.5-4.12-8.62-6.75-9-2.63-13.88-2.63-14.26.75-14.26.75-2.25-5.62-1.87-6.75,0-12.75,0-12.75L25,295l-4.88,4.88s-5.56,1-8.18,1.37L8.68,291l-.79-7.59,4.79-5.18-1.2-3.6-7.19-4.39L1.5,264.6s8.78-5.19,10-6,6.39-4.79,6.39-4.79a37.92,37.92,0,0,1,.4-5.59c.39-2,1.59-9.18,1.59-9.18l-7.58-4.79,3.82-1.85,7.75-3.74,7.19-3.2,6.79-1.19S26.65,213.1,26.25,211.5s0-7.58,0-7.58l9.18-7.19,2-13.58-2-20,2-4.39L26.25,148.42,24.65,140l-.4-5.19,8-3.2a36.49,36.49,0,0,1,3.19-6.78c2-3.2,5.59-12.78,7.19-13.58a49.87,49.87,0,0,1,6-2l1.59,7.18-4.79,11.18S61,130.85,63,130.06s6-2.4,8.38-3.2,11.18-2,11.18.4a51.75,51.75,0,0,0,.8,6.79s9.58.4,9.18,2-4,8.39-6.38,9.19-4.79,4-4.79,4S92.52,160,90.53,161.6a87,87,0,0,0-6.79,7.18c-.4,2-13.57,2.8-13.57,2.8s-5.19,2.79-2,5.59,11.18,8.78,12.38,9.58,6-2.4,6-2.4l2.79-7.58,8.78-.8,1.2-4.79,2.8-8-.4-6.39s3.19-3.19,4.39-2,12,5.19,12,5.19,8.38,4.79,8.78,3.59,8.38-3.19,9.58-2.79,6,4.39,6,4.39L154,164l-12.38-8-1.6-8.39.4-4.39,9.59,1.6-.4-8s-8.39-4.79-8.79-6-8-4-7.58-5.19,2.39-7.58,4.79-6.78,2.39-5.59,2.39-5.59,7.19-2.8,9.19-2.8,12-.8,12-.8l2-4.79-4-4.39-.4-6.79-1.6-3.19-10,4.79-13.18.8-13.17-4.79L116.08,79l-2.79-6.78-.8-8.79L114.08,59l8-2c3.19,3.2,8.78-8,9.18-9.18s8-5.19,8-5.19L151.61,35l10.38-8,3.2-5.59,6.38-2,6.79-1.6,4-7.19,7.19-5.59,7.59-3.59,10,1.2,22,5.19,10,2.79,2.79,10.38,8,8.79L247,45.42S242.64,59.79,241.84,61s-4.79,6.38-5.19,7.58-.4,7.59-.4,7.59-12.37,3.19-13.57,3.19-4.79,5.59-5.19,6.79-1.2,10-1.2,10l1.2,5.59c2,3.59-3.2,17.17-3.2,17.17l-1.59,6.78s5.59,8,5.59,9.19,2.39,11.57,2.39,11.57l6.79,6.39,8-2.39L243,159.2l10.78,2.8,2.39-10-2-9.18s-5.19-4.39-6.79-4.39l-6.79-8.78v-3.6l-9.18-8.38-.8-5.19-2.79-5.59-4.79-7.59,1.59-5.59,8.79-5.58s6.38-4.4,7.58-4.4h4l2.79,4.79L243,96.12l9.58,5.59s5.59.8,7.19.8,5.19-.4,5.19-.4l4.39,8.38s4.79.4,6-.4,7.58-6.38,7.58-6.38l10.38.39s3.2,1.6,4.39,0,11.18-9.58,11.18-9.58l8.79-3.19,8,3.19,4.39,9.19-3.59,10.38s5.19,3.59,6.79,2.79,7.18-6,7.18-6l12.38-3.59v5.59c0,2.39,4,6,4,6l12.38.8,1.6-3.2,2.79-6,.4-4.39h10.78s7.19,1.6,8.78,2,7.59,4.39,7.59,4.39l2.79,8,8.79,1.6s6.78,2.8,7.58,4.39,4.79,4,4.79,4,9.59,1.6,9.19,3.2,6.38,4.79,6.38,4.79l10.78-2.79,6.79.79,3.59,6.79s-3.19,7.19-3.59,8.78,3.59,6.79,4.39,8S463,164.39,463,164.39Z"/></g></g></svg>