<?xml version="1.0" encoding="utf-8"?>
<!-- Generator: Adobe Illustrator 26.3.1, SVG Export Plug-In . SVG Version: 6.00 Build 0)  -->
<svg version="1.1" id="Capa_1" xmlns="http://www.w3.org/2000/svg" xmlns:xlink="http://www.w3.org/1999/xlink" x="0px" y="0px"
	 viewBox="0 0 512 512" style="enable-background:new 0 0 512 512;" xml:space="preserve">
<style type="text/css">
	.st0{fill:#F58220;}
</style>
<g>
	<g>
		<path class="st0" d="M256,121c-33.1,0-60,26.9-60,60s26.9,60,60,60s60-26.9,60-60S289.1,121,256,121z"/>
	</g>
</g>
<g>
	<g>
		<path class="st0" d="M476.1,212.2c-17.7-88.7-87.6-158.7-176.3-176.3C295.2,16,277.3,0,256,0s-39.2,16-43.8,35.9
			C123.6,53.6,53.6,123.6,35.9,212.2C16,216.8,0,234.7,0,256s16,39.2,35.9,43.8c17.7,88.7,87.6,158.7,176.3,176.3
			c4.6,20,22.4,35.9,43.8,35.9s39.2-16,43.8-35.9c88.6-17.6,158.6-87.6,176.3-176.3c20-4.6,35.9-22.4,35.9-43.8
			S496,216.8,476.1,212.2z M446.2,296.2c-15.9,75-75,134.1-150,150c-7.4-14.9-22.5-25.2-40.2-25.2s-32.9,10.3-40.2,25.2
			c-75-15.9-134.1-75-150-150C80.7,288.9,91,273.7,91,256s-10.3-32.9-25.2-40.2c15.9-75,75-134.1,150-150
			C223.1,80.7,238.3,91,256,91s32.9-10.3,40.2-25.2c75,15.9,134.1,75,150,150c-14.9,7.4-25.2,22.5-25.2,40.2
			S431.3,288.9,446.2,296.2z"/>
	</g>
</g>
<g>
	<g>
		<path class="st0" d="M332.6,227.7C319.3,249.4,297,264.5,271,269v47c0,8.3-6.7,15-15,15c-8.3,0-15-6.7-15-15v-47
			c-26-4.5-48.3-19.6-61.6-41.3C162.2,241.4,151,262.3,151,286v60c0,24.8,20.2,45,45,45h120c24.8,0,45-20.2,45-45v-60
			C361,262.3,349.8,241.4,332.6,227.7z"/>
	</g>
</g>
</svg>
