<svg xmlns="http://www.w3.org/2000/svg" viewBox="0 0 156.52 266.46"><defs><style>.cls-1{fill:#a395e6;stroke:#e6e6e6;stroke-linecap:round;stroke-linejoin:round;stroke-width:3px;}</style></defs><g id="Layer_2" data-name="Layer 2"><g id="MIDGROUND"><path class="cls-1" d="M148.24,199.3s-3.12,10.91-2.6,13,4.41,8.57,4.41,8.57,1.56,9.35.26,11.43-4.67,7-3.89,10.91,0,14.29-.78,15.59c-.32.54-1.85,3.22-3.53,6.17l-14.17-9.9-16-18.86L92.62,195.92l-1.25-22.6L85.64,152.8,73.32,130.23V120l-4.52-.4-5.34-15.19L58.55,85.88l-16-18.52L33.09,52.22,29,51.77,14.18,36.18l-6.55-14L2.73,17.7,1.5,1.5C5.72,4,10.65,6.82,11.36,6.58c1.27-.42,13.93,3.8,13.93,3.8s7.17,9.71,8.44,11.4,13.92,12.66,15.19,13.5S61.58,48.36,64.11,47.52c0,0,10.87,2.93,12.69,2.93s8.83,6.75,8.83,6.75l6.75,1.3S82.25,64,83.81,66.56s4.68,8.57,7.8,8.31,4.67,2.86,4.93,4.16-2.6,4.93,2.34,5.45,11.69,1.82,11.69,1.82l4.16,7.79-5.72,6.5s3.12,1.82,8.57,5.19a6.79,6.79,0,0,1,3.12,8.57l-1.82,8.06L120.44,137l7.79,6.23,6.5-2.86s.26-3.89,2.6-4.41,6.23,2.33,6.23,2.33l3.12,22.34s-3.12,6-2.86,8.58a29.89,29.89,0,0,0,2.08,6.75s5.45,0,6.75,1,2.6,7.27,2.34,8S148.24,199.3,148.24,199.3Z"/></g></g></svg>