<svg xmlns="http://www.w3.org/2000/svg" viewBox="0 0 416.16 367.96"><defs><style>.cls-1{fill:#f078ab;stroke:#e6e6e6;stroke-linecap:round;stroke-linejoin:round;stroke-width:3px;}</style></defs><g id="Layer_2" data-name="Layer 2"><g id="MIDGROUND"><path class="cls-1" d="M414.66,6.59l-7,6.23-9.47,25.86-48.42,39-7.41,14-11.09,11.12-20.52,6.93-15.21,12.78L293.87,134,296,146.65l-9,13.18-12.7,8.2-24.28-3.72-10.66,9.07v11.5L224.5,203.77l-8.2-.8-5.76-8.25H206l-18,18.09-5.37,9.87.39,19.25,9,26.73-8.59,9.84,1.61,14.8v25.18c-2,2.59-6.26,7.75-8.92,8.24-3.55.64-11-1.3-12.92-1.94s-5.5-.65-6.47,0-4.52,2.26-4.2,4.2-2.91,8.08-2.91,8.08-5.17,3.55-7.11,2.9S131,340,131,340s-12.42.65-13.39,1.62-6.46,5.49-6.46,5.49l.32,11.64-6.79,7.75-8.4-2.9-4.62-2.24-.39-9.67,6.51-.65,4.55-4.56-2-4.23s3.91-2.6,5.21-2.93,2-8.13,2-8.13L103,327.24l-6.83-3.58-4.88-11.39s-6.51.65-8.79.65S76,305.76,76,305.76l.33-7.16-7.48-5.53-6.19,2.61-7.16,7.48-10.73,4.23s-2-10.41-2.93-11.71-6.51-8.79-6.51-8.79L43.47,282l-1.95-6.51-8.46.33-5.86,2.92L21,281l-4.88-6.18V268l-8.46.65s-3.58-4.88-4.88-6.19,0-7.81.32-9.11,1.3-8.78,1.3-8.78L1.5,235.47l7.81,4.24,7.15-1L22,229.62l-3.58-8.14s-4.23-10.74-5.21-13,5.86-6.84,5.86-6.84-2.28-4.88-3.26-5.2-.65-9.12-.65-9.12l14-2.6,5.63,1.73,1.84.56.88.28.11,0,.07,0h0L46.17,191l.56.24.6-.1,14.88-2.48h0l.11,0h.14l11.75-.29h0l1.41,0,.46-1.37h0l1.26-3.79.23-.69.54-.34.07-.05.19-.12.38-.24c2.3-1.46,7.27-4.61,8.26-5.1a13.17,13.17,0,0,1,3.6-.17l.51,0h0l.88,0,2.33.12.48,0,1,.06.48,0,1.08.07.78.06,1.46.11.87.06,2,.16h.2l.64.06.64-.53h0l7.07-5.89.17-.17,6.17-6.46.58-.61.84,0,6.89-.25,1.38-.05.48-1.3,1.78-4.82s0-.08,0-.12l1.38-4.59.26-.88.63-.29.19-.1.92-.44.57-.27,3.43-1.65.49-.24,1.22-.59.66-.3.84-.37.81-.35,6.16-2.58.85-.36,2.09-.87.48-.2,1.24-.52.64-.27.28-.11h0l.58-.24.63.14,1.66.36.71.16c2.14.46,5,1.07,7.13,1.48l.77.14a17,17,0,0,0,2.11.32c.7,0,2.77-1.84,4.56-3.56.21-.2.42-.4.61-.6l.85-.84.25-.25.31-.32.91-.94-.46-1.22-1.92-5.11a.09.09,0,0,1,0-.05l-.54-1.43,1.28-.92,5.75-4.15,0,0,1.07-.77,1,.61.14.08.28.17.62.37.52.31.46.28c1.17.71,2.52,1.54,3.8,2.35l.81.52c2,1.29,3.62,2.43,3.74,2.8.07.2.55.41,1.27.6l.45.11.64.15c.44.09.93.17,1.43.26l.18,0,.68.11c1.38.21,2.8.39,3.84.51l1.6.18.57-1.48h0l1.28-3.34a.06.06,0,0,0,0,0l.75-2-2-.69-7.36-2.52-3-1,2.1-2.28,0,0,1-1,.79-.86,1.1.22h0l14.19,2.89.62.13.58-.24,8.45-3.49.2-.09.21-.08.3-.32,4.7-5h0l.52-.55.74-.07h0l5.19-.52.55,0,.44-.31a0,0,0,0,1,0,0l5.44-3.89.94-.67-.09-1.16-.44-6a.06.06,0,0,0,0,0l-.11-1.54-1.49-.28-.06,0-5.06-1-.22,0-.21-.09-6.14-2.63-.49-.21s-.11-.15-.31-.39v0c-.13-.17-.3-.39-.5-.63l-.26-.32c-.31-.38-.67-.8-1-1.21l-.48-.53-.06-.07-.23-.24a9.16,9.16,0,0,0-1-1,.69.69,0,0,0-.17-.11.79.79,0,0,0-.16-.08c-1-.32-2.6-3.58-2.93-6.18-.13-1.12,1.27-1.39,2.94-1.34a26.72,26.72,0,0,1,4.4.58l.47.11s4.88-3.9,5.86-4.23,14-1,15-1a2.63,2.63,0,0,0,.38,0l.44-.1.38-.09,2-.56.73-.21.82-.25.67-.2L252,75l1.07-.32.8-.25.5-.15.09,0,.42-.14.48-.15.22-.07.18-.06h0l.13,0,.1,0L270,65,283.3,63l8.79-4.23.32-5.21-2-8.79,5.86-9.11,4.55-3.25,2.61,10.41s5.2,3.91,6.51,3.26,7.15-6.51,8.13-6.51,9.44,2.6,9.44,2.6l4.23-2.28-2-7.16,1-10.08s7.16-4.56,9.11-4.89,5.54-4.23,5.54-4.23S342.53,10.62,342.2,9,358.15,1.5,358.15,1.5s10.41,12.7,11.71,13,11.07,2.93,12,3.58,8.46-2,10.09-2.6a66.22,66.22,0,0,0,6.51-3.91s4.23-8.13,8.13-8.78C410.17,2.21,414,5.89,414.66,6.59Z"/></g></g></svg>