<svg xmlns="http://www.w3.org/2000/svg" viewBox="0 0 218.9 322.35"><defs><style>.cls-1{fill:#b1c25e;stroke:#e6e6e6;stroke-linecap:round;stroke-linejoin:round;stroke-width:3px;}</style></defs><g id="Layer_2" data-name="Layer 2"><g id="MIDGROUND"><path class="cls-1" d="M191.14,110.15v21l5.35,8.22,4.18,45.21v12.32l-10.44,3.88-5.48-2.65-14.35,2.24-6.18,10.83,2.72,4.52-14,18.45L148,240.32l1.63,7,17.71,9,2.07,3.08.32,3.94-2.44-4.93-8.42-3.17-23.17,8.1-3.73-.4-18.89,8.2L107,281l-.84,5.8-2.46,2.45,2.46,4.09-4.91,14.39L79.86,320.85l-17.64-1.68L60,317.59c1.68-2.95,3.21-5.63,3.53-6.17.78-1.3,1.56-11.69.78-15.59s2.6-8.83,3.89-10.91-.26-11.43-.26-11.43S64,267,63.49,264.92s2.6-13,2.6-13,6.49-13.51,6.75-14.29-1-7-2.34-8-6.75-1-6.75-1a29.89,29.89,0,0,1-2.08-6.75c-.26-2.6,2.86-8.58,2.86-8.58l-3.12-22.34s-3.9-2.85-6.23-2.33-2.6,4.41-2.6,4.41l-6.5,2.86-7.79-6.23L36.73,175,38.55,167a6.79,6.79,0,0,0-3.12-8.57c-5.45-3.37-8.57-5.19-8.57-5.19l5.72-6.5-4.16-7.79s-6.76-1.3-11.69-1.82-2.08-4.16-2.34-5.45-1.82-4.42-4.93-4.16-6.24-5.72-7.8-8.31,8.57-8.06,8.57-8.06c3.61-2.17,7.5,1.69,7.5,1.69l12.6,1.94L33.56,109l3.56-4.53,10,2.91,6.46-2.91,13.9-1,2.58-8.08h5.49l7.76-3.55,2.91-11L82,76.63l-6.79.65-5.49-1.62,3.88-4.85,2.9-7.75-2.9-10.34,5.49-1.94,1.62-3.23L85,40.76l7.75-2.59L103,41.73l5.4,2.61,4.62,2.24,8.4,2.9,6.79-7.75-.32-11.64s5.49-4.52,6.46-5.49S147.78,23,147.78,23s9.56-.64,11.49,0,7.11-2.9,7.11-2.9,3.24-6.14,2.91-8.08,3.23-3.56,4.2-4.2,4.53-.65,6.47,0,9.37,2.58,12.92,1.94c2.66-.49,6.93-5.65,8.92-8.24V18.21l13.55,4.5,2.05,26.71L205.1,85.15Z"/></g></g></svg>