<svg xmlns="http://www.w3.org/2000/svg" viewBox="0 0 256 393.25"><defs><style>.cls-1{fill:#f2a949;stroke:#e6e6e6;stroke-linecap:round;stroke-linejoin:round;stroke-width:3px;}</style></defs><g id="Layer_2" data-name="Layer 2"><g id="MIDGROUND"><path class="cls-1" d="M254.5,291.16s-.65,7.81-1.95,8.13-5.21,2.93-5.21,2.93l1.95,4.23L244.74,311l-6.51.65.39,9.67-5.4-2.61-10.34-3.56-7.75,2.59-4.2,6.79-1.62,3.23-5.49,1.94,2.9,10.34-2.9,7.75-3.88,4.85,5.49,1.62,6.79-.65,4.2,4.2-2.91,11-7.76,3.55h-5.49l-2.58,8.08-13.9,1-6.46,2.91-10-2.91-3.56,4.53-3.23,5.81-12.6-1.94s-3.89-3.86-7.5-1.69l-6.75-1.3s-7-6.75-8.83-6.75-12.69-2.93-12.69-2.93c-2.53.84-13.92-11.4-15.19-12.24S83,353.08,81.76,351.4,73.32,340,73.32,340s-12.66-4.22-13.93-3.8c-.71.24-5.64-2.56-9.86-5.08h0l-.48-6.36-6.16-9.44-9.41-24.68-2.86-16.85-5.78-11.86-5.77-8.61L17.84,233.6l-3.27-.89L2.22,218.58c1.42-4,4.54-12.67,5.11-13.05.75-.5,3.49-8.72,3.49-8.72l-1-7.23s-4.48-7.73-4.23-8.47S5.52,173,5.4,169.66c0-.92-.06-1.51-.06-1.51L4.43,168l-2.93-5,4-1.43s5.4-6.84,6.12-7.92,3.24-6.48,3.24-6.48S9.41,137.51,8.33,135c-.45-1.05-.36-8.64-.36-8.64l-5.76-6.83L4,117l6.84-6.84,7.2,3.6a65.13,65.13,0,0,0,2.16-7.2c.36-2.16,6.11-2.16,6.11-2.16s7.92-2.51,9.36-3.23-2.16-4.32-2.52-5.4,5.4-7.92,5.4-7.92l4.67,4.68,10.44,3.24-.36-5,3.6-2.88H64.1L75.62,90l-.72-5.4.72-7.91-2.88-8.28s0-6.83,1.08-7.91S81,64.46,81,64.46l10.44,3.6,14.75.36,7.56-2.52s-.36-9-.36-10.43,3.6-5.4,3.6-5.4l8.27-5.75,6.84,1.43a39.38,39.38,0,0,0,1.44-7.55c0-2.52,2.16-6.48,2.52-8.28s4.31-9.35,4.31-9.35l5.76.72,5.4-2.52,1.08-8.64L162.69,1.5a14,14,0,0,1,2.16,4.67c.36,2.16,2.88,4,2.88,4l8.64,3.6,2.16,9.72,2.15,6.47-1.79,10.8-5.4,4.67.36,4,8.27,2.52,1.8,6.48-1.08,4.32a45.83,45.83,0,0,0-6.47,1.43c-1.8.72-4.32,5.4-4.32,5.4v5.76s3.6,3.6,4.32,4.68,2.52,9,2.52,9-2.88,5-3.24,6.48,2.88,5.76,2.88,5.76l-.72,8.27s-7.2,2.52-9,2.52.36,5.76.36,5.76,7.56.36,8.64.36,7.91,3.6,8.27,4.68-2.16,3.23-3.6,3.59-1.8,7.2-1.8,7.2L183.2,140l-1.49,6.42-5.63-1.73-14,2.6s-.32,8.79.65,9.12,3.26,5.2,3.26,5.2-6.84,4.56-5.86,6.84,5.21,13,5.21,13l3.58,8.14-5.54,9.11-7.15,1-7.81-4.24,2.92,9.12s-1,7.48-1.3,8.78-1.62,7.81-.32,9.11,4.88,6.19,4.88,6.19l8.46-.65v6.83l4.88,6.18,6.18-2.28,5.86-2.92,8.46-.33,1.95,6.51-8.13,4.88s5.53,7.48,6.51,8.79,2.93,11.71,2.93,11.71l10.73-4.23,7.16-7.48,6.19-2.61,7.48,5.53-.33,7.16s4.24,7.16,6.51,7.16,8.79-.65,8.79-.65l4.88,11.39,6.83,3.58Z"/></g></g></svg>