<svg xmlns="http://www.w3.org/2000/svg" viewBox="0 0 1018.62 821.66"><defs><style>.cls-1{fill:#706f6f;}.cls-2{fill:#b2b2b2;}.cls-3{fill:#fac11e;}.cls-4{fill:#dda10b;}.cls-5{fill:#f4d037;}.cls-6{fill:#d8b62a;}.cls-7{fill:#7f1a0d;}.cls-27,.cls-8{fill:#1d1d1b;}.cls-14,.cls-25,.cls-8{opacity:0.5;}.cls-9{fill:#e04327;}.cls-10{fill:#fde0bb;}.cls-11{fill:#e8bf92;}.cls-12{fill:#4c3118;}.cls-13{fill:#27b6c4;}.cls-14{fill:#a2e3e0;}.cls-15{fill:#da9f0b;}.cls-16{fill:#ffd773;}.cls-17{fill:#bd1622;}.cls-18{fill:#2d2e82;}.cls-19,.cls-23{fill:#f5f5f5;}.cls-20{fill:#b7433b;}.cls-21{fill:#f99285;}.cls-22{fill:#3f0b07;}.cls-23{opacity:0.4;}.cls-24{fill:#27b7c5;}.cls-25{fill:#a3e4e1;}.cls-26{fill:#be1622;}.cls-28{fill:#7c0816;}.cls-29{fill:#540915;}.cls-30{fill:#f9d98a;}.cls-31{fill:#aa1325;}</style></defs><g id="Layer_2" data-name="Layer 2"><g id="Post_Office" data-name="Post Office"><g id="Post_Office-2" data-name="Post Office"><g id="Road"><rect class="cls-1" y="667.36" width="997.15" height="154.29" rx="14.4"/><rect class="cls-2" y="643.36" width="997.15" height="154.29" rx="14.4"/></g><g id="Mail"><rect class="cls-3" x="844.99" y="276.58" width="123.26" height="189.36" transform="translate(180.77 1029.23) rotate(-64.46)"/><path class="cls-4" d="M796.68,386.38a1.42,1.42,0,0,1-.76-.94,1.4,1.4,0,0,1,1-1.7l2.74-.67a1.41,1.41,0,0,1,.67,2.73l-2.74.67A1.38,1.38,0,0,1,796.68,386.38Z"/><path class="cls-4" d="M804.7,384.41a1.41,1.41,0,0,1,.27-2.64l5.28-1.3a1.41,1.41,0,1,1,.67,2.74l-5.28,1.29A1.37,1.37,0,0,1,804.7,384.41Zm10.56-2.6a1.4,1.4,0,0,1-.76-.93,1.42,1.42,0,0,1,1-1.71l5.28-1.3a1.42,1.42,0,0,1,1.71,1,1.4,1.4,0,0,1-1,1.7l-5.29,1.3A1.38,1.38,0,0,1,815.26,381.81Zm10.57-2.6a1.4,1.4,0,0,1-.77-.93,1.42,1.42,0,0,1,1-1.71l5.28-1.29a1.41,1.41,0,1,1,.67,2.73l-5.28,1.3A1.37,1.37,0,0,1,825.83,379.21Zm10.56-2.59a1.37,1.37,0,0,1-.76-.94,1.4,1.4,0,0,1,1-1.7l5.28-1.3a1.41,1.41,0,0,1,.67,2.74l-5.28,1.29A1.37,1.37,0,0,1,836.39,376.62ZM847,374a1.41,1.41,0,0,1,.27-2.64l5.29-1.3a1.41,1.41,0,0,1,.66,2.74l-5.27,1.3A1.41,1.41,0,0,1,847,374Zm10.56-2.6a1.4,1.4,0,0,1,.28-2.63l5.28-1.3a1.41,1.41,0,0,1,.67,2.74l-5.28,1.29A1.35,1.35,0,0,1,857.51,371.42Zm10.57-2.59a1.41,1.41,0,0,1,.27-2.64l5.28-1.3a1.41,1.41,0,0,1,.67,2.74l-5.28,1.3A1.43,1.43,0,0,1,868.08,368.83Zm10.56-2.6a1.41,1.41,0,0,1,.27-2.64l5.29-1.29a1.41,1.41,0,1,1,.67,2.73l-5.29,1.3A1.38,1.38,0,0,1,878.64,366.23Zm10.56-2.59a1.41,1.41,0,0,1,.28-2.64l5.27-1.3a1.41,1.41,0,1,1,.68,2.73l-5.28,1.3A1.47,1.47,0,0,1,889.2,363.64Zm10.57-2.6a1.41,1.41,0,0,1,.27-2.64l5.28-1.3a1.41,1.41,0,0,1,.68,2.74l-5.29,1.3A1.43,1.43,0,0,1,899.77,361Z"/><path class="cls-4" d="M914.25,360.32a1.39,1.39,0,0,1-.66-.67l-.71-1.5-1.61.39a1.41,1.41,0,1,1-.67-2.73l2.74-.68a1.4,1.4,0,0,1,1.61.77l1.19,2.56a1.4,1.4,0,0,1-.68,1.87A1.39,1.39,0,0,1,914.25,360.32Z"/><path class="cls-4" d="M960,458.46a1.41,1.41,0,0,1-.67-.67L957,452.88a1.41,1.41,0,0,1,2.56-1.19l2.29,4.91a1.42,1.42,0,0,1-.69,1.87A1.44,1.44,0,0,1,960,458.46Zm-4.57-9.81a1.43,1.43,0,0,1-.67-.68l-2.28-4.9a1.41,1.41,0,0,1,.68-1.88,1.39,1.39,0,0,1,1.86.69l2.29,4.9a1.41,1.41,0,0,1-.68,1.88A1.44,1.44,0,0,1,955.41,448.65Zm-4.58-9.82a1.35,1.35,0,0,1-.66-.67l-2.29-4.91a1.41,1.41,0,1,1,2.55-1.19l2.29,4.91a1.41,1.41,0,0,1-.68,1.87A1.39,1.39,0,0,1,950.83,438.83ZM946.27,429a1.43,1.43,0,0,1-.68-.67l-2.28-4.91a1.4,1.4,0,0,1,.68-1.87,1.38,1.38,0,0,1,1.86.68l2.3,4.9a1.4,1.4,0,0,1-.69,1.87A1.34,1.34,0,0,1,946.27,429Zm-4.58-9.81a1.37,1.37,0,0,1-.66-.68l-2.29-4.9a1.41,1.41,0,1,1,2.55-1.2l2.28,4.91a1.41,1.41,0,0,1-1.88,1.87Zm-4.57-9.82a1.33,1.33,0,0,1-.67-.67l-2.29-4.91a1.41,1.41,0,1,1,2.55-1.19l2.29,4.9a1.42,1.42,0,0,1-.68,1.88A1.4,1.4,0,0,1,937.12,409.39Zm-4.58-9.81a1.39,1.39,0,0,1-.66-.67L929.59,394a1.41,1.41,0,0,1,2.56-1.19l2.28,4.9a1.41,1.41,0,0,1-1.89,1.87ZM928,389.77a1.47,1.47,0,0,1-.67-.68L925,384.18a1.41,1.41,0,1,1,2.55-1.19l2.29,4.91a1.41,1.41,0,0,1-.68,1.87A1.42,1.42,0,0,1,928,389.77ZM923.4,380a1.35,1.35,0,0,1-.67-.68l-2.29-4.9a1.41,1.41,0,0,1,2.56-1.19l2.29,4.9a1.42,1.42,0,0,1-.68,1.88A1.39,1.39,0,0,1,923.4,380Zm-4.57-9.81a1.39,1.39,0,0,1-.67-.68l-2.29-4.9a1.41,1.41,0,1,1,2.56-1.19l2.28,4.9a1.41,1.41,0,0,1-.68,1.88A1.44,1.44,0,0,1,918.83,370.14Z"/><path class="cls-4" d="M963.46,465.92a1.35,1.35,0,0,1-.67-.68l-1.19-2.55a1.4,1.4,0,0,1,.68-1.87,1.42,1.42,0,0,1,1.88.68l1.18,2.56a1.41,1.41,0,0,1-.68,1.87A1.37,1.37,0,0,1,963.46,465.92Z"/><polygon class="cls-4" points="847.77 274.83 906.62 371.25 1018.62 356.46 847.77 274.83"/><rect class="cls-5" x="328.29" y="5.47" width="95.52" height="146.73" transform="translate(114.01 359.84) rotate(-58.84)"/><path class="cls-6" d="M290.12,82.15a1.09,1.09,0,0,1,.41-2l2.16-.32a1.09,1.09,0,0,1,1.23.93A1.08,1.08,0,0,1,293,82l-2.16.31A1.11,1.11,0,0,1,290.12,82.15Z"/><path class="cls-6" d="M296.45,81.24a1.13,1.13,0,0,1-.52-.78,1.1,1.1,0,0,1,.93-1.24l4.17-.6a1.09,1.09,0,1,1,.31,2.16l-4.17.6A1,1,0,0,1,296.45,81.24ZM304.79,80a1,1,0,0,1-.51-.77A1.09,1.09,0,0,1,305.2,78l4.18-.6a1.09,1.09,0,0,1,.3,2.16l-4.17.6A1.05,1.05,0,0,1,304.79,80Zm8.35-1.19a1.11,1.11,0,0,1-.52-.78,1.09,1.09,0,0,1,.92-1.24l4.18-.6a1.09,1.09,0,0,1,1.23.93,1.08,1.08,0,0,1-.92,1.23l-4.17.6A1,1,0,0,1,313.14,78.84Zm8.34-1.2a1.13,1.13,0,0,1-.52-.79,1.09,1.09,0,0,1,.93-1.23l4.17-.6a1.09,1.09,0,0,1,.31,2.16l-4.17.6A1.11,1.11,0,0,1,321.48,77.64Zm8.34-1.2a1.1,1.1,0,0,1,.41-2l4.17-.6a1.09,1.09,0,1,1,.31,2.16l-4.17.6A1.11,1.11,0,0,1,329.82,76.44Zm8.34-1.21a1.11,1.11,0,0,1-.51-.77,1.09,1.09,0,0,1,.93-1.24l4.17-.6a1.09,1.09,0,0,1,.31,2.16l-4.17.6A1.07,1.07,0,0,1,338.16,75.23ZM346.51,74a1.1,1.1,0,0,1,.41-2l4.17-.6a1.09,1.09,0,1,1,.31,2.16l-4.17.6A1.11,1.11,0,0,1,346.51,74Zm8.34-1.2a1.16,1.16,0,0,1-.52-.78,1.1,1.1,0,0,1,.93-1.24l4.17-.6a1.09,1.09,0,1,1,.31,2.16l-4.17.6A1.11,1.11,0,0,1,354.85,72.84Zm8.34-1.2a1.12,1.12,0,0,1-.51-.78,1.09,1.09,0,0,1,.92-1.24l4.18-.6a1.09,1.09,0,1,1,.3,2.16l-4.16.6A1.12,1.12,0,0,1,363.19,71.64Zm8.35-1.21a1.09,1.09,0,0,1,.41-2l4.17-.6a1.07,1.07,0,0,1,1.23.92,1.09,1.09,0,0,1-.92,1.24l-4.17.6A1.05,1.05,0,0,1,371.54,70.43Z"/><path class="cls-6" d="M382.76,71a1.1,1.1,0,0,1-.46-.57l-.43-1.21-1.27.18a1.09,1.09,0,0,1-.31-2.16l2.16-.31a1.1,1.1,0,0,1,1.19.71l.72,2.06a1.1,1.1,0,0,1-.67,1.4A1.12,1.12,0,0,1,382.76,71Z"/><path class="cls-6" d="M410.58,150.13a1.07,1.07,0,0,1-.47-.57l-1.39-4a1.09,1.09,0,1,1,2.06-.72l1.39,4a1.09,1.09,0,0,1-.67,1.39A1.06,1.06,0,0,1,410.58,150.13Zm-2.78-7.91a1.08,1.08,0,0,1-.46-.57l-1.4-4A1.09,1.09,0,0,1,408,137l1.39,4a1.08,1.08,0,0,1-.67,1.39A1.06,1.06,0,0,1,407.8,142.22ZM405,134.3a1.07,1.07,0,0,1-.47-.57l-1.39-4a1.09,1.09,0,1,1,2.06-.72l1.39,4a1.09,1.09,0,0,1-.67,1.39A1.06,1.06,0,0,1,405,134.3Zm-2.78-7.92a1,1,0,0,1-.47-.57l-1.39-4a1.09,1.09,0,0,1,2.06-.73l1.39,4a1.09,1.09,0,0,1-.67,1.39A1,1,0,0,1,402.24,126.38Zm-2.78-7.91a1,1,0,0,1-.47-.57l-1.39-4a1.09,1.09,0,0,1,2.06-.72l1.39,4a1.09,1.09,0,0,1-1.59,1.3Zm-2.79-7.91a1.11,1.11,0,0,1-.46-.58l-1.39-4a1.09,1.09,0,1,1,2.06-.72l1.39,4a1.09,1.09,0,0,1-.67,1.39A1.11,1.11,0,0,1,396.67,110.56Zm-2.78-7.92a1.11,1.11,0,0,1-.47-.57l-1.39-4a1.1,1.1,0,0,1,2.07-.72l1.38,4a1.08,1.08,0,0,1-1.59,1.29Zm-2.78-7.91a1.08,1.08,0,0,1-.46-.57l-1.4-4a1.09,1.09,0,0,1,2.06-.72l1.4,4a1.09,1.09,0,0,1-1.6,1.3Zm-2.78-7.91a1.07,1.07,0,0,1-.46-.58l-1.4-4a1.09,1.09,0,0,1,2.06-.72l1.39,4a1.09,1.09,0,0,1-1.59,1.3Zm-2.78-7.93a1,1,0,0,1-.47-.57l-1.39-3.95a1.09,1.09,0,1,1,2.06-.73l1.39,4a1.09,1.09,0,0,1-.67,1.39A1,1,0,0,1,385.55,78.89Z"/><path class="cls-6" d="M412.69,156.15a1.14,1.14,0,0,1-.46-.57l-.72-2.06a1.08,1.08,0,0,1,.66-1.39,1.11,1.11,0,0,1,1.4.66l.72,2.06a1.09,1.09,0,0,1-.67,1.39A1,1,0,0,1,412.69,156.15Z"/><polygon class="cls-6" points="337.98 0 376.05 78.83 463.54 75.93 337.98 0"/><rect class="cls-3" x="481.28" y="72.58" width="187.92" height="122.33" transform="translate(-14.75 160.3) rotate(-15.67)"/><path class="cls-4" d="M503,216.91a1.4,1.4,0,0,1-1.52-2.15l1.6-2.29a1.4,1.4,0,0,1,2.3,1.61l-1.61,2.28A1.36,1.36,0,0,1,503,216.91Z"/><path class="cls-4" d="M507.74,210.2a1.4,1.4,0,0,1-1.52-2.15l3.09-4.42a1.4,1.4,0,1,1,2.3,1.6l-3.1,4.43A1.39,1.39,0,0,1,507.74,210.2Zm6.19-8.85a1.42,1.42,0,0,1-1.18-.19,1.41,1.41,0,0,1-.34-1.95l3.09-4.43a1.4,1.4,0,0,1,2.29,1.61l-3.09,4.42A1.39,1.39,0,0,1,513.93,201.35Zm6.19-8.84a1.4,1.4,0,0,1-1.52-2.15l3.09-4.42a1.4,1.4,0,0,1,2.3,1.6l-3.1,4.42A1.39,1.39,0,0,1,520.12,192.51Zm6.19-8.85a1.39,1.39,0,0,1-1.52-2.14l3.09-4.43a1.4,1.4,0,0,1,2.29,1.61l-3.09,4.42A1.34,1.34,0,0,1,526.31,183.66Zm6.19-8.84a1.4,1.4,0,0,1-1.52-2.15l3.09-4.42a1.4,1.4,0,0,1,2.29,1.6l-3.09,4.42A1.41,1.41,0,0,1,532.5,174.82Zm6.19-8.85a1.36,1.36,0,0,1-1.18-.2,1.38,1.38,0,0,1-.34-1.94l3.09-4.43a1.4,1.4,0,0,1,2.29,1.61l-3.09,4.42A1.34,1.34,0,0,1,538.69,166Zm6.19-8.84a1.4,1.4,0,0,1-1.52-2.15l3.09-4.42a1.4,1.4,0,0,1,2.29,1.6l-3.09,4.43A1.42,1.42,0,0,1,544.88,157.13Zm6.19-8.84a1.43,1.43,0,0,1-1.18-.2,1.41,1.41,0,0,1-.35-2l3.1-4.42a1.4,1.4,0,1,1,2.29,1.6l-3.09,4.42A1.44,1.44,0,0,1,551.07,148.29Zm6.19-8.85a1.4,1.4,0,0,1-1.52-2.15l3.09-4.42a1.4,1.4,0,0,1,2.29,1.61L558,138.9A1.42,1.42,0,0,1,557.26,139.44Zm6.19-8.84a1.43,1.43,0,0,1-1.18-.2,1.41,1.41,0,0,1-.35-2L565,124a1.4,1.4,0,1,1,2.29,1.6l-3.09,4.42A1.44,1.44,0,0,1,563.45,130.6Z"/><path class="cls-4" d="M573.8,120.59a1.39,1.39,0,0,1-.94-.07l-1.51-.66-.94,1.35a1.41,1.41,0,0,1-1.95.34,1.38,1.38,0,0,1-.34-1.94l1.6-2.3a1.41,1.41,0,0,1,1.71-.48L574,118a1.41,1.41,0,0,1,.71,1.85A1.37,1.37,0,0,1,573.8,120.59Z"/><path class="cls-4" d="M672.1,164a1.34,1.34,0,0,1-.94-.07l-4.92-2.17a1.39,1.39,0,1,1,1.13-2.55l4.92,2.17a1.39,1.39,0,0,1,.71,1.84A1.37,1.37,0,0,1,672.1,164Zm-9.83-4.34a1.34,1.34,0,0,1-.94-.07l-4.91-2.16a1.4,1.4,0,0,1-.72-1.84,1.38,1.38,0,0,1,1.84-.72l4.92,2.17a1.39,1.39,0,0,1,.71,1.84A1.34,1.34,0,0,1,662.27,159.63Zm-9.83-4.33a1.46,1.46,0,0,1-.94-.07l-4.92-2.17a1.4,1.4,0,0,1,1.13-2.56l4.92,2.17a1.4,1.4,0,0,1,.71,1.84A1.38,1.38,0,0,1,652.44,155.3ZM642.61,151a1.39,1.39,0,0,1-.94-.07l-4.92-2.17a1.4,1.4,0,0,1,1.13-2.56l4.92,2.17a1.4,1.4,0,0,1-.19,2.63Zm-9.83-4.34a1.39,1.39,0,0,1-.94-.07l-4.92-2.17a1.4,1.4,0,0,1,1.13-2.56L633,144a1.4,1.4,0,0,1-.19,2.63ZM623,142.28a1.34,1.34,0,0,1-.94-.07L617.09,140a1.39,1.39,0,1,1,1.13-2.55l4.92,2.16a1.41,1.41,0,0,1,.71,1.85A1.37,1.37,0,0,1,623,142.28Zm-9.83-4.34a1.39,1.39,0,0,1-.94-.06l-4.92-2.17a1.41,1.41,0,0,1-.71-1.85,1.4,1.4,0,0,1,1.84-.71l4.92,2.17a1.4,1.4,0,0,1,.71,1.84A1.34,1.34,0,0,1,613.12,137.94Zm-9.83-4.34a1.39,1.39,0,0,1-.94-.06l-4.92-2.17a1.4,1.4,0,0,1,1.13-2.56l4.92,2.17a1.4,1.4,0,0,1,.71,1.84A1.34,1.34,0,0,1,603.29,133.6Zm-9.83-4.33a1.39,1.39,0,0,1-.94-.07L587.6,127a1.4,1.4,0,0,1,1.13-2.56l4.92,2.17a1.4,1.4,0,0,1-.19,2.63Zm-9.83-4.34a1.39,1.39,0,0,1-.94-.07l-4.92-2.17a1.4,1.4,0,0,1,1.14-2.56l4.91,2.17a1.4,1.4,0,0,1-.19,2.63Z"/><path class="cls-4" d="M679.57,167.27a1.39,1.39,0,0,1-.94-.07l-2.55-1.13a1.4,1.4,0,1,1,1.12-2.56l2.56,1.13a1.4,1.4,0,0,1,.72,1.84A1.42,1.42,0,0,1,679.57,167.27Z"/><polygon class="cls-4" points="468.26 100.22 575.25 133.74 649.2 49.48 468.26 100.22"/><polygon class="cls-5" points="966.73 305.89 620.78 253.96 654.6 28.76 1000.54 80.7 966.73 305.89"/><path class="cls-6" d="M624.6,253.43a2.55,2.55,0,0,1-1.85-1.24,2.58,2.58,0,0,1,.91-3.56l4.46-2.67a2.6,2.6,0,1,1,2.67,4.47l-4.47,2.66A2.52,2.52,0,0,1,624.6,253.43Z"/><path class="cls-6" d="M637.7,245.62a2.58,2.58,0,0,1-1.85-1.24,2.62,2.62,0,0,1,.9-3.57l8.63-5.14a2.6,2.6,0,1,1,2.67,4.47l-8.63,5.14A2.59,2.59,0,0,1,637.7,245.62ZM655,235.33a2.61,2.61,0,0,1-.94-4.82l8.63-5.14a2.6,2.6,0,1,1,2.66,4.47L656.67,235A2.62,2.62,0,0,1,655,235.33ZM672.21,225a2.6,2.6,0,0,1-.94-4.81l8.63-5.14a2.6,2.6,0,1,1,2.67,4.47l-8.63,5.15A2.55,2.55,0,0,1,672.21,225Zm17.26-10.29a2.56,2.56,0,0,1-1.84-1.24,2.59,2.59,0,0,1,.9-3.56l8.63-5.15a2.6,2.6,0,1,1,2.66,4.47l-8.63,5.14A2.55,2.55,0,0,1,689.47,214.74Zm17.27-10.29a2.6,2.6,0,0,1-1-4.81l8.63-5.15a2.6,2.6,0,0,1,2.67,4.47l-8.63,5.15A2.64,2.64,0,0,1,706.74,204.45ZM724,194.15a2.55,2.55,0,0,1-1.84-1.23,2.62,2.62,0,0,1,.89-3.58l8.63-5.14a2.6,2.6,0,0,1,2.67,4.47l-8.62,5.15A2.54,2.54,0,0,1,724,194.15Zm17.26-10.28a2.61,2.61,0,0,1-.94-4.82l8.63-5.14a2.6,2.6,0,0,1,2.67,4.47L743,183.52A2.63,2.63,0,0,1,741.25,183.87Zm17.26-10.29a2.63,2.63,0,0,1-1.84-1.25,2.6,2.6,0,0,1,.89-3.57l8.64-5.14a2.6,2.6,0,1,1,2.66,4.47l-8.63,5.14A2.64,2.64,0,0,1,758.51,173.58Zm17.27-10.3a2.61,2.61,0,0,1-1-4.81l8.63-5.15a2.6,2.6,0,0,1,2.67,4.47l-8.63,5.15A2.67,2.67,0,0,1,775.78,163.28ZM793,153a2.56,2.56,0,0,1-1.84-1.24,2.6,2.6,0,0,1,.89-3.57l8.63-5.14a2.6,2.6,0,0,1,2.67,4.47l-8.63,5.14A2.56,2.56,0,0,1,793,153Z"/><path class="cls-6" d="M818.25,143.9a2.57,2.57,0,0,1-1.55-.84l-2.05-2.28L812,142.35a2.6,2.6,0,1,1-2.66-4.46l4.47-2.67a2.58,2.58,0,0,1,3.26.49l3.49,3.87a2.61,2.61,0,0,1-2.32,4.32Z"/><path class="cls-6" d="M952,292.57a2.49,2.49,0,0,1-1.54-.83l-6.7-7.44a2.6,2.6,0,0,1,3.87-3.48l6.7,7.44a2.61,2.61,0,0,1-.2,3.68A2.64,2.64,0,0,1,952,292.57Zm-13.38-14.86a2.6,2.6,0,0,1-1.55-.84l-6.69-7.43a2.6,2.6,0,0,1,3.87-3.48l6.69,7.43a2.61,2.61,0,0,1-.19,3.68A2.65,2.65,0,0,1,938.66,277.71Zm-13.38-14.87a2.6,2.6,0,0,1-1.55-.84L917,254.57a2.6,2.6,0,1,1,3.87-3.48l6.69,7.43a2.6,2.6,0,0,1-.19,3.68A2.66,2.66,0,0,1,925.28,262.84ZM911.9,248a2.51,2.51,0,0,1-1.54-.83l-6.69-7.42a2.6,2.6,0,1,1,3.86-3.49l6.7,7.43a2.61,2.61,0,0,1-.2,3.67A2.54,2.54,0,0,1,911.9,248ZM898.52,233.1a2.61,2.61,0,0,1-1.54-.83l-6.7-7.44a2.61,2.61,0,0,1,3.88-3.48l6.68,7.44a2.6,2.6,0,0,1-2.32,4.31Zm-13.38-14.87a2.53,2.53,0,0,1-1.54-.83L876.91,210a2.6,2.6,0,0,1,3.86-3.48l6.69,7.44a2.61,2.61,0,0,1-.19,3.68A2.64,2.64,0,0,1,885.14,218.23Zm-13.37-14.86a2.6,2.6,0,0,1-1.55-.84l-6.7-7.43a2.62,2.62,0,0,1,.2-3.68,2.59,2.59,0,0,1,3.67.2l6.69,7.43a2.6,2.6,0,0,1-2.31,4.32ZM858.38,188.5a2.6,2.6,0,0,1-1.54-.84l-6.7-7.43a2.61,2.61,0,0,1,3.88-3.48l6.69,7.43a2.61,2.61,0,0,1-2.33,4.32ZM845,173.64a2.56,2.56,0,0,1-1.54-.85l-6.7-7.43a2.6,2.6,0,0,1,3.87-3.48l6.7,7.43a2.62,2.62,0,0,1-2.33,4.33Zm-13.38-14.88a2.56,2.56,0,0,1-1.55-.83l-6.68-7.44a2.6,2.6,0,1,1,3.87-3.47l6.68,7.43a2.6,2.6,0,0,1-2.32,4.31Z"/><path class="cls-6" d="M962.21,303.88a2.55,2.55,0,0,1-1.54-.84l-3.49-3.87a2.6,2.6,0,1,1,3.87-3.48l3.48,3.87a2.6,2.6,0,0,1-2.32,4.32Z"/><polygon class="cls-6" points="654.6 28.76 810.66 167.33 1000.54 80.7 654.6 28.76"/></g><g id="Building"><path class="cls-7" d="M850,233.3c0-10-6.45-18.05-14.4-18.05H265.82c-7.95,0-14.4,8.08-14.4,18.05V339.74c0,10,6.45,18.05,14.4,18.05H835.55c8,0,14.4-8.08,14.4-18.05Z"/><polygon class="cls-8" points="881.26 643.72 549.01 643.36 549.01 673.38 838.73 673.38 881.26 643.72"/><path class="cls-9" d="M264.29,317.43H837.08a12.87,12.87,0,0,1,12.87,12.87V660.52a12.86,12.86,0,0,1-12.86,12.86H264.29a12.86,12.86,0,0,1-12.86-12.86V330.3A12.86,12.86,0,0,1,264.29,317.43Z"/><path class="cls-10" d="M476.71,363.53H314.81A13,13,0,0,0,302,376.63V660.29a13,13,0,0,0,12.86,13.09h161.9a13,13,0,0,0,12.86-13.09V376.63A13,13,0,0,0,476.71,363.53Z"/><path class="cls-11" d="M314.81,363.53A13,13,0,0,0,302,376.63V660.29a13,13,0,0,0,12.86,13.09h12.55L438.22,363.53Z"/><path class="cls-12" d="M458.21,655.43H335.15a17.9,17.9,0,0,1-17.88-17.88V574a17.9,17.9,0,0,1,17.88-17.87H458.21A17.89,17.89,0,0,1,476.08,574v63.54A17.89,17.89,0,0,1,458.21,655.43ZM335.15,568.06a6,6,0,0,0-6,6v63.54a6,6,0,0,0,6,6H458.21a6,6,0,0,0,6-6V574a6,6,0,0,0-6-6Z"/><path class="cls-13" d="M463.35,380.54H329.48a12.37,12.37,0,0,0-12.38,12.37V532.35a12.38,12.38,0,0,0,12.38,12.38H463.35a12.39,12.39,0,0,0,12.38-12.38V392.91A12.38,12.38,0,0,0,463.35,380.54Z"/><polygon class="cls-14" points="382.17 380.54 317.1 454.64 317.1 499.14 421.25 380.54 382.17 380.54"/><path class="cls-14" d="M463.35,380.54H451.12l-83.66,95.27a20.12,20.12,0,0,0,1.85,28.4l1,.88a20.13,20.13,0,0,0,28.41-1.84l77-87.7V392.91A12.38,12.38,0,0,0,463.35,380.54Z"/><path class="cls-15" d="M478.41,545.66a4.54,4.54,0,0,1-4.76,4.3h0a4.55,4.55,0,0,1-4.77-4.3v-6.42a4.55,4.55,0,0,1,4.77-4.29h0a4.54,4.54,0,0,1,4.76,4.29Z"/><path class="cls-15" d="M411.91,545.66a4.55,4.55,0,0,1-4.77,4.3h0a4.54,4.54,0,0,1-4.76-4.3v-6.42a4.54,4.54,0,0,1,4.76-4.29h0a4.55,4.55,0,0,1,4.77,4.29Z"/><path class="cls-16" d="M466.57,535H413.5a7.51,7.51,0,0,0,0,15h53.07a7.51,7.51,0,1,0,0-15Z"/><path class="cls-3" d="M474.08,542.45a7.5,7.5,0,0,0-7.51-7.5H442.5L434,550h32.6A7.51,7.51,0,0,0,474.08,542.45Z"/><rect class="cls-17" x="449.14" y="488.79" width="19.74" height="12"/><rect class="cls-18" x="438.22" y="504.89" width="30.67" height="18.64"/><rect class="cls-19" x="460.09" y="507.19" width="6.9" height="4.2"/><rect class="cls-20" x="273.28" y="247.12" width="64.37" height="24.93" rx="4.63"/><rect class="cls-20" x="346.48" y="247.12" width="64.37" height="24.93" rx="4.63"/><rect class="cls-20" x="311.68" y="279.52" width="64.37" height="24.93" rx="4.63"/><rect class="cls-20" x="387.27" y="279.52" width="64.37" height="24.93" rx="4.63"/><rect class="cls-21" x="773.42" y="639.52" width="64.37" height="24.93" rx="4.63"/><rect class="cls-21" x="700.22" y="639.52" width="64.37" height="24.93" rx="4.63"/><rect class="cls-21" x="627.02" y="639.52" width="64.37" height="24.93" rx="4.63"/><rect class="cls-21" x="737.42" y="608.32" width="64.37" height="24.93" rx="4.63"/><rect class="cls-21" x="664.22" y="608.32" width="64.37" height="24.93" rx="4.63"/><rect class="cls-20" x="705.28" y="247.12" width="64.37" height="24.93" rx="4.63"/><rect class="cls-20" x="778.47" y="247.12" width="64.37" height="24.93" rx="4.63"/><path class="cls-3" d="M820.25,251.37H533.78a14.4,14.4,0,0,0-14.4,14.4v70.15a14.4,14.4,0,0,0,14.4,14.4H820.25a14.4,14.4,0,0,0,14.4-14.4V265.77A14.4,14.4,0,0,0,820.25,251.37Z"/><path class="cls-22" d="M573.74,307.48v8a1.75,1.75,0,0,0,1.21,1.83,1.49,1.49,0,0,1,.8.59,2.92,2.92,0,0,1,.23,1.38c0,.64-.09,1-.27,1.19a1.68,1.68,0,0,1-1.05.23h-10.9c-.57,0-.86-.51-.86-1.52a5.2,5.2,0,0,1,.12-1.48c.08-.18.35-.34.82-.49a1.59,1.59,0,0,0,.78-.42,1.48,1.48,0,0,0,.15-.78V287a1.88,1.88,0,0,0-1.27-1.66,1.23,1.23,0,0,1-.7-1.1l0-1.13a1.68,1.68,0,0,1,.18-.95c.12-.16.39-.23.8-.23h12.32a11,11,0,0,1,8.47,3.4q3.16,3.4,3.16,9.41a17.4,17.4,0,0,1-1,6,9.25,9.25,0,0,1-2.45,3.9,12.92,12.92,0,0,1-3.42,2,10.72,10.72,0,0,1-4.12.79Zm0-22.91v20.15h1.69a2,2,0,0,0,1.55-1,5.55,5.55,0,0,0,.68-3.16v-12c0-2.7-.9-4-2.69-4Z"/><path class="cls-22" d="M602,281.25a8.74,8.74,0,0,1,6.12,2.37,17.07,17.07,0,0,1,4.22,6.74A32.54,32.54,0,0,1,614,301.59a28,28,0,0,1-3.19,13.89q-3.18,5.65-9,5.66-5.51,0-8.68-5.53T590,301.33q0-9,3.25-14.53T602,281.25Zm1.9,5.7c0-2-.65-3-1.95-3a1.71,1.71,0,0,0-1.39.75,2.84,2.84,0,0,0-.58,1.83v29a3.57,3.57,0,0,0,.58,2.22,1.67,1.67,0,0,0,1.37.76,1.64,1.64,0,0,0,1.43-.84,3.41,3.41,0,0,0,.54-1.88Z"/><path class="cls-22" d="M627.29,282.93a8.9,8.9,0,0,0,.82-1.08,1.33,1.33,0,0,1,1.15-.63c.12,0,.57.06,1.35.17a1.94,1.94,0,0,1,.36,1l1.3,8.15c.06.44.1.69.1.77a.64.64,0,0,1-.25.6,3.48,3.48,0,0,1-1.34.15,2.66,2.66,0,0,1-1.59-.31,11.48,11.48,0,0,1-1.37-2.6q-2.15-4.83-3.82-4.83-1.2,0-1.2,1.68c0,1.39,1.21,4.14,3.63,8.22a88.41,88.41,0,0,1,5.42,10.24,18.92,18.92,0,0,1,1.26,7.08q0,4.63-2.19,7.11a6.45,6.45,0,0,1-4.93,2.48,6.32,6.32,0,0,1-3.34-1,2.15,2.15,0,0,0-1-.38c-.21,0-.38.15-.51.46-.26.61-.88.91-1.87.91a1.25,1.25,0,0,1-.79-.18,1.8,1.8,0,0,1-.3-.95l-1.2-8c-.16-1-.24-1.57-.24-1.63,0-.47.43-.7,1.28-.7,1.15,0,1.83.15,2,.46a11.16,11.16,0,0,1,.89,2.09c1.41,3.9,2.83,5.84,4.26,5.84a1.62,1.62,0,0,0,1.28-.57A2.16,2.16,0,0,0,627,316a8,8,0,0,0-1.09-3.59q-1.1-2.08-2.68-4.63a80.13,80.13,0,0,1-5.37-9.75,18.6,18.6,0,0,1-1.58-7.44,11.27,11.27,0,0,1,1.88-6.83,5.55,5.55,0,0,1,4.59-2.55A9,9,0,0,1,627.29,282.93Z"/><path class="cls-22" d="M640.93,284.59h-1.1c-.35,0-.64.24-.87.71a17,17,0,0,0-.7,3.84,3.31,3.31,0,0,1-.53,1.72,2.16,2.16,0,0,1-1.44.34A2.32,2.32,0,0,1,635,291a1.28,1.28,0,0,1-.3-1c0-.29,0-.57,0-.86l.29-5.61a2.12,2.12,0,0,1,.33-1.28,2.23,2.23,0,0,1,1.45-.3h17.64c.51,0,.83.06.94.19a3.45,3.45,0,0,1,.26,1.39l.41,5a11.4,11.4,0,0,1,0,1.18,2.64,2.64,0,0,1-.18,1.1q-.18.39-1.14.39a3.29,3.29,0,0,1-1.58-.24c-.23-.16-.42-.67-.56-1.52a25.91,25.91,0,0,0-.84-3.42c-.31-.89-.68-1.34-1.13-1.34h-.72v30.88a1.81,1.81,0,0,0,1.15,1.82,1.34,1.34,0,0,1,.64.52,3.36,3.36,0,0,1,.15,1.26c0,.82-.07,1.3-.21,1.43a1.56,1.56,0,0,1-1,.21H640q-.63,0-.81-.24a3,3,0,0,1-.18-1.37c0-.9.25-1.45.76-1.64a2.16,2.16,0,0,0,.92-.56,1.72,1.72,0,0,0,.2-.95Z"/><path class="cls-22" d="M682.29,281.25a8.78,8.78,0,0,1,6.12,2.37,17.07,17.07,0,0,1,4.22,6.74,32.56,32.56,0,0,1,1.63,11.23,27.92,27.92,0,0,1-3.19,13.89q-3.18,5.65-9,5.66-5.51,0-8.68-5.53t-3.17-14.28q0-9,3.26-14.53T682.29,281.25Zm1.9,5.7c0-2-.65-3-2-3a1.72,1.72,0,0,0-1.4.75,2.9,2.9,0,0,0-.57,1.83v29a3.63,3.63,0,0,0,.57,2.22,1.7,1.7,0,0,0,1.37.76,1.63,1.63,0,0,0,1.43-.84,3.34,3.34,0,0,0,.55-1.88Z"/><path class="cls-22" d="M707.12,301.18v14.6c0,.75.47,1.27,1.4,1.54a1.63,1.63,0,0,1,.88.44,2.22,2.22,0,0,1,.18,1.12,3.29,3.29,0,0,1-.21,1.59q-.2.24-1,.24h-11a1.46,1.46,0,0,1-1.19-.37,2.78,2.78,0,0,1-.28-1.53,2.22,2.22,0,0,1,.13-1,2.06,2.06,0,0,1,.78-.49,3.16,3.16,0,0,0,1.11-.66,1.35,1.35,0,0,0,.22-.83V286.8a1.59,1.59,0,0,0-.26-1,2.73,2.73,0,0,0-1.09-.7,1.13,1.13,0,0,1-.6-1.17c0-.07,0-.42,0-1.06a1,1,0,0,1,1.16-1h15a1.57,1.57,0,0,1,.94.21,2,2,0,0,1,.41,1.06c0,.1,0,.23.07.41l1.08,5.34a4.29,4.29,0,0,1,.1.87c0,.51-.39.76-1.16.76q-1.53,0-1.92-.57a16.57,16.57,0,0,1-1.2-2.86,5.3,5.3,0,0,0-1-1.88,2.13,2.13,0,0,0-1.53-.48c-.19,0-.54,0-1.06.07v13.73h1.23a1.71,1.71,0,0,0,1.34-.44,3.31,3.31,0,0,0,.54-1.53,5.88,5.88,0,0,1,.41-1.57c.12-.24.65-.35,1.58-.35a2.09,2.09,0,0,1,1.17.19,1,1,0,0,1,.2.74v8.71a1,1,0,0,1-.19.72,2.52,2.52,0,0,1-1.23.17c-.83,0-1.35-.14-1.57-.41a4.51,4.51,0,0,1-.49-2,1.61,1.61,0,0,0-1.76-1.61Z"/><path class="cls-22" d="M727.13,301.18v14.6c0,.75.47,1.27,1.4,1.54a1.63,1.63,0,0,1,.87.44,2.22,2.22,0,0,1,.18,1.12,3.34,3.34,0,0,1-.2,1.59c-.14.16-.47.24-1,.24h-11a1.48,1.48,0,0,1-1.19-.37,2.9,2.9,0,0,1-.27-1.53,2.22,2.22,0,0,1,.13-1,2.06,2.06,0,0,1,.78-.49,3.38,3.38,0,0,0,1.11-.66,1.35,1.35,0,0,0,.21-.83V286.8a1.59,1.59,0,0,0-.25-1,2.81,2.81,0,0,0-1.09-.7,1.13,1.13,0,0,1-.61-1.17c0-.07,0-.42,0-1.06a1,1,0,0,1,1.15-1h15a1.57,1.57,0,0,1,.94.21,1.89,1.89,0,0,1,.4,1.06c0,.1,0,.23.08.41l1.08,5.34a5.16,5.16,0,0,1,.1.87c0,.51-.39.76-1.16.76q-1.55,0-1.92-.57a17.16,17.16,0,0,1-1.21-2.86,5.32,5.32,0,0,0-1-1.88,2.13,2.13,0,0,0-1.53-.48c-.19,0-.55,0-1.06.07v13.73h1.23a1.69,1.69,0,0,0,1.33-.44,3.2,3.2,0,0,0,.54-1.53,6.31,6.31,0,0,1,.41-1.57c.13-.24.66-.35,1.59-.35a2.09,2.09,0,0,1,1.17.19,1.06,1.06,0,0,1,.2.74v8.71a1,1,0,0,1-.19.72,2.52,2.52,0,0,1-1.23.17c-.83,0-1.36-.14-1.57-.41a4.61,4.61,0,0,1-.5-2,1.6,1.6,0,0,0-1.75-1.61Z"/><path class="cls-22" d="M736.32,283.92v-1.28c0-.49.26-.74.79-.74h11.52a1.34,1.34,0,0,1,.84.17c.13.11.19.45.19,1a5.35,5.35,0,0,1-.13,1.58.7.7,0,0,1-.59.39,1.69,1.69,0,0,0-1.49,1.9v28.9a1.6,1.6,0,0,0,1.08,1.44,1.89,1.89,0,0,1,.84.61,2,2,0,0,1,.15.91v.94c0,.51,0,.8-.15.86a1.55,1.55,0,0,1-.74.1H736.89c-.44,0-.67-.18-.67-.53a10.38,10.38,0,0,1,.12-2.12q.12-.37.84-.6c.87-.24,1.3-.7,1.3-1.37V287.55a3.81,3.81,0,0,0-.24-1.53,1.86,1.86,0,0,0-1.06-.85,1.79,1.79,0,0,1-.73-.47A1.58,1.58,0,0,1,736.32,283.92Z"/><path class="cls-22" d="M766.71,281.25H768a.73.73,0,0,1,.65.32,4.7,4.7,0,0,1,.31,1.75l.56,7.74c0,.16,0,.31,0,.46a1.82,1.82,0,0,1-.29,1.17,1.47,1.47,0,0,1-1.15.34,1.71,1.71,0,0,1-1.47-.55,7.54,7.54,0,0,1-.79-2.62c-.66-3.5-1.6-5.24-2.82-5.24-1,0-1.51,1.25-1.51,3.77v27.05q0,2.7,1.59,2.7c1.34,0,2.1-1.5,2.26-4.5a3.06,3.06,0,0,1,.5-1.81,2.36,2.36,0,0,1,1.78-.5,2.07,2.07,0,0,1,1.41.37,2,2,0,0,1,.39,1.46,8.21,8.21,0,0,1-2.06,5.71,6.7,6.7,0,0,1-5.15,2.27,7.88,7.88,0,0,1-5.24-1.9c-1.51-1.26-2.81-3.45-3.91-6.55a36.21,36.21,0,0,1-1.65-11.92,35,35,0,0,1,1.39-10.95,16.76,16.76,0,0,1,3.53-6.33,6.77,6.77,0,0,1,5-2.24,4.9,4.9,0,0,1,3,.94,1.52,1.52,0,0,0,.72.33c.19,0,.47-.22.82-.67S766.45,281.25,766.71,281.25Z"/><path class="cls-22" d="M781.71,284.86v13.73h1.64a1.44,1.44,0,0,0,1-.29,2.37,2.37,0,0,0,.48-1.25,9.81,9.81,0,0,1,.47-2.05.6.6,0,0,1,.56-.33,7.56,7.56,0,0,1,2.15.15c.17.11.26.51.26,1.22v8a1.4,1.4,0,0,1-.24,1,2.82,2.82,0,0,1-1.5.23,1.5,1.5,0,0,1-1.09-.3,4.44,4.44,0,0,1-.54-1.7,4.2,4.2,0,0,0-.52-1.56,1,1,0,0,0-.78-.29h-1.88V318H783a1.8,1.8,0,0,0,1.62-.66,20.1,20.1,0,0,0,1.43-3.82,4.39,4.39,0,0,1,.85-1.73,2.18,2.18,0,0,1,1.51-.41c1,0,1.49.33,1.49,1a4.82,4.82,0,0,1-.1.84l-.89,5.46a9.18,9.18,0,0,1-.39,1.79c-.11.2-.43.3-1,.3h-16c-.4,0-.66-.09-.77-.28a4.06,4.06,0,0,1-.17-1.6,1.27,1.27,0,0,1,.86-1.22c.88-.37,1.33-.88,1.33-1.52v-30c0-.31-.38-.61-1.09-.92a1.68,1.68,0,0,1-.85-.6,4.3,4.3,0,0,1-.13-1.39,2.52,2.52,0,0,1,.14-1.12q.15-.18.84-.18H787a1.45,1.45,0,0,1,.84.19,1.57,1.57,0,0,1,.41.91l1.22,6.21a3.64,3.64,0,0,1,.1.65c0,.43-.39.65-1.16.65a3.41,3.41,0,0,1-1.75-.3,3.12,3.12,0,0,1-.84-1.51,15.77,15.77,0,0,0-1.28-3,1.49,1.49,0,0,0-1.21-.84Z"/><polygon class="cls-23" points="643.21 251.37 557.93 350.32 649.62 350.32 734.9 251.37 643.21 251.37"/><path class="cls-22" d="M551.38,300.84a9.32,9.32,0,1,1-9.32-9.31A9.32,9.32,0,0,1,551.38,300.84Z"/><path class="cls-22" d="M815.38,300.84a9.32,9.32,0,1,1-9.32-9.31A9.32,9.32,0,0,1,815.38,300.84Z"/><path class="cls-23" d="M701,320.2l10.89,9.38c1.36,1.18,5.15-1,8.45-4.82l63.26-73.39H756l-51.5,59.75C701.17,315,699.59,319,701,320.2Z"/><rect class="cls-22" x="228.34" y="200.79" width="641.6" height="33.6" rx="14.4"/><path class="cls-10" d="M696,413.87a59.14,59.14,0,0,1,9.12-25.58,63.65,63.65,0,0,1,6-8A61,61,0,0,1,743,361.05a70.22,70.22,0,0,1,16.26-1.87c42.85,0,63.52,35.56,63.52,58.47V574.38a4.52,4.52,0,0,1-4.6,4.44H700.38a4.52,4.52,0,0,1-4.6-4.44V417.65C695.78,416.43,695.85,415.16,696,413.87Z"/><path class="cls-24" d="M815.21,418.94a54.49,54.49,0,0,0-8-23.09,57,57,0,0,0-5.24-7.24,52.89,52.89,0,0,0-27.9-17.35,59,59,0,0,0-14.2-1.7c-37.42,0-55.47,32.11-55.47,52.8V563.87a4,4,0,0,0,4,4H811.37a4,4,0,0,0,4-4V422.36C815.38,421.25,815.32,420.11,815.21,418.94Z"/><path class="cls-25" d="M774.11,371.26l-69.67,80.65v49.65L802,388.61A52.89,52.89,0,0,0,774.11,371.26Z"/><path class="cls-10" d="M520.78,413.87a59,59,0,0,1,9.11-25.58,63.65,63.65,0,0,1,6-8,61,61,0,0,1,32-19.22,70.22,70.22,0,0,1,16.26-1.87c42.85,0,63.52,35.56,63.52,58.47V574.38a4.52,4.52,0,0,1-4.6,4.44H525.18a4.52,4.52,0,0,1-4.6-4.44V417.65C520.58,416.43,520.65,415.16,520.78,413.87Z"/><path class="cls-24" d="M529.13,418.94a54.49,54.49,0,0,1,8-23.09,57.08,57.08,0,0,1,5.25-7.24,52.81,52.81,0,0,1,27.9-17.35,59,59,0,0,1,14.19-1.7c37.43,0,55.47,32.11,55.47,52.8V563.87a4,4,0,0,1-4,4H533a4,4,0,0,1-4-4V422.36C529,421.25,529,420.11,529.13,418.94Z"/><path class="cls-25" d="M566.16,472a10.56,10.56,0,1,0,16,13.81l57.77-66.88a54.49,54.49,0,0,0-8-23.09Z"/><path class="cls-12" d="M660.87,572.82a11.09,11.09,0,0,1-11.09,11.1h-132a11.11,11.11,0,0,1-11.11-11.1h0a11.11,11.11,0,0,1,11.11-11.1h132a11.09,11.09,0,0,1,11.09,11.1Z"/><path class="cls-12" d="M828.87,572.82a11.09,11.09,0,0,1-11.09,11.1h-132a11.1,11.1,0,0,1-11.11-11.1h0a11.1,11.1,0,0,1,11.11-11.1h132a11.09,11.09,0,0,1,11.09,11.1Z"/></g><g id="Mail_Box" data-name="Mail Box"><rect class="cls-26" x="115.76" y="372.09" width="150.12" height="321.93" rx="10.01"/><path class="cls-26" d="M191.15,306.15c-34.55,0-62.56,14.31-62.56,32H253.7C253.7,320.46,225.69,306.15,191.15,306.15Z"/><rect class="cls-27" x="98.53" y="666.05" width="189.6" height="81.55" rx="10.01"/><path class="cls-28" d="M273.84,371.28c-4,6.76-6.64,10.28-13.7,10.28H121.25c-5.67,0-8.35-4.8-11.77-10.28L97,342.63c-4.09-9.31,3.36-12.43,9-12.43H276.12c5.67,0,12.91,4.19,9.44,12.3Z"/><rect class="cls-29" x="149.12" y="425.44" width="87.57" height="8.66"/><rect class="cls-30" x="160.8" y="451.62" width="67.28" height="102.86"/><rect class="cls-31" x="244.76" y="381.56" width="5" height="284.5"/><path class="cls-31" d="M238.57,572.11a6.53,6.53,0,1,0-10,5.53v8.71a3.48,3.48,0,1,0,6.95,0v-8.71A6.52,6.52,0,0,0,238.57,572.11Z"/></g></g></g></g></svg>