<svg xmlns="http://www.w3.org/2000/svg" xmlns:xlink="http://www.w3.org/1999/xlink" viewBox="0 0 269.44 203.65"><defs><style>.cls-1{isolation:isolate;}.cls-2{fill:#eddfc4;}.cls-3{fill:#c9bba5;}.cls-4{fill:#a56e68;}.cls-5{fill:#91615b;}.cls-6{fill:#ccccd5;}.cls-14,.cls-17,.cls-20,.cls-21,.cls-22,.cls-7{fill:#86839c;}.cls-8{fill:#754922;}.cls-9{fill:#58b9cc;}.cls-10{fill:#dedede;}.cls-11{fill:#684a41;}.cls-12{fill:#87ccd5;}.cls-13{fill:#8e655a;}.cls-101,.cls-103,.cls-107,.cls-109,.cls-113,.cls-114,.cls-14,.cls-17,.cls-20,.cls-21,.cls-22,.cls-35,.cls-37,.cls-43,.cls-49,.cls-50,.cls-58,.cls-59,.cls-69,.cls-81,.cls-84,.cls-85{mix-blend-mode:multiply;}.cls-14{opacity:0.19;}.cls-15{fill:#9d9ea5;}.cls-16{fill:#a9a9b1;}.cls-17,.cls-35{opacity:0.32;}.cls-18{fill:#5d4344;}.cls-19{fill:#a0642f;}.cls-20,.cls-78{opacity:0.35;}.cls-21{opacity:0.52;}.cls-22{opacity:0.46;}.cls-23,.cls-25{fill:#fff8e7;}.cls-23,.cls-24{opacity:0.2;}.cls-26{fill:#ccc;}.cls-27{fill:#432337;}.cls-28{fill:#564b41;}.cls-29{fill:#5c5c5c;}.cls-30{fill:#e5e5e5;}.cls-31{fill:#b7312e;}.cls-32{fill:#50b7c4;}.cls-33{fill:#9e2a28;}.cls-34{fill:#eee9e4;}.cls-35{fill:#c39d86;}.cls-36,.cls-52{fill:#fff;}.cls-36,.cls-43{opacity:0.36;}.cls-37{fill:#c29f95;opacity:0.42;}.cls-38{fill:#edb47c;}.cls-39{fill:#9dc3cb;}.cls-40{fill:#d4d4d4;}.cls-41{fill:#eab77c;}.cls-42{fill:#f4c485;}.cls-43{fill:#edcc97;}.cls-44{fill:#8d5e44;}.cls-45{fill:#35acc6;}.cls-46{fill:#97d7df;}.cls-47{fill:#f17c25;}.cls-48{fill:#5f4c52;}.cls-49,.cls-58{fill:#c3d9de;}.cls-49,.cls-69{opacity:0.54;}.cls-50{fill:#e8d5b8;}.cls-51{fill:#192629;}.cls-53{fill:#d8a747;}.cls-54{fill:#a47d4d;}.cls-55{fill:url(#linear-gradient);}.cls-56{fill:#926146;}.cls-57{fill:#cb681f;}.cls-60{fill:url(#linear-gradient-2);}.cls-61{fill:url(#linear-gradient-3);}.cls-62{fill:#bbdfe3;}.cls-63{fill:url(#linear-gradient-4);}.cls-64{fill:url(#linear-gradient-5);}.cls-65{fill:#694e33;}.cls-66{fill:#7c523c;}.cls-67{mix-blend-mode:darken;}.cls-68{fill:#ec958f;}.cls-109,.cls-70{fill:#edb98b;}.cls-71,.cls-99{opacity:0.41;}.cls-71{fill:url(#linear-gradient-6);}.cls-72{fill:#94d0db;opacity:0.58;}.cls-73{fill:#695151;}.cls-74{fill:#ab8584;}.cls-75{fill:#7d5532;}.cls-76{fill:#f59fc5;}.cls-77{fill:#916f5d;}.cls-78{fill:#f58d80;}.cls-79{fill:#15686e;}.cls-80{fill:#f3a61e;}.cls-81{fill:#bed2d0;}.cls-82{fill:#eb9d85;}.cls-83{fill:url(#linear-gradient-7);}.cls-84,.cls-93{fill:#decdac;}.cls-85{opacity:0.53;}.cls-86{fill:#8cc88f;}.cls-87{fill:#f88011;}.cls-88{fill:#f5c585;}.cls-89{fill:#ba2e0d;}.cls-90{fill:#6b5245;}.cls-91{fill:url(#linear-gradient-8);}.cls-92{fill:#6b431f;}.cls-94{fill:#ededed;}.cls-95{fill:#60b1b2;}.cls-96{fill:#f0bd96;}.cls-97{fill:#f2f2f2;}.cls-98{fill:#f5c084;}.cls-99{fill:url(#linear-gradient-9);}.cls-100{fill:#596998;}.cls-101{fill:#e5e3eb;}.cls-102{fill:#eacca0;}.cls-103{fill:#ead5b8;}.cls-104{fill:#4cb6bc;}.cls-105{fill:#9e5c15;}.cls-106{fill:#834d12;}.cls-107{fill:#ecd6b9;}.cls-108{fill:#e9a21f;opacity:0.5;}.cls-109{opacity:0.48;}.cls-110{fill:#8dcddb;}.cls-111{fill:#f6976f;}.cls-112{fill:#fdfef9;}.cls-113,.cls-116{fill:#f1d3c5;}.cls-114,.cls-115{fill:#d3d2d1;}</style><linearGradient id="linear-gradient" x1="134.51" y1="80.84" x2="134.51" y2="67.16" gradientUnits="userSpaceOnUse"><stop offset="0" stop-color="#a87a4b"/><stop offset="0.34" stop-color="#905d36"/><stop offset="0.76" stop-color="#764021"/><stop offset="1" stop-color="#6d3519"/></linearGradient><linearGradient id="linear-gradient-2" x1="129.2" y1="76.43" x2="139.09" y2="76.43" gradientUnits="userSpaceOnUse"><stop offset="0" stop-color="#efe1da"/><stop offset="0.47" stop-color="#f0e3dc"/><stop offset="0.7" stop-color="#f3e9e4"/><stop offset="0.88" stop-color="#f9f4f1"/><stop offset="1" stop-color="#fff"/></linearGradient><linearGradient id="linear-gradient-3" x1="131.86" y1="75.24" x2="137.53" y2="75.24" xlink:href="#linear-gradient-2"/><linearGradient id="linear-gradient-4" x1="136.91" y1="86.01" x2="138.84" y2="86.01" xlink:href="#linear-gradient-2"/><linearGradient id="linear-gradient-5" x1="130.31" y1="86.01" x2="132.18" y2="86.01" xlink:href="#linear-gradient-2"/><linearGradient id="linear-gradient-6" x1="134.54" y1="84.89" x2="134.54" y2="80.23" gradientUnits="userSpaceOnUse"><stop offset="0" stop-color="#f6e7d3"/><stop offset="1" stop-color="#f6bd90"/></linearGradient><linearGradient id="linear-gradient-7" x1="103.6" y1="125" x2="103.6" y2="112.48" gradientUnits="userSpaceOnUse"><stop offset="0" stop-color="#8d673f"/><stop offset="0.25" stop-color="#7d5439"/><stop offset="0.73" stop-color="#633730"/><stop offset="1" stop-color="#592c2d"/></linearGradient><linearGradient id="linear-gradient-8" x1="169.73" y1="94.8" x2="169.73" y2="72.71" xlink:href="#linear-gradient"/><linearGradient id="linear-gradient-9" x1="169.53" y1="89.68" x2="169.53" y2="85.86" xlink:href="#linear-gradient-6"/></defs><g class="cls-1"><g id="Layer_2" data-name="Layer 2"><g id="Layer_1-2" data-name="Layer 1"><path class="cls-2" d="M53.19,21,8.29,67.55v97.81H98.08V67.55ZM67.65,127.37v24.78H54V127.37Zm-15.54,0v24.78H38.46V127.37ZM38.46,105.65V80.86H52.11v24.79Zm15.55,0V80.86H67.65v24.79Z"/><rect class="cls-3" x="98.07" y="75.78" width="117" height="89.58"/><polygon class="cls-4" points="106.36 71.07 106.36 75.77 98.08 75.77 98.08 67.55 53.18 20.99 8.29 67.55 8.29 75.77 0 75.77 0 71.07 53.18 15.91 106.36 71.07"/><polygon class="cls-5" points="223.32 71.06 223.32 75.76 106.36 75.76 106.36 71.06 53.19 15.91 170.13 15.91 204.87 51.94 208.39 55.59 223.32 71.06"/><polygon class="cls-5" points="98.08 123.89 225.27 123.89 248.37 123.89 248.37 121.44 217.02 112.93 98.08 112.93 98.08 123.89"/><rect class="cls-6" x="6.52" y="165.35" width="93.52" height="11.16"/><rect class="cls-6" x="100.04" y="165.36" width="148.31" height="11.16"/><polygon class="cls-7" points="191.9 147.16 191.9 148.92 190.41 148.92 190.41 151.85 189.63 151.85 189.63 148.92 187.28 148.92 187.28 151.85 186.5 151.85 186.5 148.92 184.15 148.92 184.15 151.85 183.36 151.85 183.36 148.92 181.92 148.92 181.92 147.16 191.9 147.16"/><polygon class="cls-7" points="203.28 147.16 203.28 148.92 202.93 148.92 202.93 151.85 202.15 151.85 202.15 148.92 199.81 148.92 199.81 151.85 199.02 151.85 199.02 148.92 196.67 148.92 196.67 151.85 195.89 151.85 195.89 148.92 193.53 148.92 193.53 151.85 193.29 151.85 193.29 147.16 203.28 147.16"/><path class="cls-8" d="M147.76,128.69v24.69H172V128.69ZM159,151.85h-10V130.33h10Zm11.37,0h-10V130.33h10Z"/><rect class="cls-9" x="149.05" y="130.33" width="9.99" height="21.52"/><rect class="cls-9" x="160.42" y="130.33" width="9.99" height="21.52"/><path class="cls-8" d="M180.63,128.69v24.69h24.25V128.69Zm11.28,23.16h-10V130.33h10Zm11.37,0h-10V130.33h10Z"/><rect class="cls-9" x="181.92" y="130.33" width="9.99" height="21.52"/><rect class="cls-9" x="193.29" y="130.33" width="9.99" height="21.52"/><rect class="cls-10" x="94.26" y="4.55" width="13.79" height="30.52"/><polygon class="cls-5" points="109.37 2.89 92.94 2.89 95.19 0 107.13 0 109.37 2.89"/><rect class="cls-10" x="144.54" y="4.55" width="13.79" height="30.52"/><polygon class="cls-5" points="159.66 2.89 143.22 2.89 145.47 0 157.4 0 159.66 2.89"/><path class="cls-11" d="M36.7,125.45v28.47H69.85V125.45Zm15.41,26.7H38.46V127.37H52.11Zm15.54,0H54V127.37H67.65Z"/><rect class="cls-12" x="54.01" y="127.37" width="13.64" height="24.79"/><rect class="cls-12" x="38.46" y="127.37" width="13.65" height="24.79"/><rect class="cls-13" x="69.86" y="125.45" width="12.03" height="28.46"/><rect class="cls-14" x="71.54" y="127.36" width="8.37" height="0.7"/><rect class="cls-14" x="71.54" y="129.21" width="8.37" height="0.7"/><rect class="cls-14" x="71.54" y="131.06" width="8.37" height="0.7"/><rect class="cls-14" x="71.54" y="132.92" width="8.37" height="0.69"/><rect class="cls-14" x="71.54" y="134.77" width="8.37" height="0.69"/><rect class="cls-14" x="71.54" y="136.62" width="8.37" height="0.7"/><rect class="cls-14" x="71.54" y="138.48" width="8.37" height="0.7"/><rect class="cls-14" x="71.54" y="140.34" width="8.37" height="0.69"/><rect class="cls-14" x="71.54" y="142.19" width="8.37" height="0.69"/><rect class="cls-14" x="71.54" y="144.04" width="8.37" height="0.7"/><rect class="cls-14" x="71.54" y="145.9" width="8.37" height="0.7"/><rect class="cls-14" x="71.54" y="147.75" width="8.37" height="0.7"/><rect class="cls-14" x="71.54" y="149.6" width="8.37" height="0.7"/><rect class="cls-14" x="71.54" y="151.46" width="8.37" height="0.69"/><rect class="cls-13" x="24.67" y="125.45" width="12.03" height="28.46"/><rect class="cls-14" x="26.36" y="127.36" width="8.36" height="0.7"/><rect class="cls-14" x="26.36" y="129.21" width="8.36" height="0.7"/><rect class="cls-14" x="26.36" y="131.06" width="8.36" height="0.7"/><rect class="cls-14" x="26.36" y="132.92" width="8.36" height="0.69"/><rect class="cls-14" x="26.36" y="134.77" width="8.36" height="0.69"/><rect class="cls-14" x="26.36" y="136.62" width="8.36" height="0.7"/><rect class="cls-14" x="26.36" y="138.48" width="8.36" height="0.7"/><rect class="cls-14" x="26.36" y="140.34" width="8.36" height="0.69"/><rect class="cls-14" x="26.36" y="142.19" width="8.36" height="0.69"/><rect class="cls-14" x="26.36" y="144.04" width="8.36" height="0.7"/><rect class="cls-14" x="26.36" y="145.9" width="8.36" height="0.7"/><rect class="cls-14" x="26.36" y="147.75" width="8.36" height="0.7"/><rect class="cls-14" x="26.36" y="149.6" width="8.36" height="0.7"/><rect class="cls-14" x="26.36" y="151.46" width="8.36" height="0.69"/><path class="cls-11" d="M36.7,78.94v28.47H69.85V78.94Zm15.41,26.71H38.46V80.86H52.11Zm15.54,0H54V80.86H67.65Z"/><rect class="cls-12" x="38.46" y="80.86" width="13.65" height="24.79"/><rect class="cls-12" x="54.01" y="80.86" width="13.64" height="24.79"/><rect class="cls-13" x="69.86" y="78.94" width="12.03" height="28.46"/><rect class="cls-14" x="71.54" y="80.85" width="8.37" height="0.69"/><rect class="cls-14" x="71.54" y="82.7" width="8.37" height="0.69"/><rect class="cls-14" x="71.54" y="84.55" width="8.37" height="0.7"/><rect class="cls-14" x="71.54" y="86.41" width="8.37" height="0.69"/><rect class="cls-14" x="71.54" y="88.26" width="8.37" height="0.7"/><rect class="cls-14" x="71.54" y="90.12" width="8.37" height="0.7"/><rect class="cls-14" x="71.54" y="91.97" width="8.37" height="0.7"/><rect class="cls-14" x="71.54" y="93.82" width="8.37" height="0.69"/><rect class="cls-14" x="71.54" y="95.68" width="8.37" height="0.69"/><rect class="cls-14" x="71.54" y="97.53" width="8.37" height="0.7"/><rect class="cls-14" x="71.54" y="99.39" width="8.37" height="0.7"/><rect class="cls-14" x="71.54" y="101.24" width="8.37" height="0.69"/><rect class="cls-14" x="71.54" y="103.09" width="8.37" height="0.69"/><rect class="cls-14" x="71.54" y="104.95" width="8.37" height="0.7"/><rect class="cls-13" x="24.67" y="78.94" width="12.03" height="28.46"/><rect class="cls-14" x="26.36" y="80.85" width="8.36" height="0.69"/><rect class="cls-14" x="26.36" y="82.7" width="8.36" height="0.69"/><rect class="cls-14" x="26.36" y="84.55" width="8.36" height="0.7"/><rect class="cls-14" x="26.36" y="86.41" width="8.36" height="0.69"/><rect class="cls-14" x="26.36" y="88.26" width="8.36" height="0.7"/><rect class="cls-14" x="26.36" y="90.12" width="8.36" height="0.7"/><rect class="cls-14" x="26.36" y="91.97" width="8.36" height="0.7"/><rect class="cls-14" x="26.36" y="93.82" width="8.36" height="0.69"/><rect class="cls-14" x="26.36" y="95.68" width="8.36" height="0.69"/><rect class="cls-14" x="26.36" y="97.53" width="8.36" height="0.7"/><rect class="cls-14" x="26.36" y="99.39" width="8.36" height="0.7"/><rect class="cls-14" x="26.36" y="101.24" width="8.36" height="0.69"/><rect class="cls-14" x="26.36" y="103.09" width="8.36" height="0.69"/><rect class="cls-14" x="26.36" y="104.95" width="8.36" height="0.7"/><path class="cls-11" d="M116.79,82.2v24.7h24.26V82.2Zm11.28,23.16h-10V83.85h10Zm11.36,0h-10V83.85h10Z"/><rect class="cls-12" x="118.09" y="83.85" width="9.97" height="21.51"/><rect class="cls-12" x="129.47" y="83.85" width="9.96" height="21.51"/><rect class="cls-13" x="141.06" y="82.19" width="10.44" height="24.7"/><rect class="cls-14" x="142.53" y="83.85" width="7.26" height="0.6"/><rect class="cls-14" x="142.53" y="85.46" width="7.26" height="0.6"/><rect class="cls-14" x="142.53" y="87.07" width="7.26" height="0.6"/><rect class="cls-14" x="142.53" y="88.67" width="7.26" height="0.6"/><rect class="cls-14" x="142.53" y="90.28" width="7.26" height="0.6"/><rect class="cls-14" x="142.53" y="91.89" width="7.26" height="0.6"/><rect class="cls-14" x="142.53" y="93.5" width="7.26" height="0.6"/><rect class="cls-14" x="142.53" y="95.11" width="7.26" height="0.6"/><rect class="cls-14" x="142.53" y="96.72" width="7.26" height="0.6"/><rect class="cls-14" x="142.53" y="98.33" width="7.26" height="0.6"/><rect class="cls-14" x="142.53" y="99.94" width="7.26" height="0.6"/><rect class="cls-14" x="142.53" y="101.55" width="7.26" height="0.6"/><rect class="cls-14" x="142.53" y="103.15" width="7.26" height="0.6"/><rect class="cls-14" x="142.53" y="104.76" width="7.26" height="0.6"/><rect class="cls-13" x="106.35" y="82.19" width="10.44" height="24.7"/><rect class="cls-14" x="107.82" y="83.85" width="7.26" height="0.6"/><rect class="cls-14" x="107.82" y="85.46" width="7.26" height="0.6"/><rect class="cls-14" x="107.82" y="87.07" width="7.26" height="0.6"/><rect class="cls-14" x="107.82" y="88.67" width="7.26" height="0.6"/><rect class="cls-14" x="107.82" y="90.28" width="7.26" height="0.6"/><rect class="cls-14" x="107.82" y="91.89" width="7.26" height="0.6"/><rect class="cls-14" x="107.82" y="93.5" width="7.26" height="0.6"/><rect class="cls-14" x="107.82" y="95.11" width="7.26" height="0.6"/><rect class="cls-14" x="107.82" y="96.72" width="7.26" height="0.6"/><rect class="cls-14" x="107.82" y="98.33" width="7.26" height="0.6"/><rect class="cls-14" x="107.82" y="99.94" width="7.26" height="0.6"/><rect class="cls-14" x="107.82" y="101.55" width="7.26" height="0.6"/><rect class="cls-14" x="107.82" y="103.15" width="7.26" height="0.6"/><rect class="cls-14" x="107.82" y="104.76" width="7.26" height="0.6"/><path class="cls-11" d="M171.23,82.2v24.7h24.26V82.2Zm11.27,23.16h-10V83.85h10Zm11.37,0h-10V83.85h10Z"/><rect class="cls-12" x="172.53" y="83.85" width="9.96" height="21.51"/><rect class="cls-12" x="183.9" y="83.85" width="9.97" height="21.51"/><rect class="cls-13" x="195.5" y="82.19" width="10.44" height="24.7"/><rect class="cls-14" x="196.96" y="83.85" width="7.26" height="0.6"/><rect class="cls-14" x="196.96" y="85.46" width="7.26" height="0.6"/><rect class="cls-14" x="196.96" y="87.07" width="7.26" height="0.6"/><rect class="cls-14" x="196.96" y="88.67" width="7.26" height="0.6"/><rect class="cls-14" x="196.96" y="90.28" width="7.26" height="0.6"/><rect class="cls-14" x="196.96" y="91.89" width="7.26" height="0.6"/><rect class="cls-14" x="196.96" y="93.5" width="7.26" height="0.6"/><rect class="cls-14" x="196.96" y="95.11" width="7.26" height="0.6"/><rect class="cls-14" x="196.96" y="96.72" width="7.26" height="0.6"/><rect class="cls-14" x="196.96" y="98.33" width="7.26" height="0.6"/><rect class="cls-14" x="196.96" y="99.94" width="7.26" height="0.6"/><rect class="cls-14" x="196.96" y="101.55" width="7.26" height="0.6"/><rect class="cls-14" x="196.96" y="103.15" width="7.26" height="0.6"/><rect class="cls-14" x="196.96" y="104.76" width="7.26" height="0.6"/><rect class="cls-13" x="160.79" y="82.19" width="10.44" height="24.7"/><rect class="cls-14" x="162.26" y="83.85" width="7.26" height="0.6"/><rect class="cls-14" x="162.26" y="85.46" width="7.26" height="0.6"/><rect class="cls-14" x="162.26" y="87.07" width="7.26" height="0.6"/><rect class="cls-14" x="162.26" y="88.67" width="7.26" height="0.6"/><rect class="cls-14" x="162.26" y="90.28" width="7.26" height="0.6"/><rect class="cls-14" x="162.26" y="91.89" width="7.26" height="0.6"/><rect class="cls-14" x="162.26" y="93.5" width="7.26" height="0.6"/><rect class="cls-14" x="162.26" y="95.11" width="7.26" height="0.6"/><rect class="cls-14" x="162.26" y="96.72" width="7.26" height="0.6"/><rect class="cls-14" x="162.26" y="98.33" width="7.26" height="0.6"/><rect class="cls-14" x="162.26" y="99.94" width="7.26" height="0.6"/><rect class="cls-14" x="162.26" y="101.55" width="7.26" height="0.6"/><rect class="cls-14" x="162.26" y="103.15" width="7.26" height="0.6"/><rect class="cls-14" x="162.26" y="104.76" width="7.26" height="0.6"/><rect class="cls-15" x="100.04" y="165.36" width="34.57" height="3.71"/><rect class="cls-16" x="100.04" y="169.07" width="34.58" height="3.72"/><rect class="cls-6" x="100.04" y="172.79" width="34.58" height="3.71"/><polygon class="cls-11" points="127.78 128.69 127.78 165.36 125.88 165.36 125.88 130.33 108.86 130.33 108.86 165.36 106.85 165.36 106.85 128.69 127.78 128.69"/><rect class="cls-13" x="108.87" y="130.34" width="17.01" height="35.02"/><polygon class="cls-17" points="215.07 123.89 215.07 144.74 203.28 144.74 203.28 145.87 193.29 145.87 193.29 144.74 191.9 144.74 191.9 145.97 181.92 145.94 181.92 144.74 170.41 144.74 170.41 146.06 160.42 146.06 160.42 144.74 159.04 144.74 159.04 146.19 149.05 146.12 149.05 144.74 125.88 144.74 125.88 147.16 108.87 147.16 108.86 165.36 98.08 165.36 98.08 123.89 215.07 123.89"/><rect class="cls-18" x="240.49" y="123.89" width="3.52" height="41.47"/><rect class="cls-18" x="207.63" y="123.89" width="3.52" height="41.47"/><rect class="cls-18" x="174.76" y="123.89" width="3.52" height="41.47"/><rect class="cls-18" x="141.9" y="123.89" width="3.52" height="41.47"/><rect class="cls-19" x="211.15" y="147.16" width="29.34" height="1.76"/><rect class="cls-19" x="238.14" y="148.92" width="0.78" height="16.43"/><rect class="cls-19" x="235.01" y="148.92" width="0.78" height="16.43"/><rect class="cls-19" x="231.88" y="148.92" width="0.78" height="16.43"/><rect class="cls-19" x="228.75" y="148.92" width="0.79" height="16.43"/><rect class="cls-19" x="225.62" y="148.92" width="0.79" height="16.43"/><rect class="cls-19" x="222.49" y="148.92" width="0.78" height="16.43"/><rect class="cls-19" x="219.36" y="148.92" width="0.78" height="16.43"/><rect class="cls-19" x="216.23" y="148.92" width="0.78" height="16.43"/><rect class="cls-19" x="213.1" y="148.92" width="0.78" height="16.43"/><rect class="cls-19" x="178.29" y="147.16" width="29.35" height="1.76"/><rect class="cls-19" x="205.28" y="148.92" width="0.78" height="16.43"/><rect class="cls-19" x="202.14" y="148.92" width="0.78" height="16.43"/><rect class="cls-19" x="199.02" y="148.92" width="0.78" height="16.43"/><rect class="cls-19" x="195.89" y="148.92" width="0.78" height="16.43"/><rect class="cls-19" x="192.75" y="148.92" width="0.78" height="16.43"/><rect class="cls-19" x="189.63" y="148.92" width="0.78" height="16.43"/><rect class="cls-19" x="186.5" y="148.92" width="0.78" height="16.43"/><rect class="cls-19" x="183.36" y="148.92" width="0.78" height="16.43"/><rect class="cls-19" x="180.24" y="148.92" width="0.78" height="16.43"/><rect class="cls-19" x="145.42" y="147.16" width="29.35" height="1.76"/><rect class="cls-19" x="172.42" y="148.92" width="0.78" height="16.43"/><rect class="cls-19" x="169.28" y="148.92" width="0.79" height="16.43"/><rect class="cls-19" x="166.16" y="148.92" width="0.78" height="16.43"/><rect class="cls-19" x="163.02" y="148.92" width="0.78" height="16.43"/><rect class="cls-19" x="159.89" y="148.92" width="0.79" height="16.43"/><rect class="cls-19" x="156.77" y="148.92" width="0.78" height="16.43"/><rect class="cls-19" x="153.63" y="148.92" width="0.78" height="16.43"/><rect class="cls-19" x="150.5" y="148.92" width="0.8" height="16.43"/><rect class="cls-19" x="147.37" y="148.92" width="0.78" height="16.43"/><polygon class="cls-20" points="98.08 67.55 98.08 85.69 94.85 82.36 49.95 35.8 8.29 79.02 8.29 67.55 53.18 20.99 98.08 67.55"/><polygon class="cls-17" points="215.07 75.78 215.07 86.42 193.87 86.42 193.87 87.67 183.9 87.67 183.9 86.42 182.5 86.42 182.5 87.67 172.52 87.67 172.52 86.42 139.43 86.42 139.43 88.12 129.46 88.06 129.46 86.42 128.07 86.42 128.07 88.06 118.08 88.12 118.08 86.42 113.33 86.42 113.33 112.93 98.08 112.93 98.08 75.78 215.07 75.78"/><rect class="cls-21" x="68.77" y="107.4" width="12.03" height="1.09"/><polygon class="cls-21" points="35.61 107.4 35.61 108.5 23.58 108.5 23.58 80.03 24.67 80.03 24.67 107.4 35.61 107.4"/><rect class="cls-21" x="68.77" y="153.91" width="12.03" height="1.09"/><polygon class="cls-21" points="35.61 153.91 35.61 155 23.58 155 23.58 126.54 24.67 126.54 24.67 153.91 35.61 153.91"/><rect class="cls-22" x="141.9" y="123.89" width="3.52" height="7.72"/><rect class="cls-22" x="174.76" y="123.89" width="3.52" height="7.72"/><rect class="cls-22" x="207.63" y="123.89" width="3.52" height="7.72"/><rect class="cls-22" x="240.49" y="123.89" width="3.52" height="7.72"/><rect class="cls-22" x="98.08" y="112.93" width="11.74" height="10.96"/><rect class="cls-22" x="100.04" y="172.79" width="3.32" height="3.71"/><rect class="cls-22" x="100.04" y="169.07" width="5.53" height="3.72"/><rect class="cls-22" x="100.04" y="165.36" width="7.87" height="3.72"/><path class="cls-23" d="M67.65,127.37v11.68c-3,2.76-9.16,2.91-12.63,2.51a7.8,7.8,0,0,1-1-.16v-7.3a19.87,19.87,0,0,0,9.14-1.54,8.5,8.5,0,0,0,4.35-5.19Z"/><path class="cls-23" d="M182.49,87.35V101a9,9,0,0,1-4,4.34h-5.92V92.82c1.48-.1,3.29.36,4.75-.13,2.74-1,.87-3.75,3.12-4.87A4.84,4.84,0,0,1,182.49,87.35Z"/><path class="cls-23" d="M193.87,85.19v8.52a12.59,12.59,0,0,1-7.72,2.61,9,9,0,0,0-2.25.29V87.36a30.51,30.51,0,0,0,3.88.08,13,13,0,0,0,5.62-1.88A3,3,0,0,0,193.87,85.19Z"/><g class="cls-24"><path class="cls-25" d="M67.65,81.39v10.3a24.42,24.42,0,0,1-7.75,2.13,41.41,41.41,0,0,1-5.89,0v-8a18.66,18.66,0,0,0,9.64-1.76A19.78,19.78,0,0,0,67.65,81.39Z"/></g><g class="cls-24"><path class="cls-25" d="M52.11,85.75v8a9.43,9.43,0,0,0-4.59,1.16c-3.5,2.25-5.37,5.5-8.24,8.25a7.9,7.9,0,0,1-.82.66V92.36a3.84,3.84,0,0,0,1.32-.42c3.87-2.12,4.74-6.25,9.62-6.25C50.34,85.69,51.24,85.72,52.11,85.75Z"/></g><g class="cls-24"><path class="cls-25" d="M67.65,101.76v3.89H54v-2.32h.14c3,0,5.25.74,8.37,0A24.82,24.82,0,0,0,67.65,101.76Z"/></g><g class="cls-24"><path class="cls-25" d="M52.11,103.76v1.89H49.39A8.09,8.09,0,0,1,52.11,103.76Z"/></g><g class="cls-24"><path class="cls-25" d="M52.11,133.93v7c-2.3-.58-4.77-1.2-6.59.09-1.5,1.25-2,3.63-4,4.5a5.11,5.11,0,0,1-3.06.17V132.28l1.44-.72c3.25-1.5,4.75-.24,7.75,1.13A15.83,15.83,0,0,0,52.11,133.93Z"/></g><g class="cls-24"><path class="cls-25" d="M67.65,148.35v3.8h-12a10.9,10.9,0,0,1,2.62-1.71c2.12-1.13,4.37-.63,6.74-1.13A7.73,7.73,0,0,0,67.65,148.35Z"/></g><g class="cls-24"><path class="cls-25" d="M128.06,89v9a3.37,3.37,0,0,0-1,.7c-1,.87-1.37,1.87-2.74,2.63a50.59,50.59,0,0,1-6.19,2.22V90.68c1.49-.69,2.94-1.44,4.43-2.12a4.51,4.51,0,0,1,3.76-.37A17.1,17.1,0,0,1,128.06,89Z"/></g><g class="cls-24"><path class="cls-25" d="M139.43,86.29V95A21.5,21.5,0,0,1,132,98.19a4.84,4.84,0,0,1-2.55-.25V89.52a2.28,2.28,0,0,0,1.68,0c.75-.5.63-2.62,1.63-3,.74-.24,2.74.63,3.62.63A5.38,5.38,0,0,0,139.43,86.29Z"/></g><rect class="cls-26" x="93.65" y="4.55" width="15.08" height="3.97"/><rect class="cls-26" x="143.89" y="4.55" width="15.08" height="3.97"/><rect class="cls-20" x="106.37" y="71.06" width="116.95" height="4.7"/><path class="cls-27" d="M258,181.45v15.31H154.26v0l-4.47-14.67Z"/><path class="cls-28" d="M245.51,185a9.31,9.31,0,1,0,9.3,9.3A9.31,9.31,0,0,0,245.51,185Zm0,16.17a6.84,6.84,0,0,1-3.18-.8l-.62-.38c-.17-.1-.33-.23-.47-.33l0,0-.49-.45h0a6.88,6.88,0,0,1-2.05-4.88,6,6,0,0,1,.11-1.14c.05-.23.09-.48.16-.72s.13-.37.18-.55a4.08,4.08,0,0,1,.32-.67,6.75,6.75,0,0,1,5.09-3.69,4.25,4.25,0,0,1,.69-.07,1.77,1.77,0,0,1,.32,0,1.46,1.46,0,0,1,.29,0,4.27,4.27,0,0,1,.71.07,6.8,6.8,0,0,1,5.11,3.69,3.35,3.35,0,0,1,.3.67,3.54,3.54,0,0,1,.18.55,4.41,4.41,0,0,1,.16.72,6,6,0,0,1,.11,1.14,6.84,6.84,0,0,1-2.05,4.88l-.55.48a2.39,2.39,0,0,1-.48.33,4.56,4.56,0,0,1-.6.38A6.76,6.76,0,0,1,245.51,201.21Z"/><path class="cls-29" d="M252.36,194.34a6.82,6.82,0,0,1-2.05,4.88l-.54.48a3.72,3.72,0,0,1-.47.34,5,5,0,0,1-.63.38,6.69,6.69,0,0,1-3.16.78,6.82,6.82,0,0,1-3.17-.78l-.64-.38-.46-.34,0,0-.49-.45h0a6.85,6.85,0,0,1-2-4.88,7.23,7.23,0,0,1,.1-1.15c.05-.23.1-.48.16-.7s.12-.38.18-.56a5,5,0,0,1,.31-.67,6.81,6.81,0,0,1,5.1-3.69,5.51,5.51,0,0,1,.7-.06,1.56,1.56,0,0,1,.31,0,1.32,1.32,0,0,1,.28,0,5.52,5.52,0,0,1,.72.06,6.78,6.78,0,0,1,5.11,3.69,4,4,0,0,1,.3.67,3.33,3.33,0,0,1,.18.56,3.77,3.77,0,0,1,.16.7A6.23,6.23,0,0,1,252.36,194.34Z"/><path class="cls-30" d="M252.26,193.2a4.41,4.41,0,0,0-.16-.72,3.54,3.54,0,0,0-.18-.55,3.35,3.35,0,0,0-.3-.67,6.8,6.8,0,0,0-5.11-3.69,4.27,4.27,0,0,0-.71-.07,1.46,1.46,0,0,0-.29,0,1.77,1.77,0,0,0-.32,0,4.25,4.25,0,0,0-.69.07,6.75,6.75,0,0,0-5.09,3.69,4.08,4.08,0,0,0-.32.67c-.05.18-.13.38-.18.55s-.11.49-.16.72a6,6,0,0,0-.11,1.14,6.88,6.88,0,0,0,2.05,4.88h0l.49.45,0,0c.14.1.3.23.47.33l.62.38a6.84,6.84,0,0,0,3.18.8,6.76,6.76,0,0,0,3.18-.8,4.56,4.56,0,0,0,.6-.38,2.39,2.39,0,0,0,.48-.33l.55-.48a6.84,6.84,0,0,0,2.05-4.88A6,6,0,0,0,252.26,193.2Zm-5.75-5.06a6.41,6.41,0,0,1,4.58,3.29l-2.94,1-1.16.37-.48.16Zm-1,5.57a.63.63,0,1,1-.62.63A.64.64,0,0,1,245.51,193.71Zm-1-5.57v4.79l-.48-.16-1.18-.37-2.9-1A6.34,6.34,0,0,1,244.5,188.14ZM241,198.75a6.23,6.23,0,0,1-1.81-4.41,6.29,6.29,0,0,1,.07-1l2.92.94,1.16.37.48.16-.3.41-.72,1Zm4.47,1.87a6.12,6.12,0,0,1-2.83-.68l1.82-2.49.69-1,.31-.4.3.4.71,1,1.82,2.49A6.08,6.08,0,0,1,245.51,200.62Zm4.45-1.87-1.81-2.49-.69-1-.31-.41.46-.16,1.16-.37,2.94-.94a6,6,0,0,1,.07,1A6.19,6.19,0,0,1,250,198.75Z"/><path class="cls-31" d="M269.35,194.27a.28.28,0,0,1,0-.13s0-.07,0-.11a1.54,1.54,0,0,1-.09-.19,2,2,0,0,0-.14-.32l-.06-.07a1.56,1.56,0,0,1-.1-.22,3.17,3.17,0,0,1-.16-.32c0-.1-.07-.21-.11-.34a1.62,1.62,0,0,1-.09-.46v-2.44c0-.23,0-.46,0-.69a1.14,1.14,0,0,1,0-.25v-.48c0-.2,0-.38,0-.55s0-.4,0-.57,0-.36-.05-.54a3.85,3.85,0,0,0,0-.48c0-.14,0-.3,0-.44s0-.45-.07-.68v0a7.43,7.43,0,0,0-.72-2.54.83.83,0,0,0-.16-.29c0-.09-.1-.18-.16-.27-.18-.28-.37-.55-.59-.85s-.26-.36-.39-.55l-.6-.84c-2.37-3.4-27.94-3.93-31.78-5.57-2-.82-17.13-8.89-21.79-10.33-2.41-.75-3.08-.91-13.86-.85h-1.6l-1.19,0c-21,.68-31,8.76-37.25,10-3.9.74-11.75.68-12,1.2,0,.07-.09.26-.19.57-.17.48-.4,1.23-.63,2.05,0,.17-.12.37-.16.56s-.16.52-.23.77-.05.27-.09.39c-.1.39-.21.78-.28,1.12l-.06.27c0,.25-.1.5-.12.71a.65.65,0,0,0,0,.2,3.64,3.64,0,0,0,0,.5,3.62,3.62,0,0,1-.07.67c0,.06,0,.11-.07.16a3.31,3.31,0,0,1-.47.68.26.26,0,0,1-.05.09c-.07.11-.16.21-.23.34s-.05.09-.07.14-.14.29-.21.46,0,.09-.06.16l-.16.52a24,24,0,0,0,0,7.57,2.31,2.31,0,0,0,.14.48.52.52,0,0,0,.16.25h0a.41.41,0,0,1,.2.06,2.14,2.14,0,0,1,.48.28l.3.22.49.35c.1.07.21.16.33.23a1.49,1.49,0,0,0,.29.2c.16.12.35.23.53.36a.43.43,0,0,1,.13.09c.35.21.76.42,1.21.65a11.28,11.28,0,0,0,2.45.81l.61.12.3.05c1,.2,1.94.36,2.66.47l.71.1.12,0c.06,0,.09,0,.11,0v0a11.47,11.47,0,1,1,22.66-2.51,12.49,12.49,0,0,1-.28,2.53v0h57.68v0a11.22,11.22,0,0,1-.3-2.53,11.48,11.48,0,1,1,23,0,11.82,11.82,0,0,1-.29,2.53v0h5.63c.68,0,1.05,0,1.43,0s.72,0,1.4-.07a8.42,8.42,0,0,0,.91-.06h.37c.18,0,.38,0,.59,0l.61-.06a3.3,3.3,0,0,0,1.08-.37.57.57,0,0,0,.16-.11,1.46,1.46,0,0,0,.38-.41,1.51,1.51,0,0,0,.14-.34A1.93,1.93,0,0,0,269.35,194.27Zm-73.59-20.35a77.73,77.73,0,0,1,.68-9.71c4.23-.05,11.05-.12,13.55.27a100.79,100.79,0,0,1,12.53,5.25l2.42,1.23a0,0,0,0,1,0,0c1,.53,2,1.07,2.81,1.58a14.87,14.87,0,0,1,2.39,1.71,3.4,3.4,0,0,1,.26.29.2.2,0,0,1,0,.32,1,1,0,0,1-.25.14,16.45,16.45,0,0,1-4.6.48c-.8,0-1.69,0-2.65,0-2.64,0-5.79-.06-9.22-.18l-3.42-.13h0c-2.33-.1-4.73-.21-7.17-.35-.61,0-1.23-.07-1.84-.09-1.83-.11-3.67-.2-5.48-.32Zm-13.85-8a5.29,5.29,0,0,1,.71-.2,54.43,54.43,0,0,1,7.07-1.21c1.46-.14,2.76-.23,3.63-.23.41,0,1.09,0,2,0a74.46,74.46,0,0,0-.68,10.17c-3.88-.23-7.62-.48-10.93-.73-.34,0-.68-.06-1-.07l-2.77-.22c-3-.23-5.36-.43-7-.59a4.65,4.65,0,0,1-.87-.09,2,2,0,0,1-.36,0l-.57,0a3.91,3.91,0,0,1-.42-.08C169.36,172.08,178.1,167,181.91,165.89Z"/><path class="cls-32" d="M230.14,175a16.16,16.16,0,0,1-4.58.48c-.8,0-1.69,0-2.65,0-6.85,0-17.36-.48-27.15-1.07a75.67,75.67,0,0,1,.69-10.26c4.24-.05,11-.12,13.54.27,1.85.32,18,7.12,20.43,10.08C230.58,174.73,230.48,174.9,230.14,175Z"/><path class="cls-32" d="M195.28,164.23a76.08,76.08,0,0,0-.69,10.17c-12.4-.77-23.36-1.68-23.91-1.86-1.32-.46,7.42-5.57,11.23-6.65a50.46,50.46,0,0,1,11.41-1.64C193.73,164.25,194.41,164.25,195.28,164.23Z"/><path class="cls-33" d="M221.88,171.41c0,.78.1,1.77.18,2.52.19,1.83,1.8.11,2.15.36s-1.07.88-1.3,1.25a41.78,41.78,0,0,0,4.67.25c2.29-.06,2.62-.39,2.57-.76a31.3,31.3,0,0,0-4.52-3.4c-.37-.22-.7-.4-1-.56h0a4,4,0,0,0-1.46-.42C222.68,170.6,221.88,170.77,221.88,171.41Z"/><path class="cls-34" d="M259.91,180.58c.52,2,1.13,3.71,3.3,4.23a22.74,22.74,0,0,0,5.1.18,8.12,8.12,0,0,0-2-4.53C264.16,180.44,262,180.42,259.91,180.58Z"/><path class="cls-35" d="M269.38,195.31a1.51,1.51,0,0,1-.14.34,1.46,1.46,0,0,1-.38.41.57.57,0,0,1-.16.11,3.3,3.3,0,0,1-1.08.37l-.61.06c-.21,0-.41,0-.59,0h-.37c-.36,0-.66,0-.91.06l-1.4.07c-.38,0-.75,0-1.43,0h-5.63v0a11.82,11.82,0,0,0,.29-2.53,11.48,11.48,0,1,0-23,0,11.22,11.22,0,0,0,.3,2.53v0H176.64v0a12.49,12.49,0,0,0,.28-2.53,11.48,11.48,0,1,0-22.66,2.51h-.11l-.12,0-.71-.1c-.72-.11-1.7-.27-2.66-.47l-.3-.05-.61-.12a11.28,11.28,0,0,1-2.45-.81c-.45-.23-.86-.44-1.21-.65a.43.43,0,0,0-.13-.09c-.18-.13-.37-.24-.53-.36a1.49,1.49,0,0,1-.29-.2c-.12-.07-.23-.16-.33-.23l-.49-.35-.3-.22a2.14,2.14,0,0,0-.48-.28.41.41,0,0,0-.2-.06h0a.52.52,0,0,1-.16-.25A2.31,2.31,0,0,1,143,192a24,24,0,0,1,0-7.57l.16-.52c0-.07,0-.1.06-.16s.14-.33.21-.46,0-.09.07-.14.16-.23.23-.34a.26.26,0,0,0,.05-.09,3.31,3.31,0,0,0,.47-.68c0-.05,0-.1.07-.16a3.62,3.62,0,0,0,.07-.67,3.64,3.64,0,0,1,0-.5.65.65,0,0,1,0-.2c0-.21.07-.46.12-.71l.06-.27c.07-.34.18-.73.28-1.12,0-.12.05-.25.09-.39s.16-.52.23-.77.11-.39.16-.56c.23-.82.46-1.57.63-2.05l113.91,5.94v0a7.38,7.38,0,0,0,1.42,3.17,3.85,3.85,0,0,0,1.87,1l.59.1A14.79,14.79,0,0,0,266,185c.75,0,1.5,0,2.25-.07v0c0,.23.05.43.07.68s0,.3,0,.44a3.85,3.85,0,0,1,0,.48c0,.18,0,.36.05.54s0,.37,0,.57,0,.35,0,.55v.48a1.14,1.14,0,0,0,0,.25c0,.23,0,.46,0,.69v2.44a1.62,1.62,0,0,0,.09.46c0,.13.07.24.11.34a3.17,3.17,0,0,0,.16.32,1.56,1.56,0,0,0,.1.22l.06.07a2,2,0,0,1,.14.32,1.54,1.54,0,0,0,.09.19s0,.08,0,.11a.28.28,0,0,0,0,.13A1.93,1.93,0,0,1,269.38,195.31Z"/><path class="cls-28" d="M165.46,184.92a9.3,9.3,0,1,0,9.29,9.29A9.3,9.3,0,0,0,165.46,184.92Zm0,16.17a6.86,6.86,0,0,1-3.19-.81l-.62-.37-.46-.34,0,0-.5-.44,0,0a6.92,6.92,0,0,1-2-4.88,6.2,6.2,0,0,1,.11-1.14c.05-.23.09-.48.16-.71s.13-.37.18-.55a4.17,4.17,0,0,1,.32-.68,6.76,6.76,0,0,1,5.09-3.68,4.26,4.26,0,0,1,.7-.07,1.67,1.67,0,0,1,.32,0,1.37,1.37,0,0,1,.28,0,4.27,4.27,0,0,1,.71.07,6.81,6.81,0,0,1,5.11,3.68,4.6,4.6,0,0,1,.31.68c.07.18.12.35.18.55a5.25,5.25,0,0,1,.16.71,6.2,6.2,0,0,1,.1,1.14,6.87,6.87,0,0,1-2,4.88l-.56.48a2.08,2.08,0,0,1-.48.34,3.25,3.25,0,0,1-.6.37A6.64,6.64,0,0,1,165.46,201.09Z"/><path class="cls-29" d="M172.3,194.21a6.78,6.78,0,0,1-2,4.88l-.54.48a3.21,3.21,0,0,1-.48.34,4.49,4.49,0,0,1-.62.38,6.64,6.64,0,0,1-3.16.79,6.87,6.87,0,0,1-3.18-.79l-.64-.38-.46-.34,0,0-.49-.44,0,0a6.82,6.82,0,0,1-2-4.88,7.11,7.11,0,0,1,.1-1.14c.05-.23.1-.48.17-.71a5.42,5.42,0,0,1,.49-1.23,6.74,6.74,0,0,1,5.09-3.68,5.69,5.69,0,0,1,.71-.07h.59a5.66,5.66,0,0,1,.72.07,6.8,6.8,0,0,1,5.11,3.68,5.65,5.65,0,0,1,.29.67,3.33,3.33,0,0,1,.18.56,5.26,5.26,0,0,1,.17.71A7.11,7.11,0,0,1,172.3,194.21Z"/><path class="cls-30" d="M172.21,193.07a5.25,5.25,0,0,0-.16-.71c-.06-.2-.11-.37-.18-.55a4.6,4.6,0,0,0-.31-.68,6.81,6.81,0,0,0-5.11-3.68,4.27,4.27,0,0,0-.71-.07,1.37,1.37,0,0,0-.28,0,1.67,1.67,0,0,0-.32,0,4.26,4.26,0,0,0-.7.07,6.76,6.76,0,0,0-5.09,3.68,4.17,4.17,0,0,0-.32.68c-.05.18-.12.37-.18.55s-.11.48-.16.71a6.2,6.2,0,0,0-.11,1.14,6.92,6.92,0,0,0,2,4.88l0,0,.5.44,0,0,.46.34.62.37a6.86,6.86,0,0,0,3.19.81,6.64,6.64,0,0,0,3.17-.81,3.25,3.25,0,0,0,.6-.37,2.08,2.08,0,0,0,.48-.34l.56-.48a6.87,6.87,0,0,0,2-4.88A6.2,6.2,0,0,0,172.21,193.07Zm-5.76-5a6.36,6.36,0,0,1,4.58,3.29l-2.94,1-1.15.38-.49.16Zm-1,5.57a.62.62,0,0,1,.62.62.63.63,0,0,1-.62.63.64.64,0,0,1-.63-.63A.63.63,0,0,1,165.46,193.59Zm-1-5.57v4.79l-.48-.16-1.17-.38-2.9-1A6.27,6.27,0,0,1,164.44,188ZM161,198.63a6.22,6.22,0,0,1-1.82-4.42,5.33,5.33,0,0,1,.08-1l2.91.94,1.16.38.48.16-.3.41-.71,1Zm4.47,1.87a6.06,6.06,0,0,1-2.83-.68l1.81-2.49.7-1,.3-.41.3.41.71,1,1.82,2.49A6.07,6.07,0,0,1,165.46,200.5Zm4.45-1.87-1.82-2.5-.69-1-.3-.41.46-.16,1.16-.38,2.93-.94a5,5,0,0,1,.07,1A6.25,6.25,0,0,1,169.91,198.63Z"/><path class="cls-36" d="M183.19,166.82,178,172l-3.19-.27,2.6-2.58a27.82,27.82,0,0,1,4.75-2.06Z"/><path class="cls-36" d="M193.78,165.5c-.18,1.48-.3,2.88-.39,4.24l-3.13,3.13c-2.48-.16-4.83-.32-7-.48L190,165.7c1.32-.13,2.46-.2,3.26-.2Z"/><path class="cls-36" d="M210.76,166l-7.6,7.62-6.25-.35a73.76,73.76,0,0,1,.54-7.62l.23-.23c1.28,0,2.7,0,4.13,0a66,66,0,0,1,7.89.3A10.31,10.31,0,0,1,210.76,166Z"/><path class="cls-37" d="M269.38,195.33a1.51,1.51,0,0,1-.14.34,1.56,1.56,0,0,1-.37.41,1.63,1.63,0,0,1-.17.11,3.3,3.3,0,0,1-1.08.37l-.61.06h-.59a2.36,2.36,0,0,1-.37,0,8.1,8.1,0,0,1-.91,0c-.68,0-1,.08-1.4.08h-7.05a11.89,11.89,0,0,0,.28-2.53,10.08,10.08,0,0,0-.16-1.84l11.73-.25a1.38,1.38,0,0,0,.09.43c0,.13.07.23.11.34s.11.21.16.32a.68.68,0,0,0,.11.21c0,.06.05.07.05.07a2.52,2.52,0,0,1,.14.33,1.54,1.54,0,0,0,.09.19s0,.07,0,.11a.83.83,0,0,0,0,.12A2,2,0,0,1,269.38,195.33Z"/><path class="cls-37" d="M234.32,196.78H176.64a12.57,12.57,0,0,0,.28-2.53,8.56,8.56,0,0,0,0-1c17.73.6,38.88.26,57.2-.18,0,.39,0,.8,0,1.21A11.29,11.29,0,0,0,234.32,196.78Z"/><path class="cls-37" d="M154,194.25a11.56,11.56,0,0,0,.29,2.51v0s0,0-.11,0l-.12,0c-.18,0-.43-.07-.71-.11-.72-.1-1.7-.26-2.66-.46l-.3,0-.61-.13a11.33,11.33,0,0,1-2.45-.8c-.45-.23-.86-.44-1.21-.66l-.13-.09c-.18-.12-.37-.23-.53-.35a2.11,2.11,0,0,1-.29-.2c-.12-.07-.23-.16-.33-.23l-.49-.36c-.1-.07-.21-.16-.3-.21a2.14,2.14,0,0,0-.48-.28.41.41,0,0,0-.2-.06s0,0,0,0a.44.44,0,0,1-.16-.25A2,2,0,0,1,143,192a22.25,22.25,0,0,1-.31-3,51.47,51.47,0,0,0,11.59,2.6A11.26,11.26,0,0,0,154,194.25Z"/><path class="cls-38" d="M151.92,115a3,3,0,0,1,4.19.07h0a3,3,0,0,1-.07,4.19l-11.6,10.19c-1.18,1.14-2.7,1.78-3.84.6h0c-1.14-1.18-.48-2.49.69-3.63Z"/><path class="cls-38" d="M136.64,132.71c-.27-.43-.78-1-.78-1.53s.72-1.09,1.08-1.6a5.83,5.83,0,0,1,2-2c1.29-.59,2.59-1.19,3.86-1.81.71.83,1.47,1.62,2.21,2.4-.31.72-.65,1.43-1,2.13-.19.36-.37.73-.55,1.08-.73.71-1.51,1.46-2.34,2.12a10.68,10.68,0,0,1-1.92,1.25C138.06,134.68,137.16,133.51,136.64,132.71Z"/><path class="cls-38" d="M141.1,133.5c.83-.66,1.61-1.41,2.34-2.12.18-.35.36-.72.55-1.08a1.4,1.4,0,0,0-.07.52,1.9,1.9,0,0,1-.34,1.5c-.64.75-1.32,1.46-2,2.18A1.54,1.54,0,0,1,141.1,133.5Z"/><polygon class="cls-39" points="171.73 124.51 174.12 125.97 178.58 120.24 176.54 118.32 171.73 124.51"/><polygon class="cls-40" points="128.18 89.49 140.95 89.49 140.19 92.23 129.25 92.23 128.18 89.49"/><polygon class="cls-38" points="142.12 103.27 141.12 115.25 128.21 115.25 126.98 103.27 127.01 93.22 129.14 93.1 129.59 87.52 139.53 87.52 139.91 93.1 142.07 93.22 142.12 103.27"/><path class="cls-41" d="M129.38,82a2,2,0,0,1-1.81,2.16h0a2,2,0,0,1-2.15-1.82L125.21,80A2,2,0,0,1,127,77.81h0a2,2,0,0,1,2.16,1.81Z"/><path class="cls-41" d="M139.84,82.19a2,2,0,0,0,1.84,2.13h0a2,2,0,0,0,2.13-1.84L144,80.1A2,2,0,0,0,142.14,78h0A2,2,0,0,0,140,79.81Z"/><path class="cls-42" d="M142.46,75.9v4.34c-.55,5.86.21,8.65-5.07,11.09a3.7,3.7,0,0,1-3,1.07,3.74,3.74,0,0,1-3-1.07c-4.84-2.13-4.26-5.25-5.08-11.09V75.9a8,8,0,0,1,16.09,0Z"/><path class="cls-43" d="M139.79,91.5A10.88,10.88,0,0,1,137.37,93a3.68,3.68,0,0,1-3,1.06,3.76,3.76,0,0,1-3-1.06,9.12,9.12,0,0,1-2.19-1.31l.12-1.52a9.27,9.27,0,0,0,2.07,1.22,3.76,3.76,0,0,0,3,1.06,3.68,3.68,0,0,0,3-1.06A11.26,11.26,0,0,0,139.68,90Z"/><path class="cls-44" d="M128.89,74.15l-.1.07a3,3,0,0,0-1.52,2.68c0,.12,0,.22,0,.34s0,.22,0,.34,0,.23,0,.35,0,.47-.06.72,0,.48-.08.68a5.29,5.29,0,0,1-.1.54c0,.09,0,.16-.06.23a2.9,2.9,0,0,1-.22.52l-.27.22c0-.23,0-.42,0-.59V75.9a7.07,7.07,0,0,1,.18-1.6,5.41,5.41,0,0,1,.12-.55C127.24,74.12,128.26,74,128.89,74.15Z"/><polygon class="cls-45" points="150.39 117.46 150.38 117.43 150.39 117.46 150.39 117.46"/><polygon class="cls-46" points="157.6 112.66 157.61 112.65 157.54 112.59 157.6 112.66"/><path class="cls-47" d="M177.35,119.56l-1.27-1.32-.47-.48-1.8-1.87,0,0-1.74-1.8-.62-.64-1.21-1.25-1.06-1.1-.68-.71-1.7-1.75-.13-.14-.66-.67a1.66,1.66,0,0,0-.16-.21v0l-.14-.15h0a2.26,2.26,0,0,0-.29-.32.94.94,0,0,0-.17-.18,1.24,1.24,0,0,0-.21-.18s0,0,0,0l-1.16-1.19-1.62-1.65-.24-.23-1.31-1.35L159,100.65l-.42-.42-1.13-1.15-1.63-1.65-.43-.46-.53-.54-.09-.09h0a11.45,11.45,0,0,0-3.5-2.25s0,0,0,0a10.69,10.69,0,0,0-2.07-.54h0l-8-1.85-6.77,6.54-6-6.54-6.57,1.66a10.17,10.17,0,0,0-1.41.31l-.14,0h0a5.34,5.34,0,0,0-.52.18h0l-.55.22a.31.31,0,0,0-.1,0l-.15.07-.1,0a12,12,0,0,0-2.16,1.31l0,0a11.59,11.59,0,0,0-2.67,3.2h0l-.06.11-.35.68-.27.56-1.06,2.07-.74,1.43-.27.53-1,2.07-.85,1.67-.16.29-1,2.07-.75,1.48s0,0,0,0-.1.16-.15.24a2.26,2.26,0,0,0-.11.22,3.52,3.52,0,0,0-.17.39s0,0,0,0l-.09.18h0a2.6,2.6,0,0,0-.1.25l-.42.84-.08.17-1.1,2.18-.44.88-.68,1.36-.79,1.57-.39.79-1.12,2.24,0,0-1.16,2.32-.3.6-.82,1.63-.37.74,1.84,1.11h0l2.29,1.37.26.15L105,132l.17-.24.25-.3.75-.91.55-.67.33-.49.76-1.18.88-1.34.71-1.09.85-1.31.66-1,.43-.67.55-.85.6-.91,1-1.48.55-.84,1.1-1.67.34-.59h0l.13-.27.59-1h0l.35-.57.67-1.08,2.22-3c.51,7.2,1.54,19.57,3.07,24.4h25c2.46-10.73,2.81-26.34,2.81-26.34l5.77,2.79,1,.83.51.44h0l.86.78.21.21h0l.5.46,1.55,1.27.78.64,1.35,1.12.85.69.78.65.61.5.93.77,1.21,1,1,.83,1.23,1,1.09.9.46.37.72.47,1,.65.32.21.24.18,1.2-1.35.21-.22,1.77-2v0l1.43-1.61Z"/><polygon class="cls-46" points="116.27 115.12 116.22 115.19 116.23 115.2 116.27 115.12"/><polygon class="cls-48" points="150.03 139.69 148.56 198.81 138.13 198.81 134.59 149.28 130.84 198.81 120.33 198.81 119.92 140.08 121.62 131.95 148.66 131.95 150.03 139.69"/><polygon class="cls-49" points="144.07 134.93 146.61 123.23 145.68 133.21 145.34 134.93 144.07 134.93"/><polygon class="cls-49" points="141.74 134.92 141.09 132.3 140.81 128.05 140.25 132.64 140.69 134.92 141.74 134.92"/><polygon class="cls-49" points="128.38 134.92 127.17 131.26 126.63 127.57 126.38 132.05 127.06 134.91 128.38 134.92"/><polygon class="cls-50" points="126.35 198.81 126.43 149.99 125.32 198.81 126.35 198.81"/><polygon class="cls-50" points="142.91 198.81 141.19 149.99 143.94 198.81 142.91 198.81"/><path class="cls-51" d="M131.43,81.06a.46.46,0,0,1-.46.45.45.45,0,1,1,0-.9A.46.46,0,0,1,131.43,81.06Z"/><path class="cls-52" d="M130.89,80.8a.27.27,0,1,1-.26-.26A.27.27,0,0,1,130.89,80.8Z"/><path class="cls-51" d="M138.81,81.06a.45.45,0,0,1-.45.45.45.45,0,1,1,0-.9A.45.45,0,0,1,138.81,81.06Z"/><path class="cls-52" d="M138.27,80.8a.27.27,0,1,1-.26-.26A.27.27,0,0,1,138.27,80.8Z"/><path class="cls-53" d="M131.1,200H120.93c0-2.34,2.28-4.24,5.08-4.24S131.1,197.66,131.1,200Z"/><rect class="cls-54" x="120.93" y="200" width="10.17" height="1.54"/><path class="cls-53" d="M148.1,200H137.93c0-2.34,2.27-4.24,5.08-4.24S148.1,197.66,148.1,200Z"/><rect class="cls-54" x="137.93" y="200" width="10.17" height="1.54"/><path class="cls-55" d="M143,75.11c0,.13,0,.26,0,.38s0,.33-.05.51l-.46,4.26c0,.16,0,.36,0,.58l-.27-.21a3.37,3.37,0,0,1-.14-.32c0-.13-.09-.27-.14-.43a5.29,5.29,0,0,1-.1-.54,4.32,4.32,0,0,1-.07-.68c0-.23,0-.45-.07-.67s0-.26-.06-.38-.07-.3-.1-.45-.05-.18-.08-.27l-.09-.29c-.59-1.8-1.58-3.25-1.49-5a3.38,3.38,0,0,1-1.6.63,25.22,25.22,0,0,1-3,.27c-1.76.1-4.48,1.23-6.5,1.71a3.77,3.77,0,0,1-2.24.08c-.59-.26-.73-1-.18-2.37.93-2.33,3.62-4.12,6.58-4.65,2.37-.42,5.86.24,7,2.78h0C142.09,70.6,143.05,72.76,143,75.11Z"/><path class="cls-56" d="M127.36,71.58c-1.15,1.33.18,2,1.5,1.87,2.39-.29,4.44-2,6.91-2.06.66,0,.83-.56.06-.54a13.4,13.4,0,0,0-4,.79c-.55.18-1.09.39-1.63.59l-.74.23c-.1,0-2.12.6-1.66-.55.29-.71-.15-.73-.49-.33Z"/><rect class="cls-41" x="173.74" y="122.04" width="5.59" height="3.39" transform="translate(-35.91 160.41) rotate(-44.82)"/><path class="cls-57" d="M135.55,96.47V132h-2V96.47a6.58,6.58,0,0,0,1,.06A6.42,6.42,0,0,0,135.55,96.47Z"/><polygon class="cls-52" points="142.46 91.99 137.65 100.47 136.45 98.94 135.55 97.79 134.9 96.95 134.58 96.54 134.57 96.53 140.95 89.49 142.46 91.99"/><polygon class="cls-52" points="126.74 92.11 131.49 100.47 132.68 98.94 133.58 97.79 134.24 96.95 134.56 96.54 134.57 96.53 128.18 89.49 126.74 92.11"/><path class="cls-52" d="M135.07,101.26a.51.51,0,1,1-.51-.5A.5.5,0,0,1,135.07,101.26Z"/><path class="cls-52" d="M135.07,106.61a.51.51,0,1,1-.51-.51A.51.51,0,0,1,135.07,106.61Z"/><path class="cls-52" d="M135.07,112a.51.51,0,1,1-.51-.51A.51.51,0,0,1,135.07,112Z"/><path class="cls-52" d="M135.07,117.29a.51.51,0,1,1-.51-.51A.51.51,0,0,1,135.07,117.29Z"/><path class="cls-52" d="M135.07,122.64a.51.51,0,1,1-1,0,.51.51,0,1,1,1,0Z"/><path class="cls-52" d="M135.07,128a.51.51,0,1,1-.51-.51A.51.51,0,0,1,135.07,128Z"/><polygon class="cls-58" points="131.48 100.47 134.55 98.52 137.65 100.47 134.58 96.54 131.48 100.47"/><path class="cls-30" d="M141.79,79.34a5.33,5.33,0,0,0,.11.55A5.33,5.33,0,0,1,141.79,79.34Z"/><g class="cls-59"><path class="cls-60" d="M129.3,76.33a35.09,35.09,0,0,0,4.56.58,24.82,24.82,0,0,0,4.92-.69c.25,0,.49-.33.09-.27a26.85,26.85,0,0,1-4.17.68,29.36,29.36,0,0,1-5-.57c-.16,0-.67.23-.36.27Z"/></g><g class="cls-59"><path class="cls-61" d="M132,75.31a15.33,15.33,0,0,0,5.32,0c.36-.06.24-.35-.11-.3a14,14,0,0,1-4.88.06c-.26,0-.67.22-.33.29Z"/></g><path class="cls-41" d="M183.75,124.91l0,4.42s-1.75,2.47-2.44,2.44A10,10,0,0,1,179,131s-1.1-1.39-.13-1.91l-1,.21-2.17-2.38,4-3.94-.45-.45Z"/><polygon class="cls-62" points="147.91 93.26 147.91 93.35 147.81 93.26 147.91 93.26"/><g class="cls-59"><path class="cls-63" d="M137,85.5c.3.55.89.8,1.32,1.21.19.18.73-.12.53-.32-.43-.41-1.27-.47-1.56-1-.12-.23-.43-.15-.29.11Z"/></g><g class="cls-59"><path class="cls-64" d="M131.81,85.41c-.19.56-1.19.66-1.48,1.18-.14.26.55.32.65.13.31-.56,1-.76,1.19-1.4.08-.23-.28-.13-.36.09Z"/></g><path class="cls-52" d="M132.7,80.78a1.84,1.84,0,0,1-.81.63,2.23,2.23,0,0,1-.78.18h-.17a2.16,2.16,0,0,1-1.76-.82,2.18,2.18,0,0,1,1.76-.81h.29a2.27,2.27,0,0,1,.67.18h0A1.87,1.87,0,0,1,132.7,80.78Z"/><path class="cls-65" d="M131.88,80.78a.85.85,0,0,1-.27.61,1.71,1.71,0,0,1-.5.1h-.23a2,2,0,0,1-.35,0,.84.84,0,0,1-.34-.68.8.8,0,0,1,.34-.67,1.27,1.27,0,0,1,.34,0h.35a1.75,1.75,0,0,1,.33.06h0l.06,0h0A.85.85,0,0,1,131.88,80.78Z"/><path class="cls-51" d="M131.42,80.78a.39.39,0,1,1-.39-.39A.4.4,0,0,1,131.42,80.78Z"/><path class="cls-52" d="M131,80.51a.27.27,0,1,1-.27-.27A.27.27,0,0,1,131,80.51Z"/><path class="cls-66" d="M132.7,80.78h0a2.13,2.13,0,0,0-.79-.45h0a4.32,4.32,0,0,0-.68-.13h-.29a2.52,2.52,0,0,0-1.75.59h0a2.15,2.15,0,0,1,1.75-.81h.29a2.43,2.43,0,0,1,.68.18h0A2.06,2.06,0,0,1,132.7,80.78Z"/><path class="cls-52" d="M139.89,80.78a1.84,1.84,0,0,1-.81.63,2.23,2.23,0,0,1-.78.18h-.17a2.16,2.16,0,0,1-1.76-.82,2.18,2.18,0,0,1,1.76-.81h.29a2.36,2.36,0,0,1,.67.18h0A1.87,1.87,0,0,1,139.89,80.78Z"/><path class="cls-65" d="M139.06,80.78a.84.84,0,0,1-.26.61,1.71,1.71,0,0,1-.51.1h-.22a2,2,0,0,1-.35,0,.84.84,0,0,1-.34-.68.8.8,0,0,1,.34-.67,1.27,1.27,0,0,1,.34,0h.35a1.91,1.91,0,0,1,.33.06h0l0,0h0A.84.84,0,0,1,139.06,80.78Z"/><path class="cls-51" d="M138.61,80.78a.4.4,0,0,1-.39.39.39.39,0,1,1,0-.78A.4.4,0,0,1,138.61,80.78Z"/><path class="cls-52" d="M138.19,80.51a.27.27,0,1,1-.27-.27A.27.27,0,0,1,138.19,80.51Z"/><path class="cls-66" d="M139.89,80.78h0a2.13,2.13,0,0,0-.79-.45h0a4,4,0,0,0-.67-.13h-.29a2.56,2.56,0,0,0-1.76.59h0a2.18,2.18,0,0,1,1.76-.81h.29a2.27,2.27,0,0,1,.67.18h0A2.06,2.06,0,0,1,139.89,80.78Z"/><g class="cls-67"><path class="cls-66" d="M136.55,79.49a3.86,3.86,0,0,1,2.79-.3c.54.18,1.23-.27.5-.51a5.41,5.41,0,0,0-4,.22c-.66.39.21.88.69.59Z"/></g><g class="cls-67"><path class="cls-66" d="M132.59,79.53a3.86,3.86,0,0,0-2.78-.38c-.54.16-1.22-.31-.49-.53a5.41,5.41,0,0,1,4,.34c.65.41-.24.87-.71.57Z"/></g><path class="cls-68" d="M132.22,88.41c1,.56,1,.93,2.24.93A3.78,3.78,0,0,0,137,88.16c.76-.6.41-1.06-.3-.6a6.19,6.19,0,0,1-2.21.18,3.93,3.93,0,0,1-2.36-.38c-.37-.22-1.21-.17.09,1Z"/><path class="cls-30" d="M136.43,88l-.09,0a3.18,3.18,0,0,1-1.84.62,1.94,1.94,0,0,1-1.15-.26,4.55,4.55,0,0,0-.62-.3c-.14-.11-.25-.19-.32-.26A8.65,8.65,0,0,0,136.43,88Z"/><g class="cls-69"><path class="cls-70" d="M133.18,84c-.06.41-.26,1,.14,1.31a2.33,2.33,0,0,0,1.13.54,2.16,2.16,0,0,0,1.35-.58c.36-.24.14-.9.07-1.29,0-.19-.37-.12-.33.08a1.29,1.29,0,0,1,0,.48c-.07.4-.77.52-1,.53a1.56,1.56,0,0,1-.9-.36c-.24-.2-.16-.45-.12-.71s-.31-.19-.34,0Z"/></g><path class="cls-71" d="M135.3,84.2a.73.73,0,0,1-.76.69h0a.73.73,0,0,1-.76-.69l.24-3.46c0-.38.1-.51.52-.51h0c.42,0,.51.11.51.49Z"/><path class="cls-52" d="M133.19,81c-.08.19-.22.4-.31.62-.19.44.68.46.79.1s.18-.52.25-.79-.12-.27-.27-.26a.57.57,0,0,0-.46.33Z"/><path class="cls-52" d="M135.88,81c.08.19.23.4.32.62.19.44-.68.46-.79.1s-.18-.52-.25-.79.12-.27.27-.26a.55.55,0,0,1,.45.33Z"/><path class="cls-72" d="M128.23,79.82a.3.3,0,0,0-.31.41l.43,1.5a.6.6,0,0,0,.54.41h3.81a.56.56,0,0,0,.52-.42l.35-1.49a.32.32,0,0,0-.33-.41Z"/><path class="cls-72" d="M135.73,79.82a.3.3,0,0,0-.3.41l.43,1.5a.59.59,0,0,0,.54.41h3.81a.57.57,0,0,0,.52-.42l.35-1.49a.32.32,0,0,0-.33-.41Z"/><path class="cls-73" d="M136,80.37a.2.2,0,0,1-.2.2H133.2a.2.2,0,0,1-.2-.2h0a.2.2,0,0,1,.2-.2h2.55a.2.2,0,0,1,.2.2Z"/><rect class="cls-73" x="126.11" y="79.99" width="2.09" height="0.76"/><rect class="cls-73" x="140.78" y="79.99" width="1.95" height="0.76"/><rect class="cls-74" x="127.78" y="79.99" width="0.42" height="0.76"/><rect class="cls-74" x="140.78" y="79.99" width="0.42" height="0.76"/><rect class="cls-41" x="99.78" y="128.63" width="3.39" height="5.59" transform="translate(-61.92 160.98) rotate(-62.58)"/><path class="cls-41" d="M94.94,134.7l1.28,4.24s2.41,1.83,3.06,1.59a9.65,9.65,0,0,0,2-1.44s.63-1.66-.44-1.86l1-.09,1.37-2.92-5-2.57.3-.57Z"/><polygon class="cls-39" points="106.29 130.73 104.45 132.84 98.48 128.7 99.85 126.26 106.29 130.73"/><rect class="cls-19" x="120.68" y="132.84" width="8.72" height="2.79"/><rect class="cls-19" x="130.7" y="132.84" width="8.72" height="2.79"/><rect class="cls-19" x="140.71" y="132.84" width="8.72" height="2.79"/><path class="cls-38" d="M137.59,141.86a3.22,3.22,0,0,1-1.45,4.32l-2.45,1.22a3.23,3.23,0,0,1-4.32-1.45h0a3.21,3.21,0,0,1,1.45-4.32l2.45-1.22a3.21,3.21,0,0,1,4.32,1.45Z"/><path class="cls-38" d="M131.9,144.46a1.47,1.47,0,0,1-1.84,1h0a1.46,1.46,0,0,1-1-1.83l1.29-4.18a1.47,1.47,0,0,1,1.83-1h0a1.47,1.47,0,0,1,1,1.84Z"/><path class="cls-75" d="M96.33,133.11a9.32,9.32,0,0,1-6.47,2.74,9.34,9.34,0,0,1,9.21-9.22A9.27,9.27,0,0,1,96.33,133.11Z"/><path class="cls-75" d="M114.48,129.37a9.36,9.36,0,0,1,2.74,6.48,9.36,9.36,0,0,1-9.22-9.22A9.36,9.36,0,0,1,114.48,129.37Z"/><path class="cls-38" d="M125.7,146.92a2.75,2.75,0,0,1-.2,3.87h0a2.74,2.74,0,0,1-3.86-.21l-8-8.87a2.73,2.73,0,0,1,.21-3.86h0a2.73,2.73,0,0,1,3.86.21Z"/><path class="cls-52" d="M120.18,138.32l-6.48,6.48v-9.17A9.12,9.12,0,0,1,120.18,138.32Z"/><path class="cls-38" d="M82.51,131.62a2.74,2.74,0,0,0-3.78.83h0a2.73,2.73,0,0,0,.84,3.78l10.05,6.41a2.73,2.73,0,0,0,3.77-.84h0a2.73,2.73,0,0,0-.83-3.78Z"/><polygon class="cls-76" points="116.99 171.63 90.22 171.63 93.48 135.63 113.73 135.63 116.99 171.63"/><path class="cls-38" d="M110.67,135.63a7.06,7.06,0,0,1-14.12,0Z"/><rect class="cls-38" x="99" y="134.11" width="9.23" height="2.33"/><path class="cls-42" d="M113.09,125.3a.86.86,0,0,1,0,.16,8.72,8.72,0,0,1-.36,2.34c-1.36,4.76-6.3,8.3-9.12,8.3s-7.78-3.54-9.14-8.3a9.51,9.51,0,0,1-.35-2.33v-.17c0-6,4.25-10.79,9.49-10.79S113.09,119.34,113.09,125.3Z"/><path class="cls-77" d="M109.52,124.19h0a4.15,4.15,0,0,0-2-.45,4.2,4.2,0,0,0-2,.43,2.5,2.5,0,0,1,4,0Z"/><path class="cls-77" d="M105.48,124.19h0a4.15,4.15,0,0,1,2-.45,4.2,4.2,0,0,1,2,.43,2.5,2.5,0,0,0-4,0Z"/><path class="cls-77" d="M97.75,124.19h0a4.15,4.15,0,0,1,2-.45,4.2,4.2,0,0,1,2,.43,2.5,2.5,0,0,0-4,0Z"/><path class="cls-77" d="M105.48,124a0,0,0,0,1,0,0h0Z"/><path class="cls-42" d="M114.51,126.59a1.91,1.91,0,1,1-1.9-1.91A1.9,1.9,0,0,1,114.51,126.59Z"/><path class="cls-78" d="M113.84,126.59a1.21,1.21,0,0,1-1.12,1.21,8.72,8.72,0,0,0,.36-2.34A1.21,1.21,0,0,1,113.84,126.59Z"/><path class="cls-42" d="M96.52,126.59a1.91,1.91,0,1,1-1.91-1.91A1.9,1.9,0,0,1,96.52,126.59Z"/><path class="cls-78" d="M94.46,127.8a1.22,1.22,0,0,1-.35-2.33A9.51,9.51,0,0,0,94.46,127.8Z"/><polygon class="cls-79" points="101.94 171.63 100.35 197.1 93.51 197.1 93.51 171.63 101.94 171.63"/><path class="cls-80" d="M101,199.22H92.94a4,4,0,1,1,8.09,0Z"/><rect class="cls-52" x="92.93" y="199.22" width="8.1" height="1.89"/><polygon class="cls-81" points="101.71 175.31 93.52 175.31 93.52 171.63 101.94 171.63 101.71 175.31"/><polygon class="cls-79" points="105.04 171.63 106.62 197.1 113.46 197.1 113.46 171.63 105.04 171.63"/><polygon class="cls-81" points="105.27 175.31 113.46 175.31 113.46 171.63 105.04 171.63 105.27 175.31"/><path class="cls-80" d="M114,199.22h-8.1a4,4,0,0,1,8.1,0Z"/><rect class="cls-52" x="105.94" y="199.22" width="8.1" height="1.89"/><path class="cls-38" d="M81.41,118.07a3.22,3.22,0,0,0-3.25,3.19l0,2.74a3.22,3.22,0,0,0,3.19,3.25h0a3.21,3.21,0,0,0,3.25-3.2l0-2.73a3.23,3.23,0,0,0-3.2-3.25Z"/><path class="cls-38" d="M81.26,124.34a1.48,1.48,0,0,0-1.14,1.74h0a1.46,1.46,0,0,0,1.74,1.14l4.27-.89a1.46,1.46,0,0,0,1.14-1.74h0a1.47,1.47,0,0,0-1.74-1.14Z"/><path class="cls-82" d="M106.1,130.89a2.5,2.5,0,0,1-5,0,6,6,0,0,0,5,0Z"/><path class="cls-52" d="M103.61,132.64a2.44,2.44,0,0,1-2-1.22,4.43,4.43,0,0,0,2,.55,4.61,4.61,0,0,0,2.07-.55A2.4,2.4,0,0,1,103.61,132.64Z"/><path class="cls-83" d="M113.78,123.17a8.31,8.31,0,0,1-.16,1.83,1.68,1.68,0,0,0-.56-.26h0c0-.13,0-.26,0-.38v0a11.49,11.49,0,0,0-.47-2.51h-3.07l-.71-3.64-.57,3.64h-1.46l-.4-2.17-.53,2.17H94.63a11.48,11.48,0,0,0-.46,2.51v0l0,.38h0a1.73,1.73,0,0,0-.57.26,9.12,9.12,0,0,1-.15-1.83,14.13,14.13,0,0,1,.08-1.55,1.49,1.49,0,0,1,0-.21c0-.13,0-.26,0-.39a10.34,10.34,0,0,1,3-5.54s0,0,0,0a11.16,11.16,0,0,1,4-2.46,6.36,6.36,0,0,1,.62-.19l.26-.07c.21,0,.43-.09.65-.12a.64.64,0,0,1,.2,0,.57.57,0,0,1,.18,0l.19,0,.49,0H104l.48,0,.2,0,.18,0a.64.64,0,0,1,.2,0c.21,0,.43.07.64.12l.27.07.62.19a11,11,0,0,1,4,2.46l0,0a10.41,10.41,0,0,1,3,5.54c0,.13,0,.26.05.39a1.49,1.49,0,0,1,0,.21A14.13,14.13,0,0,1,113.78,123.17Z"/><path class="cls-38" d="M124.78,151.18l7.73-3.41A2.85,2.85,0,0,0,134,144a2.81,2.81,0,0,0-1.57-1.5,2.85,2.85,0,0,0-2.18.05L122.48,146a2.85,2.85,0,1,0,2.3,5.21Z"/><path class="cls-38" d="M78.45,125.27l-.22,8.45A2.86,2.86,0,0,0,81,136.64a2.85,2.85,0,0,0,2.91-2.78l.21-8.45a2.85,2.85,0,0,0-2.77-2.92,2.88,2.88,0,0,0-2,.79A2.8,2.8,0,0,0,78.45,125.27Z"/><path class="cls-84" d="M112.92,123.39H94.22a7.08,7.08,0,0,1,.16-.8c0-.14.06-.26.09-.39l.06-.2a1.09,1.09,0,0,1,0-.17H105.8l.53-2.17.41,2.17h1.45l.58-3.65.71,3.65h3.09c.11.41.22.81.3,1.24C112.89,123.18,112.91,123.28,112.92,123.39Z"/><polygon class="cls-52" points="93.48 135.63 89.91 135.63 89.91 144.32 92.7 144.32 93.48 135.63"/><rect class="cls-76" x="101.91" y="141.48" width="3.2" height="1.54"/><path class="cls-52" d="M103.5,141.48a3.75,3.75,0,0,1-.55,1c-2.71,3.74-10.75.63-7.79-6.74l.09-.25h2.17a6.08,6.08,0,0,0,5.76,5.95Z"/><path class="cls-52" d="M104,142.51a4,4,0,0,1-.54-1h.31a6.07,6.07,0,0,0,5.76-5.95h2.17a2.6,2.6,0,0,1,.1.25C114.8,143.14,106.76,146.25,104,142.51Z"/><g class="cls-85"><path class="cls-70" d="M102.3,129.24a1.86,1.86,0,0,0,1.3.61,1.64,1.64,0,0,0,1.27-.55c.12-.12.09-.24-.07-.28a.45.45,0,0,0-.45.12,1.27,1.27,0,0,1-.75.22,1.12,1.12,0,0,1-.78-.28c-.21-.18-.74,0-.52.16Z"/></g><path class="cls-52" d="M102,125.7a2.36,2.36,0,0,1-1,.79,2.82,2.82,0,0,1-1,.23h-.22a2.67,2.67,0,0,1-2.2-1,2.72,2.72,0,0,1,2.2-1h.36a2.88,2.88,0,0,1,.85.23h0A2.35,2.35,0,0,1,102,125.7Z"/><path class="cls-86" d="M100.94,125.7a1.07,1.07,0,0,1-.33.77,3.5,3.5,0,0,1-.63.12H99.7a3.27,3.27,0,0,1-.45,0,1.07,1.07,0,0,1,0-1.7l.43,0h.44a1.86,1.86,0,0,1,.41.08h0l.06,0h0A1.07,1.07,0,0,1,100.94,125.7Z"/><path class="cls-51" d="M100.37,125.7a.49.49,0,0,1-1,0,.49.49,0,0,1,1,0Z"/><path class="cls-52" d="M99.85,125.36a.34.34,0,0,1-.34.34.34.34,0,0,1-.34-.34.34.34,0,0,1,.34-.34A.35.35,0,0,1,99.85,125.36Z"/><path class="cls-52" d="M109.68,125.7a2.33,2.33,0,0,1-1,.79,2.76,2.76,0,0,1-1,.23h-.22a2.68,2.68,0,0,1-2.2-1,2.73,2.73,0,0,1,2.2-1h.37a2.73,2.73,0,0,1,.84.23h0A2.48,2.48,0,0,1,109.68,125.7Z"/><path class="cls-86" d="M108.65,125.7a1,1,0,0,1-.34.77,3.19,3.19,0,0,1-.63.12h-.28a3.13,3.13,0,0,1-.44,0,1.06,1.06,0,0,1,0-1.7l.43,0h.43a2,2,0,0,1,.42.08h0l.07,0h0A1,1,0,0,1,108.65,125.7Z"/><path class="cls-51" d="M108.07,125.7a.49.49,0,0,1-1,0,.49.49,0,1,1,1,0Z"/><path class="cls-52" d="M107.55,125.36a.34.34,0,0,1-.68,0,.34.34,0,1,1,.68,0Z"/><path class="cls-52" d="M94.51,128.32a.68.68,0,1,1-.67-.67A.67.67,0,0,1,94.51,128.32Z"/><path class="cls-52" d="M114.08,128.32a.68.68,0,1,1-.68-.67A.68.68,0,0,1,114.08,128.32Z"/><path class="cls-87" d="M162.77,200.59c.39.65,2.09.89,3.23.89a4.76,4.76,0,0,0,2.76-.72,2,2,0,0,0,.23-1c0-.76-.81-8-.81-8h0l0,1.72c.17,1.73.43,4.25.36,4.35s-1.13-.32-2.66-.39-2.47.8-2.69.51a28.83,28.83,0,0,1,.86-4.66l-.13-.72h0s-1.32,5.9-1.4,6.7a1.58,1.58,0,0,0,.27,1.34Z"/><path class="cls-88" d="M163.18,197.93c.22.29,1.16-.57,2.69-.51s2.57.54,2.66.39-.19-2.62-.36-4.35v-1.6l0-1.55H163.5l.53,3-.22.78A18.55,18.55,0,0,0,163.18,197.93Z"/><path class="cls-87" d="M176.12,200.62c-.39.66-2.1.89-3.24.89a4.76,4.76,0,0,1-2.75-.71,1.93,1.93,0,0,1-.23-1c0-.77.8-8,.8-8h0l0,1.71c-.18,1.73-.43,4.26-.37,4.36s1.14-.32,2.67-.39,2.47.8,2.69.51a30.29,30.29,0,0,0-.86-4.67l.13-.72h0s1.32,5.91,1.4,6.71a1.56,1.56,0,0,1-.27,1.33Z"/><path class="cls-88" d="M175.71,198c-.22.29-1.16-.58-2.69-.51s-2.57.54-2.67.39.19-2.63.37-4.36l0-1.6,0-1.55h4.7l-.52,3,.21.79A18.08,18.08,0,0,1,175.71,198Z"/><polygon class="cls-38" points="166.08 96.17 162.71 96.83 163.49 103.23 169.87 104.98 175.94 102.26 176.68 96.78 173.3 96.29 166.08 96.17"/><polygon class="cls-38" points="173.33 98.61 165.8 98.61 166.16 92.87 172.89 92.87 173.33 98.61"/><path class="cls-43" d="M173.09,95.49a4.18,4.18,0,0,1-3.28,1.69,4.92,4.92,0,0,1-2.49-.79,9.36,9.36,0,0,1-1.32-1l.16-2.54h6.73Z"/><path class="cls-42" d="M177.12,84.7v.15a12.61,12.61,0,0,1-.28,2.41c0,.15-.07.3-.11.44a12.81,12.81,0,0,1-1.06,2.84h0a11.06,11.06,0,0,1-1.6,2.31,8.09,8.09,0,0,1-4.53,2.88,8.74,8.74,0,0,1-4.39-2.82,11.28,11.28,0,0,1-1.58-2.15,10.87,10.87,0,0,1-1.06-2.42c-.1-.35-.19-.72-.27-1.09a13.35,13.35,0,0,1-.28-2.39V84.7c0-6.09,3.4-10.12,7.58-10.12S177.12,78.61,177.12,84.7Z"/><g class="cls-69"><path class="cls-70" d="M168.56,89.11c-.05.3-.19.76.1,1a1.7,1.7,0,0,0,.82.4,1.64,1.64,0,0,0,1-.42c.27-.18.1-.65,0-.94,0-.14-.27-.09-.24.06a1,1,0,0,1,0,.34c0,.29-.56.39-.75.39a1.2,1.2,0,0,1-.65-.26c-.18-.15-.11-.33-.08-.52s-.23-.13-.25,0Z"/></g><path class="cls-89" d="M172,91.68a7.34,7.34,0,0,1-1.72,1.54,1.46,1.46,0,0,1-.72.16,1.57,1.57,0,0,1-.75-.16,7.12,7.12,0,0,1-1.72-1.45c-.22-.27.36-.08.76-.14.57-.13,1.1-.31,1.19-.31a3.17,3.17,0,0,1,.52.2,3,3,0,0,1,.51-.2c.09,0,.54.18,1.14.28S172.15,91.46,172,91.68Z"/><path class="cls-90" d="M171.92,83.75c1.45-1,3.08-.36,4.45.34.12.06.49.06.36,0-1.62-.9-3.91-1.91-5.42-.46-.25.25,0,.7.61.14Z"/><path class="cls-90" d="M167.18,83.78c-1.45-1-3.08-.4-4.46.29-.12.06-.5.05-.36,0,1.63-.89,3.93-1.87,5.42-.4.26.25,0,.7-.6.13Z"/><path class="cls-91" d="M179.31,88.44h0a9.17,9.17,0,0,1-.48,1.68,15.38,15.38,0,0,0-1.26,3.52,4.46,4.46,0,0,1-.24-1.24,13.52,13.52,0,0,1-2.24,2.39,20.2,20.2,0,0,1,1.09-2.11,6.93,6.93,0,0,0,.76-2.69,7.84,7.84,0,0,0-.21-2.3,12.68,12.68,0,0,0-.83-2.48.14.14,0,0,0,0-.06,5.31,5.31,0,0,0-1-1.52l-.29-.3-.07-.06c-1.26-1.18-2.9-2-3.91-3.44a5.79,5.79,0,0,1-1.78,1.64,8.15,8.15,0,0,0,.56-2c-1.33,1.9-4.07,2.28-5.56,4l0,.07a2.6,2.6,0,0,0-.25.33,3.7,3.7,0,0,0-.35.62c-.07.18-.15.37-.21.56a8.93,8.93,0,0,0-.46,3.28,10,10,0,0,0,.58,3,9.23,9.23,0,0,0,.58,1.37,3.81,3.81,0,0,1,.46.86s0,0,0,0l0,0a14.34,14.34,0,0,1-2.36-2.85v.1a12.17,12.17,0,0,1,0,1.47c-.56-2.34-1.76-4.39-2.06-6.92C158.89,78.1,164.6,71.2,169.92,73,175.73,71,181.76,80.24,179.31,88.44Z"/><path class="cls-52" d="M167.88,92.05a7,7,0,0,0,3.28,0,2.85,2.85,0,0,1-3.28,0Z"/><path class="cls-92" d="M176.94,90a6.3,6.3,0,0,1-1.86,2.6,5,5,0,0,0,.58-2h0a12.81,12.81,0,0,0,1.06-2.84A7.84,7.84,0,0,1,176.94,90Z"/><path class="cls-92" d="M163.71,91.93a6.05,6.05,0,0,1-.63-.61,10,10,0,0,1-.58-3,10.87,10.87,0,0,0,1.06,2.42A3.73,3.73,0,0,0,163.71,91.93Z"/><g class="cls-59"><path class="cls-93" d="M176.09,85.68a4.52,4.52,0,0,0-.6-1.09,5.46,5.46,0,0,0-1.5-1.41,8.3,8.3,0,0,0-1.7-.88,5.18,5.18,0,0,1-2-1.3,3.87,3.87,0,0,1-1.83.94,5.21,5.21,0,0,0,.13-.79,13.22,13.22,0,0,1-2.36,1.52,5.88,5.88,0,0,0-3.58,3.41,8.89,8.89,0,0,1,.28-1c.06-.19.14-.38.21-.56a3.7,3.7,0,0,1,.35-.62,2.6,2.6,0,0,1,.25-.33l0-.07c1.49-1.68,4.23-2.06,5.56-4a8.15,8.15,0,0,1-.56,2,5.79,5.79,0,0,0,1.78-1.64c1,1.48,2.65,2.26,3.91,3.44l.07.06.29.3a5.31,5.31,0,0,1,1,1.52.14.14,0,0,1,0,.06C176,85.38,176,85.53,176.09,85.68Z"/></g><path class="cls-94" d="M167.85,86a2.25,2.25,0,0,1-.95.49,4,4,0,0,1-.88.1h-.19a2.71,2.71,0,0,1-1.92-.85,2.77,2.77,0,0,1,2-.58l.17,0h0l.16,0a2.77,2.77,0,0,1,.74.21h0A2.2,2.2,0,0,1,167.85,86Z"/><path class="cls-95" d="M166.71,86a.72.72,0,0,1-.27.52,2.12,2.12,0,0,1-.44,0h-.19l-.31,0a.71.71,0,0,1-.25-.61.69.69,0,0,1,.33-.56h.48l.12,0a1.28,1.28,0,0,1,.28.07h0l0,0h0A.74.74,0,0,1,166.71,86Z"/><path class="cls-51" d="M166.31,86a.34.34,0,1,1-.67,0,.33.33,0,0,1,.36-.31A.32.32,0,0,1,166.31,86Z"/><path class="cls-52" d="M166,85.72a.24.24,0,1,1-.22-.25A.24.24,0,0,1,166,85.72Z"/><path class="cls-77" d="M167.85,86a3.36,3.36,0,0,0-3.95-.27s-.18-.18-.49-.43a3.59,3.59,0,0,1,.74-.36,3.13,3.13,0,0,1,3.54.8A.76.76,0,0,1,167.85,86Z"/><path class="cls-96" d="M167.65,86.17a2.63,2.63,0,0,1-3.74-.42,2.69,2.69,0,0,0,1.92.85H166a3.49,3.49,0,0,0,.88-.1A2.25,2.25,0,0,0,167.65,86.17Z"/><path class="cls-94" d="M171.22,86a2.15,2.15,0,0,0,.94.49,4,4,0,0,0,.88.1h.19a2.71,2.71,0,0,0,1.92-.85,2.77,2.77,0,0,0-2-.58l-.17,0h0l-.16,0a2.77,2.77,0,0,0-.74.21h0A2.09,2.09,0,0,0,171.22,86Z"/><path class="cls-95" d="M172.35,86a.76.76,0,0,0,.27.52,2.12,2.12,0,0,0,.44,0h.19l.31,0a.71.71,0,0,0,.25-.61.69.69,0,0,0-.33-.56H173l-.12,0a1.28,1.28,0,0,0-.28.07h0l0,0h0A.77.77,0,0,0,172.35,86Z"/><path class="cls-51" d="M172.75,86a.34.34,0,1,0,.67,0,.33.33,0,0,0-.36-.31A.34.34,0,0,0,172.75,86Z"/><path class="cls-52" d="M172.57,85.72a.24.24,0,0,0,.26.22.24.24,0,0,0,0-.47A.24.24,0,0,0,172.57,85.72Z"/><path class="cls-77" d="M171.22,86a3.35,3.35,0,0,1,3.94-.27s.18-.18.49-.43a3.59,3.59,0,0,0-.74-.36,3.13,3.13,0,0,0-3.54.8A.64.64,0,0,0,171.22,86Z"/><path class="cls-96" d="M171.41,86.17a2.63,2.63,0,0,0,3.74-.42,2.69,2.69,0,0,1-1.92.85H173a3.54,3.54,0,0,1-.88-.1A2.25,2.25,0,0,1,171.41,86.17Z"/><path class="cls-88" d="M178.45,176.23A88.93,88.93,0,0,1,175.1,192a1.13,1.13,0,0,1-.79.48c-1.25.25-3.59.19-3.61-.54-.1-3.47-.47-14.24-.53-17.19a64.93,64.93,0,0,1,.61-7.58,44.29,44.29,0,0,0-.05-4.88c0-1.82.05-3.37.05-5.64s-1.07-10.74-.52-15.72l-.87.07-.88-.07c.62,6.55-.51,13.45-.51,15.72s.08,3.82.05,5.64a44.29,44.29,0,0,0-.05,4.88,62.74,62.74,0,0,1,.61,7.58c-.06,3-.25,13.8-.41,17.27,0,1-3.37,1.17-4.23.34a.94.94,0,0,1-.19-.37,85.5,85.5,0,0,1-3.45-15.71c-.7-7.39.38-9.84,0-14.62s-5-9.07-3.84-25.87a18.35,18.35,0,0,1,1.19-6.08,86.13,86.13,0,0,0,11.71,1.28,85.91,85.91,0,0,0,11.71-1.28,22.56,22.56,0,0,1,1.19,6.08c1.32,14.64-3.46,21.1-3.84,25.87S179.16,168.84,178.45,176.23Z"/><path class="cls-97" d="M164.06,131.6l-.25,1.53c-2.47-.28-4.77-.64-6-.85.15-.67.3-1.17.41-1.51C159.26,131,161.56,131.32,164.06,131.6Z"/><path class="cls-97" d="M173.47,133.28c-1.41.13-2.81.22-4.05.22s-2.85-.1-4.37-.25l.22-1.53c1.44.14,2.88.24,4.15.24s2.45-.08,3.77-.2Z"/><path class="cls-97" d="M181,132.29c-1.34.22-3.8.6-6.38.88l-.3-1.52c2.65-.28,5.15-.68,6.3-.87A12.91,12.91,0,0,1,181,132.29Z"/><path class="cls-38" d="M156.91,117.64a3,3,0,0,1-3.45,2.38h0a3,3,0,0,1-2.39-3.44l2.81-15.39a3,3,0,0,1,3.45-2.38h0a3,3,0,0,1,2.38,3.45Z"/><path class="cls-98" d="M183.47,117.84a3,3,0,0,0,3.59,2.18h0a3,3,0,0,0,2.18-3.58l-3.7-15.19A3,3,0,0,0,182,99.07h0a3,3,0,0,0-2.18,3.58Z"/><path class="cls-52" d="M186.31,104c-1.21.37-4.11,1-5.25,1.4.3,1.4.54,4.1-1.07,8.34a17.27,17.27,0,0,0-.83,10c.08.31.17.58.22.82a9,9,0,0,0,.79,1.77,24.06,24.06,0,0,1,1.16,2.45c.12.29.23.59.34.91-1.19.8-6.18,1.4-12.16,1.4s-11-.6-12.15-1.4c.11-.32.22-.62.34-.91a26.41,26.41,0,0,1,1.16-2.45,9,9,0,0,0,.79-1.77c.06-.24.13-.51.23-.83.6-2.11.8-5.55-.84-10a15.64,15.64,0,0,1-.94-8.3c-1.29-.44-4.4-1.3-5.49-1.7-.44-.17-.33-.64-.26-1,.31-1.67.93-2.29,2.18-3.52l.21-.2c1-1,5.3-2,8.24-2.63,0,.1,0,.2,0,.29,0,3,2.93,5.46,6.54,5.46s6.55-2.44,6.55-5.46c0-.09,0-.19,0-.29,2.94.62,7.26,1.66,8.24,2.63l.21.2a6,6,0,0,1,2.18,3.52C186.9,103.7,186.7,103.9,186.31,104Z"/><path class="cls-98" d="M188.9,115.41a3,3,0,0,0-3.8-1.78h0a3,3,0,0,0-1.78,3.79l5.91,14.26c.56,1.54,1.64,2.79,3.18,2.24h0c1.54-.56,1.54-2,1-3.56Z"/><path class="cls-98" d="M194.79,138.05c.44-.26,1.15-.56,1.38-1s-.17-1.29-.26-1.91a5.86,5.86,0,0,0-.9-2.67c-.9-1.1-1.8-2.21-2.67-3.32-1,.43-2,.8-3,1.17,0,.78,0,1.57,0,2.35,0,.41,0,.82,0,1.22a30.81,30.81,0,0,0,1.17,2.93,11.48,11.48,0,0,0,1.16,2C192.65,139.19,194,138.54,194.79,138.05Z"/><path class="cls-98" d="M190.45,136.79a30.81,30.81,0,0,1-1.17-2.93c0-.4,0-.81,0-1.22a1.74,1.74,0,0,1-.17.5,1.85,1.85,0,0,0-.36,1.5c.24,1,.54,1.89.83,2.84A1.61,1.61,0,0,0,190.45,136.79Z"/><path class="cls-99" d="M170,89.12a.53.53,0,0,1-.5.56h0a.53.53,0,0,1-.5-.56l.16-2.85c0-.31.06-.41.34-.41h0c.28,0,.34.09.34.4Z"/><polygon class="cls-52" points="152.5 102.07 151.01 110.67 157.59 112.04 158.36 109.55 158.88 104.88 152.5 102.07"/><polygon class="cls-52" points="186.64 102.56 187.99 110.67 181.47 112.03 180.86 109.81 180.12 104.88 186.64 102.56"/><path class="cls-100" d="M160,123.19c-3,4.79-9.54,24.6-9.69,43.08a48.23,48.23,0,0,0,19.1,3.82c14.87,0,20.54-4.4,20.54-4.4s-3.19-31-10.94-42.5Z"/><path class="cls-101" d="M180,113.75a17.77,17.77,0,0,0-.86,3c-.47-4.1-9.6-3.41-9.6-3.41s-9.16-.69-9.6,3.43a21.79,21.79,0,0,0-.89-3,17.33,17.33,0,0,1-1.14-6.16h0a10.13,10.13,0,0,1,.18-2c1.5,3.19,3,3,4.82,3.05,2.07.1,6.63,0,6.63,0s4.56.1,6.63,0c1.89-.09,3.38.15,4.91-3.22a9.35,9.35,0,0,1,.2,1.56A16.59,16.59,0,0,1,180,113.75Z"/><path class="cls-43" d="M168.59,173.59a50.29,50.29,0,0,1-8.5-.86c0-1.33,0-2.48,0-3.52a51.27,51.27,0,0,0,8.2.86C168.45,171.16,168.56,172.4,168.59,173.59Z"/><path class="cls-43" d="M178.65,173a60.45,60.45,0,0,1-8.48.65c0-1.19.14-2.44.25-3.52a60,60,0,0,0,8.22-.65C178.68,170.47,178.7,171.61,178.65,173Z"/><path class="cls-42" d="M213.69,147.1a1.44,1.44,0,0,1,1.27-1.59h0a1.44,1.44,0,0,1,1.59,1.27L217,151a1.45,1.45,0,0,1-1.27,1.6h0a1.44,1.44,0,0,1-1.59-1.27Z"/><path class="cls-42" d="M220.74,145.64a3.16,3.16,0,0,0-4.45.46l-1.7,2.08a3.16,3.16,0,0,0,.46,4.44h0a3.16,3.16,0,0,0,4.45-.45l1.69-2.08a3.16,3.16,0,0,0-.45-4.45Z"/><rect class="cls-30" x="185.1" y="147.97" width="20.17" height="26.16"/><path class="cls-102" d="M189.6,148a5.87,5.87,0,0,0,11.74,0Z"/><path class="cls-103" d="M189.58,148a5.88,5.88,0,0,0,11.75,0Z"/><polygon class="cls-77" points="185.97 174.12 185.97 198.17 192.85 198.17 194.83 177.39 195.4 177.39 197.15 198.17 204.32 198.17 204.32 174.12 185.97 174.12"/><path class="cls-104" d="M196.52,198.67h8.24a4.12,4.12,0,0,0-8.24,0Z"/><rect class="cls-52" x="196.52" y="198.67" width="8.23" height="1.92"/><path class="cls-104" d="M185.27,198.67h8.23a4.12,4.12,0,0,0-8.23,0Z"/><rect class="cls-52" x="185.27" y="198.67" width="8.23" height="1.92"/><path class="cls-42" d="M202.14,141.77a1.79,1.79,0,1,0,1.79-1.8A1.79,1.79,0,0,0,202.14,141.77Z"/><path class="cls-78" d="M204.07,142.91a1.15,1.15,0,0,0,1-1.14,1.17,1.17,0,0,0-.69-1.06A8.42,8.42,0,0,1,204.07,142.91Z"/><path class="cls-42" d="M188.77,141.77A1.79,1.79,0,1,1,187,140,1.79,1.79,0,0,1,188.77,141.77Z"/><path class="cls-78" d="M186.84,142.91a1.15,1.15,0,0,1-1-1.14,1.17,1.17,0,0,1,.69-1.06A8.42,8.42,0,0,0,186.84,142.91Z"/><path class="cls-42" d="M186.5,140.56c0,5.62,4,10.17,8.95,10.17s9-4.55,9-10.17-4-10.17-9-10.17S186.5,134.94,186.5,140.56Z"/><path class="cls-105" d="M189.27,140.25l3.71-.93a2.35,2.35,0,0,0-3.71.93Z"/><path class="cls-105" d="M201.67,140.25l-3.71-.93a2.34,2.34,0,0,1,2.1-.49A2.31,2.31,0,0,1,201.67,140.25Z"/><path class="cls-106" d="M185.83,138.55a8.09,8.09,0,0,0,.15,1.73,1.7,1.7,0,0,1,.53-.24h0c0-.12,0-.24,0-.36v0a10.91,10.91,0,0,1,.44-2.37h2.9l.68-3.45.54,3.45h1.37l.39-2,.49,2h10.59a12.25,12.25,0,0,1,.44,2.37v0c0,.12,0,.24,0,.36h0a1.93,1.93,0,0,1,.53.24,8.22,8.22,0,0,0,.14-1.73c0-.45,0-.94-.07-1.46,0-.07,0-.13,0-.2s0-.24-.05-.36a9.85,9.85,0,0,0-2.84-5.25l0,0a10.67,10.67,0,0,0-1.56-1.23,8.72,8.72,0,0,0-1.26-.72,4,4,0,0,0-3.8.4h0a3.62,3.62,0,0,0-1.27-.59,3.91,3.91,0,0,0-2.46.17s0,0,0,0a10.74,10.74,0,0,0-1.28.72,11.47,11.47,0,0,0-1.56,1.24s0,0,0,0a9.79,9.79,0,0,0-2.85,5.25c0,.12,0,.24-.05.36a1.36,1.36,0,0,1,0,.2C185.85,137.61,185.83,138.1,185.83,138.55Z"/><rect class="cls-103" x="185.97" y="174.12" width="18.35" height="2.07"/><path class="cls-42" d="M182.81,173a2.89,2.89,0,0,1-2.88-2.9v-2.46a2.91,2.91,0,0,1,2.91-2.88h0a2.9,2.9,0,0,1,2.88,2.9v2.45a2.9,2.9,0,0,1-2.9,2.89Z"/><path class="cls-107" d="M186.64,138.76h17.62a6.2,6.2,0,0,0-.14-.75l-.09-.37-.05-.19a.88.88,0,0,1,0-.15H193.35l-.5-2.06-.38,2.06H191.1l-.54-3.45-.68,3.45H187c-.1.38-.2.76-.28,1.16C186.67,138.56,186.66,138.66,186.64,138.76Z"/><path class="cls-42" d="M175.48,158.51a3.07,3.07,0,0,0,.62,4.31h0a3.08,3.08,0,0,0,4.31-.62l4.54-6.07a3.08,3.08,0,0,0-.62-4.31h0a3.08,3.08,0,0,0-4.31.62Z"/><path class="cls-30" d="M181.77,149.32l-2.25,2.88,5.57,4.34,2.25-2.88a3.53,3.53,0,0,0-3.23-5.67A3.48,3.48,0,0,0,181.77,149.32Z"/><path class="cls-42" d="M179.67,167.89a2.81,2.81,0,0,0,3.93.64h0a2.82,2.82,0,0,0,.64-3.93L180.19,159a2.83,2.83,0,0,0-3.94-.64h0a2.83,2.83,0,0,0-.64,3.94Z"/><polygon class="cls-30" points="184.36 147.97 186.69 149.11 186.77 147.97 184.36 147.97"/><path class="cls-42" d="M214,154.48a2.91,2.91,0,0,1,.64,4.05h0a2.91,2.91,0,0,1-4.05.64L204.8,155a2.9,2.9,0,0,1-.63-4.05h0a2.88,2.88,0,0,1,4-.63Z"/><path class="cls-30" d="M207.12,148.59l3,2.07-4,5.82-3-2.07a3.54,3.54,0,0,1,1.36-6.38A3.58,3.58,0,0,1,207.12,148.59Z"/><path class="cls-42" d="M214.52,158.62a2.57,2.57,0,0,1-3.59.59h0a2.57,2.57,0,0,1-.58-3.59l3.7-5.12a2.56,2.56,0,0,1,3.58-.58h0a2.56,2.56,0,0,1,.58,3.58Z"/><polygon class="cls-30" points="205.33 147.97 203 149.11 202.92 147.97 205.33 147.97"/><path class="cls-108" d="M200.19,143.74a.41.41,0,0,0,.41.41.41.41,0,1,0,0-.82A.41.41,0,0,0,200.19,143.74Z"/><path class="cls-108" d="M200.89,145a.42.42,0,1,0,.42-.41A.41.41,0,0,0,200.89,145Z"/><path class="cls-108" d="M199.43,145a.42.42,0,1,0,.41-.41A.41.41,0,0,0,199.43,145Z"/><path class="cls-108" d="M189.78,143.74a.41.41,0,0,0,.41.41.41.41,0,0,0,0-.82A.41.41,0,0,0,189.78,143.74Z"/><path class="cls-108" d="M190.48,145a.41.41,0,1,0,.41-.41A.41.41,0,0,0,190.48,145Z"/><path class="cls-108" d="M189,145a.41.41,0,1,0,.41-.41A.41.41,0,0,0,189,145Z"/><path class="cls-109" d="M196.67,144.43a1.77,1.77,0,0,1-1.24.57,1.55,1.55,0,0,1-1.22-.51c-.11-.12-.08-.24.07-.27a.43.43,0,0,1,.43.11,1.25,1.25,0,0,0,.72.21,1.11,1.11,0,0,0,.73-.26c.21-.18.71,0,.51.15Z"/><path class="cls-52" d="M197.05,141.34a2.29,2.29,0,0,0,1,.75,2.76,2.76,0,0,0,.93.22h.2a2.54,2.54,0,0,0,2.1-1,2.56,2.56,0,0,0-2.1-1H199l-.17,0a2.68,2.68,0,0,0-.81.21h0A2.35,2.35,0,0,0,197.05,141.34Z"/><path class="cls-110" d="M198,141.34a1,1,0,0,0,.31.73,2.52,2.52,0,0,0,.61.11h.26l.42,0a1,1,0,0,0,.41-.81,1,1,0,0,0-.41-.81l-.4,0h-.42a2.24,2.24,0,0,0-.39.08h0l-.06,0h0A1,1,0,0,0,198,141.34Z"/><path class="cls-51" d="M198.58,141.34a.47.47,0,0,0,.93,0,.47.47,0,0,0-.93,0Z"/><path class="cls-52" d="M199.08,141a.33.33,0,0,0,.65,0,.33.33,0,1,0-.65,0Z"/><path class="cls-52" d="M189.72,141.34a2.23,2.23,0,0,0,1,.75,2.76,2.76,0,0,0,.92.22h.21a2.54,2.54,0,0,0,2.09-1,2.56,2.56,0,0,0-2.09-1h-.18l-.17,0a2.55,2.55,0,0,0-.8.21h0A2.32,2.32,0,0,0,189.72,141.34Z"/><path class="cls-110" d="M190.7,141.34a1,1,0,0,0,.32.73,2.36,2.36,0,0,0,.6.11h.27l.42,0a1,1,0,0,0,.4-.81,1,1,0,0,0-.4-.81l-.41,0h-.41a2.57,2.57,0,0,0-.4.08h0l-.06,0h0A1,1,0,0,0,190.7,141.34Z"/><path class="cls-51" d="M191.25,141.34a.46.46,0,0,0,.92,0,.46.46,0,1,0-.92,0Z"/><path class="cls-52" d="M191.74,141a.32.32,0,0,0,.33.32.32.32,0,0,0,.32-.32.32.32,0,0,0-.32-.33A.33.33,0,0,0,191.74,141Z"/><path class="cls-106" d="M193,127.47l.37.39a3.44,3.44,0,0,1,.84,1.26,3.62,3.62,0,0,1,1.27.59,4.11,4.11,0,0,0-1.38-1.55A4.63,4.63,0,0,0,193,127.47Z"/><path class="cls-106" d="M197.22,128.14c-.1.09-.19.2-.27.28a2.66,2.66,0,0,0-.62.93,2.34,2.34,0,0,0-.93.43,3.16,3.16,0,0,1,1-1.14A3.41,3.41,0,0,1,197.22,128.14Z"/><path class="cls-111" d="M192.66,146.39a2.78,2.78,0,0,0,5.54,0Z"/><path class="cls-112" d="M193.17,146.79a2.42,2.42,0,0,0,4.51,0,8.47,8.47,0,0,1-2.19.17A10.13,10.13,0,0,1,193.17,146.79Z"/><path class="cls-113" d="M152.28,122.56l-3.11,2.73c.35-2.87.6-5.68.77-8.17h0l1-1c.06.12.13.25.19.38a13.72,13.72,0,0,1,1,2.86A11.32,11.32,0,0,1,152.28,122.56Z"/><path class="cls-114" d="M119.36,110.64l-2.13,2.89-.67,1.08-.35.57h0l-.58,1-.14.27h0l-.34.58-.81,1.25-.28.43-.56.84-.15.25a10.81,10.81,0,0,0-2.72-4.32l0,0a11.72,11.72,0,0,0-2.83-2c2.08.37,4.07,2,5.55,3.64.53-1.42,1.92-2.42,2.8-3.61A8,8,0,0,1,119.36,110.64Z"/><path class="cls-113" d="M175.48,158.5a3.08,3.08,0,0,0,.4,4.14l2.58,3.57,1.21,1.68a2.07,2.07,0,0,0,.27.31v1c-.41.08-.84.15-1.28.21h0l-.63.09c-.11-.18-.25-.36-.38-.54-1-1.76-2.06-3.45-3-5.36s-2.5-3-1.1-5.35a44.44,44.44,0,0,1,3.81-5.07c1.11-1.39,2.12-3.06,3.69-2.93l-1.5,1.93.43.33Z"/><path class="cls-113" d="M185.1,156.52v9.33a2.33,2.33,0,0,0-.47-.47h0a2.59,2.59,0,0,0-.39-.78l-2.76-3.83,3.33-4.44.28.22Z"/><g class="cls-59"><path class="cls-115" d="M153.18,100.69a4.33,4.33,0,0,0-.67,1.38h0l0,.11h0c0,.18-.09.37-.13.58a2.24,2.24,0,0,0-.06.52l-1,5.75-.92-.44s0,.27,0,.77c-.64-.48-.08-1.46,0-2.24s.15-1.85.24-2.78C150.89,102.7,151.65,101.2,153.18,100.69Z"/></g><g class="cls-59"><path class="cls-116" d="M128.92,152.25a11.52,11.52,0,0,1-2.5,1.11l-.07,0a8.13,8.13,0,0,0-3,1.65,15.61,15.61,0,0,0-3.29,4.86L120,148.73l1.28,1.42a2.81,2.81,0,0,0,4.06.78l1.1-.48h0l6.08-2.68.1,0a3.45,3.45,0,0,0,1.08-.32l2-1C136.5,148.81,130.39,151.38,128.92,152.25Z"/></g></g></g></g></svg>