<svg xmlns="http://www.w3.org/2000/svg" viewBox="0 0 550.34 335.17"><defs><style>.cls-1{isolation:isolate;}.cls-2{fill:#cc8d8c;}.cls-3{fill:#df4e2b;}.cls-4{fill:#f15934;}.cls-5{fill:#ffecbf;}.cls-6{fill:#edb17d;}.cls-7{fill:#0a7e89;}.cls-8{fill:#089dac;}.cls-9{fill:#facf90;}.cls-10{fill:#bd7184;}.cls-10,.cls-13,.cls-14{mix-blend-mode:multiply;}.cls-11{fill:#c78483;}.cls-12{fill:#ce9792;}.cls-14,.cls-19{fill:#e8b5c4;}.cls-15{fill:#ffdc9b;}.cls-16{fill:#463959;}.cls-17{fill:#67547d;}.cls-18{fill:#fee6ad;}.cls-20{fill:#e8bfaa;}.cls-21{fill:#ffb145;}.cls-22{fill:#f09b39;}</style></defs><g class="cls-1"><g id="Layer_2" data-name="Layer 2"><g id="layer_1-2" data-name="layer 1"><polygon class="cls-2" points="25.39 304.98 21.18 304.98 21.18 326.52 179.77 326.52 177.53 304.98 25.39 304.98"/><polygon class="cls-3" points="173.06 304.98 25.39 304.98 14.49 111.42 173.06 111.42 173.06 304.98"/><polygon class="cls-4" points="47.79 268.93 39.98 268.93 39.46 264.57 48.13 264.72 47.79 268.93"/><polygon class="cls-4" points="39.09 262.59 31.75 262.59 31.26 258.5 39.41 258.64 39.09 262.59"/><polygon class="cls-4" points="30.44 247.62 22.41 247.62 21.87 243.15 30.8 243.3 30.44 247.62"/><polygon class="cls-4" points="29.61 234.56 22.56 234.56 22.09 230.63 29.92 230.76 29.61 234.56"/><polygon class="cls-4" points="72.7 211.22 64.62 211.22 64.08 206.73 73.05 206.88 72.7 211.22"/><polygon class="cls-4" points="79.78 198.08 72.67 198.08 72.2 194.12 80.09 194.26 79.78 198.08"/><polygon class="cls-4" points="75.52 181.76 67.68 181.76 67.16 177.4 75.86 177.54 75.52 181.76"/><polygon class="cls-4" points="69.2 175.94 61.96 175.94 61.48 171.91 69.52 172.05 69.2 175.94"/><polygon class="cls-4" points="56.86 169.75 49.18 169.75 48.67 165.48 57.2 165.62 56.86 169.75"/><polygon class="cls-4" points="72.24 190.99 65.1 190.99 64.63 187.01 72.56 187.15 72.24 190.99"/><polygon class="cls-4" points="135.26 256.91 127.59 256.91 127.08 252.65 135.59 252.79 135.26 256.91"/><polygon class="cls-4" points="128.4 251.74 120.4 251.74 119.87 247.29 128.75 247.44 128.4 251.74"/><polygon class="cls-4" points="127.07 239.6 119.36 239.6 118.85 235.31 127.4 235.46 127.07 239.6"/><polygon class="cls-4" points="125.47 229.2 117.95 229.2 117.45 225.01 125.8 225.15 125.47 229.2"/><polygon class="cls-4" points="117.69 224.81 109.77 224.81 109.25 220.41 118.03 220.56 117.69 224.81"/><polygon class="cls-4" points="103.22 224.56 95.21 224.56 94.68 220.1 103.57 220.25 103.22 224.56"/><polygon class="cls-4" points="126.79 276.29 119 276.29 118.48 271.95 127.13 272.1 126.79 276.29"/><polygon class="cls-4" points="112.67 269.03 104.69 269.03 104.16 264.59 113.02 264.74 112.67 269.03"/><polygon class="cls-4" points="37.64 290.11 29.79 290.11 29.26 285.74 37.98 285.88 37.64 290.11"/><polygon class="cls-4" points="47.49 299.46 39.77 299.46 39.25 295.16 47.83 295.31 47.49 299.46"/><polygon class="cls-4" points="50.39 283.49 43.12 283.49 42.63 279.44 50.71 279.57 50.39 283.49"/><polygon class="cls-4" points="147.47 233.97 139.59 233.97 139.06 229.58 147.82 229.72 147.47 233.97"/><polygon class="cls-4" points="148.1 224.08 140.84 224.08 140.36 220.03 148.42 220.17 148.1 224.08"/><polygon class="cls-4" points="139.94 213.37 132.18 213.37 131.66 209.05 140.28 209.19 139.94 213.37"/><polygon class="cls-4" points="140.68 197.37 132.98 197.37 132.47 193.09 141.01 193.23 140.68 197.37"/><polygon class="cls-4" points="135.51 214.27 127.88 214.27 127.37 210.02 135.84 210.17 135.51 214.27"/><polygon class="cls-4" points="133.81 206.37 126.03 206.37 125.51 202.04 134.15 202.19 133.81 206.37"/><polygon class="cls-4" points="120.88 193.5 113.06 193.5 112.54 189.15 121.23 189.3 120.88 193.5"/><polygon class="cls-4" points="112.44 141.82 104.73 141.82 104.22 137.53 112.78 137.67 112.44 141.82"/><polygon class="cls-4" points="98.2 137.08 91.08 137.08 90.6 133.12 98.51 133.25 98.2 137.08"/><polygon class="cls-4" points="99.65 125.62 91.88 125.62 91.37 121.3 99.99 121.45 99.65 125.62"/><polygon class="cls-4" points="87.25 123.96 79.23 123.96 78.69 119.5 87.6 119.65 87.25 123.96"/><polygon class="cls-4" points="146.81 128.37 139.03 128.37 138.51 124.03 147.15 124.18 146.81 128.37"/><polygon class="cls-4" points="134.89 138.63 127.8 138.63 127.32 134.68 135.2 134.81 134.89 138.63"/><polygon class="cls-4" points="126.9 137.99 119.46 137.99 118.96 133.85 127.22 133.99 126.9 137.99"/><polygon class="cls-4" points="112.38 129.1 105.24 129.1 104.77 125.13 112.69 125.26 112.38 129.1"/><polygon class="cls-4" points="32.19 157.31 24.67 157.31 24.17 153.12 32.52 153.26 32.19 157.31"/><polygon class="cls-4" points="35.77 142.35 28.36 142.35 27.87 138.23 36.09 138.37 35.77 142.35"/><polygon class="cls-4" points="26.02 133.39 18.44 133.39 17.94 129.18 26.35 129.32 26.02 133.39"/><polygon class="cls-4" points="58.98 135.17 51.28 135.17 50.77 130.89 59.31 131.03 58.98 135.17"/><polygon class="cls-4" points="43.65 126.61 35.57 126.61 35.04 122.11 44 122.27 43.65 126.61"/><polygon class="cls-4" points="84.23 227.48 76.88 227.48 76.39 223.38 84.55 223.52 84.23 227.48"/><polygon class="cls-4" points="75.19 223.23 67.56 223.23 67.05 218.98 75.52 219.13 75.19 223.23"/><polygon class="cls-4" points="61.38 218.11 54.17 218.11 53.7 214.09 61.7 214.23 61.38 218.11"/><polygon class="cls-4" points="66.94 207.31 58.98 207.31 58.45 202.89 67.28 203.03 66.94 207.31"/><polygon class="cls-4" points="54.04 198.11 46.49 198.11 45.99 193.91 54.37 194.05 54.04 198.11"/><polygon class="cls-4" points="133.43 298.72 126.41 298.72 125.94 294.81 133.74 294.95 133.43 298.72"/><polygon class="cls-4" points="128.83 302.51 120.74 302.51 120.2 298.01 129.19 298.16 128.83 302.51"/><polygon class="cls-4" points="118.77 292.32 111.56 292.32 111.08 288.31 119.08 288.45 118.77 292.32"/><polygon class="cls-4" points="100.36 300.33 93.37 300.33 92.9 296.43 100.67 296.56 100.36 300.33"/><polygon class="cls-4" points="87.89 301.27 79.86 301.27 79.32 296.8 88.24 296.95 87.89 301.27"/><polygon class="cls-5" points="68.85 285.54 38.38 285.54 34.1 223.98 67.13 223.98 68.85 285.54"/><polygon class="cls-6" points="41.41 283 37.48 226.52 63.99 226.52 65.58 283 41.41 283"/><polygon class="cls-7" points="42.62 281.99 38.83 227.53 62.74 227.53 64.27 281.99 42.62 281.99"/><polygon class="cls-8" points="42.15 232.64 46.65 280.15 60.06 280.15 59.84 234.22 42.15 232.64"/><polygon class="cls-9" points="52.85 282.59 50.14 226.96 51.23 226.92 53.94 282.55 52.85 282.59"/><rect class="cls-9" x="39.85" y="248" width="24.43" height="0.89"/><rect class="cls-9" x="40.77" y="266.74" width="24.43" height="0.89"/><polygon class="cls-5" points="114.36 285.54 83.89 285.54 79.61 223.98 112.63 223.98 114.36 285.54"/><polygon class="cls-6" points="86.91 283 82.98 226.52 109.5 226.52 111.08 283 86.91 283"/><polygon class="cls-7" points="88.13 281.99 84.34 227.53 108.25 227.53 109.77 281.99 88.13 281.99"/><polygon class="cls-8" points="87.66 232.64 92.16 280.15 105.56 280.15 105.35 234.22 87.66 232.64"/><polygon class="cls-9" points="98.36 282.59 95.64 226.96 96.73 226.92 99.45 282.55 98.36 282.59"/><rect class="cls-9" x="85.36" y="248" width="24.43" height="0.89"/><rect class="cls-9" x="86.27" y="266.74" width="24.43" height="0.89"/><polygon class="cls-5" points="159.86 285.54 129.39 285.54 125.11 223.98 158.13 223.98 159.86 285.54"/><polygon class="cls-6" points="132.42 283 128.49 226.52 155 226.52 156.59 283 132.42 283"/><polygon class="cls-7" points="133.63 281.99 129.84 227.53 153.75 227.53 155.28 281.99 133.63 281.99"/><polygon class="cls-8" points="133.16 232.64 137.66 280.15 151.07 280.15 150.85 234.22 133.16 232.64"/><polygon class="cls-9" points="143.86 282.59 141.15 226.96 142.24 226.92 144.95 282.55 143.86 282.59"/><rect class="cls-9" x="130.86" y="248" width="24.43" height="0.89"/><rect class="cls-9" x="131.78" y="266.74" width="24.43" height="0.89"/><polygon class="cls-5" points="64.72 203.6 32.88 203.6 28.4 142.04 62.92 142.04 64.72 203.6"/><polygon class="cls-6" points="36.04 201.06 31.93 144.58 59.65 144.58 61.3 201.06 36.04 201.06"/><polygon class="cls-7" points="37.3 200.05 33.34 145.59 58.34 145.59 59.93 200.05 37.3 200.05"/><polygon class="cls-8" points="36.81 150.7 41.52 198.2 55.53 198.2 55.31 152.27 36.81 150.7"/><polygon class="cls-9" points="48 200.65 45.16 145.01 46.3 144.98 49.14 200.61 48 200.65"/><rect class="cls-9" x="34.41" y="166.06" width="25.54" height="0.89"/><rect class="cls-9" x="35.37" y="184.8" width="25.54" height="0.89"/><polygon class="cls-5" points="112.29 203.6 80.44 203.6 75.97 142.04 110.49 142.04 112.29 203.6"/><polygon class="cls-6" points="83.61 201.06 79.5 144.58 107.22 144.58 108.87 201.06 83.61 201.06"/><polygon class="cls-7" points="84.87 200.05 80.91 145.59 105.91 145.59 107.5 200.05 84.87 200.05"/><polygon class="cls-8" points="84.38 150.7 89.08 198.2 103.1 198.2 102.88 152.27 84.38 150.7"/><polygon class="cls-9" points="95.57 200.65 92.73 145.01 93.87 144.98 96.71 200.61 95.57 200.65"/><rect class="cls-9" x="81.98" y="166.06" width="25.54" height="0.89"/><rect class="cls-9" x="82.93" y="184.8" width="25.54" height="0.89"/><polygon class="cls-5" points="159.86 203.6 128.01 203.6 123.53 142.04 158.06 142.04 159.86 203.6"/><polygon class="cls-6" points="131.17 201.06 127.07 144.58 154.78 144.58 156.44 201.06 131.17 201.06"/><polygon class="cls-7" points="132.44 200.05 128.48 145.59 153.47 145.59 155.07 200.05 132.44 200.05"/><polygon class="cls-8" points="131.95 150.7 136.65 198.2 150.67 198.2 150.44 152.27 131.95 150.7"/><polygon class="cls-9" points="143.13 200.65 140.3 145.01 141.44 144.98 144.27 200.61 143.13 200.65"/><rect class="cls-9" x="129.55" y="166.06" width="25.54" height="0.89"/><rect class="cls-9" x="130.5" y="184.8" width="25.54" height="0.89"/><polygon class="cls-6" points="6.13 115.82 8.55 122.25 167.78 122.25 167.78 114.71 6.13 115.82"/><polygon class="cls-5" points="0 106.45 3.79 116.42 167.78 116.42 167.78 108.08 0 106.45"/><polygon class="cls-5" points="13.69 122.25 15.24 131.97 19.24 131.97 19.56 122.25 13.69 122.25"/><polygon class="cls-5" points="26.28 122.25 27.83 131.97 31.83 131.97 32.16 122.25 26.28 122.25"/><polygon class="cls-5" points="38.88 122.25 40.43 131.97 44.43 131.97 44.76 122.25 38.88 122.25"/><polygon class="cls-5" points="51.48 122.25 53.02 131.97 57.03 131.97 57.35 122.25 51.48 122.25"/><polygon class="cls-5" points="64.07 122.25 65.62 131.97 69.62 131.97 69.95 122.25 64.07 122.25"/><polygon class="cls-5" points="76.67 122.25 78.22 131.97 82.22 131.97 82.55 122.25 76.67 122.25"/><polygon class="cls-5" points="89.27 122.25 90.81 131.97 94.81 131.97 95.14 122.25 89.27 122.25"/><polygon class="cls-5" points="101.86 122.25 103.41 131.97 107.41 131.97 107.74 122.25 101.86 122.25"/><polygon class="cls-5" points="114.46 122.25 116 131.97 120.01 131.97 120.33 122.25 114.46 122.25"/><polygon class="cls-5" points="127.05 122.25 128.6 131.97 132.6 131.97 132.93 122.25 127.05 122.25"/><polygon class="cls-5" points="139.65 122.25 141.2 131.97 145.2 131.97 145.53 122.25 139.65 122.25"/><polygon class="cls-5" points="152.25 122.25 153.79 131.97 157.79 131.97 158.12 122.25 152.25 122.25"/><polygon class="cls-10" points="13.69 122.25 148.27 122.25 147.34 116.42 152.25 116.42 151.01 107.92 167.78 108.08 175.51 326.52 155.71 326.52 145.53 127.11 14.18 125.35 13.69 122.25"/><polygon class="cls-11" points="45.24 317.43 39.21 317.43 38.81 314.07 45.5 314.19 45.24 317.43"/><polygon class="cls-11" points="51.89 313.69 46.17 313.69 45.79 310.51 52.14 310.61 51.89 313.69"/><polygon class="cls-11" points="54.03 323.71 48.31 323.71 47.93 320.53 54.28 320.63 54.03 323.71"/><polygon class="cls-11" points="41.58 314.48 35.75 314.48 35.36 311.23 41.83 311.34 41.58 314.48"/><polygon class="cls-11" points="32.12 314.92 26.63 314.92 26.27 311.87 32.36 311.97 32.12 314.92"/><polygon class="cls-11" points="109.26 315.39 103.5 315.39 103.11 312.18 109.52 312.29 109.26 315.39"/><polygon class="cls-11" points="94.13 314.33 88.56 314.33 88.19 311.23 94.38 311.34 94.13 314.33"/><polygon class="cls-11" points="97.36 317.4 91.53 317.4 91.14 314.16 97.61 314.27 97.36 317.4"/><polygon class="cls-11" points="79.83 322.86 74.17 322.86 73.79 319.71 80.08 319.81 79.83 322.86"/><polygon class="cls-11" points="144.41 312.53 138.99 312.53 138.63 309.52 144.65 309.62 144.41 312.53"/><polygon class="cls-11" points="136.46 315.25 130.8 315.25 130.42 312.1 136.7 312.2 136.46 315.25"/><polygon class="cls-11" points="148.57 321.28 142.91 321.28 142.54 318.13 148.82 318.24 148.57 321.28"/><polygon class="cls-11" points="153.03 319 147.37 319 146.99 315.85 153.27 315.96 153.03 319"/><polygon class="cls-11" points="102.9 322.98 97.23 322.98 96.86 319.82 103.15 319.93 102.9 322.98"/><polygon class="cls-11" points="105.24 309.34 99.39 309.34 99 306.09 105.5 306.2 105.24 309.34"/><polygon class="cls-2" points="524.96 304.98 529.16 304.98 529.16 326.52 370.57 326.52 372.81 304.98 524.96 304.98"/><polygon class="cls-3" points="377.28 304.98 524.96 304.98 535.85 111.42 377.28 111.42 377.28 304.98"/><polygon class="cls-4" points="502.55 268.93 510.37 268.93 510.88 264.57 502.21 264.72 502.55 268.93"/><polygon class="cls-4" points="511.25 262.59 518.6 262.59 519.09 258.5 510.93 258.64 511.25 262.59"/><polygon class="cls-4" points="519.9 247.62 527.93 247.62 528.47 243.15 519.55 243.3 519.9 247.62"/><polygon class="cls-4" points="520.73 234.56 527.78 234.56 528.25 230.63 520.42 230.76 520.73 234.56"/><polygon class="cls-4" points="477.64 211.22 485.72 211.22 486.26 206.73 477.29 206.88 477.64 211.22"/><polygon class="cls-4" points="470.56 198.08 477.67 198.08 478.14 194.12 470.25 194.26 470.56 198.08"/><polygon class="cls-4" points="474.82 181.76 482.66 181.76 483.18 177.4 474.48 177.54 474.82 181.76"/><polygon class="cls-4" points="481.14 175.94 488.38 175.94 488.86 171.91 480.82 172.05 481.14 175.94"/><polygon class="cls-4" points="493.48 169.75 501.16 169.75 501.67 165.48 493.15 165.62 493.48 169.75"/><polygon class="cls-4" points="478.1 190.99 485.24 190.99 485.71 187.01 477.79 187.15 478.1 190.99"/><polygon class="cls-4" points="415.08 256.91 422.75 256.91 423.26 252.65 414.75 252.79 415.08 256.91"/><polygon class="cls-4" points="421.94 251.74 429.94 251.74 430.47 247.29 421.59 247.44 421.94 251.74"/><polygon class="cls-4" points="423.27 239.6 430.98 239.6 431.5 235.31 422.94 235.46 423.27 239.6"/><polygon class="cls-4" points="424.87 229.2 432.39 229.2 432.89 225.01 424.54 225.15 424.87 229.2"/><polygon class="cls-4" points="432.66 224.81 440.57 224.81 441.1 220.41 432.31 220.56 432.66 224.81"/><polygon class="cls-4" points="447.12 224.56 455.13 224.56 455.66 220.1 446.77 220.25 447.12 224.56"/><polygon class="cls-4" points="423.55 276.29 431.34 276.29 431.86 271.95 423.21 272.1 423.55 276.29"/><polygon class="cls-4" points="437.67 269.03 445.65 269.03 446.19 264.59 437.32 264.74 437.67 269.03"/><polygon class="cls-4" points="512.7 290.11 520.55 290.11 521.08 285.74 512.36 285.88 512.7 290.11"/><polygon class="cls-4" points="502.85 299.46 510.57 299.46 511.09 295.16 502.51 295.31 502.85 299.46"/><polygon class="cls-4" points="499.95 283.49 507.23 283.49 507.71 279.44 499.63 279.57 499.95 283.49"/><polygon class="cls-4" points="402.87 233.97 410.76 233.97 411.28 229.58 402.53 229.72 402.87 233.97"/><polygon class="cls-4" points="402.24 224.08 409.5 224.08 409.98 220.03 401.92 220.17 402.24 224.08"/><polygon class="cls-4" points="410.4 213.37 418.17 213.37 418.68 209.05 410.06 209.19 410.4 213.37"/><polygon class="cls-4" points="409.67 197.37 417.36 197.37 417.87 193.09 409.33 193.23 409.67 197.37"/><polygon class="cls-4" points="414.83 214.27 422.46 214.27 422.97 210.02 414.5 210.17 414.83 214.27"/><polygon class="cls-4" points="416.53 206.37 424.31 206.37 424.83 202.04 416.19 202.19 416.53 206.37"/><polygon class="cls-4" points="429.46 193.5 437.28 193.5 437.8 189.15 429.12 189.3 429.46 193.5"/><polygon class="cls-4" points="437.9 141.82 445.61 141.82 446.12 137.53 437.56 137.67 437.9 141.82"/><polygon class="cls-4" points="452.14 137.08 459.27 137.08 459.74 133.12 451.83 133.25 452.14 137.08"/><polygon class="cls-4" points="450.69 125.62 458.46 125.62 458.98 121.3 450.35 121.45 450.69 125.62"/><polygon class="cls-4" points="463.1 123.96 471.11 123.96 471.65 119.5 462.75 119.65 463.1 123.96"/><polygon class="cls-4" points="403.53 128.37 411.31 128.37 411.83 124.03 403.19 124.18 403.53 128.37"/><polygon class="cls-4" points="415.45 138.63 422.55 138.63 423.02 134.68 415.14 134.81 415.45 138.63"/><polygon class="cls-4" points="423.45 137.99 430.88 137.99 431.38 133.85 423.12 133.99 423.45 137.99"/><polygon class="cls-4" points="437.96 129.1 445.1 129.1 445.57 125.13 437.65 125.26 437.96 129.1"/><polygon class="cls-4" points="518.15 157.31 525.67 157.31 526.17 153.12 517.82 153.26 518.15 157.31"/><polygon class="cls-4" points="514.57 142.35 521.98 142.35 522.48 138.23 514.25 138.37 514.57 142.35"/><polygon class="cls-4" points="524.32 133.39 531.9 133.39 532.4 129.18 523.99 129.32 524.32 133.39"/><polygon class="cls-4" points="491.37 135.17 499.06 135.17 499.57 130.89 491.03 131.03 491.37 135.17"/><polygon class="cls-4" points="506.69 126.61 514.77 126.61 515.3 122.11 506.34 122.27 506.69 126.61"/><polygon class="cls-4" points="466.11 227.48 473.46 227.48 473.95 223.38 465.79 223.52 466.11 227.48"/><polygon class="cls-4" points="475.15 223.23 482.78 223.23 483.29 218.98 474.82 219.13 475.15 223.23"/><polygon class="cls-4" points="488.96 218.11 496.17 218.11 496.65 214.09 488.64 214.23 488.96 218.11"/><polygon class="cls-4" points="483.41 207.31 491.36 207.31 491.89 202.89 483.06 203.03 483.41 207.31"/><polygon class="cls-4" points="496.31 198.11 503.85 198.11 504.35 193.91 495.98 194.05 496.31 198.11"/><polygon class="cls-4" points="416.91 298.72 423.93 298.72 424.4 294.81 416.61 294.95 416.91 298.72"/><polygon class="cls-4" points="421.51 302.51 429.6 302.51 430.14 298.01 421.16 298.16 421.51 302.51"/><polygon class="cls-4" points="431.57 292.32 438.78 292.32 439.26 288.31 431.26 288.45 431.57 292.32"/><polygon class="cls-4" points="449.98 300.33 456.97 300.33 457.44 296.43 449.67 296.56 449.98 300.33"/><polygon class="cls-4" points="462.45 301.27 470.48 301.27 471.02 296.8 462.1 296.95 462.45 301.27"/><polygon class="cls-5" points="481.49 285.54 511.96 285.54 516.24 223.98 483.21 223.98 481.49 285.54"/><polygon class="cls-6" points="508.93 283 512.86 226.52 486.35 226.52 484.76 283 508.93 283"/><polygon class="cls-7" points="507.72 281.99 511.51 227.53 487.6 227.53 486.07 281.99 507.72 281.99"/><polygon class="cls-8" points="508.19 232.64 503.69 280.15 490.28 280.15 490.5 234.22 508.19 232.64"/><polygon class="cls-9" points="497.49 282.59 500.2 226.96 499.11 226.92 496.4 282.55 497.49 282.59"/><rect class="cls-9" x="486.05" y="248" width="24.43" height="0.89"/><rect class="cls-9" x="485.14" y="266.74" width="24.43" height="0.89"/><polygon class="cls-5" points="435.99 285.54 466.45 285.54 470.74 223.98 437.71 223.98 435.99 285.54"/><polygon class="cls-6" points="463.43 283 467.36 226.52 440.84 226.52 439.26 283 463.43 283"/><polygon class="cls-7" points="462.22 281.99 466 227.53 442.09 227.53 440.57 281.99 462.22 281.99"/><polygon class="cls-8" points="462.68 232.64 458.19 280.15 444.78 280.15 444.99 234.22 462.68 232.64"/><polygon class="cls-9" points="451.99 282.59 454.7 226.96 453.61 226.92 450.89 282.55 451.99 282.59"/><rect class="cls-9" x="440.55" y="248" width="24.43" height="0.89"/><rect class="cls-9" x="439.64" y="266.74" width="24.43" height="0.89"/><polygon class="cls-5" points="390.48 285.54 420.95 285.54 425.23 223.98 392.21 223.98 390.48 285.54"/><polygon class="cls-6" points="417.92 283 421.85 226.52 395.34 226.52 393.75 283 417.92 283"/><polygon class="cls-7" points="416.71 281.99 420.5 227.53 396.59 227.53 395.06 281.99 416.71 281.99"/><polygon class="cls-8" points="417.18 232.64 412.68 280.15 399.27 280.15 399.49 234.22 417.18 232.64"/><polygon class="cls-9" points="406.48 282.59 409.19 226.96 408.11 226.92 405.39 282.55 406.48 282.59"/><rect class="cls-9" x="395.05" y="248" width="24.43" height="0.89"/><rect class="cls-9" x="394.13" y="266.74" width="24.43" height="0.89"/><polygon class="cls-5" points="485.62 203.6 517.47 203.6 521.94 142.04 487.42 142.04 485.62 203.6"/><polygon class="cls-6" points="514.3 201.06 518.41 144.58 490.69 144.58 489.04 201.06 514.3 201.06"/><polygon class="cls-7" points="513.04 200.05 517 145.59 492 145.59 490.41 200.05 513.04 200.05"/><polygon class="cls-8" points="513.53 150.7 508.82 198.2 494.81 198.2 495.03 152.27 513.53 150.7"/><polygon class="cls-9" points="502.34 200.65 505.18 145.01 504.04 144.98 501.2 200.61 502.34 200.65"/><rect class="cls-9" x="490.39" y="166.06" width="25.54" height="0.89"/><rect class="cls-9" x="489.43" y="184.8" width="25.54" height="0.89"/><polygon class="cls-5" points="438.05 203.6 469.9 203.6 474.37 142.04 439.85 142.04 438.05 203.6"/><polygon class="cls-6" points="466.74 201.06 470.84 144.58 443.13 144.58 441.47 201.06 466.74 201.06"/><polygon class="cls-7" points="465.47 200.05 469.43 145.59 444.44 145.59 442.84 200.05 465.47 200.05"/><polygon class="cls-8" points="465.96 150.7 461.26 198.2 447.24 198.2 447.47 152.27 465.96 150.7"/><polygon class="cls-9" points="454.77 200.65 457.61 145.01 456.47 144.98 453.63 200.61 454.77 200.65"/><rect class="cls-9" x="442.82" y="166.06" width="25.54" height="0.89"/><rect class="cls-9" x="441.86" y="184.8" width="25.54" height="0.89"/><polygon class="cls-5" points="390.48 203.6 422.33 203.6 426.81 142.04 392.29 142.04 390.48 203.6"/><polygon class="cls-6" points="419.17 201.06 423.27 144.58 395.56 144.58 393.9 201.06 419.17 201.06"/><polygon class="cls-7" points="417.9 200.05 421.86 145.59 396.87 145.59 395.27 200.05 417.9 200.05"/><polygon class="cls-8" points="418.39 150.7 413.69 198.2 399.67 198.2 399.9 152.27 418.39 150.7"/><polygon class="cls-9" points="407.21 200.65 410.04 145.01 408.9 144.98 406.07 200.61 407.21 200.65"/><rect class="cls-9" x="395.25" y="166.06" width="25.54" height="0.89"/><rect class="cls-9" x="394.3" y="184.8" width="25.54" height="0.89"/><polygon class="cls-6" points="544.22 115.82 541.79 122.25 382.56 122.25 382.56 114.71 544.22 115.82"/><polygon class="cls-5" points="550.34 106.45 546.55 116.42 382.56 116.42 382.56 108.08 550.34 106.45"/><polygon class="cls-5" points="536.65 122.25 535.11 131.97 531.1 131.97 530.78 122.25 536.65 122.25"/><polygon class="cls-5" points="524.06 122.25 522.51 131.97 518.51 131.97 518.18 122.25 524.06 122.25"/><polygon class="cls-5" points="511.46 122.25 509.91 131.97 505.91 131.97 505.58 122.25 511.46 122.25"/><polygon class="cls-5" points="498.87 122.25 497.32 131.97 493.31 131.97 492.99 122.25 498.87 122.25"/><polygon class="cls-5" points="486.27 122.25 484.72 131.97 480.72 131.97 480.39 122.25 486.27 122.25"/><polygon class="cls-5" points="473.67 122.25 472.13 131.97 468.12 131.97 467.8 122.25 473.67 122.25"/><polygon class="cls-5" points="461.08 122.25 459.53 131.97 455.53 131.97 455.2 122.25 461.08 122.25"/><polygon class="cls-5" points="448.48 122.25 446.93 131.97 442.93 131.97 442.6 122.25 448.48 122.25"/><polygon class="cls-5" points="435.88 122.25 434.34 131.97 430.33 131.97 430.01 122.25 435.88 122.25"/><polygon class="cls-5" points="423.29 122.25 421.74 131.97 417.74 131.97 417.41 122.25 423.29 122.25"/><polygon class="cls-5" points="410.69 122.25 409.14 131.97 405.14 131.97 404.82 122.25 410.69 122.25"/><polygon class="cls-5" points="398.1 122.25 396.55 131.97 392.55 131.97 392.22 122.25 398.1 122.25"/><polygon class="cls-10" points="536.65 122.25 402.07 122.25 403 116.42 398.1 116.42 399.33 107.92 382.56 108.08 374.83 326.52 394.63 326.52 404.82 127.11 536.16 125.35 536.65 122.25"/><polygon class="cls-11" points="505.1 317.43 511.13 317.43 511.53 314.07 504.84 314.19 505.1 317.43"/><polygon class="cls-11" points="498.45 313.69 504.17 313.69 504.55 310.51 498.2 310.61 498.45 313.69"/><polygon class="cls-11" points="496.31 323.71 502.03 323.71 502.41 320.53 496.06 320.63 496.31 323.71"/><polygon class="cls-11" points="508.77 314.48 514.59 314.48 514.98 311.23 508.51 311.34 508.77 314.48"/><polygon class="cls-11" points="518.22 314.92 523.71 314.92 524.08 311.87 517.98 311.97 518.22 314.92"/><polygon class="cls-11" points="441.08 315.39 446.85 315.39 447.23 312.18 440.83 312.29 441.08 315.39"/><polygon class="cls-11" points="456.21 314.33 461.78 314.33 462.15 311.23 455.96 311.34 456.21 314.33"/><polygon class="cls-11" points="452.99 317.4 458.81 317.4 459.2 314.16 452.73 314.27 452.99 317.4"/><polygon class="cls-11" points="470.51 322.86 476.17 322.86 476.55 319.71 470.27 319.81 470.51 322.86"/><polygon class="cls-11" points="405.93 312.53 411.35 312.53 411.71 309.52 405.7 309.62 405.93 312.53"/><polygon class="cls-11" points="413.89 315.25 419.55 315.25 419.92 312.1 413.64 312.2 413.89 315.25"/><polygon class="cls-11" points="401.77 321.28 407.43 321.28 407.8 318.13 401.52 318.24 401.77 321.28"/><polygon class="cls-11" points="397.31 319 402.97 319 403.35 315.85 397.07 315.96 397.31 319"/><polygon class="cls-11" points="447.44 322.98 453.11 322.98 453.49 319.82 447.19 319.93 447.44 322.98"/><polygon class="cls-11" points="445.1 309.34 450.95 309.34 451.34 306.09 444.85 306.2 445.1 309.34"/><polygon class="cls-12" points="387.37 299.37 385.69 330.21 166.08 330.21 164.4 299.37 169.77 299.37 382 299.37 387.37 299.37"/><polygon class="cls-4" points="344.39 79.19 207.4 79.19 275.89 22.79 344.39 79.19"/><polygon class="cls-5" points="410.71 59.67 407.83 73.25 405.13 73.25 346 73.25 275.89 14.58 205.77 73.25 146.66 73.25 143.95 73.25 141.07 59.67 203.85 62.19 275.89 0 347.93 62.19 410.71 59.67"/><polygon class="cls-6" points="405.13 73.25 403.61 79.19 400.79 79.19 344.39 79.19 275.89 22.79 207.4 79.19 150.98 79.19 148.16 79.19 146.66 73.25 205.77 73.25 275.89 14.58 346 73.25 405.13 73.25"/><polygon class="cls-5" points="400.79 79.19 399.39 85.93 389.86 85.93 161.93 85.93 152.4 85.93 150.98 79.19 207.4 79.19 344.39 79.19 400.79 79.19"/><polygon class="cls-4" points="389.86 85.93 382 299.37 169.77 299.37 161.93 85.93 389.86 85.93"/><polygon class="cls-3" points="181.64 151.14 173.6 151.14 173.06 146.66 181.99 146.81 181.64 151.14"/><polygon class="cls-3" points="177.79 136.97 169.85 136.97 169.33 132.56 178.13 132.71 177.79 136.97"/><polygon class="cls-3" points="182.92 123.53 175.54 123.53 175.04 119.42 183.25 119.56 182.92 123.53"/><polygon class="cls-3" points="186.69 110.22 179 110.22 178.49 105.94 187.03 106.08 186.69 110.22"/><polygon class="cls-3" points="191.13 113.43 183.93 113.43 183.45 109.42 191.45 109.55 191.13 113.43"/><polygon class="cls-3" points="196.91 106.58 189.76 106.58 189.28 102.6 197.22 102.73 196.91 106.58"/><polygon class="cls-3" points="194.92 141.46 187.28 141.46 186.78 137.21 195.25 137.35 194.92 141.46"/><polygon class="cls-3" points="375.8 203.48 368.25 203.48 367.74 199.28 376.13 199.42 375.8 203.48"/><polygon class="cls-3" points="364.3 192.63 356.69 192.63 356.18 188.39 364.64 188.53 364.3 192.63"/><polygon class="cls-3" points="371.97 182.88 364.73 182.88 364.24 178.85 372.29 178.99 371.97 182.88"/><polygon class="cls-3" points="363.35 165.63 356.04 165.63 355.56 161.57 363.67 161.71 363.35 165.63"/><polygon class="cls-3" points="359.08 224.93 351.09 224.93 350.55 220.48 359.43 220.63 359.08 224.93"/><polygon class="cls-3" points="358.11 216.07 350.93 216.07 350.45 212.08 358.42 212.21 358.11 216.07"/><polygon class="cls-3" points="364.18 204.1 356.51 204.1 356 199.84 364.51 199.98 364.18 204.1"/><polygon class="cls-3" points="380.24 142.03 372.96 142.03 372.48 137.98 380.56 138.12 380.24 142.03"/><polygon class="cls-3" points="220.18 254.74 212.77 254.74 212.28 250.62 220.51 250.75 220.18 254.74"/><polygon class="cls-3" points="210.69 248.73 202.78 248.73 202.25 244.33 211.03 244.47 210.69 248.73"/><polygon class="cls-3" points="212.57 239.64 205.42 239.64 204.95 235.66 212.88 235.8 212.57 239.64"/><polygon class="cls-3" points="208.4 230.48 200.73 230.48 200.22 226.21 208.74 226.35 208.4 230.48"/><polygon class="cls-3" points="212.09 215.15 204.45 215.15 203.94 210.9 212.42 211.04 212.09 215.15"/><polygon class="cls-3" points="236.18 248.83 228.24 248.83 227.71 244.41 236.53 244.56 236.18 248.83"/><polygon class="cls-3" points="225.48 237.6 218.31 237.6 217.83 233.61 225.8 233.74 225.48 237.6"/><polygon class="cls-3" points="228.09 265.76 220.39 265.76 219.87 261.47 228.43 261.62 228.09 265.76"/><polygon class="cls-3" points="224.32 243.73 216.48 243.73 215.96 239.37 224.66 239.51 224.32 243.73"/><polygon class="cls-3" points="181.03 297.76 172.98 297.76 172.45 293.28 181.38 293.43 181.03 297.76"/><polygon class="cls-3" points="192.3 286.58 185.31 286.58 184.84 282.69 192.6 282.82 192.3 286.58"/><polygon class="cls-3" points="190.55 273.37 182.53 273.37 181.99 268.9 190.9 269.05 190.55 273.37"/><polygon class="cls-3" points="188.29 289.6 180.31 289.6 179.77 285.15 188.64 285.3 188.29 289.6"/><polygon class="cls-3" points="182.57 279.39 174.7 279.39 174.18 275.01 182.91 275.16 182.57 279.39"/><polygon class="cls-3" points="373.96 285.54 366.16 285.54 365.64 281.2 374.3 281.34 373.96 285.54"/><polygon class="cls-3" points="365.38 289.73 357.49 289.73 356.96 285.34 365.72 285.49 365.38 289.73"/><polygon class="cls-3" points="383.05 270.88 377.75 270.88 377.26 266.82 383.19 266.92 383.05 270.88"/><polygon class="cls-3" points="376.36 274.76 368.9 274.76 368.4 270.61 376.68 270.75 376.36 274.76"/><polygon class="cls-3" points="249.01 118.29 241.63 118.29 241.14 114.18 249.34 114.32 249.01 118.29"/><polygon class="cls-3" points="243.69 106.44 236.22 106.44 235.72 102.29 244.01 102.43 243.69 106.44"/><polygon class="cls-3" points="263.14 108.54 255.03 108.54 254.49 104.02 263.49 104.18 263.14 108.54"/><polygon class="cls-3" points="321.28 136.02 313.85 136.02 313.36 131.88 321.61 132.02 321.28 136.02"/><polygon class="cls-3" points="316.67 132.43 309.16 132.43 308.66 128.24 317 128.38 316.67 132.43"/><polygon class="cls-3" points="321.06 169.52 328.49 169.52 328.98 165.38 320.73 165.52 321.06 169.52"/><polygon class="cls-3" points="325.67 165.93 333.18 165.93 333.68 161.75 325.34 161.89 325.67 165.93"/><polygon class="cls-3" points="329.84 158.1 337.35 158.1 337.85 153.92 329.51 154.06 329.84 158.1"/><polygon class="cls-3" points="331.77 120.57 324.42 120.57 323.93 116.48 332.1 116.62 331.77 120.57"/><polygon class="cls-3" points="344.61 132.56 337.59 132.56 337.12 128.65 344.92 128.78 344.61 132.56"/><polygon class="cls-3" points="336.22 124.34 328.53 124.34 328.01 120.06 336.56 120.2 336.22 124.34"/><polygon class="cls-3" points="271.77 191.91 264.06 191.91 263.55 187.63 272.1 187.77 271.77 191.91"/><polygon class="cls-3" points="280.92 174.64 273.04 174.64 272.51 170.25 281.26 170.4 280.92 174.64"/><polygon class="cls-3" points="283.67 162.01 275.58 162.01 275.04 157.5 284.02 157.65 283.67 162.01"/><polygon class="cls-3" points="289.2 212.79 281.67 212.79 281.17 208.59 289.53 208.74 289.2 212.79"/><polygon class="cls-3" points="284.24 198.16 276.37 198.16 275.85 193.78 284.58 193.93 284.24 198.16"/><polygon class="cls-3" points="294.92 182 286.92 182 286.38 177.55 295.27 177.7 294.92 182"/><polygon class="cls-3" points="300.07 278.25 292.02 278.25 291.49 273.77 300.42 273.92 300.07 278.25"/><polygon class="cls-3" points="298.45 263.75 290.48 263.75 289.95 259.31 298.8 259.46 298.45 263.75"/><polygon class="cls-3" points="287.18 252.74 279.72 252.74 279.22 248.58 287.51 248.72 287.18 252.74"/><polygon class="cls-3" points="309.98 271.17 301.92 271.17 301.38 266.68 310.33 266.83 309.98 271.17"/><polygon class="cls-3" points="189.44 203.74 181.89 203.74 181.39 199.54 189.77 199.68 189.44 203.74"/><polygon class="cls-3" points="195.35 185.63 187.41 185.63 186.88 181.21 195.7 181.36 195.35 185.63"/><polygon class="cls-3" points="265 257.89 257.94 257.89 257.47 253.96 265.31 254.09 265 257.89"/><polygon class="cls-3" points="264.54 249.03 257.3 249.03 256.82 245 264.86 245.13 264.54 249.03"/><polygon class="cls-3" points="318.88 295.05 311.38 295.05 310.88 290.87 319.21 291.01 318.88 295.05"/><polygon class="cls-3" points="321.19 280.35 313.66 280.35 313.16 276.16 321.52 276.3 321.19 280.35"/><polygon class="cls-3" points="333.41 284.07 326.2 284.07 325.72 280.06 333.72 280.19 333.41 284.07"/><polygon class="cls-3" points="231.35 148.6 223.68 148.6 223.17 144.33 231.68 144.47 231.35 148.6"/><polygon class="cls-3" points="222.57 136.1 215.15 136.1 214.66 131.97 222.89 132.11 222.57 136.1"/><polygon class="cls-3" points="342.58 244.39 335.34 244.39 334.85 240.36 342.89 240.5 342.58 244.39"/><polygon class="cls-3" points="316.62 78.32 309.29 78.32 308.81 74.23 316.94 74.37 316.62 78.32"/><polygon class="cls-3" points="305 65.26 296.93 65.26 296.4 60.77 305.35 60.92 305 65.26"/><polygon class="cls-3" points="305.35 53.05 297.68 53.05 297.17 48.78 305.68 48.92 305.35 53.05"/><polygon class="cls-3" points="263.66 77.43 255.7 77.43 255.17 73.01 264 73.16 263.66 77.43"/><polygon class="cls-3" points="248.75 70.37 241.48 70.37 241 66.32 249.07 66.45 248.75 70.37"/><polygon class="cls-3" points="243.87 64.49 236.83 64.49 236.36 60.57 244.18 60.7 243.87 64.49"/><polygon class="cls-3" points="319.86 70.48 312.12 70.48 311.61 66.17 320.2 66.32 319.86 70.48"/><polygon class="cls-5" points="165.57 94.24 161.82 94.24 161.28 85.93 166.11 85.93 165.57 94.24"/><g class="cls-13"><polygon class="cls-10" points="161.82 94.24 166.11 95.17 167.78 85.93 166.11 85.93 165.57 94.24 161.82 94.24"/></g><polygon class="cls-5" points="178.04 94.24 174.29 94.24 173.75 85.93 178.58 85.93 178.04 94.24"/><g class="cls-13"><polygon class="cls-10" points="174.29 94.24 178.58 95.17 180.26 85.93 178.58 85.93 178.04 94.24 174.29 94.24"/></g><polygon class="cls-5" points="190.52 94.24 186.77 94.24 186.23 85.93 191.06 85.93 190.52 94.24"/><g class="cls-13"><polygon class="cls-10" points="186.77 94.24 191.06 95.17 192.73 85.93 191.06 85.93 190.52 94.24 186.77 94.24"/></g><polygon class="cls-5" points="203 94.24 199.24 94.24 198.7 85.93 203.53 85.93 203 94.24"/><g class="cls-13"><polygon class="cls-10" points="199.24 94.24 203.53 95.17 205.21 85.93 203.53 85.93 203 94.24 199.24 94.24"/></g><polygon class="cls-5" points="215.47 94.24 211.72 94.24 211.18 85.93 216.01 85.93 215.47 94.24"/><g class="cls-13"><polygon class="cls-10" points="211.72 94.24 216.01 95.17 217.68 85.93 216.01 85.93 215.47 94.24 211.72 94.24"/></g><polygon class="cls-5" points="227.94 94.24 224.19 94.24 223.65 85.93 228.48 85.93 227.94 94.24"/><g class="cls-13"><polygon class="cls-10" points="224.19 94.24 228.48 95.17 230.16 85.93 228.48 85.93 227.94 94.24 224.19 94.24"/></g><polygon class="cls-5" points="240.42 94.24 236.67 94.24 236.13 85.93 240.96 85.93 240.42 94.24"/><g class="cls-13"><polygon class="cls-10" points="236.67 94.24 240.96 95.17 242.63 85.93 240.96 85.93 240.42 94.24 236.67 94.24"/></g><polygon class="cls-5" points="252.9 94.24 249.14 94.24 248.6 85.93 253.43 85.93 252.9 94.24"/><g class="cls-13"><polygon class="cls-10" points="249.14 94.24 253.43 95.17 255.11 85.93 253.43 85.93 252.9 94.24 249.14 94.24"/></g><polygon class="cls-5" points="265.37 94.24 261.62 94.24 261.08 85.93 265.91 85.93 265.37 94.24"/><g class="cls-13"><polygon class="cls-10" points="261.62 94.24 265.91 95.17 267.58 85.93 265.91 85.93 265.37 94.24 261.62 94.24"/></g><polygon class="cls-5" points="277.85 94.24 274.09 94.24 273.55 85.93 278.38 85.93 277.85 94.24"/><g class="cls-13"><polygon class="cls-10" points="274.09 94.24 278.38 95.17 280.06 85.93 278.38 85.93 277.85 94.24 274.09 94.24"/></g><polygon class="cls-5" points="290.32 94.24 286.57 94.24 286.03 85.93 290.86 85.93 290.32 94.24"/><g class="cls-13"><polygon class="cls-10" points="286.57 94.24 290.86 95.17 292.53 85.93 290.86 85.93 290.32 94.24 286.57 94.24"/></g><polygon class="cls-5" points="302.8 94.24 299.04 94.24 298.5 85.93 303.33 85.93 302.8 94.24"/><g class="cls-13"><polygon class="cls-10" points="299.04 94.24 303.33 95.17 305.01 85.93 303.33 85.93 302.8 94.24 299.04 94.24"/></g><polygon class="cls-5" points="315.27 94.24 311.52 94.24 310.98 85.93 315.81 85.93 315.27 94.24"/><g class="cls-13"><polygon class="cls-10" points="311.52 94.24 315.81 95.17 317.48 85.93 315.81 85.93 315.27 94.24 311.52 94.24"/></g><polygon class="cls-5" points="327.75 94.24 323.99 94.24 323.45 85.93 328.29 85.93 327.75 94.24"/><g class="cls-13"><polygon class="cls-10" points="323.99 94.24 328.29 95.17 329.96 85.93 328.29 85.93 327.75 94.24 323.99 94.24"/></g><polygon class="cls-5" points="340.22 94.24 336.47 94.24 335.93 85.93 340.76 85.93 340.22 94.24"/><g class="cls-13"><polygon class="cls-10" points="336.47 94.24 340.76 95.17 342.43 85.93 340.76 85.93 340.22 94.24 336.47 94.24"/></g><polygon class="cls-5" points="352.7 94.24 348.94 94.24 348.4 85.93 353.24 85.93 352.7 94.24"/><g class="cls-13"><polygon class="cls-10" points="348.94 94.24 353.24 95.17 354.91 85.93 353.24 85.93 352.7 94.24 348.94 94.24"/></g><polygon class="cls-5" points="365.17 94.24 361.42 94.24 360.88 85.93 365.71 85.93 365.17 94.24"/><g class="cls-13"><polygon class="cls-10" points="361.42 94.24 365.71 95.17 367.38 85.93 365.71 85.93 365.17 94.24 361.42 94.24"/></g><polygon class="cls-5" points="377.65 94.24 373.89 94.24 373.35 85.93 378.19 85.93 377.65 94.24"/><g class="cls-13"><polygon class="cls-10" points="373.89 94.24 378.19 95.17 379.86 85.93 378.19 85.93 377.65 94.24 373.89 94.24"/></g><polygon class="cls-5" points="389.65 94.24 385.9 94.24 385.36 85.93 390.19 85.93 389.65 94.24"/><g class="cls-13"><polygon class="cls-10" points="385.9 94.24 389.52 95.12 389.55 94.24 385.9 94.24"/></g><polygon class="cls-10" points="161.28 85.93 390.19 85.93 389.89 90.55 161.51 89.53 161.28 85.93"/><polygon class="cls-14" points="146.66 73.25 147.15 75.21 206.43 75.91 275.89 18.06 345.54 75.91 404.2 76.88 405.13 73.25 346 73.25 275.89 14.58 205.77 73.25 146.66 73.25"/><polygon class="cls-10" points="207.4 79.19 275.89 22.79 344.39 79.19 335.93 79.19 274.58 29.86 213.59 79.19 207.4 79.19"/><g class="cls-13"><path class="cls-10" d="M293.53,56.38c0-9.22-7.44-15.61-16.66-15.61s-17.48,6.58-17.48,15.8,8.26,17.6,17.48,17.6S293.53,65.6,293.53,56.38Z"/></g><path class="cls-5" d="M292.39,54.64C292.39,45.41,285,39,275.74,39s-17.48,6.57-17.48,15.79,8.25,17.6,17.48,17.6S292.39,63.86,292.39,54.64Z"/><path class="cls-15" d="M275.84,70C268.72,70,262,62.88,262,55.34c0-8,7-12.75,13.85-12.75,7.54,0,13,5.28,13,12.55C288.85,63.06,282.77,70,275.84,70Z"/><path class="cls-16" d="M275.78,68.06c-6.1,0-11.87-6.12-11.87-12.58,0-6.84,6-10.92,11.87-10.92,6.46,0,11.15,4.52,11.15,10.75C286.93,62.1,281.72,68.06,275.78,68.06Z"/><path class="cls-17" d="M275.62,67.07c-5,0-9.69-5-9.69-10.28,0-5.58,4.92-8.91,9.69-8.91,5.28,0,9.11,3.69,9.11,8.77C284.73,62.2,280.47,67.07,275.62,67.07Z"/><polygon class="cls-18" points="267.27 56.51 269.33 56.45 269.33 55.85 267.27 55.79 267.27 56.51"/><polygon class="cls-18" points="275.33 62.66 275.26 64.72 275.99 64.72 275.92 62.66 275.33 62.66"/><polygon class="cls-18" points="275.92 50.8 275.99 47.12 275.26 47.12 275.33 50.8 275.92 50.8"/><polygon class="cls-18" points="282.67 55.85 282.67 56.45 284.73 56.51 284.73 55.79 282.67 55.85"/><path class="cls-18" d="M276.26,55.59h0a.86.86,0,0,0-.14-.13l-3.29-2.82L274.6,56l-4.48,5.58,6.14-4.86,0,0a.9.9,0,0,0,.24-.59A.85.85,0,0,0,276.26,55.59Z"/><polygon class="cls-5" points="215 181.21 180.38 181.21 175.51 101.87 213.04 101.87 215 181.21"/><polygon class="cls-6" points="183.81 177.94 179.35 105.14 209.48 105.14 211.28 177.94 183.81 177.94"/><polygon class="cls-7" points="185.19 176.63 180.88 106.45 208.06 106.45 209.79 176.63 185.19 176.63"/><polygon class="cls-8" points="184.66 113.03 189.77 174.25 205.01 174.25 204.76 115.06 184.66 113.03"/><rect class="cls-9" x="195.35" y="105.65" width="1.09" height="71.76" transform="translate(-5.9 8.55) rotate(-2.46)"/><rect class="cls-9" x="182.04" y="132.86" width="27.77" height="1.09"/><rect class="cls-9" x="183.08" y="157.01" width="27.77" height="1.09"/><polygon class="cls-5" points="216.98 271.17 186.51 271.17 182.23 195.97 215.25 195.97 216.98 271.17"/><polygon class="cls-6" points="189.54 268.07 185.61 199.07 212.12 199.07 213.7 268.07 189.54 268.07"/><polygon class="cls-7" points="190.75 266.83 186.96 200.31 210.87 200.31 212.39 266.83 190.75 266.83"/><polygon class="cls-8" points="190.28 206.55 194.78 264.58 208.18 264.58 207.97 208.47 190.28 206.55"/><rect class="cls-9" x="199.62" y="199.56" width="1.09" height="68.01" transform="translate(-9.16 8.17) rotate(-2.29)"/><rect class="cls-9" x="187.98" y="225.31" width="24.43" height="1.09"/><rect class="cls-9" x="188.89" y="248.21" width="24.43" height="1.09"/><polygon class="cls-5" points="336.08 271.17 366.54 271.17 370.82 195.97 337.8 195.97 336.08 271.17"/><polygon class="cls-6" points="363.52 268.07 367.45 199.07 340.93 199.07 339.35 268.07 363.52 268.07"/><polygon class="cls-7" points="362.31 266.83 366.1 200.31 342.19 200.31 340.66 266.83 362.31 266.83"/><polygon class="cls-8" points="362.77 206.55 358.28 264.58 344.87 264.58 345.08 208.47 362.77 206.55"/><rect class="cls-9" x="318.88" y="233.02" width="68.01" height="1.09" transform="translate(105.74 577.07) rotate(-87.77)"/><rect class="cls-9" x="340.64" y="225.31" width="24.43" height="1.09"/><rect class="cls-9" x="339.73" y="248.21" width="24.43" height="1.09"/><polygon class="cls-5" points="371.3 181.21 336.68 181.21 338.47 101.87 376 101.87 371.3 181.21"/><polygon class="cls-6" points="340.39 177.94 342.04 105.14 372.17 105.14 367.86 177.94 340.39 177.94"/><polygon class="cls-7" points="341.87 176.63 343.46 106.45 370.64 106.45 366.48 176.63 341.87 176.63"/><polygon class="cls-8" points="346.68 113.03 346.65 174.25 361.89 174.25 366.62 115.06 346.68 113.03"/><rect class="cls-9" x="319.65" y="140.99" width="71.76" height="1.09" transform="translate(199.79 491.07) rotate(-87.69)"/><rect class="cls-9" x="342.36" y="132.86" width="27.77" height="1.09"/><rect class="cls-9" x="341.37" y="157.01" width="27.77" height="1.09"/><polygon class="cls-5" points="309.1 181.21 242.5 181.21 240.84 101.87 310.75 101.87 309.1 181.21"/><polygon class="cls-6" points="246.57 177.94 245.05 105.14 306.54 105.14 305.02 177.94 246.57 177.94"/><polygon class="cls-7" points="248.2 176.63 246.74 106.45 304.85 106.45 303.39 176.63 248.2 176.63"/><polygon class="cls-8" points="250.72 113.03 253.54 174.25 298.05 174.25 300.68 115.06 250.72 113.03"/><rect class="cls-9" x="262.23" y="105.69" width="1.09" height="71.69"/><rect class="cls-9" x="288.05" y="105.69" width="1.09" height="71.69"/><rect class="cls-9" x="246.74" y="132.86" width="58.79" height="1.09"/><rect class="cls-9" x="246.74" y="157.01" width="58.79" height="1.09"/><polygon class="cls-10" points="330.54 195.97 348.56 211.46 343.77 287.87 368.4 330.21 319.21 330.21 319.21 195.97 330.54 195.97"/><polygon class="cls-6" points="214.07 296.77 217.47 296.77 216.57 302.53 215.06 302.53 213.29 335.17 210.04 335.17 210.3 296.77 214.07 296.77"/><polygon class="cls-5" points="210.04 335.17 192.76 335.17 191.77 302.53 211.03 302.53 210.04 335.17"/><polygon class="cls-5" points="213.72 302.53 189.07 302.53 188.73 296.77 214.07 296.77 213.72 302.53"/><circle class="cls-5" cx="202.26" cy="287.87" r="8.9"/><path class="cls-6" d="M207.79,283a7.59,7.59,0,0,1,.39,2.29,7.41,7.41,0,0,1-7.41,7.41,7.33,7.33,0,0,1-5.53-2.52A7.39,7.39,0,1,0,207.79,283Z"/><polygon class="cls-6" points="191.77 302.53 211.03 302.53 211.03 306.71 191.87 305.79 191.77 302.53"/><path class="cls-9" d="M206.92,332.19H196l-.63-27.94h11.51Zm-10.17-.73h9.44V305h-10Z"/><polygon class="cls-6" points="340 296.77 336.6 296.77 337.5 302.53 339.02 302.53 340.79 335.17 344.03 335.17 343.77 296.77 340 296.77"/><polygon class="cls-5" points="344.03 335.17 361.31 335.17 362.3 302.53 343.05 302.53 344.03 335.17"/><polygon class="cls-5" points="340.35 302.53 365 302.53 365.35 296.77 340 296.77 340.35 302.53"/><circle class="cls-5" cx="350.99" cy="287.87" r="8.9"/><path class="cls-6" d="M356.12,283a7.3,7.3,0,0,1,.4,2.29,7.39,7.39,0,0,1-12.95,4.89A7.39,7.39,0,1,0,356.12,283Z"/><polygon class="cls-6" points="362.3 302.53 343.05 302.53 343.05 306.71 362.2 305.79 362.3 302.53"/><path class="cls-9" d="M358,332.19H347.15V304.25h11.52Zm-10.15-.73h9.44l.6-26.48h-10Z"/><polygon class="cls-5" points="329.99 201.38 221.85 201.38 221.31 195.97 330.54 195.97 329.99 201.38"/><polygon class="cls-5" points="328.26 221.81 223.59 221.81 223.06 216.41 328.79 216.41 328.26 221.81"/><polygon class="cls-5" points="326 216.41 225.85 216.41 224.64 201.38 327.21 201.38 326 216.41"/><path class="cls-6" d="M228.14,203.69l1,9.83,93.66.56,1.1-10.39Zm94,9.66-92.34-.56-.85-8.38h94.14Z"/><g class="cls-13"><polygon class="cls-19" points="224.64 201.38 327.21 201.38 326.84 206 224.92 204.87 224.64 201.38"/></g><polygon class="cls-5" points="324.43 278.63 325.23 282.89 310.91 282.79 311.77 278.63 312.54 278.63 323.88 278.63 324.43 278.63"/><polygon class="cls-6" points="325.21 221.81 325.06 222.43 311.17 222.58 310.99 221.81 325.21 221.81"/><polygon class="cls-5" points="325.06 222.43 324.43 225.14 323.27 225.14 313.15 225.14 311.77 225.14 311.17 222.58 325.06 222.43"/><polygon class="cls-5" points="323.28 226.31 323.88 278.63 312.54 278.63 313.14 226.13 323.28 226.31"/><polygon class="cls-6" points="323.27 225.14 323.28 226.31 313.14 226.13 313.15 225.14 323.27 225.14"/><polygon class="cls-6" points="312.54 278.63 321.04 278.02 320.88 225.97 322.42 226.13 322.77 277.97 323.88 278.37 323.88 278.63 312.54 278.63"/><polygon class="cls-5" points="240.75 278.63 241.55 282.89 227.23 282.79 228.09 278.63 228.86 278.63 240.2 278.63 240.75 278.63"/><polygon class="cls-6" points="241.53 221.81 241.38 222.43 227.49 222.58 227.31 221.81 241.53 221.81"/><polygon class="cls-5" points="241.38 222.43 240.75 225.14 239.59 225.14 229.47 225.14 228.09 225.14 227.49 222.58 241.38 222.43"/><polygon class="cls-5" points="239.6 226.31 240.2 278.63 228.86 278.63 229.46 226.13 239.6 226.31"/><polygon class="cls-6" points="239.59 225.14 239.6 226.31 229.46 226.13 229.47 225.14 239.59 225.14"/><polygon class="cls-6" points="228.86 278.63 237.36 278.02 237.2 225.97 238.74 226.13 239.09 277.97 240.2 278.37 240.2 278.63 228.86 278.63"/><polygon class="cls-20" points="329.95 291.54 225.23 291.54 224.64 282.89 330.54 282.89 329.95 291.54"/><polygon class="cls-20" points="333.2 300.27 221.98 300.27 221.36 291.62 333.82 291.62 333.2 300.27"/><polygon class="cls-20" points="336.45 308.99 218.73 308.99 218.07 300.34 337.11 300.34 336.45 308.99"/><polygon class="cls-20" points="339.7 317.72 215.48 317.72 214.79 309.07 340.39 309.07 339.7 317.72"/><polygon class="cls-20" points="342.95 326.44 212.23 326.44 211.5 317.79 343.68 317.79 342.95 326.44"/><polygon class="cls-20" points="346.2 335.17 208.99 335.17 208.22 326.52 346.96 326.52 346.2 335.17"/><polygon class="cls-12" points="224.98 287.87 330.07 289.83 329.95 291.54 225.23 291.54 224.98 287.87"/><polygon class="cls-12" points="221.73 296.73 333.34 298.45 333.2 300.27 221.98 300.27 221.73 296.73"/><polygon class="cls-12" points="218.47 305.59 336.6 307.06 336.45 308.99 218.73 308.99 218.47 305.59"/><polygon class="cls-12" points="215.22 314.45 339.87 315.68 339.7 317.72 215.48 317.72 215.22 314.45"/><polygon class="cls-12" points="211.97 323.31 343.13 324.3 342.95 326.44 212.23 326.44 211.97 323.31"/><polygon class="cls-12" points="208.72 332.18 346.39 332.92 346.2 335.17 208.99 335.17 208.72 332.18"/><polygon class="cls-21" points="245.7 282.97 247.3 226.31 305.59 226.31 307.19 282.89 245.7 282.97"/><polygon class="cls-22" points="275.05 229.32 275.05 282.97 275.76 282.97 276.15 229.32 275.05 229.32"/><path class="cls-22" d="M248.17,283l0-.39,2.68-53.13h50.34l0,.35,2,53.09h-.37Zm3.4-52.8-2.64,52.07,53.56-.08-2-52Z"/><polygon class="cls-5" points="245.7 282.97 247.3 226.31 305.59 226.31 307.19 282.89 303.42 282.89 301.38 229.32 250.72 229.32 247.99 282.97 245.7 282.97"/><path class="cls-22" d="M272.48,261H252.85L254,232.67h18.46Zm-18.88-.73h18.15V233.4h-17Z"/><path class="cls-22" d="M272.48,280.42H252l.67-16.2h19.77Zm-19.68-.73h18.95V264.94H253.41Z"/><path class="cls-22" d="M298.37,261H278.74V232.67h18.45Zm-18.91-.73h18.15L296.5,233.4h-17Z"/><path class="cls-22" d="M299.18,280.42H278.74v-16.2H298.5Zm-19.72-.73h19l-.62-14.75H279.46Z"/><polygon class="cls-10" points="241.55 282.89 240.75 278.63 240.2 278.63 239.59 225.14 240.75 225.14 241.53 221.81 310.99 221.81 311.77 225.14 313.15 225.14 312.54 278.63 311.77 278.63 310.91 282.79 309.74 282.79 308.94 231.98 253.6 231.86 250.56 282.99 241.55 282.89"/></g></g></g></svg>