<svg xmlns="http://www.w3.org/2000/svg" xmlns:xlink="http://www.w3.org/1999/xlink" viewBox="0 0 276.22 192.98"><defs><style>.cls-1{isolation:isolate;}.cls-2{fill:#8c6441;}.cls-3{fill:#856f97;}.cls-4{fill:#f0c419;}.cls-5{fill:#82343c;}.cls-6{fill:#eab581;}.cls-7{fill:#a0404e;}.cls-8{fill:#fb646c;}.cls-9{fill:#fff4e0;}.cls-10{fill:url(#linear-gradient);}.cls-11{fill:#5d5852;}.cls-12{fill:#e5d7ca;}.cls-13{fill:#bfb3a8;}.cls-14{fill:#fee2d7;}.cls-15{fill:#ebd5bd;}.cls-16{fill:#7f7770;}.cls-17{fill:#c5a78f;}.cls-18{fill:#645472;}.cls-19{fill:#01395c;}.cls-20{fill:#fff;}.cls-21{fill:#b2457b;}.cls-22{fill:#f2d7b6;}.cls-23{fill:#f1712a;}.cls-24{fill:#4eba6f;}.cls-25{fill:#2d95bf;}.cls-26{fill:#8ac6bf;}.cls-27{fill:#7c96a8;}.cls-28{fill:#f28c81;}.cls-29{fill:#f0e5d6;}.cls-30{fill:#8e939a;mix-blend-mode:multiply;}.cls-31{fill:#fab496;}.cls-32{fill:#f57382;}.cls-33{fill:#c36e82;}.cls-34{fill:#a8957e;}.cls-35{fill:#6e5a7d;}.cls-36{fill:#ffcb3f;}</style><linearGradient id="linear-gradient" x1="202.79" y1="103.06" x2="271.59" y2="103.67" gradientUnits="userSpaceOnUse"><stop offset="0" stop-color="#94501d"/><stop offset="1" stop-color="#653415"/></linearGradient></defs><g class="cls-1"><g id="Layer_2" data-name="Layer 2"><g id="Layer_1-2" data-name="Layer 1"><rect class="cls-2" x="45.84" y="52.02" width="2.17" height="36.34"/><rect class="cls-3" x="48.02" y="52.02" width="17.4" height="36.34"/><rect class="cls-2" x="68.56" y="52.02" width="2.17" height="36.34"/><rect class="cls-3" x="70.74" y="52.02" width="17.4" height="36.34"/><rect class="cls-2" x="91.29" y="52.02" width="2.17" height="36.34"/><rect class="cls-3" x="93.46" y="52.02" width="17.4" height="36.34"/><rect class="cls-2" x="114.01" y="52.02" width="2.17" height="36.34"/><rect class="cls-3" x="116.18" y="52.02" width="17.4" height="36.34"/><polygon class="cls-4" points="97.61 113.84 97.61 110.83 97.47 109.2 97.24 108.95 97.13 108.94 96.86 108.88 96.41 108.97 96.17 109.27 96.03 110.98 96.03 119.01 96.17 120.65 96.41 120.93 96.82 121.03 97.08 120.97 97.22 120.93 97.46 120.65 97.61 118.84 97.61 116.67 101.95 116.67 101.95 117.34 101.86 119.64 101.59 121.14 101 122.2 99.96 123.12 98.57 123.75 96.88 123.96 95.13 123.78 93.73 123.25 92.69 122.39 92.08 121.26 91.78 119.68 91.68 117.45 91.68 112.41 91.81 109.61 92.06 108.69 92.55 107.81 93.28 107.03 94.25 106.45 95.42 106.08 96.75 105.95 98.5 106.14 99.92 106.72 100.96 107.58 101.56 108.63 101.85 110.09 101.95 112.19 101.95 113.84 97.61 113.84"/><polygon class="cls-5" points="113.76 106.31 115.67 112.41 115.67 114.1 113.24 106.31 113.76 106.31"/><polygon class="cls-4" points="109.6 123.6 109.6 106.31 113.24 106.31 115.67 114.1 115.67 112.41 115.67 106.31 119.31 106.31 119.31 123.6 115.5 123.6 113.76 117.57 113.24 115.74 113.24 123.6 109.6 123.6"/><rect class="cls-5" x="119.31" y="106.31" width="0.53" height="17.28"/><polygon class="cls-5" points="113.24 123.6 113.24 115.74 113.76 117.57 113.76 123.6 113.24 123.6"/><rect class="cls-5" x="128.3" y="106.31" width="0.53" height="3.46"/><polygon class="cls-4" points="121.05 106.31 128.3 106.31 128.3 109.77 125.92 109.77 125.4 109.77 125.4 113.05 125.92 113.05 128.11 113.05 128.11 116.34 125.92 116.34 125.4 116.34 125.4 120.14 125.92 120.14 128.59 120.14 128.59 123.6 121.05 123.6 121.05 106.31"/><rect class="cls-5" x="125.4" y="109.77" width="0.53" height="3.28"/><rect class="cls-5" x="128.11" y="113.05" width="0.53" height="3.29"/><rect class="cls-5" x="125.4" y="116.34" width="0.53" height="3.8"/><rect class="cls-5" x="128.59" y="120.14" width="0.53" height="3.46"/><polygon class="cls-6" points="143.25 106.31 143.25 123.59 139.45 123.59 139.44 115.98 139.44 111.93 137.93 123.59 135.23 123.59 134.16 115.96 133.64 112.19 133.63 123.59 129.83 123.59 129.83 106.31 135.46 106.31 135.97 109.98 136.59 114.39 136.84 112.39 137.59 106.31 143.25 106.31"/><polygon class="cls-5" points="206.52 111.21 206.47 111.82 206.17 112.34 206.27 111.21 206.52 111.21"/><polygon class="cls-7" points="207.77 111.05 207.77 114.08 207.16 114.13 206.74 114.28 206.48 114.5 206.34 114.82 206.27 116.41 206.27 119.8 203.74 119.8 203.74 111.21 206.27 111.21 206.17 112.34 206.47 111.82 206.48 111.8 206.84 111.42 207.27 111.16 207.77 111.05"/><rect class="cls-5" x="207.77" y="111.05" width="0.25" height="3.02"/><path class="cls-7" d="M202.92,115.66v-1.15l-.07-1.1-.22-.83-.37-.62-.59-.49-.79-.31-1-.11-.82.09-.71.26-.58.43-.39.57-.22.77-.07,1v2.5l0,.84.1.62.18.47.29.44.41.38.54.28.67.18.75.07.76-.07.62-.18.49-.3.41-.43.29-.47.16-.44.1-1.23v-.63h-2.39v1.14l-.1.86-.15.17-.12,0-.12,0-.19,0-.12-.12-.08-.76v-1.85Zm-3.27-2,0-.89.12-.13.21,0,.1,0h.08l.11.15.06.86v.63h-.73Z"/><rect class="cls-5" x="196.74" y="118.41" width="0.25" height="1.39"/><rect class="cls-5" x="195.95" y="110.07" width="0.26" height="1.35"/><rect class="cls-5" x="196.64" y="111.42" width="0.26" height="1.36"/><polygon class="cls-8" points="200.38 113.63 200.38 114.26 199.9 114.26 199.9 113.63 199.96 112.74 200.07 112.61 200.13 112.61 200.21 112.62 200.31 112.77 200.38 113.63"/><path class="cls-7" d="M192.39,113.72l-.1-1-.27-.63-.52-.52-.36-.21-.44-.15-1.12-.12-1,.11-.77.31-.56.45-.32.5-.18.66-.05.89v.57h2.37v-.9l.07-.89.11-.13.21,0,.11,0,.08,0,.13.15.1.88-.1.71-.37.25-1,.43-.95.43-.51.39-.22.5-.07.81v.7l0,.6.1.47.18.37.24.24.59.3.63.1.47-.07.41-.17.32-.28L190,119v.77h2.46v-4.31Zm-2.49,3.76-.08.8-.12.12h0l-.14,0-.21,0-.13-.15-.08-.86.1-.89.22-.35.49-.42Z"/><polygon class="cls-8" points="189.9 115.94 189.9 117.48 189.82 118.28 189.7 118.39 189.65 118.41 189.55 118.39 189.43 118.24 189.34 117.38 189.44 116.49 189.67 116.14 189.9 115.94"/><path class="cls-7" d="M186,115.66v-1.15l-.07-1.1-.21-.83-.38-.62-.6-.49-.77-.31-1-.11-.81.09-.72.26-.58.43-.39.57-.22.77-.07,1v2.5l0,.84.09.62.2.47.28.44.41.38.55.28.66.18.75.07.75-.07.62-.18.51-.3.4-.43.29-.47.16-.44.1-1.23v-.63h-2.4v1.14l-.1.86-.14.17-.12,0-.12,0-.19,0-.12-.12-.08-.76v-1.85Zm-3.27-2,.06-.89.11-.13.21,0,.11,0h.07l.1.15.08.86v.63h-.74Z"/><polygon class="cls-7" points="173.12 118.41 173.12 119.8 172.1 119.8 170.87 119.72 170.52 119.6 170.22 119.38 169.99 119.09 169.87 118.77 169.8 117.14 169.8 112.78 169.26 112.78 169.26 111.42 169.8 111.42 169.8 110.07 172.34 110.07 172.34 111.42 173.01 111.42 173.01 112.78 172.34 112.78 172.34 117.37 172.42 118.31 172.64 118.39 173.12 118.41"/><rect class="cls-5" x="173.12" y="118.41" width="0.25" height="1.39"/><polygon class="cls-8" points="183.48 113.63 183.48 114.26 182.98 114.26 182.98 113.63 183.05 112.74 183.16 112.61 183.23 112.61 183.3 112.62 183.4 112.77 183.48 113.63"/><polygon class="cls-7" points="179.41 113.88 179.41 119.8 176.88 119.8 176.88 113.76 176.81 112.79 176.7 112.63 176.62 112.61 176.49 112.58 176.3 112.63 176.18 112.8 176.1 113.67 176.1 119.8 173.57 119.8 173.57 109.33 176.1 109.33 176.1 111.68 176.34 111.48 176.44 111.41 176.8 111.22 177.19 111.1 177.61 111.05 178.22 111.14 178.74 111.41 179.12 111.78 179.31 112.21 179.41 113.88"/><polygon class="cls-5" points="176.1 111.68 176.1 109.32 176.35 109.32 176.35 111.48 176.1 111.68"/><path class="cls-7" d="M70,115.56v-1.14L70,113.31l-.21-.83-.38-.62-.58-.49-.79-.31-1-.1-.82.08-.72.26-.58.43-.38.57-.22.77-.07,1v2.5l0,.85.1.61.18.48.29.44.4.37.55.28.66.18.76.07.75-.07.62-.18.5-.3.4-.43.29-.47.17-.44.1-1.22v-.64h-2.4v1.13l-.1.87-.14.17-.1,0-.14,0-.2,0-.12-.13-.08-.75v-1.86Zm-3.28-2,.06-.9.12-.12.21,0,.12,0h.06l.1.15.07.87v.62h-.74Z"/><path class="cls-7" d="M54.34,113.34l-.09-.57-.18-.44-.28-.43-.4-.38-.54-.3-.67-.19-.79-.07-.92.1-.74.3-.55.48-.36.61-.18.8-.06,1.06v2.2l0,1,.1.69.19.5.27.43.39.34.51.23.65.14.78.06.7-.06.62-.17.53-.28.42-.42.31-.48.18-.52.08-.69,0-1v-2.1Zm-2.5,4.1-.07.73-.12.13h0l-.16,0-.18,0-.11-.14-.07-.8v-3.87l.07-.83.11-.13.19,0,.14,0h0l.11.13.07.83Z"/><polygon class="cls-5" points="41.55 111.11 41.53 111.52 41.23 111.93 41.27 111.11 41.55 111.11"/><polygon class="cls-7" points="47.78 113.6 47.78 119.7 45.33 119.7 45.33 114.1 45.25 112.74 45.13 112.54 45.06 112.52 44.92 112.48 44.7 112.54 44.58 112.73 44.49 114.1 44.49 119.7 42.05 119.7 42.05 114.24 41.98 112.73 41.87 112.54 41.83 112.53 41.66 112.48 41.37 112.61 41.23 112.94 41.23 113.75 41.23 119.7 38.77 119.7 38.77 111.12 41.27 111.12 41.23 111.93 41.54 111.53 41.55 111.5 41.93 111.2 42.36 111.02 42.85 110.96 43.34 111.02 43.76 111.2 44.13 111.5 44.45 111.93 44.59 111.75 44.79 111.5 45.16 111.2 45.59 111.02 46.06 110.96 46.64 111.03 47.13 111.28 47.46 111.64 47.66 112.08 47.76 112.69 47.78 113.6"/><polygon class="cls-5" points="60.72 111.11 59.53 119.7 59.25 119.7 60.43 111.11 60.72 111.11"/><polygon class="cls-5" points="57.22 111.11 57.77 115.94 57.64 117.38 56.93 111.11 57.22 111.11"/><polygon class="cls-7" points="60.43 111.11 59.25 119.7 55.95 119.7 54.67 111.11 56.93 111.11 57.64 117.38 57.77 115.94 58.17 111.11 60.43 111.11"/><polygon class="cls-8" points="51.84 113.48 51.84 117.44 51.77 118.17 51.66 118.3 51.63 118.3 51.57 118.29 51.46 118.15 51.39 117.36 51.39 113.48 51.46 112.65 51.57 112.52 51.62 112.52 51.66 112.52 51.77 112.65 51.84 113.48"/><polygon class="cls-8" points="67.5 113.54 67.5 114.16 67.05 114.16 67.05 113.54 67.11 112.64 67.22 112.52 67.27 112.52 67.33 112.52 67.44 112.67 67.5 113.54"/><rect class="cls-5" x="63.4" y="109.22" width="0.29" height="1.36"/><rect class="cls-7" x="60.8" y="109.22" width="2.6" height="1.36"/><polygon class="cls-9" points="71.05 100.41 71.11 100.87 71.05 101.34 70.87 101.77 70.6 102.14 70.24 102.43 69.82 102.61 69.37 102.67 68.92 102.61 68.5 102.43 68.14 102.14 67.86 101.77 67.69 101.34 67.63 100.87 67.69 100.41 67.86 99.97 68.14 99.6 68.5 99.31 68.92 99.13 69.37 99.07 69.82 99.13 70.24 99.31 70.6 99.6 70.87 99.97 71.05 100.41"/><polygon class="cls-9" points="52.62 102.67 52.17 102.61 51.75 102.43 51.39 102.14 51.12 101.77 50.94 101.34 50.88 100.87 50.94 100.41 51.12 99.97 51.39 99.6 51.75 99.31 52.17 99.13 52.62 99.07 53.07 99.13 53.49 99.31 53.85 99.6 54.13 99.97 54.3 100.41 54.36 100.87 54.3 101.34 54.13 101.77 53.85 102.14 53.49 102.43 53.07 102.61 52.62 102.67"/><polygon class="cls-10" points="208.31 138.45 206.96 138.45 206.96 132.65 224.18 132.65 224.18 91.52 227.02 91.52 227.02 48.85 229.4 48.85 229.4 35.19 226.85 35.19 226.85 21.53 270.56 21.53 270.56 185.39 225.36 185.39 225.36 138.45 208.31 138.45"/><polygon class="cls-4" points="206.96 138.45 201.81 138.45 18.41 138.45 6.49 138.45 5.14 138.45 0 138.45 0 132.65 17.22 132.65 206.96 132.65 206.96 138.45"/><polygon class="cls-2" points="6.49 192.98 5.14 192.98 5.14 138.45 6.49 138.45 6.49 187.98 6.49 190.45 6.49 192.98"/><rect class="cls-4" y="138.45" width="5.14" height="54.53"/><polygon class="cls-11" points="276.22 185.39 276.22 192.98 219.41 192.98 219.41 190.45 221.27 190.45 221.27 187.98 223.28 187.98 223.28 185.39 225.36 185.39 270.56 185.39 276.22 185.39"/><rect class="cls-12" x="208.31" y="190.45" width="11.1" height="2.53"/><polygon class="cls-13" points="219.41 190.45 208.31 190.45 208.31 187.98 221.27 187.98 221.27 190.45 219.41 190.45"/><path class="cls-6" d="M224.47,52H204.89V88.35h19.58Zm-22.73,0H182.17V88.35h19.57ZM179,52H159.45V88.35H179ZM156.3,52H136.73V88.35H156.3ZM42.7,52H23.12V88.35H42.7ZM114,88.35h19.57V52H114Zm-22.72,0h19.57V52H91.29Zm-22.73,0H88.14V52H68.56Zm-22.72,0H65.42V52H45.84ZM227,91.52h-207V48.85H227Z"/><path class="cls-14" d="M220.58,95.24H20.82v33.7H220.58V95.24Zm3.6,37.41h-207V91.52h207Z"/><polygon class="cls-15" points="225.36 138.45 225.36 185.39 223.28 185.39 217.58 185.39 217.58 151.24 217.58 145.3 208.31 145.3 208.31 138.45 225.36 138.45"/><polygon class="cls-16" points="223.28 185.39 223.28 187.98 221.27 187.98 208.31 187.98 208.31 185.39 217.58 185.39 223.28 185.39"/><polygon class="cls-16" points="7.35 187.98 7.35 185.39 18.41 185.39 24.95 185.39 73.11 185.39 74.87 185.39 90.03 185.39 121.27 185.39 122.89 185.39 153.02 185.39 169.43 185.39 171.02 185.39 201.81 185.39 201.81 187.98 7.35 187.98"/><polygon class="cls-15" points="18.41 185.39 18.41 138.45 201.81 138.45 201.81 145.3 171.02 145.3 169.43 145.3 122.89 145.3 121.27 145.3 74.87 145.3 73.11 145.3 24.95 145.3 24.95 151.24 24.95 185.39 18.41 185.39"/><polygon class="cls-17" points="24.95 145.3 24.95 151.24 24.95 185.39 73.11 185.39 73.11 151.24 73.11 145.3 24.95 145.3"/><polygon class="cls-15" points="169.43 145.3 171.02 145.3 171.02 151.24 171.02 185.39 169.43 185.39 169.43 151.24 169.43 145.3"/><polygon class="cls-15" points="73.11 145.3 74.87 145.3 74.87 151.24 74.87 185.39 73.11 185.39 73.11 151.24 73.11 145.3"/><polygon class="cls-3" points="74.87 151.24 74.87 185.39 121.27 185.39 121.27 156.44 121.27 151.24 121.27 145.3 74.87 145.3 74.87 151.24"/><polygon class="cls-3" points="122.89 145.3 122.89 151.24 122.89 156.44 122.89 185.39 169.43 185.39 169.43 151.24 169.43 145.3 122.89 145.3"/><polygon class="cls-17" points="208.31 145.3 208.31 151.24 208.31 153.45 215.23 153.45 215.23 176.55 208.31 176.55 208.31 185.39 217.58 185.39 217.58 151.24 217.58 145.3 208.31 145.3"/><polygon class="cls-17" points="171.02 151.24 171.02 185.39 201.81 185.39 201.81 176.55 173.05 176.55 173.05 153.45 201.81 153.45 201.81 151.24 201.81 145.3 171.02 145.3 171.02 151.24"/><rect class="cls-18" x="99.99" y="145.3" width="21.27" height="40.09"/><rect class="cls-18" x="122.89" y="145.3" width="20.52" height="40.09"/><rect class="cls-19" x="124.46" y="148.37" width="17.38" height="23.36"/><rect class="cls-18" x="146.16" y="145.3" width="20.52" height="40.09"/><rect class="cls-19" x="147.73" y="148.37" width="17.38" height="23.36"/><rect class="cls-19" x="102.17" y="148.37" width="17.38" height="23.36"/><rect class="cls-18" x="76.8" y="145.3" width="21.27" height="40.09"/><rect class="cls-19" x="78.97" y="148.37" width="17.38" height="23.36"/><rect class="cls-20" x="173.05" y="148.37" width="28.77" height="28.18"/><rect class="cls-20" x="208.31" y="148.37" width="6.93" height="28.18"/><polygon class="cls-14" points="24.21 48.85 24.21 35.19 226.87 35.19 229.4 35.19 229.4 48.85 227.04 48.85 24.21 48.85"/><polygon class="cls-21" points="47.65 37.8 49.35 37.81 49.35 45.16 47.65 45.15 47.65 37.8"/><polygon class="cls-8" points="47.65 37.8 47.65 45.15 34.84 45.15 34.84 37.8 35.37 37.8 47.65 37.8"/><polygon class="cls-21" points="66.47 37.8 68.17 37.81 68.17 45.16 66.47 45.15 66.47 37.8"/><polygon class="cls-8" points="66.47 37.8 66.47 45.15 53.67 45.15 53.67 37.8 54.2 37.8 66.47 37.8"/><polygon class="cls-21" points="85.3 37.8 87 37.81 87 45.16 85.3 45.15 85.3 37.8"/><polygon class="cls-8" points="85.3 37.8 85.3 45.15 72.49 45.15 72.49 37.8 73.02 37.8 85.3 37.8"/><polygon class="cls-21" points="104.12 37.8 105.82 37.81 105.82 45.16 104.12 45.15 104.12 37.8"/><polygon class="cls-8" points="104.12 37.8 104.12 45.15 91.31 45.15 91.31 37.8 91.84 37.8 104.12 37.8"/><polygon class="cls-21" points="122.95 37.8 124.64 37.81 124.64 45.16 122.95 45.15 122.95 37.8"/><polygon class="cls-8" points="122.95 37.8 122.95 45.15 110.14 45.15 110.14 37.8 110.67 37.8 122.95 37.8"/><polygon class="cls-21" points="141.77 37.8 143.47 37.81 143.47 45.16 141.77 45.15 141.77 37.8"/><polygon class="cls-8" points="141.77 37.8 141.77 45.15 128.96 45.15 128.96 37.8 129.49 37.8 141.77 37.8"/><polygon class="cls-21" points="160.59 37.8 162.29 37.81 162.29 45.16 160.59 45.15 160.59 37.8"/><polygon class="cls-8" points="160.59 37.8 160.59 45.15 147.78 45.15 147.78 37.8 148.31 37.8 160.59 37.8"/><polygon class="cls-21" points="179.42 37.8 181.12 37.81 181.12 45.16 179.42 45.15 179.42 37.8"/><polygon class="cls-8" points="179.42 37.8 179.42 45.15 166.61 45.15 166.61 37.8 167.14 37.8 179.42 37.8"/><polygon class="cls-21" points="198.24 37.8 199.94 37.81 199.94 45.16 198.24 45.15 198.24 37.8"/><polygon class="cls-8" points="198.24 37.8 198.24 45.15 185.43 45.15 185.43 37.8 185.96 37.8 198.24 37.8"/><polygon class="cls-21" points="217.06 37.8 218.76 37.81 218.76 45.16 217.06 45.15 217.06 37.8"/><polygon class="cls-8" points="217.06 37.8 217.06 45.15 204.25 45.15 204.25 37.8 204.78 37.8 217.06 37.8"/><polygon class="cls-22" points="19.89 35.19 19.89 21.53 226.85 21.53 226.85 35.19 22.44 35.19 19.89 35.19"/><rect class="cls-12" x="6.49" y="190.45" width="195.32" height="2.53"/><polygon class="cls-13" points="201.81 190.45 6.49 190.45 6.49 187.98 7.35 187.98 201.81 187.98 201.81 190.45"/><path class="cls-8" d="M218.55,100l.28-.37.36-.29.42-.17.45-.07.45.07.07,0V95.24H22v33.69H220.58v-2.06l-.07,0-.45.06-.45-.06-.42-.19-.36-.28-.28-.37-.17-.43-.07-.47.07-.46.17-.44.28-.38.36-.28.42-.18.45-.06.45.06.07,0V102.58l-.07,0-.45.06-.45-.06-.42-.18-.36-.29-.28-.37-.17-.43-.07-.47.07-.46Zm-16.92.44.17-.44.29-.37.35-.29.42-.17.45-.07.46.07.42.17.35.29.28.37.17.44.06.46-.06.47-.17.43-.28.37-.35.29-.42.18-.46.06-.45-.06-.42-.18-.35-.29-.29-.37-.17-.43,0-.47Zm-8.36,0,.17-.44.27-.37.36-.29.42-.17.46-.07.44.07.42.17.36.29.28.37.18.44.05.46-.05.47-.18.43-.28.37-.36.29-.42.18-.44.06-.46-.06-.42-.18-.36-.29-.27-.37-.17-.43-.07-.47Zm-8.38,0,.17-.44.28-.37.36-.29.42-.17.45-.07.45.07.42.17.36.29.28.37.17.44.06.46-.06.47-.17.43-.28.37-.36.29-.42.18-.45.06-.45-.06-.42-.18-.36-.29-.28-.37-.17-.43-.06-.47Zm-16.75,0,.19-.44.27-.37.36-.29.42-.17.45-.07.45.07.42.17.36.29.27.37.17.44.07.46-.07.47-.17.43-.27.37-.36.29-.42.18-.45.06-.45-.06-.42-.18-.36-.29-.27-.37-.19-.43,0-.47Zm-16.74,0,.18-.44.27-.37.37-.29.42-.17.44-.07.45.07.42.17.37.29.27.37.17.44.07.46-.07.47-.17.43-.27.37-.37.29-.42.18-.45.06-.44-.06-.42-.18-.37-.29-.27-.37-.18-.43-.05-.47Zm-16.73,0,.17-.44.27-.37.36-.29.42-.17.46-.07.44.07.42.17.36.29.28.37.18.44.05.46-.05.47-.18.43-.28.37-.36.29-.42.18-.44.06-.46-.06-.42-.18-.36-.29-.27-.37-.17-.43-.07-.47Zm-41.87,0L93,100l.27-.37.37-.29.42-.17.44-.07.45.07.42.17.37.29L96,100l.17.44.06.46-.06.47-.17.43-.27.37-.37.29-.42.18-.45.06-.44-.06-.42-.18-.37-.29-.27-.37-.18-.43-.06-.47Zm-33.36,0,.17-.44.28-.37.36-.29.42-.17.45-.07.45.07.42.17.36.29.27.37.18.44.06.46-.06.47-.18.43-.27.37-.36.29-.42.18-.45.06-.45-.06-.42-.18-.36-.29-.28-.37-.17-.43-.06-.47Zm-8.37,0,.17-.44.28-.37.35-.29.42-.17.46-.07.45.07.42.17.35.29.29.37.17.44.06.46-.06.47-.17.43-.29.37-.35.29-.42.18-.45.06-.46-.06-.42-.18-.35-.29-.28-.37-.17-.43-.06-.47Zm-8.37,0,.17-.44.27-.37.37-.29.42-.17.45-.07.44.07.42.17.37.29.27.37.18.44,0,.46,0,.47-.18.43-.27.37-.37.29-.42.18-.44.06-.45-.06-.42-.18-.37-.29-.27-.37-.17-.43-.07-.47ZM29.19,125.63l-.17.43-.28.37-.36.28-.42.19-.45.06-.45-.06-.42-.19-.36-.28-.28-.37-.17-.43-.06-.47.06-.46.17-.44.28-.38.36-.28.42-.18.45-.06.45.06.42.18.36.28.28.38.17.44,0,.46Zm0-24.29-.17.43-.28.37-.36.29-.42.18-.45.06-.45-.06-.42-.18-.36-.29-.28-.37-.17-.43-.06-.47.06-.46L26,100l.28-.37.36-.29.42-.17.45-.07.45.07.42.17.36.29L29,100l.17.44,0,.46Zm8.37,24.29-.17.43-.28.37-.36.28-.42.19-.45.06-.45-.06-.42-.19-.36-.28-.27-.37-.18-.43-.06-.47.06-.46.18-.44.27-.38.36-.28.42-.18.45-.06.45.06.42.18.36.28.28.38.17.44.06.46Zm0-24.29-.17.43-.28.37-.36.29-.42.18-.45.06-.45-.06-.42-.18-.36-.29-.27-.37-.18-.43-.06-.47.06-.46.18-.44.27-.37.36-.29.42-.17.45-.07.45.07.42.17.36.29.28.37.17.44.06.46Zm8.37,24.29-.17.43-.28.37-.35.28-.42.19-.46.06-.45-.06-.42-.19-.36-.28-.28-.37-.17-.43-.06-.47.06-.46.17-.44.28-.38.36-.28.42-.18.45-.06.46.06.42.18.35.28.28.38.17.44.06.46Zm2.14-5.93H45.33v-5.6l-.08-1.36-.12-.2-.07,0-.07,0-.13.19-.08,1.37v5.6H42.05v-5.46L42,112.73l-.11-.19h0l-.18.08-.12.32,0,.82v6H38.77v-8.58h2.78v.38l.38-.3.43-.18.49-.06h.28l.49.06.42.18.37.3.19.25.19-.25.37-.3.43-.18.47-.06h.28l.59.08.48.24.35.36.19.44.09.61,0,.91Zm6.23,5.93-.17.43-.27.37-.37.28-.42.19-.45.06-.44-.06-.42-.19-.37-.28-.27-.37-.18-.43,0-.47,0-.46.18-.44.27-.38.37-.28.42-.18.44-.06.45.06.42.18.37.28.27.38.17.44.07.46Zm.36-9.4,0,1-.08.69-.17.52-.31.48-.42.42-.52.28-.63.17-.71.06H51.5l-.78-.06-.65-.14-.51-.23-.39-.34-.27-.43-.19-.5-.1-.69,0-1v-2.2l.06-1.06.18-.8.36-.61.55-.48.74-.3.92-.1h.28l.8.07.66.19.55.3.4.38.28.43.17.44.09.57,0,.79Zm0-5.11h2.54l.54,4.82.41-4.82h2.54l-1.17,8.58H56Zm8,14.51-.18.43-.27.37-.37.28-.42.19L61,127l-.45-.06-.42-.19-.37-.28-.27-.37-.17-.43-.07-.47.07-.46.17-.44.27-.38.37-.28.42-.18.45-.06.44.06.42.18.37.28.27.38.18.44,0,.46Zm1-5.93H60.8v-8.58h2.89Zm0-9.11H60.8v-1.36h2.89Zm3.52,9.27-.76-.07-.66-.18-.55-.28-.4-.37-.29-.44-.18-.48-.1-.61,0-.85v-2.5l.07-1,.22-.77.38-.57.58-.43.72-.26L67,111h.29l1,.1.79.31.59.49.38.62.21.83.07,1.11v1.14H67.05v1.86l.08.75.12.13h0l.1,0,.14-.17.1-.87v-1.13h2.68v.64l-.1,1.22-.16.44-.29.47-.41.43-.49.3-.62.18-.76.07Zm3.84,5.77-.17.43-.29.37-.35.28-.42.19-.45.06-.46-.06-.42-.19-.35-.28-.28-.37-.17-.43-.06-.47.06-.46.17-.44.28-.38.35-.28.42-.18.46-.06.45.06.42.18.35.28.29.38.17.44.06.46Zm.12-24.29-.17.43-.28.37-.36.29-.42.18-.45.06-.45-.06-.42-.18-.36-.29-.28-.37-.17-.43-.06-.47.06-.46L68,100l.28-.37.36-.29.42-.17.45-.07.45.07.42.17.36.29L71,100l.17.44.06.46Zm8.25,24.29-.18.43-.27.37-.36.28-.42.19-.45.06-.45-.06-.42-.19-.36-.28-.28-.37-.17-.43-.06-.47.06-.46.17-.44.28-.38.36-.28.42-.18.45-.06.45.06.42.18.36.28.27.38.18.44.06.46Zm0-24.29-.18.43-.27.37-.36.29-.42.18-.45.06-.45-.06-.42-.18-.36-.29-.28-.37-.17-.43-.06-.47.06-.46.17-.44.28-.37.36-.29.42-.17.45-.07.45.07.42.17.36.29.27.37.18.44.06.46Zm8.37,24.29-.17.43-.28.37-.36.28-.42.19-.45.06-.45-.06-.42-.19-.36-.28-.28-.37-.17-.43-.06-.47.06-.46.17-.44.28-.38.36-.28.42-.18.45-.06.45.06.42.18.36.28.28.38.17.44.06.46Zm0-24.29-.17.43-.28.37-.36.29-.42.18-.45.06-.45-.06-.42-.18-.36-.29-.28-.37-.17-.43-.06-.47.06-.46.17-.44.28-.37.36-.29.42-.17.45-.07.45.07.42.17.36.29.28.37.17.44.06.46Zm14.69,12.5H97.61v-3l-.14-1.63-.23-.25-.11,0-.19,0-.24.3L96.56,111v8l.14,1.64.23.28.15,0,.14,0,.24-.28.15-1.81v-2.17h4.87v.68l-.09,2.29-.27,1.5-.6,1.06-1,.92-1.39.63-1.69.21h-.53l-1.75-.18-1.4-.54-1-.84-.61-1.14-.3-1.58-.1-2.23v-5l.13-2.79.24-.92.5-.88.73-.77,1-.59,1.17-.37,1.33-.13h.53l1.75.19,1.42.58,1,.86.61,1,.29,1.46.1,2.1Zm.38-11.17-.46-.06-.42-.18-.35-.29-.28-.37-.17-.43-.07-.47.07-.46.17-.44.28-.37.35-.29.42-.17.46-.07.45.07.42.17.35.29.28.37.18.44,0,.46,0,.47-.18.43-.28.37-.35.29-.42.18Zm5.52,20.92h-4.86V106.31h4.86Zm1.11-22.72.05-.46.18-.44.28-.37.36-.29.42-.17.44-.07.46.07.42.17.36.29.27.37.17.44.07.46-.07.47-.17.43-.27.37-.36.29-.42.18-.46.06-.44-.06-.42-.18-.36-.29-.28-.37-.18-.43Zm10.34,22.72H115.5l-1.74-6v6h-4.15V106.31h4.15l1.91,6.1v-6.1h4.16Zm.63-21.16-.42.18-.44.06-.45-.06-.42-.18-.37-.29-.27-.37-.17-.43-.06-.47.06-.46.17-.44.27-.37.37-.29.42-.17.45-.07.44.07.42.17.37.29.27.37.18.44.06.46-.06.47-.18.43-.27.37Zm8.65,21.16h-8.06V106.31h7.78v3.46h-2.9v3.28h2.71v3.29h-2.71v3.8h3.18Zm.54-22.25-.17.43-.28.37-.36.29-.42.18-.45.06-.46-.06-.41-.18-.36-.29-.28-.37-.17-.43-.06-.47.06-.46.17-.44.28-.37.36-.29.41-.17.46-.07.45.07.42.17.36.29.28.37.17.44.06.46Zm14.12,22.25h-4.32V116l-1,7.61h-3.22L134.16,116v7.63h-4.33V106.31H136l.51,3.67.34,2.41.75-6.08h6.18Zm-.28-21.45-.29-.37-.17-.43-.05-.47.05-.46.17-.44.29-.37.35-.29.42-.17.45-.07.46.07.42.17.35.29.28.37.17.44.06.46-.06.47-.17.43-.28.37-.35.29-.42.18-.46.06-.45-.06-.42-.18Zm7.06,21.45-.23-3.1h-1l-.27,3.1h-5l2.21-17.28H153l2.48,17.28Zm12.59,2-.17.43-.29.37-.35.28-.42.19-.45.06-.46-.06-.41-.19-.36-.28-.28-.37-.17-.43-.07-.47.07-.46.17-.44.28-.38.36-.28.41-.18.46-.06.45.06.42.18.35.28.29.38.17.44.05.46Zm0-24.29-.17.43-.29.37-.35.29-.42.18-.45.06-.46-.06-.41-.18-.36-.29-.28-.37-.17-.43-.07-.47.07-.46L160,100l.28-.37.36-.29.41-.17.46-.07.45.07.42.17.35.29.29.37.17.44.05.46Zm8.36,24.29-.17.43-.27.37-.36.28-.42.19-.45.06-.45-.06-.42-.19-.36-.28-.27-.37-.19-.43,0-.47,0-.46.19-.44.27-.38.36-.28.42-.18.45-.06.45.06.42.18.36.28.27.38.17.44.07.46Zm1.87-5.83H172.1l-1.24-.08-.34-.12-.3-.22-.23-.29-.12-.32-.07-1.63v-4.36h-.54v-1.36h.54v-1.35h2.78v1.35h.69v1.36h-.69v4.59l.08.94.22.08.49,0Zm3-6.13v6.13h-2.77V109.33h2.77v2.15l.1-.07.36-.19.39-.12.42,0h.25l.61.09.52.27.38.37.19.43.11,1.67v5.92h-2.79v-6l-.07-1-.11-.16-.08,0-.08,0-.11.17Zm3.54,12-.18.43-.27.37-.36.28-.42.19-.45.06-.45-.06-.42-.19-.36-.28-.28-.37-.17-.43-.06-.47.06-.46.17-.44.28-.38.36-.28.42-.18.45-.06.45.06.42.18.36.28.27.38.18.44.06.46Zm0-24.29-.18.43-.27.37-.36.29-.42.18-.45.06-.45-.06-.42-.18-.36-.29-.28-.37-.17-.43-.06-.47.06-.46.17-.44.28-.37.36-.29.42-.17.45-.07.45.07.42.17.36.29.27.37.18.44.06.46Zm4.31,18.55-.76.07h-.25l-.75-.07-.66-.18-.55-.28-.41-.38-.28-.44-.2-.47-.09-.62,0-.84v-2.5l.07-1,.22-.77.39-.57.58-.43.72-.26.81-.09h.26l1,.11.79.31.58.49.39.62.21.83.07,1.1v1.15H183v1.85l.08.76.12.12h.07l.12,0,.14-.17.1-.86v-1.14h2.65v.63l-.1,1.23-.16.44-.3.47-.4.43-.5.3Zm4.06,5.74-.17.43-.28.37-.36.28-.42.19-.45.06-.45-.06-.42-.19-.36-.28-.28-.37-.17-.43-.06-.47.06-.46.17-.44.28-.38.36-.28.42-.18.45-.06.45.06.42.18.36.28.28.38.17.44.06.46Zm4.42-5.83H190v-.36l-.34.28-.4.17-.46.07h-.26l-.63-.1-.59-.3-.24-.24-.18-.37-.1-.47,0-.6v-.7l.07-.81.22-.5.51-.39.95-.43,1-.43.37-.25.1-.71-.1-.88-.13-.15-.08,0h-.08l-.11.13-.06.89v.9h-2.62V114l.05-.89.18-.66.32-.5.56-.45.77-.31,1-.11h.24l1.13.12.44.15.37.21.52.52.25.63.11,1,0,1.77Zm4,5.83-.18.43-.28.37-.36.28-.42.19L195,127l-.46-.06-.42-.19-.36-.28-.27-.37-.17-.43-.07-.47.07-.46.17-.44.27-.38.36-.28.42-.18.46-.06.44.06.42.18.36.28.28.38.18.44.05.46Zm.36-5.83h-1.27l-1.23-.08-.35-.12-.3-.22-.23-.29-.12-.32-.07-1.63v-4.36h-.55v-1.36h.55v-1.35h2.79v1.35h.68v1.36h-.68v4.59l.08.94.22.08.48,0Zm3.35.16h-.25l-.75-.07-.67-.18-.54-.28-.41-.38-.29-.44-.18-.47-.1-.62,0-.84v-2.5l.07-1,.22-.77.39-.57.58-.43.71-.26.82-.09h.26l1,.11.78.31.59.49.38.62.21.83.06,1.1v1.15H199.9v1.85l.08.76.12.12h.06l.12,0,.15-.17.1-.86v-1.14h2.63v.63l-.09,1.23-.16.44-.29.47-.41.43-.5.3-.61.18Zm4.65,5.67-.17.43-.28.37-.35.28-.42.19-.46.06-.45-.06-.42-.19-.35-.28-.29-.37-.17-.43,0-.47,0-.46.17-.44.29-.38.35-.28.42-.18.45-.06.46.06.42.18.35.28.28.38.17.44.06.46Zm3-11.55-.6,0-.41.15-.26.23-.14.31-.07,1.58v3.4h-2.79v-8.59h2.79l-.06.61v0l.36-.38.43-.26.5-.11H208Zm5.36,11.55-.18.43-.27.37-.37.28-.42.19-.45.06-.44-.06-.42-.19-.37-.28-.27-.37-.18-.43-.05-.47.05-.46.18-.44.27-.38.37-.28.42-.18.44-.06.45.06.42.18.37.28.27.38.18.44.06.46Zm0-24.29-.18.43-.27.37-.37.29-.42.18-.45.06-.44-.06-.42-.18-.37-.29-.27-.37-.18-.43-.05-.47.05-.46.18-.44.27-.37.37-.29.42-.17.44-.07.45.07.42.17.37.29.27.37.18.44.06.46Z"/><polygon class="cls-5" points="44.59 111.75 44.45 111.93 44.13 111.5 43.76 111.2 43.34 111.02 42.85 110.96 43.13 110.96 43.62 111.02 44.04 111.2 44.41 111.5 44.59 111.75"/><polygon class="cls-5" points="48.07 113.6 48.07 119.7 47.78 119.7 47.78 113.6 47.76 112.69 47.66 112.08 47.46 111.64 47.13 111.28 46.64 111.03 46.06 110.96 46.34 110.96 46.93 111.03 47.41 111.28 47.76 111.64 47.95 112.08 48.04 112.69 48.07 113.6"/><polygon class="cls-5" points="45.06 112.52 44.99 112.54 44.86 112.73 44.78 114.1 44.78 119.7 44.49 119.7 44.49 114.1 44.58 112.73 44.7 112.54 44.92 112.48 45.06 112.52"/><polygon class="cls-5" points="41.83 112.53 41.66 112.61 41.53 112.94 41.51 113.75 41.51 119.7 41.23 119.7 41.23 113.75 41.23 112.94 41.37 112.61 41.66 112.48 41.83 112.53"/><polygon class="cls-5" points="51.63 118.3 51.47 118.33 51.29 118.29 51.18 118.15 51.11 117.36 51.11 113.48 51.18 112.65 51.29 112.52 51.48 112.48 51.62 112.52 51.57 112.52 51.46 112.65 51.39 113.48 51.39 117.36 51.46 118.15 51.57 118.29 51.63 118.3"/><polygon class="cls-5" points="54.66 114.13 54.66 116.23 54.62 117.24 54.54 117.93 54.37 118.45 54.06 118.93 53.64 119.34 53.12 119.63 52.49 119.8 51.78 119.86 51.5 119.86 52.2 119.8 52.82 119.63 53.35 119.34 53.77 118.93 54.08 118.45 54.26 117.93 54.34 117.24 54.37 116.23 54.37 114.13 54.34 113.34 54.25 112.77 54.08 112.33 53.79 111.9 53.39 111.52 52.85 111.22 52.18 111.03 51.39 110.96 51.67 110.96 52.47 111.03 53.13 111.22 53.68 111.52 54.08 111.9 54.36 112.33 54.53 112.77 54.62 113.34 54.66 114.13"/><polygon class="cls-5" points="70.32 116.11 70.32 116.75 70.22 117.97 70.06 118.41 69.77 118.88 69.36 119.31 68.87 119.61 68.25 119.79 67.49 119.86 67.21 119.86 67.96 119.79 68.58 119.61 69.08 119.31 69.48 118.88 69.77 118.41 69.94 117.97 70.04 116.75 70.04 116.11 70.32 116.11"/><polygon class="cls-5" points="67.3 118.3 67.16 118.33 66.96 118.3 66.84 118.17 66.76 117.42 66.76 115.56 67.05 115.56 67.05 117.42 67.13 118.17 67.25 118.3 67.3 118.3"/><polygon class="cls-5" points="67.27 112.52 67.22 112.52 67.11 112.64 67.05 113.54 67.05 114.16 66.76 114.16 66.76 113.54 66.82 112.64 66.94 112.52 67.15 112.48 67.27 112.52"/><polygon class="cls-5" points="70.32 114.42 70.32 115.56 70.04 115.56 70.04 114.42 69.96 113.31 69.75 112.48 69.37 111.86 68.79 111.37 68 111.06 67.03 110.96 67.32 110.96 68.28 111.06 69.07 111.37 69.66 111.86 70.04 112.48 70.25 113.31 70.32 114.42"/><polygon class="cls-5" points="208.01 114.08 207.41 114.13 207 114.28 206.74 114.5 206.6 114.82 206.53 116.41 206.53 119.8 206.27 119.8 206.27 116.41 206.34 114.82 206.48 114.5 206.74 114.28 207.16 114.13 207.77 114.08 208.01 114.08"/><polygon class="cls-5" points="189.96 119.03 189.96 119.41 189.95 119.44 189.61 119.72 189.21 119.89 188.75 119.96 188.49 119.96 188.96 119.89 189.37 119.72 189.69 119.44 189.96 119.03"/><polygon class="cls-5" points="200.13 112.61 200.07 112.61 199.96 112.74 199.9 113.63 199.9 114.26 199.65 114.26 199.65 113.63 199.7 112.74 199.82 112.61 200.03 112.58 200.13 112.61"/><polygon class="cls-5" points="203.16 114.51 203.16 115.66 202.92 115.66 202.92 114.51 202.84 113.41 202.63 112.58 202.26 111.96 201.67 111.47 200.88 111.16 199.91 111.05 200.17 111.05 201.14 111.16 201.92 111.47 202.51 111.96 202.89 112.58 203.1 113.41 203.16 114.51"/><polygon class="cls-5" points="203.16 116.21 203.16 116.84 203.07 118.07 202.91 118.51 202.62 118.98 202.22 119.41 201.71 119.71 201.1 119.89 200.34 119.96 200.09 119.96 200.84 119.89 201.47 119.71 201.96 119.41 202.37 118.98 202.66 118.51 202.82 118.07 202.92 116.84 202.92 116.21 203.16 116.21"/><polygon class="cls-5" points="200.16 118.41 200.04 118.43 199.85 118.39 199.73 118.27 199.65 117.51 199.65 115.66 199.9 115.66 199.9 117.51 199.98 118.27 200.1 118.39 200.16 118.41"/><polygon class="cls-5" points="196.99 118.41 196.75 118.41 196.26 118.39 196.04 118.31 195.95 117.37 195.95 112.78 196.21 112.78 196.21 117.37 196.29 118.31 196.51 118.39 196.99 118.41"/><polygon class="cls-7" points="196.75 118.41 196.75 119.8 195.72 119.8 194.49 119.72 194.14 119.6 193.84 119.38 193.61 119.09 193.49 118.77 193.42 117.14 193.42 112.78 192.87 112.78 192.87 111.42 193.42 111.42 193.42 110.07 195.95 110.07 195.95 111.42 196.63 111.42 196.63 112.78 195.95 112.78 195.95 117.37 196.04 118.31 196.26 118.39 196.75 118.41"/><polygon class="cls-5" points="192.67 115.49 192.67 119.8 192.42 119.8 192.42 115.49 192.39 113.72 192.29 112.68 192.02 112.05 191.5 111.53 191.14 111.32 190.7 111.17 189.58 111.05 189.82 111.05 190.95 111.17 191.39 111.32 191.76 111.53 192.28 112.05 192.53 112.68 192.63 113.72 192.67 115.49"/><polygon class="cls-5" points="189.9 115.72 189.9 115.94 189.67 116.14 189.44 116.49 189.34 117.38 189.43 118.24 189.55 118.39 189.65 118.41 189.51 118.43 189.3 118.39 189.17 118.24 189.09 117.38 189.19 116.49 189.41 116.14 189.9 115.72"/><polygon class="cls-5" points="189.59 112.61 189.51 112.62 189.4 112.75 189.34 113.64 189.34 114.54 189.09 114.54 189.09 113.64 189.16 112.75 189.27 112.62 189.48 112.58 189.59 112.61"/><polygon class="cls-5" points="186.26 116.21 186.26 116.84 186.16 118.07 186 118.51 185.7 118.98 185.3 119.41 184.8 119.71 184.19 119.89 183.43 119.96 183.18 119.96 183.93 119.89 184.55 119.71 185.06 119.41 185.46 118.98 185.75 118.51 185.91 118.07 186.01 116.84 186.01 116.21 186.26 116.21"/><polygon class="cls-5" points="186.26 114.51 186.26 115.66 186.01 115.66 186.01 114.51 185.94 113.41 185.73 112.58 185.35 111.96 184.75 111.47 183.98 111.16 183 111.05 183.26 111.05 184.22 111.16 185.01 111.47 185.59 111.96 185.98 112.58 186.19 113.41 186.26 114.51"/><polygon class="cls-5" points="183.25 118.41 183.13 118.43 182.94 118.39 182.82 118.27 182.74 117.51 182.74 115.66 182.98 115.66 182.98 117.51 183.06 118.27 183.18 118.39 183.25 118.41"/><polygon class="cls-5" points="183.23 112.61 183.16 112.61 183.05 112.74 182.98 113.63 182.98 114.26 182.74 114.26 182.74 113.63 182.8 112.74 182.91 112.61 183.12 112.58 183.23 112.61"/><polygon class="cls-5" points="179.67 113.88 179.67 119.8 179.41 119.8 179.41 113.88 179.31 112.21 179.12 111.78 178.74 111.41 178.22 111.14 177.61 111.05 177.86 111.05 178.47 111.14 178.99 111.41 179.37 111.78 179.56 112.21 179.67 113.88"/><polygon class="cls-5" points="176.62 112.61 176.54 112.63 176.43 112.8 176.34 113.67 176.34 119.8 176.1 119.8 176.1 113.67 176.18 112.8 176.3 112.63 176.49 112.58 176.62 112.61"/><polygon class="cls-5" points="173.37 118.41 173.12 118.41 172.64 118.39 172.42 118.31 172.34 117.37 172.34 112.78 172.58 112.78 172.58 117.37 172.66 118.31 172.88 118.39 173.37 118.41"/><rect class="cls-5" x="172.33" y="110.07" width="0.25" height="1.35"/><rect class="cls-5" x="173.01" y="111.42" width="0.26" height="1.36"/><polygon class="cls-5" points="102.48 116.67 102.48 117.34 102.39 119.64 102.12 121.14 101.53 122.2 100.49 123.12 99.1 123.75 97.41 123.96 96.88 123.96 98.57 123.75 99.96 123.12 101 122.2 101.59 121.14 101.86 119.64 101.95 117.34 101.95 116.67 102.48 116.67"/><polygon class="cls-5" points="96.93 120.93 97.08 120.97 96.82 121.03 96.41 120.93 96.17 120.65 96.03 119.01 96.03 110.98 96.17 109.27 96.41 108.97 96.86 108.88 97.13 108.94 96.94 108.97 96.7 109.27 96.56 110.98 96.56 119.01 96.7 120.65 96.93 120.93"/><polygon class="cls-5" points="102.48 112.19 102.48 113.84 101.95 113.84 101.95 112.19 101.85 110.09 101.56 108.63 100.96 107.58 99.92 106.72 98.5 106.14 96.75 105.95 97.28 105.95 99.03 106.14 100.45 106.72 101.48 107.58 102.09 108.63 102.38 110.09 102.48 112.19"/><rect class="cls-2" x="20.82" y="95.24" width="1.19" height="33.7"/><polygon class="cls-9" points="218.38 100.41 218.55 99.97 218.83 99.6 219.19 99.31 219.61 99.13 220.06 99.07 220.51 99.13 220.58 99.16 220.58 102.58 220.51 102.61 220.06 102.67 219.61 102.61 219.19 102.43 218.83 102.14 218.55 101.77 218.38 101.34 218.32 100.87 218.38 100.41"/><polygon class="cls-9" points="218.83 126.43 218.55 126.06 218.38 125.63 218.32 125.16 218.38 124.69 218.55 124.26 218.83 123.89 219.19 123.6 219.61 123.42 220.06 123.36 220.51 123.42 220.58 123.45 220.58 126.87 220.51 126.9 220.06 126.96 219.61 126.9 219.19 126.72 218.83 126.43"/><rect class="cls-3" x="25.3" y="52.02" width="17.4" height="36.34"/><rect class="cls-2" x="23.12" y="52.02" width="2.17" height="36.34"/><rect class="cls-3" x="138.9" y="52.02" width="17.4" height="36.34"/><rect class="cls-2" x="136.73" y="52.02" width="2.17" height="36.34"/><rect class="cls-2" x="159.45" y="52.02" width="2.17" height="36.34"/><rect class="cls-3" x="161.62" y="52.02" width="17.4" height="36.34"/><rect class="cls-3" x="184.34" y="52.02" width="17.4" height="36.34"/><rect class="cls-2" x="182.17" y="52.02" width="2.17" height="36.34"/><rect class="cls-3" x="207.06" y="52.02" width="17.4" height="36.34"/><rect class="cls-2" x="204.89" y="52.02" width="2.17" height="36.34"/><rect class="cls-20" x="27.04" y="148.27" width="20.7" height="28.87"/><rect class="cls-23" x="29.24" y="150.87" width="15.82" height="2.58"/><rect class="cls-4" x="29.24" y="155.15" width="15.82" height="18.85"/><rect class="cls-24" x="30.58" y="156.75" width="13.14" height="15.66"/><rect class="cls-25" x="31.71" y="158.09" width="10.89" height="1.84"/><rect class="cls-25" x="31.71" y="161" width="10.89" height="1.84"/><rect class="cls-25" x="31.71" y="163.92" width="10.89" height="1.84"/><rect class="cls-25" x="31.71" y="166.83" width="10.89" height="1.84"/><rect class="cls-25" x="31.71" y="169.75" width="10.89" height="1.84"/><rect class="cls-20" x="50.04" y="148.27" width="20.7" height="28.87"/><rect class="cls-26" x="51.11" y="149.58" width="18.26" height="4.87"/><rect class="cls-27" x="51.11" y="155.32" width="18.26" height="4.87"/><rect class="cls-28" x="51.11" y="160.89" width="18.26" height="4.87"/><rect class="cls-29" x="51.11" y="166.24" width="18.26" height="4.87"/><rect class="cls-19" x="51.11" y="171.65" width="18.26" height="4.87"/><polygon class="cls-9" points="29.25 100.87 29.19 101.34 29.02 101.77 28.74 102.14 28.38 102.43 27.96 102.61 27.51 102.67 27.06 102.61 26.64 102.43 26.28 102.14 26 101.77 25.83 101.34 25.77 100.87 25.83 100.41 26 99.97 26.28 99.6 26.64 99.31 27.06 99.13 27.51 99.07 27.96 99.13 28.38 99.31 28.74 99.6 29.02 99.97 29.19 100.41 29.25 100.87"/><polygon class="cls-9" points="37.11 102.14 36.75 102.43 36.33 102.61 35.88 102.67 35.43 102.61 35.01 102.43 34.65 102.14 34.37 101.77 34.2 101.34 34.14 100.87 34.2 100.41 34.37 99.97 34.65 99.6 35.01 99.31 35.43 99.13 35.88 99.07 36.33 99.13 36.75 99.31 37.11 99.6 37.39 99.97 37.56 100.41 37.62 100.87 37.56 101.34 37.39 101.77 37.11 102.14"/><polygon class="cls-9" points="42.51 100.87 42.57 100.41 42.75 99.97 43.02 99.6 43.38 99.31 43.8 99.13 44.25 99.07 44.7 99.13 45.12 99.31 45.48 99.6 45.76 99.97 45.93 100.41 45.99 100.87 45.93 101.34 45.76 101.77 45.48 102.14 45.12 102.43 44.7 102.61 44.25 102.67 43.8 102.61 43.38 102.43 43.02 102.14 42.75 101.77 42.57 101.34 42.51 100.87"/><polygon class="cls-9" points="60.13 102.43 59.77 102.14 59.49 101.77 59.31 101.34 59.26 100.87 59.31 100.41 59.49 99.97 59.77 99.6 60.13 99.31 60.55 99.13 61 99.07 61.45 99.13 61.87 99.31 62.23 99.6 62.5 99.97 62.68 100.41 62.73 100.87 62.68 101.34 62.5 101.77 62.23 102.14 61.87 102.43 61.45 102.61 61 102.67 60.55 102.61 60.13 102.43"/><polygon class="cls-9" points="76.51 102.14 76.23 101.77 76.06 101.34 76 100.87 76.06 100.41 76.23 99.97 76.51 99.6 76.87 99.31 77.29 99.13 77.74 99.07 78.19 99.13 78.61 99.31 78.97 99.6 79.25 99.97 79.42 100.41 79.48 100.87 79.42 101.34 79.25 101.77 78.97 102.14 78.61 102.43 78.19 102.61 77.74 102.67 77.29 102.61 76.87 102.43 76.51 102.14"/><polygon class="cls-9" points="86.11 102.67 85.66 102.61 85.24 102.43 84.88 102.14 84.6 101.77 84.43 101.34 84.37 100.87 84.43 100.41 84.6 99.97 84.88 99.6 85.24 99.31 85.66 99.13 86.11 99.07 86.56 99.13 86.98 99.31 87.34 99.6 87.62 99.97 87.79 100.41 87.85 100.87 87.79 101.34 87.62 101.77 87.34 102.14 86.98 102.43 86.56 102.61 86.11 102.67"/><polygon class="cls-9" points="93.61 102.43 93.25 102.14 92.98 101.77 92.8 101.34 92.74 100.87 92.8 100.41 92.98 99.97 93.25 99.6 93.61 99.31 94.03 99.13 94.48 99.07 94.93 99.13 95.35 99.31 95.71 99.6 95.99 99.97 96.16 100.41 96.22 100.87 96.16 101.34 95.99 101.77 95.71 102.14 95.35 102.43 94.93 102.61 94.48 102.67 94.03 102.61 93.61 102.43"/><polygon class="cls-9" points="102.4 102.61 101.98 102.43 101.62 102.14 101.35 101.77 101.17 101.34 101.11 100.87 101.17 100.41 101.35 99.97 101.62 99.6 101.98 99.31 102.4 99.13 102.85 99.07 103.3 99.13 103.72 99.31 104.08 99.6 104.36 99.97 104.53 100.41 104.59 100.87 104.53 101.34 104.36 101.77 104.08 102.14 103.72 102.43 103.3 102.61 102.85 102.67 102.4 102.61"/><polygon class="cls-9" points="111.23 102.67 110.78 102.61 110.36 102.43 110 102.14 109.72 101.77 109.55 101.34 109.49 100.87 109.55 100.41 109.72 99.97 110 99.6 110.36 99.31 110.78 99.13 111.23 99.07 111.68 99.13 112.1 99.31 112.46 99.6 112.73 99.97 112.91 100.41 112.97 100.87 112.91 101.34 112.73 101.77 112.46 102.14 112.1 102.43 111.68 102.61 111.23 102.67"/><polygon class="cls-9" points="119.6 99.07 120.05 99.13 120.47 99.31 120.83 99.6 121.1 99.97 121.28 100.41 121.34 100.87 121.28 101.34 121.1 101.77 120.83 102.14 120.47 102.43 120.05 102.61 119.6 102.67 119.15 102.61 118.73 102.43 118.37 102.14 118.09 101.77 117.92 101.34 117.86 100.87 117.92 100.41 118.09 99.97 118.37 99.6 118.73 99.31 119.15 99.13 119.6 99.07"/><polygon class="cls-9" points="128.84 102.43 128.42 102.61 127.97 102.67 127.52 102.61 127.1 102.43 126.74 102.14 126.46 101.77 126.29 101.34 126.23 100.87 126.29 100.41 126.46 99.97 126.74 99.6 127.1 99.31 127.52 99.13 127.97 99.07 128.42 99.13 128.84 99.31 129.2 99.6 129.48 99.97 129.65 100.41 129.71 100.87 129.65 101.34 129.48 101.77 129.2 102.14 128.84 102.43"/><polygon class="cls-9" points="134.66 101.34 134.6 100.87 134.66 100.41 134.84 99.97 135.11 99.6 135.47 99.31 135.89 99.13 136.34 99.07 136.79 99.13 137.21 99.31 137.57 99.6 137.85 99.97 138.02 100.41 138.08 100.87 138.02 101.34 137.85 101.77 137.57 102.14 137.21 102.43 136.79 102.61 136.34 102.67 135.89 102.61 135.47 102.43 135.11 102.14 134.84 101.77 134.66 101.34"/><polygon class="cls-9" points="144.71 99.07 145.16 99.13 145.58 99.31 145.94 99.6 146.22 99.97 146.39 100.41 146.45 100.87 146.39 101.34 146.22 101.77 145.94 102.14 145.58 102.43 145.16 102.61 144.71 102.67 144.26 102.61 143.84 102.43 143.48 102.14 143.21 101.77 143.03 101.34 142.97 100.87 143.03 100.41 143.21 99.97 143.48 99.6 143.84 99.31 144.26 99.13 144.71 99.07"/><polygon class="cls-9" points="151.58 101.77 151.4 101.34 151.34 100.87 151.4 100.41 151.58 99.97 151.85 99.6 152.22 99.31 152.63 99.13 153.09 99.07 153.53 99.13 153.95 99.31 154.31 99.6 154.59 99.97 154.76 100.41 154.82 100.87 154.76 101.34 154.59 101.77 154.31 102.14 153.95 102.43 153.53 102.61 153.09 102.67 152.63 102.61 152.22 102.43 151.85 102.14 151.58 101.77"/><polygon class="cls-9" points="161.91 102.61 161.46 102.67 161.01 102.61 160.59 102.43 160.23 102.14 159.95 101.77 159.78 101.34 159.72 100.87 159.78 100.41 159.95 99.97 160.23 99.6 160.59 99.31 161.01 99.13 161.46 99.07 161.91 99.13 162.33 99.31 162.69 99.6 162.96 99.97 163.14 100.41 163.2 100.87 163.14 101.34 162.96 101.77 162.69 102.14 162.33 102.43 161.91 102.61"/><polygon class="cls-9" points="169.83 99.07 170.28 99.13 170.7 99.31 171.06 99.6 171.34 99.97 171.51 100.41 171.57 100.87 171.51 101.34 171.34 101.77 171.06 102.14 170.7 102.43 170.28 102.61 169.83 102.67 169.38 102.61 168.96 102.43 168.6 102.14 168.32 101.77 168.15 101.34 168.09 100.87 168.15 100.41 168.32 99.97 168.6 99.6 168.96 99.31 169.38 99.13 169.83 99.07"/><polygon class="cls-9" points="177.33 99.31 177.75 99.13 178.2 99.07 178.65 99.13 179.07 99.31 179.43 99.6 179.71 99.97 179.88 100.41 179.94 100.87 179.88 101.34 179.71 101.77 179.43 102.14 179.07 102.43 178.65 102.61 178.2 102.67 177.75 102.61 177.33 102.43 176.97 102.14 176.69 101.77 176.52 101.34 176.46 100.87 176.52 100.41 176.69 99.97 176.97 99.6 177.33 99.31"/><polygon class="cls-9" points="187.02 102.61 186.57 102.67 186.12 102.61 185.7 102.43 185.34 102.14 185.06 101.77 184.89 101.34 184.83 100.87 184.89 100.41 185.06 99.97 185.34 99.6 185.7 99.31 186.12 99.13 186.57 99.07 187.02 99.13 187.44 99.31 187.8 99.6 188.08 99.97 188.25 100.41 188.31 100.87 188.25 101.34 188.08 101.77 187.8 102.14 187.44 102.43 187.02 102.61"/><polygon class="cls-9" points="194.94 99.07 195.39 99.13 195.81 99.31 196.17 99.6 196.45 99.97 196.62 100.41 196.68 100.87 196.62 101.34 196.45 101.77 196.17 102.14 195.81 102.43 195.39 102.61 194.94 102.67 194.49 102.61 194.07 102.43 193.71 102.14 193.44 101.77 193.26 101.34 193.2 100.87 193.26 100.41 193.44 99.97 193.71 99.6 194.07 99.31 194.49 99.13 194.94 99.07"/><polygon class="cls-9" points="203.31 99.07 203.76 99.13 204.19 99.31 204.54 99.6 204.82 99.97 205 100.41 205.06 100.87 205 101.34 204.82 101.77 204.54 102.14 204.19 102.43 203.76 102.61 203.31 102.67 202.87 102.61 202.44 102.43 202.09 102.14 201.81 101.77 201.63 101.34 201.57 100.87 201.63 100.41 201.81 99.97 202.09 99.6 202.44 99.31 202.87 99.13 203.31 99.07"/><polygon class="cls-9" points="211.24 102.61 210.82 102.43 210.46 102.14 210.18 101.77 210.01 101.34 209.95 100.87 210.01 100.41 210.18 99.97 210.46 99.6 210.82 99.31 211.24 99.13 211.69 99.07 212.14 99.13 212.56 99.31 212.92 99.6 213.19 99.97 213.37 100.41 213.43 100.87 213.37 101.34 213.19 101.77 212.92 102.14 212.56 102.43 212.14 102.61 211.69 102.67 211.24 102.61"/><path class="cls-4" d="M149.54,110.17l-.84,7.26h1.5l-.43-4.7Zm.77,10.32h-1.55l-.26,3.11H144l2.22-17.29h6.28L155,123.6h-4.44Z"/><polygon class="cls-5" points="154.99 123.6 152.5 106.31 153.03 106.31 155.52 123.6 154.99 123.6"/><polygon class="cls-5" points="148.5 123.6 148.76 120.49 149.29 120.49 149.03 123.6 148.5 123.6"/><rect class="cls-4" x="103.51" y="106.31" width="4.35" height="17.28"/><rect class="cls-5" x="107.86" y="106.31" width="0.53" height="17.28"/><polygon class="cls-5" points="148.7 117.43 149.54 110.17 149.77 112.73 149.23 117.43 148.7 117.43"/><polygon class="cls-8" points="149.77 112.73 150.2 117.43 149.23 117.43 149.77 112.73"/><polygon class="cls-9" points="205 124.69 205.06 125.16 205 125.63 204.82 126.06 204.54 126.43 204.19 126.72 203.76 126.9 203.31 126.96 202.87 126.9 202.44 126.72 202.09 126.43 201.81 126.06 201.63 125.63 201.57 125.16 201.63 124.69 201.81 124.26 202.09 123.89 202.44 123.6 202.87 123.42 203.31 123.36 203.76 123.42 204.19 123.6 204.54 123.89 204.82 124.26 205 124.69"/><polygon class="cls-9" points="196.68 125.16 196.62 125.63 196.45 126.06 196.17 126.43 195.81 126.72 195.39 126.9 194.94 126.96 194.49 126.9 194.07 126.72 193.71 126.43 193.44 126.06 193.26 125.63 193.2 125.16 193.26 124.69 193.44 124.26 193.71 123.89 194.07 123.6 194.49 123.42 194.94 123.36 195.39 123.42 195.81 123.6 196.17 123.89 196.45 124.26 196.62 124.69 196.68 125.16"/><polygon class="cls-9" points="177.75 126.9 177.33 126.72 176.97 126.43 176.69 126.06 176.52 125.63 176.46 125.16 176.52 124.69 176.69 124.26 176.97 123.89 177.33 123.6 177.75 123.42 178.2 123.36 178.65 123.42 179.07 123.6 179.43 123.89 179.71 124.26 179.88 124.69 179.94 125.16 179.88 125.63 179.71 126.06 179.43 126.43 179.07 126.72 178.65 126.9 178.2 126.96 177.75 126.9"/><polygon class="cls-9" points="184.89 125.63 184.83 125.16 184.89 124.69 185.06 124.26 185.34 123.89 185.7 123.6 186.12 123.42 186.57 123.36 187.02 123.42 187.44 123.6 187.8 123.89 188.08 124.26 188.25 124.69 188.31 125.16 188.25 125.63 188.08 126.06 187.8 126.43 187.44 126.72 187.02 126.9 186.57 126.96 186.12 126.9 185.7 126.72 185.34 126.43 185.06 126.06 184.89 125.63"/><polygon class="cls-9" points="211.69 126.96 211.24 126.9 210.82 126.72 210.46 126.43 210.18 126.06 210.01 125.63 209.95 125.16 210.01 124.69 210.18 124.26 210.46 123.89 210.82 123.6 211.24 123.42 211.69 123.36 212.14 123.42 212.56 123.6 212.92 123.89 213.19 124.26 213.37 124.69 213.43 125.16 213.37 125.63 213.19 126.06 212.92 126.43 212.56 126.72 212.14 126.9 211.69 126.96"/><polygon class="cls-9" points="171.06 126.43 170.7 126.72 170.28 126.9 169.83 126.96 169.38 126.9 168.96 126.72 168.6 126.43 168.32 126.06 168.15 125.63 168.09 125.16 168.15 124.69 168.32 124.26 168.6 123.89 168.96 123.6 169.38 123.42 169.83 123.36 170.28 123.42 170.7 123.6 171.06 123.89 171.34 124.26 171.51 124.69 171.57 125.16 171.51 125.63 171.34 126.06 171.06 126.43"/><polygon class="cls-9" points="25.83 124.69 26 124.26 26.28 123.89 26.64 123.6 27.06 123.42 27.51 123.36 27.96 123.42 28.38 123.6 28.74 123.89 29.02 124.26 29.19 124.69 29.25 125.16 29.19 125.63 29.02 126.06 28.74 126.43 28.38 126.72 27.96 126.9 27.51 126.96 27.06 126.9 26.64 126.72 26.28 126.43 26 126.06 25.83 125.63 25.77 125.16 25.83 124.69"/><polygon class="cls-9" points="79.42 124.69 79.48 125.16 79.42 125.63 79.25 126.06 78.97 126.43 78.61 126.72 78.19 126.9 77.74 126.96 77.29 126.9 76.87 126.72 76.51 126.43 76.23 126.06 76.06 125.63 76 125.16 76.06 124.69 76.23 124.26 76.51 123.89 76.87 123.6 77.29 123.42 77.74 123.36 78.19 123.42 78.61 123.6 78.97 123.89 79.25 124.26 79.42 124.69"/><polygon class="cls-9" points="162.96 124.26 163.14 124.69 163.2 125.16 163.14 125.63 162.96 126.06 162.69 126.43 162.33 126.72 161.91 126.9 161.46 126.96 161.01 126.9 160.59 126.72 160.23 126.43 159.95 126.06 159.78 125.63 159.72 125.16 159.78 124.69 159.95 124.26 160.23 123.89 160.59 123.6 161.01 123.42 161.46 123.36 161.91 123.42 162.33 123.6 162.69 123.89 162.96 124.26"/><polygon class="cls-9" points="43.02 126.43 42.75 126.06 42.57 125.63 42.51 125.16 42.57 124.69 42.75 124.26 43.02 123.89 43.38 123.6 43.8 123.42 44.25 123.36 44.7 123.42 45.12 123.6 45.48 123.89 45.76 124.26 45.93 124.69 45.99 125.16 45.93 125.63 45.76 126.06 45.48 126.43 45.12 126.72 44.7 126.9 44.25 126.96 43.8 126.9 43.38 126.72 43.02 126.43"/><polygon class="cls-9" points="51.39 126.43 51.12 126.06 50.94 125.63 50.88 125.16 50.94 124.69 51.12 124.26 51.39 123.89 51.75 123.6 52.17 123.42 52.62 123.36 53.07 123.42 53.49 123.6 53.85 123.89 54.13 124.26 54.3 124.69 54.36 125.16 54.3 125.63 54.13 126.06 53.85 126.43 53.49 126.72 53.07 126.9 52.62 126.96 52.17 126.9 51.75 126.72 51.39 126.43"/><polygon class="cls-9" points="86.98 123.6 87.34 123.89 87.62 124.26 87.79 124.69 87.85 125.16 87.79 125.63 87.62 126.06 87.34 126.43 86.98 126.72 86.56 126.9 86.11 126.96 85.66 126.9 85.24 126.72 84.88 126.43 84.6 126.06 84.43 125.63 84.37 125.16 84.43 124.69 84.6 124.26 84.88 123.89 85.24 123.6 85.66 123.42 86.11 123.36 86.56 123.42 86.98 123.6"/><polygon class="cls-9" points="60.13 126.72 59.77 126.43 59.49 126.06 59.31 125.63 59.26 125.16 59.31 124.69 59.49 124.26 59.77 123.89 60.13 123.6 60.55 123.42 61 123.36 61.45 123.42 61.87 123.6 62.23 123.89 62.5 124.26 62.68 124.69 62.73 125.16 62.68 125.63 62.5 126.06 62.23 126.43 61.87 126.72 61.45 126.9 61 126.96 60.55 126.9 60.13 126.72"/><polygon class="cls-9" points="70.6 123.89 70.87 124.26 71.05 124.69 71.11 125.16 71.05 125.63 70.87 126.06 70.6 126.43 70.24 126.72 69.82 126.9 69.37 126.96 68.92 126.9 68.5 126.72 68.14 126.43 67.86 126.06 67.69 125.63 67.63 125.16 67.69 124.69 67.86 124.26 68.14 123.89 68.5 123.6 68.92 123.42 69.37 123.36 69.82 123.42 70.24 123.6 70.6 123.89"/><polygon class="cls-9" points="37.11 126.43 36.75 126.72 36.33 126.9 35.88 126.96 35.43 126.9 35.01 126.72 34.65 126.43 34.37 126.06 34.2 125.63 34.14 125.16 34.2 124.69 34.37 124.26 34.65 123.89 35.01 123.6 35.43 123.42 35.88 123.36 36.33 123.42 36.75 123.6 37.11 123.89 37.39 124.26 37.56 124.69 37.62 125.16 37.56 125.63 37.39 126.06 37.11 126.43"/><rect class="cls-7" x="60.8" y="111.11" width="2.6" height="8.58"/><rect class="cls-5" x="63.4" y="111.11" width="0.29" height="8.58"/><polygon class="cls-4" points="143.77 106.31 143.77 123.59 139.45 123.59 139.44 115.98 138.46 123.59 135.23 123.59 134.16 115.96 134.16 123.59 129.83 123.59 129.83 106.31 135.99 106.31 136.5 109.98 136.84 112.39 137.59 106.31 143.77 106.31"/><rect class="cls-5" x="143.25" y="106.31" width="0.53" height="17.28"/><polygon class="cls-5" points="137.93 123.6 139.44 111.93 139.44 115.99 138.46 123.6 137.93 123.6"/><polygon class="cls-5" points="133.63 123.6 133.64 112.2 134.17 115.95 134.16 123.6 133.63 123.6"/><polygon class="cls-5" points="136.84 112.39 136.59 114.39 135.97 109.98 135.46 106.31 135.99 106.31 136.5 109.98 136.84 112.39"/><polygon class="cls-15" points="121.27 145.3 121.27 151.24 121.27 156.44 121.27 185.39 122.89 185.39 122.89 156.44 122.89 151.24 122.89 145.3 121.27 145.3"/><polygon class="cls-30" points="23.12 52.02 23.12 88.35 38.77 88.35 38.77 71.88 42.7 71.88 42.7 52.02 23.12 52.02"/><polygon class="cls-30" points="45.84 52.02 45.84 88.35 61.49 88.35 61.49 71.88 65.42 71.88 65.42 52.02 45.84 52.02"/><polygon class="cls-30" points="68.56 52.02 68.56 88.35 84.21 88.35 84.21 71.88 88.14 71.88 88.14 52.02 68.56 52.02"/><polygon class="cls-30" points="182.17 52.02 182.17 88.35 197.82 88.35 197.82 71.88 201.75 71.88 201.75 52.02 182.17 52.02"/><polygon class="cls-30" points="204.89 52.02 204.89 88.35 220.54 88.35 220.54 71.88 224.47 71.88 224.47 52.02 204.89 52.02"/><polygon class="cls-30" points="20.82 128.94 30.8 128.94 30.8 104.31 220.58 104.31 220.58 95.24 20.82 95.24 20.82 128.94"/><rect class="cls-31" x="176.1" y="150.87" width="35.59" height="21.54"/><rect class="cls-32" x="180.21" y="150.87" width="7.23" height="21.54"/><rect class="cls-33" x="187.51" y="150.87" width="12.14" height="21.54"/><polygon class="cls-30" points="18.41 138.45 59.38 185.39 51.23 185.39 54.08 187.98 51.46 187.98 54.2 190.45 51.57 190.45 54.43 192.98 219.41 192.98 219.41 190.45 221.27 190.45 221.27 187.98 223.28 187.98 223.28 185.39 225.36 185.39 225.36 138.45 18.41 138.45"/><polygon class="cls-4" points="206.96 138.45 206.96 192.98 201.81 192.98 201.81 190.45 201.81 187.98 201.81 185.39 201.81 176.55 201.81 153.45 201.81 151.24 201.81 145.3 201.81 138.45 206.96 138.45"/><polygon class="cls-2" points="208.31 192.98 206.96 192.98 206.96 138.45 208.31 138.45 208.31 145.3 208.31 151.24 208.31 153.45 208.31 176.55 208.31 185.39 208.31 187.98 208.31 190.45 208.31 192.98"/><rect class="cls-34" x="234.74" y="52.41" width="31.09" height="56.33"/><rect class="cls-33" x="236.27" y="53.94" width="28.03" height="53.27"/><rect class="cls-34" x="234.74" y="117.14" width="31.09" height="56.33"/><rect class="cls-35" x="236.27" y="118.67" width="28.03" height="53.27"/><rect class="cls-32" x="97.29" width="47.66" height="35.19"/><rect class="cls-33" x="144.95" width="3.65" height="35.19"/><polygon class="cls-30" points="148.6 21.53 169.24 21.53 173.01 24.26 173.01 35.19 148.6 35.19 148.6 21.53"/><polygon class="cls-30" points="22.44 35.19 34.14 48.85 105.95 48.85 107.71 52.02 91.28 52.02 91.28 88.35 106.93 88.35 106.93 71.88 110.86 71.88 110.86 57.68 114.01 63.33 114.01 88.35 129.65 88.35 129.65 76.33 133.58 83.42 133.58 71.88 136.66 71.88 136.66 88.35 152.31 88.35 152.31 71.88 156.24 71.88 159.45 71.88 159.45 88.35 175.1 88.35 175.1 71.88 179.02 71.88 179.02 52.02 182.17 52.02 182.17 48.85 229.4 48.85 229.4 35.19 22.44 35.19"/><polygon class="cls-36" points="120.89 6.14 124.02 12.48 131.01 13.49 125.95 18.43 127.14 25.39 120.89 22.1 114.64 25.39 115.83 18.43 110.77 13.49 117.76 12.48 120.89 6.14"/><polygon class="cls-32" points="120.89 19.72 117.44 21.54 118.1 17.69 115.3 14.96 119.16 14.4 120.89 10.9 122.62 14.4 126.48 14.96 123.69 17.69 124.34 21.54 120.89 19.72"/><polygon class="cls-36" points="103.53 15.23 106.79 18.2 111.08 17.2 109.26 21.22 111.54 25 107.16 24.51 104.27 27.84 103.38 23.52 99.32 21.8 103.15 19.62 103.53 15.23"/><polygon class="cls-32" points="106.62 23.12 105.02 24.96 104.53 22.58 102.29 21.63 104.41 20.43 104.61 18 106.41 19.64 108.78 19.09 107.78 21.31 109.04 23.39 106.62 23.12"/><polygon class="cls-36" points="138.25 15.23 134.99 18.2 130.7 17.2 132.52 21.22 130.24 25 134.62 24.51 137.51 27.84 138.4 23.52 142.46 21.8 138.63 19.62 138.25 15.23"/><polygon class="cls-32" points="135.16 23.12 136.76 24.96 137.25 22.58 139.49 21.63 137.38 20.43 137.17 18 135.37 19.64 133 19.09 134 21.31 132.74 23.39 135.16 23.12"/><rect class="cls-7" x="98.36" y="1.03" width="1.92" height="1.92" rx="0.42"/><rect class="cls-7" x="100.93" y="1.03" width="1.92" height="1.92" rx="0.42"/><rect class="cls-7" x="103.51" y="1.03" width="1.92" height="1.92" rx="0.42"/><rect class="cls-7" x="106.09" y="1.03" width="1.92" height="1.92" rx="0.42"/><rect class="cls-7" x="108.66" y="1.03" width="1.92" height="1.92" rx="0.42"/><rect class="cls-7" x="111.24" y="1.03" width="1.92" height="1.92" rx="0.42"/><rect class="cls-7" x="113.82" y="1.03" width="1.92" height="1.92" rx="0.42"/><rect class="cls-7" x="116.39" y="1.03" width="1.92" height="1.92" rx="0.42"/><rect class="cls-7" x="118.97" y="1.03" width="1.92" height="1.92" rx="0.42"/><rect class="cls-7" x="121.55" y="1.03" width="1.92" height="1.92" rx="0.42"/><rect class="cls-7" x="124.12" y="1.03" width="1.92" height="1.92" rx="0.42"/><rect class="cls-7" x="126.7" y="1.03" width="1.92" height="1.92" rx="0.42"/><rect class="cls-7" x="129.28" y="1.03" width="1.92" height="1.92" rx="0.42"/><rect class="cls-7" x="131.85" y="1.03" width="1.92" height="1.92" rx="0.42"/><rect class="cls-7" x="134.43" y="1.03" width="1.92" height="1.92" rx="0.42"/><rect class="cls-7" x="137.01" y="1.03" width="1.92" height="1.92" rx="0.42"/><rect class="cls-7" x="139.58" y="1.03" width="1.92" height="1.92" rx="0.42"/><rect class="cls-7" x="142.16" y="1.03" width="1.92" height="1.92" rx="0.42"/><rect class="cls-7" x="98.36" y="31.66" width="1.92" height="1.92" rx="0.42"/><rect class="cls-7" x="100.93" y="31.66" width="1.92" height="1.92" rx="0.42"/><rect class="cls-7" x="103.51" y="31.66" width="1.92" height="1.92" rx="0.42"/><rect class="cls-7" x="106.09" y="31.66" width="1.92" height="1.92" rx="0.42"/><rect class="cls-7" x="108.66" y="31.66" width="1.92" height="1.92" rx="0.42"/><rect class="cls-7" x="111.24" y="31.66" width="1.92" height="1.92" rx="0.42"/><rect class="cls-7" x="113.82" y="31.66" width="1.92" height="1.92" rx="0.42"/><rect class="cls-7" x="116.39" y="31.66" width="1.92" height="1.92" rx="0.42"/><rect class="cls-7" x="118.97" y="31.66" width="1.92" height="1.92" rx="0.42"/><rect class="cls-7" x="121.55" y="31.66" width="1.92" height="1.92" rx="0.42"/><rect class="cls-7" x="124.12" y="31.66" width="1.92" height="1.92" rx="0.42"/><rect class="cls-7" x="126.7" y="31.66" width="1.92" height="1.92" rx="0.42"/><rect class="cls-7" x="129.28" y="31.66" width="1.92" height="1.92" rx="0.42"/><rect class="cls-7" x="131.85" y="31.66" width="1.92" height="1.92" rx="0.42"/><rect class="cls-7" x="134.43" y="31.66" width="1.92" height="1.92" rx="0.42"/><rect class="cls-7" x="137.01" y="31.66" width="1.92" height="1.92" rx="0.42"/><rect class="cls-7" x="139.58" y="31.66" width="1.92" height="1.92" rx="0.42"/><rect class="cls-7" x="142.16" y="31.66" width="1.92" height="1.92" rx="0.42"/></g></g></g></svg>