<?xml version="1.0" encoding="utf-8"?>
<!-- Generator: Adobe Illustrator 26.3.1, SVG Export Plug-In . SVG Version: 6.00 Build 0)  -->
<svg version="1.1" id="Layer_1" xmlns="http://www.w3.org/2000/svg" xmlns:xlink="http://www.w3.org/1999/xlink" x="0px" y="0px"
	 viewBox="0 0 512 512" style="enable-background:new 0 0 512 512;" xml:space="preserve">
<style type="text/css">
	.st0{fill-rule:evenodd;clip-rule:evenodd;fill:#F58220;}
</style>
<path class="st0" d="M384.9,203.8c15-13.2,19.2-35.7,8.8-53.6c-10.3-17.9-31.9-25.5-50.8-19.1L384.9,203.8z M493.7,204
	c6.3,2,9.7,8.8,7.7,15.1s-8.8,9.7-15.1,7.7l-43.6-14.2c-6.3-2-9.7-8.8-7.7-15.1s8.8-9.7,15.1-7.7L493.7,204z M444.3,139.8
	c-5.7,3.3-13.1,1.3-16.4-4.4c-3.3-5.7-1.3-13.1,4.4-16.4l39.4-22.8c5.7-3.3,13.1-1.3,16.4,4.4c3.3,5.7,1.3,13.1-4.4,16.4
	L444.3,139.8z M378,39.2c1.4-6.5,7.7-10.6,14.2-9.2c6.5,1.4,10.6,7.7,9.2,14.2L391.9,89c-1.4,6.5-7.7,10.6-14.2,9.2
	s-10.6-7.7-9.2-14.2L378,39.2z M29.1,360.7l-10.5-18.2c-17.8-30.9-7.1-70.7,23.7-88.5l45.8-26.4l85.8,148.6l-45.8,26.4
	c-30.9,17.8-70.7,7.1-88.5-23.7L29.1,360.7z M108.5,214.9c68.1-46.8,114.7-100.8,147.2-157c1.8-3.2,5-5,8.7-5c3.7,0,6.8,1.8,8.7,5
	l140.3,243c1.8,3.2,1.8,6.8,0,10c-1.8,3.2-5,5-8.7,5c-64.9,0-135,13.4-209.6,49L108.5,214.9z M202.2,388.1c-2.2,1.1-4.4,2.1-6.5,3.2
	L149.5,418l60,60c5.8,5.8,15.4,5.8,21.2,0l20-20c5.8-5.8,5.8-15.4,0-21.2L202.2,388.1z"/>
</svg>
