<svg xmlns="http://www.w3.org/2000/svg" viewBox="0 0 716.26 421.49"><defs><style>.cls-1{fill:#f5f5f5;}.cls-2{fill:#ebebeb;}.cls-3{fill:#e0e0e0;}.cls-4{fill:#fafafa;}.cls-5{fill:#fff;}.cls-6{opacity:0.3;}.cls-7{fill:#455a64;}.cls-8{fill:#263238;}.cls-9{fill:#ff725e;}.cls-10{opacity:0.5;}</style></defs><g id="Layer_2" data-name="Layer 2"><g id="Truck"><path class="cls-1" d="M474.28,49.39c-2.19-10.75-13.18-18.94-24.1-18-3.61.31-7.25,1.49-10.78.7-5.28-1.19-8.64-6.37-10.62-11.41s-3.29-10.56-6.91-14.59c-5-5.55-13.34-6.88-20.72-5.73a39.9,39.9,0,0,0-24.8,14.36c-2.69,3.36-5.25,7.45-9.45,8.33-3.23.67-6.46-.79-9.71-1.33a17.89,17.89,0,0,0-17.73,8c-3.18,5.15-3.79,12-8.49,15.85-5.52,4.48-13.62,2.44-20.66,3.41a23.13,23.13,0,0,0-18.58,30.78l16,1.61c-4.6-3.66-2.62-11.68,2.24-15s11.17-3.26,17-3.11q67.1,1.69,134.22.58c3.29-.06,6.82-.19,9.49-2.13C474.41,59.12,475.19,53.84,474.28,49.39Z"/><rect class="cls-1" x="134.3" y="90.02" width="63.19" height="200.25"/><rect class="cls-2" x="165.89" y="90.02" width="31.59" height="199.7"/><rect class="cls-1" x="141.52" y="70.36" width="22.31" height="19.66"/><rect class="cls-2" x="158.51" y="70.36" width="5.32" height="19.66"/><polyline class="cls-3" points="129.03 90.02 129.03 88.87 199.34 88.87 199.34 90.02"/><rect class="cls-4" x="146.77" y="98.59" width="5.35" height="11.28"/><path class="cls-3" d="M165.89,114.3c0,.12-7.07.21-15.79.21s-15.8-.09-15.8-.21,7.07-.22,15.8-.22S165.89,114.18,165.89,114.3Z"/><rect class="cls-3" x="178.64" y="98.59" width="5.35" height="11.28"/><path class="cls-3" d="M197.76,114.3c0,.12-7.07.21-15.79.21s-15.8-.09-15.8-.21,7.07-.22,15.8-.22S197.76,114.18,197.76,114.3Z"/><rect class="cls-3" x="178.64" y="120.98" width="5.35" height="11.28"/><path class="cls-3" d="M197.76,136.69c0,.12-7.07.21-15.79.21s-15.8-.09-15.8-.21,7.07-.22,15.8-.22S197.76,136.57,197.76,136.69Z"/><rect class="cls-3" x="178.64" y="144.05" width="5.35" height="11.28"/><path class="cls-3" d="M197.76,159.75c0,.12-7.07.22-15.79.22s-15.8-.1-15.8-.22,7.07-.21,15.8-.21S197.76,159.64,197.76,159.75Z"/><rect class="cls-3" x="178.64" y="167.12" width="5.35" height="11.28"/><path class="cls-3" d="M197.76,182.82c0,.12-7.07.22-15.79.22s-15.8-.1-15.8-.22,7.07-.21,15.8-.21S197.76,182.7,197.76,182.82Z"/><rect class="cls-3" x="178.64" y="189.52" width="5.35" height="11.28"/><path class="cls-3" d="M197.76,205.23c0,.12-7.07.21-15.79.21s-15.8-.09-15.8-.21,7.07-.22,15.8-.22S197.76,205.11,197.76,205.23Z"/><rect class="cls-3" x="178.64" y="212.02" width="5.35" height="11.28"/><rect class="cls-3" x="178.64" y="234.81" width="5.35" height="11.28"/><path class="cls-3" d="M197.76,227.72c0,.12-7.07.22-15.79.22s-15.8-.1-15.8-.22,7.07-.21,15.8-.21S197.76,227.61,197.76,227.72Z"/><rect class="cls-4" x="146.77" y="121.33" width="5.35" height="11.28"/><path class="cls-3" d="M165.89,137c0,.12-7.07.22-15.79.22s-15.8-.1-15.8-.22,7.07-.22,15.8-.22S165.89,136.91,165.89,137Z"/><rect class="cls-4" x="146.77" y="144.06" width="5.35" height="11.28"/><path class="cls-3" d="M165.89,159.76c0,.12-7.07.22-15.79.22s-15.8-.1-15.8-.22,7.07-.21,15.8-.21S165.89,159.64,165.89,159.76Z"/><rect class="cls-4" x="146.77" y="166.79" width="5.35" height="11.28"/><path class="cls-3" d="M165.89,182.5c0,.11-7.07.21-15.79.21s-15.8-.1-15.8-.21,7.07-.22,15.8-.22S165.89,182.38,165.89,182.5Z"/><rect class="cls-4" x="146.77" y="189.52" width="5.35" height="11.28"/><path class="cls-3" d="M165.89,205.23c0,.12-7.07.21-15.79.21s-15.8-.09-15.8-.21,7.07-.22,15.8-.22S165.89,205.11,165.89,205.23Z"/><rect class="cls-4" x="146.77" y="212.26" width="5.35" height="11.28"/><path class="cls-3" d="M165.89,228c0,.12-7.07.22-15.79.22s-15.8-.1-15.8-.22,7.07-.21,15.8-.21S165.89,227.84,165.89,228Z"/><rect class="cls-4" x="146.77" y="234.99" width="5.35" height="11.28"/><rect class="cls-1" x="197.15" y="143.1" width="63.19" height="200.25"/><rect class="cls-2" x="228.74" y="143.1" width="31.59" height="199.7"/><rect class="cls-1" x="204.37" y="123.44" width="22.31" height="19.66"/><rect class="cls-2" x="221.36" y="123.44" width="5.32" height="19.66"/><polyline class="cls-3" points="191.88 143.09 191.88 141.95 262.19 141.95 262.19 143.09"/><rect class="cls-4" x="209.62" y="151.67" width="5.35" height="11.28"/><path class="cls-3" d="M228.74,167.37c0,.12-7.07.22-15.79.22s-15.8-.1-15.8-.22,7.07-.21,15.8-.21S228.74,167.25,228.74,167.37Z"/><rect class="cls-3" x="241.49" y="151.67" width="5.35" height="11.28"/><path class="cls-3" d="M260.61,167.37c0,.12-7.07.22-15.79.22s-15.8-.1-15.8-.22,7.07-.21,15.8-.21S260.61,167.25,260.61,167.37Z"/><rect class="cls-3" x="241.49" y="174.06" width="5.35" height="11.28"/><path class="cls-3" d="M260.61,189.76c0,.12-7.07.22-15.79.22s-15.8-.1-15.8-.22,7.07-.21,15.8-.21S260.61,189.65,260.61,189.76Z"/><rect class="cls-3" x="241.49" y="197.13" width="5.35" height="11.28"/><path class="cls-3" d="M260.61,212.83c0,.12-7.07.22-15.79.22s-15.8-.1-15.8-.22,7.07-.21,15.8-.21S260.61,212.71,260.61,212.83Z"/><rect class="cls-3" x="241.49" y="220.19" width="5.35" height="11.28"/><path class="cls-3" d="M260.61,235.9c0,.12-7.07.21-15.79.21S229,236,229,235.9s7.07-.22,15.8-.22S260.61,235.78,260.61,235.9Z"/><rect class="cls-3" x="241.49" y="242.6" width="5.35" height="11.28"/><path class="cls-3" d="M260.61,258.3c0,.12-7.07.22-15.79.22s-15.8-.1-15.8-.22,7.07-.21,15.8-.21S260.61,258.18,260.61,258.3Z"/><rect class="cls-3" x="241.49" y="265.1" width="5.35" height="11.28"/><rect class="cls-3" x="241.49" y="287.89" width="5.35" height="11.28"/><path class="cls-3" d="M260.61,280.8c0,.12-7.07.22-15.79.22s-15.8-.1-15.8-.22,7.07-.21,15.8-.21S260.61,280.68,260.61,280.8Z"/><rect class="cls-4" x="209.62" y="174.4" width="5.35" height="11.28"/><path class="cls-3" d="M228.74,190.11c0,.11-7.07.21-15.79.21s-15.8-.1-15.8-.21,7.07-.22,15.8-.22S228.74,190,228.74,190.11Z"/><rect class="cls-4" x="209.62" y="197.13" width="5.35" height="11.28"/><path class="cls-3" d="M228.74,212.84c0,.12-7.07.21-15.79.21s-15.8-.09-15.8-.21,7.07-.22,15.8-.22S228.74,212.72,228.74,212.84Z"/><rect class="cls-4" x="209.62" y="219.87" width="5.35" height="11.28"/><path class="cls-3" d="M228.74,235.57c0,.12-7.07.22-15.79.22s-15.8-.1-15.8-.22,7.07-.21,15.8-.21S228.74,235.45,228.74,235.57Z"/><rect class="cls-4" x="209.62" y="242.6" width="5.35" height="11.28"/><path class="cls-3" d="M228.74,258.3c0,.12-7.07.22-15.79.22s-15.8-.1-15.8-.22,7.07-.21,15.8-.21S228.74,258.18,228.74,258.3Z"/><rect class="cls-4" x="209.62" y="265.33" width="5.35" height="11.28"/><path class="cls-3" d="M228.74,281c0,.11-7.07.21-15.79.21s-15.8-.1-15.8-.21,7.07-.22,15.8-.22S228.74,280.92,228.74,281Z"/><rect class="cls-4" x="209.62" y="288.06" width="5.35" height="11.28"/><polygon class="cls-2" points="162.05 335.04 69.07 335.04 68.67 188.09 161.65 188.09 162.05 335.04"/><rect class="cls-3" x="115.16" y="188.09" width="46.49" height="146.95"/><rect class="cls-2" x="79.28" y="159.16" width="32.83" height="28.93"/><rect class="cls-3" x="104.29" y="159.16" width="7.83" height="28.93"/><rect class="cls-3" x="60.92" y="186.4" width="103.45" height="1.69"/><rect class="cls-5" x="87.02" y="200.7" width="7.87" height="16.6"/><path class="cls-3" d="M115.16,223.81c0,.18-10.41.32-23.25.32s-23.24-.14-23.24-.32,10.4-.31,23.24-.31S115.16,223.64,115.16,223.81Z"/><rect class="cls-1" x="133.92" y="200.7" width="7.87" height="16.6"/><path class="cls-2" d="M162.05,223.81c0,.18-10.41.32-23.24.32s-23.25-.14-23.25-.32,10.41-.31,23.25-.31S162.05,223.64,162.05,223.81Z"/><rect class="cls-1" x="133.92" y="233.65" width="7.87" height="16.6"/><path class="cls-2" d="M162.05,256.76c0,.18-10.41.32-23.24.32s-23.25-.14-23.25-.32,10.41-.31,23.25-.31S162.05,256.59,162.05,256.76Z"/><rect class="cls-1" x="133.92" y="267.6" width="7.87" height="16.6"/><path class="cls-2" d="M162.05,290.7c0,.18-10.41.32-23.24.32s-23.25-.14-23.25-.32,10.41-.31,23.25-.31S162.05,290.53,162.05,290.7Z"/><rect class="cls-1" x="133.92" y="301.54" width="7.87" height="16.6"/><path class="cls-2" d="M162.05,324.65c0,.17-10.41.31-23.24.31s-23.25-.14-23.25-.31,10.41-.32,23.25-.32S162.05,324.47,162.05,324.65Z"/><rect class="cls-5" x="87.02" y="234.16" width="7.87" height="16.6"/><path class="cls-3" d="M115.16,257.26c0,.18-10.41.32-23.25.32s-23.24-.14-23.24-.32,10.4-.31,23.24-.31S115.16,257.09,115.16,257.26Z"/><rect class="cls-5" x="87.02" y="267.61" width="7.87" height="16.6"/><path class="cls-3" d="M115.16,290.72c0,.17-10.41.31-23.25.31s-23.24-.14-23.24-.31,10.4-.32,23.24-.32S115.16,290.54,115.16,290.72Z"/><rect class="cls-5" x="87.02" y="301.06" width="7.87" height="16.6"/><path class="cls-3" d="M115.16,324.17c0,.17-10.41.31-23.25.31s-23.24-.14-23.24-.31,10.4-.32,23.24-.32S115.16,324,115.16,324.17Z"/><polygon class="cls-2" points="432.39 369.57 339.41 369.57 339.01 222.62 431.99 222.62 432.39 369.57"/><rect class="cls-3" x="385.5" y="222.62" width="46.49" height="146.95"/><rect class="cls-2" x="349.63" y="193.69" width="32.83" height="28.93"/><rect class="cls-3" x="374.63" y="193.69" width="7.83" height="28.93"/><rect class="cls-3" x="331.26" y="220.93" width="103.45" height="1.69"/><rect class="cls-5" x="357.36" y="235.24" width="7.87" height="16.6"/><path class="cls-3" d="M385.5,258.35c0,.17-10.41.31-23.25.31s-23.24-.14-23.24-.31,10.4-.32,23.24-.32S385.5,258.17,385.5,258.35Z"/><rect class="cls-1" x="404.26" y="235.24" width="7.87" height="16.6"/><path class="cls-2" d="M432.39,258.35c0,.17-10.4.31-23.24.31s-23.25-.14-23.25-.31,10.41-.32,23.25-.32S432.39,258.17,432.39,258.35Z"/><rect class="cls-1" x="404.26" y="268.19" width="7.87" height="16.6"/><path class="cls-2" d="M432.39,291.29c0,.18-10.4.32-23.24.32s-23.25-.14-23.25-.32,10.41-.31,23.25-.31S432.39,291.12,432.39,291.29Z"/><rect class="cls-1" x="404.26" y="302.13" width="7.87" height="16.6"/><path class="cls-2" d="M432.39,325.24c0,.17-10.4.31-23.24.31s-23.25-.14-23.25-.31,10.41-.32,23.25-.32S432.39,325.06,432.39,325.24Z"/><rect class="cls-1" x="404.26" y="336.07" width="7.87" height="16.6"/><path class="cls-2" d="M432.39,359.18c0,.17-10.4.32-23.24.32s-23.25-.15-23.25-.32,10.41-.32,23.25-.32S432.39,359,432.39,359.18Z"/><rect class="cls-5" x="357.36" y="268.69" width="7.87" height="16.6"/><path class="cls-3" d="M385.5,291.8c0,.17-10.41.31-23.25.31S339,292,339,291.8s10.4-.32,23.24-.32S385.5,291.62,385.5,291.8Z"/><rect class="cls-5" x="357.36" y="302.14" width="7.87" height="16.6"/><path class="cls-3" d="M385.5,325.25c0,.17-10.41.32-23.25.32s-23.24-.15-23.24-.32,10.4-.32,23.24-.32S385.5,325.07,385.5,325.25Z"/><rect class="cls-5" x="357.36" y="335.59" width="7.87" height="16.6"/><path class="cls-3" d="M385.5,358.7c0,.18-10.41.32-23.25.32S339,358.88,339,358.7s10.4-.32,23.24-.32S385.5,358.53,385.5,358.7Z"/><rect class="cls-1" x="570.4" y="221.05" width="63.19" height="200.25"/><rect class="cls-2" x="601.99" y="221.05" width="31.59" height="199.7"/><rect class="cls-1" x="577.61" y="201.39" width="22.31" height="19.66"/><rect class="cls-2" x="594.61" y="201.39" width="5.32" height="19.66"/><polyline class="cls-3" points="565.13 221.05 565.13 219.91 635.44 219.91 635.44 221.05"/><rect class="cls-4" x="582.87" y="229.63" width="5.35" height="11.28"/><path class="cls-3" d="M602,245.33c0,.12-7.07.21-15.79.21s-15.8-.09-15.8-.21,7.07-.22,15.8-.22S602,245.21,602,245.33Z"/><rect class="cls-3" x="614.74" y="229.63" width="5.35" height="11.28"/><path class="cls-3" d="M633.86,245.33c0,.12-7.07.21-15.79.21s-15.8-.09-15.8-.21,7.07-.22,15.8-.22S633.86,245.21,633.86,245.33Z"/><rect class="cls-3" x="614.74" y="252.02" width="5.35" height="11.28"/><path class="cls-3" d="M633.86,267.72c0,.12-7.07.22-15.79.22s-15.8-.1-15.8-.22,7.07-.21,15.8-.21S633.86,267.6,633.86,267.72Z"/><rect class="cls-3" x="614.74" y="275.08" width="5.35" height="11.28"/><path class="cls-3" d="M633.86,290.79c0,.12-7.07.21-15.79.21s-15.8-.09-15.8-.21,7.07-.22,15.8-.22S633.86,290.67,633.86,290.79Z"/><rect class="cls-3" x="614.74" y="298.15" width="5.35" height="11.28"/><path class="cls-3" d="M633.86,313.85c0,.12-7.07.22-15.79.22s-15.8-.1-15.8-.22,7.07-.21,15.8-.21S633.86,313.73,633.86,313.85Z"/><rect class="cls-3" x="614.74" y="320.56" width="5.35" height="11.28"/><path class="cls-3" d="M633.86,336.26c0,.12-7.07.22-15.79.22s-15.8-.1-15.8-.22,7.07-.22,15.8-.22S633.86,336.14,633.86,336.26Z"/><rect class="cls-3" x="614.74" y="343.05" width="5.35" height="11.28"/><rect class="cls-3" x="614.74" y="365.84" width="5.35" height="11.28"/><path class="cls-3" d="M633.86,358.76c0,.12-7.07.21-15.79.21s-15.8-.09-15.8-.21,7.07-.22,15.8-.22S633.86,358.64,633.86,358.76Z"/><rect class="cls-4" x="582.87" y="252.36" width="5.35" height="11.28"/><path class="cls-3" d="M602,268.06c0,.12-7.07.22-15.79.22s-15.8-.1-15.8-.22,7.07-.21,15.8-.21S602,267.94,602,268.06Z"/><rect class="cls-4" x="582.87" y="275.09" width="5.35" height="11.28"/><path class="cls-3" d="M602,290.79c0,.12-7.07.22-15.79.22s-15.8-.1-15.8-.22,7.07-.21,15.8-.21S602,290.68,602,290.79Z"/><rect class="cls-4" x="582.87" y="297.82" width="5.35" height="11.28"/><path class="cls-3" d="M602,313.53c0,.12-7.07.21-15.79.21s-15.8-.09-15.8-.21,7.07-.22,15.8-.22S602,313.41,602,313.53Z"/><rect class="cls-4" x="582.87" y="320.56" width="5.35" height="11.28"/><path class="cls-3" d="M602,336.26c0,.12-7.07.22-15.79.22s-15.8-.1-15.8-.22,7.07-.22,15.8-.22S602,336.14,602,336.26Z"/><rect class="cls-4" x="582.87" y="343.29" width="5.35" height="11.28"/><path class="cls-3" d="M602,359c0,.12-7.07.22-15.79.22s-15.8-.1-15.8-.22,7.07-.21,15.8-.21S602,358.87,602,359Z"/><rect class="cls-4" x="582.87" y="366.02" width="5.35" height="11.28"/><rect class="cls-1" x="631.29" y="273.29" width="46.65" height="147.83"/><rect class="cls-2" x="654.61" y="273.29" width="23.32" height="147.42"/><rect class="cls-1" x="636.62" y="258.78" width="16.47" height="14.51"/><rect class="cls-2" x="649.16" y="258.78" width="3.93" height="14.51"/><polyline class="cls-3" points="627.4 273.29 627.4 272.45 679.3 272.45 679.3 273.29"/><rect class="cls-4" x="640.5" y="279.62" width="3.95" height="8.33"/><path class="cls-3" d="M654.61,291.22c0,.08-5.22.16-11.66.16s-11.66-.08-11.66-.16,5.22-.16,11.66-.16S654.61,291.13,654.61,291.22Z"/><rect class="cls-3" x="664.02" y="279.62" width="3.95" height="8.33"/><path class="cls-3" d="M678.14,291.22c0,.08-5.22.16-11.66.16s-11.66-.08-11.66-.16,5.22-.16,11.66-.16S678.14,291.13,678.14,291.22Z"/><rect class="cls-3" x="664.02" y="296.15" width="3.95" height="8.33"/><path class="cls-3" d="M678.14,307.75c0,.08-5.22.16-11.66.16s-11.66-.08-11.66-.16,5.22-.16,11.66-.16S678.14,307.66,678.14,307.75Z"/><rect class="cls-3" x="664.02" y="313.18" width="3.95" height="8.33"/><path class="cls-3" d="M678.14,324.77c0,.09-5.22.16-11.66.16s-11.66-.07-11.66-.16,5.22-.15,11.66-.15S678.14,324.69,678.14,324.77Z"/><rect class="cls-3" x="664.02" y="330.21" width="3.95" height="8.33"/><path class="cls-3" d="M678.14,341.8c0,.09-5.22.16-11.66.16s-11.66-.07-11.66-.16,5.22-.16,11.66-.16S678.14,341.71,678.14,341.8Z"/><rect class="cls-3" x="664.02" y="346.75" width="3.95" height="8.33"/><path class="cls-3" d="M678.14,358.34c0,.09-5.22.16-11.66.16s-11.66-.07-11.66-.16,5.22-.16,11.66-.16S678.14,358.26,678.14,358.34Z"/><rect class="cls-3" x="664.02" y="363.36" width="3.95" height="8.33"/><rect class="cls-3" x="664.02" y="380.18" width="3.95" height="8.33"/><path class="cls-3" d="M678.14,375c0,.09-5.22.16-11.66.16s-11.66-.07-11.66-.16,5.22-.16,11.66-.16S678.14,374.86,678.14,375Z"/><rect class="cls-4" x="640.5" y="296.41" width="3.95" height="8.33"/><path class="cls-3" d="M654.61,308c0,.09-5.22.16-11.66.16s-11.66-.07-11.66-.16,5.22-.16,11.66-.16S654.61,307.91,654.61,308Z"/><rect class="cls-4" x="640.5" y="313.19" width="3.95" height="8.33"/><path class="cls-3" d="M654.61,324.78c0,.09-5.22.16-11.66.16s-11.66-.07-11.66-.16,5.22-.16,11.66-.16S654.61,324.69,654.61,324.78Z"/><rect class="cls-4" x="640.5" y="329.97" width="3.95" height="8.33"/><path class="cls-3" d="M654.61,341.56c0,.09-5.22.16-11.66.16s-11.66-.07-11.66-.16,5.22-.16,11.66-.16S654.61,341.47,654.61,341.56Z"/><rect class="cls-4" x="640.5" y="346.75" width="3.95" height="8.33"/><path class="cls-3" d="M654.61,358.34c0,.09-5.22.16-11.66.16s-11.66-.07-11.66-.16,5.22-.16,11.66-.16S654.61,358.26,654.61,358.34Z"/><rect class="cls-4" x="640.5" y="363.53" width="3.95" height="8.33"/><path class="cls-3" d="M654.61,375.12c0,.09-5.22.16-11.66.16s-11.66-.07-11.66-.16S636.51,375,643,375,654.61,375,654.61,375.12Z"/><rect class="cls-4" x="640.5" y="380.31" width="3.95" height="8.33"/><g class="cls-6"><path d="M716.26,421.23c0,.15-160.35.26-358.11.26S0,421.38,0,421.23,160.32,421,358.15,421,716.26,421.09,716.26,421.23Z"/></g><polygon class="cls-7" points="441.54 305.13 441.54 199.46 448.92 199.46 448.92 184.7 552.24 184.7 552.24 199.46 559.05 199.46 559.05 305.13 441.54 305.13"/><path class="cls-8" d="M555.76,199.51c0,.15-25.57.27-57.11.27s-57.11-.12-57.11-.27,25.57-.26,57.11-.26S555.76,199.37,555.76,199.51Z"/><rect class="cls-5" x="451.96" y="206.48" width="96.93" height="10.72"/><path class="cls-3" d="M460.33,217.2a27.25,27.25,0,0,1-.26-5.36,27.25,27.25,0,0,1,.26-5.36,28.2,28.2,0,0,1,.26,5.36A28.2,28.2,0,0,1,460.33,217.2Z"/><path class="cls-3" d="M469,217.2a28.2,28.2,0,0,1-.26-5.36,28.2,28.2,0,0,1,.26-5.36,27.25,27.25,0,0,1,.26,5.36A27.25,27.25,0,0,1,469,217.2Z"/><path class="cls-3" d="M477.58,217.2a28.2,28.2,0,0,1-.26-5.36,28.2,28.2,0,0,1,.26-5.36,28.2,28.2,0,0,1,.26,5.36A28.2,28.2,0,0,1,477.58,217.2Z"/><path class="cls-3" d="M486.21,217.2a27.25,27.25,0,0,1-.26-5.36,27.25,27.25,0,0,1,.26-5.36,28.2,28.2,0,0,1,.26,5.36A28.2,28.2,0,0,1,486.21,217.2Z"/><path class="cls-3" d="M494.84,217.2a27.25,27.25,0,0,1-.26-5.36,27.25,27.25,0,0,1,.26-5.36,28.2,28.2,0,0,1,.26,5.36A28.2,28.2,0,0,1,494.84,217.2Z"/><path class="cls-3" d="M503.46,217.2a28.2,28.2,0,0,1-.26-5.36,28.2,28.2,0,0,1,.26-5.36,27.25,27.25,0,0,1,.26,5.36A27.25,27.25,0,0,1,503.46,217.2Z"/><path class="cls-3" d="M512.09,217.2a28.2,28.2,0,0,1-.26-5.36,28.2,28.2,0,0,1,.26-5.36,28.2,28.2,0,0,1,.26,5.36A28.2,28.2,0,0,1,512.09,217.2Z"/><path class="cls-3" d="M520.72,217.2a27.25,27.25,0,0,1-.26-5.36,27.25,27.25,0,0,1,.26-5.36,28.2,28.2,0,0,1,.26,5.36A28.2,28.2,0,0,1,520.72,217.2Z"/><path class="cls-3" d="M529.35,217.2a27.25,27.25,0,0,1-.26-5.36,27.25,27.25,0,0,1,.26-5.36,28.2,28.2,0,0,1,.26,5.36A28.2,28.2,0,0,1,529.35,217.2Z"/><path class="cls-3" d="M538,217.2a28.2,28.2,0,0,1-.26-5.36,28.2,28.2,0,0,1,.26-5.36,27.25,27.25,0,0,1,.26,5.36A27.25,27.25,0,0,1,538,217.2Z"/><rect class="cls-5" x="451.96" y="225.04" width="96.93" height="10.72"/><path class="cls-3" d="M460.33,235.77a27.25,27.25,0,0,1-.26-5.36,27.31,27.31,0,0,1,.26-5.37,28.27,28.27,0,0,1,.26,5.37A28.2,28.2,0,0,1,460.33,235.77Z"/><path class="cls-3" d="M469,235.77a28.2,28.2,0,0,1-.26-5.36A28.27,28.27,0,0,1,469,225a27.31,27.31,0,0,1,.26,5.37A27.25,27.25,0,0,1,469,235.77Z"/><path class="cls-3" d="M477.58,235.77a28.2,28.2,0,0,1-.26-5.36,28.27,28.27,0,0,1,.26-5.37,28.27,28.27,0,0,1,.26,5.37A28.2,28.2,0,0,1,477.58,235.77Z"/><path class="cls-3" d="M486.21,235.77a27.25,27.25,0,0,1-.26-5.36,27.31,27.31,0,0,1,.26-5.37,28.27,28.27,0,0,1,.26,5.37A28.2,28.2,0,0,1,486.21,235.77Z"/><path class="cls-3" d="M494.84,235.77a27.25,27.25,0,0,1-.26-5.36,27.31,27.31,0,0,1,.26-5.37,28.27,28.27,0,0,1,.26,5.37A28.2,28.2,0,0,1,494.84,235.77Z"/><path class="cls-3" d="M503.46,235.77a28.2,28.2,0,0,1-.26-5.36,28.27,28.27,0,0,1,.26-5.37,27.31,27.31,0,0,1,.26,5.37A27.25,27.25,0,0,1,503.46,235.77Z"/><path class="cls-3" d="M512.09,235.77a28.2,28.2,0,0,1-.26-5.36,28.27,28.27,0,0,1,.26-5.37,28.27,28.27,0,0,1,.26,5.37A28.2,28.2,0,0,1,512.09,235.77Z"/><path class="cls-3" d="M520.72,235.77a27.25,27.25,0,0,1-.26-5.36,27.31,27.31,0,0,1,.26-5.37,28.27,28.27,0,0,1,.26,5.37A28.2,28.2,0,0,1,520.72,235.77Z"/><path class="cls-3" d="M529.35,235.77a27.25,27.25,0,0,1-.26-5.36,27.31,27.31,0,0,1,.26-5.37,28.27,28.27,0,0,1,.26,5.37A28.2,28.2,0,0,1,529.35,235.77Z"/><path class="cls-3" d="M538,235.77a28.2,28.2,0,0,1-.26-5.36A28.27,28.27,0,0,1,538,225a27.31,27.31,0,0,1,.26,5.37A27.25,27.25,0,0,1,538,235.77Z"/><rect class="cls-5" x="451.96" y="243.61" width="96.93" height="10.72"/><path class="cls-3" d="M460.33,254.33a27.25,27.25,0,0,1-.26-5.36,27.25,27.25,0,0,1,.26-5.36,28.2,28.2,0,0,1,.26,5.36A28.2,28.2,0,0,1,460.33,254.33Z"/><path class="cls-3" d="M469,254.33a28.2,28.2,0,0,1-.26-5.36,28.2,28.2,0,0,1,.26-5.36,27.25,27.25,0,0,1,.26,5.36A27.25,27.25,0,0,1,469,254.33Z"/><path class="cls-3" d="M477.58,254.33a28.2,28.2,0,0,1-.26-5.36,28.2,28.2,0,0,1,.26-5.36,28.2,28.2,0,0,1,.26,5.36A28.2,28.2,0,0,1,477.58,254.33Z"/><path class="cls-3" d="M486.21,254.33A27.25,27.25,0,0,1,486,249a27.25,27.25,0,0,1,.26-5.36,28.2,28.2,0,0,1,.26,5.36A28.2,28.2,0,0,1,486.21,254.33Z"/><path class="cls-3" d="M494.84,254.33a27.25,27.25,0,0,1-.26-5.36,27.25,27.25,0,0,1,.26-5.36,28.2,28.2,0,0,1,.26,5.36A28.2,28.2,0,0,1,494.84,254.33Z"/><path class="cls-3" d="M503.46,254.33a28.2,28.2,0,0,1-.26-5.36,28.2,28.2,0,0,1,.26-5.36,27.25,27.25,0,0,1,.26,5.36A27.25,27.25,0,0,1,503.46,254.33Z"/><path class="cls-3" d="M512.09,254.33a28.2,28.2,0,0,1-.26-5.36,28.2,28.2,0,0,1,.26-5.36,28.2,28.2,0,0,1,.26,5.36A28.2,28.2,0,0,1,512.09,254.33Z"/><path class="cls-3" d="M520.72,254.33a27.25,27.25,0,0,1-.26-5.36,27.25,27.25,0,0,1,.26-5.36A28.2,28.2,0,0,1,521,249,28.2,28.2,0,0,1,520.72,254.33Z"/><path class="cls-3" d="M529.35,254.33a27.25,27.25,0,0,1-.26-5.36,27.25,27.25,0,0,1,.26-5.36,28.2,28.2,0,0,1,.26,5.36A28.2,28.2,0,0,1,529.35,254.33Z"/><path class="cls-3" d="M538,254.33a28.2,28.2,0,0,1-.26-5.36,28.2,28.2,0,0,1,.26-5.36,27.25,27.25,0,0,1,.26,5.36A27.25,27.25,0,0,1,538,254.33Z"/><rect class="cls-5" x="451.96" y="262.17" width="96.93" height="10.72"/><path class="cls-3" d="M460.33,272.9a27.25,27.25,0,0,1-.26-5.36,27.31,27.31,0,0,1,.26-5.37,55.48,55.48,0,0,1,0,10.73Z"/><path class="cls-3" d="M469,272.9a55.48,55.48,0,0,1,0-10.73,27.31,27.31,0,0,1,.26,5.37A27.25,27.25,0,0,1,469,272.9Z"/><path class="cls-3" d="M477.58,272.9a55.48,55.48,0,0,1,0-10.73,55.48,55.48,0,0,1,0,10.73Z"/><path class="cls-3" d="M486.21,272.9a27.25,27.25,0,0,1-.26-5.36,27.31,27.31,0,0,1,.26-5.37,55.48,55.48,0,0,1,0,10.73Z"/><path class="cls-3" d="M494.84,272.9a27.25,27.25,0,0,1-.26-5.36,27.31,27.31,0,0,1,.26-5.37,55.48,55.48,0,0,1,0,10.73Z"/><path class="cls-3" d="M503.46,272.9a55.48,55.48,0,0,1,0-10.73,27.31,27.31,0,0,1,.26,5.37A27.25,27.25,0,0,1,503.46,272.9Z"/><path class="cls-3" d="M512.09,272.9a55.48,55.48,0,0,1,0-10.73,55.48,55.48,0,0,1,0,10.73Z"/><path class="cls-3" d="M520.72,272.9a27.25,27.25,0,0,1-.26-5.36,27.31,27.31,0,0,1,.26-5.37,55.48,55.48,0,0,1,0,10.73Z"/><path class="cls-3" d="M529.35,272.9a27.25,27.25,0,0,1-.26-5.36,27.31,27.31,0,0,1,.26-5.37,55.48,55.48,0,0,1,0,10.73Z"/><path class="cls-3" d="M538,272.9a55.48,55.48,0,0,1,0-10.73,27.31,27.31,0,0,1,.26,5.37A27.25,27.25,0,0,1,538,272.9Z"/><rect class="cls-5" x="451.96" y="280.74" width="96.93" height="10.72"/><path class="cls-3" d="M460.33,291.46a55.38,55.38,0,0,1,0-10.72,55.38,55.38,0,0,1,0,10.72Z"/><path class="cls-3" d="M469,291.46a55.38,55.38,0,0,1,0-10.72,55.38,55.38,0,0,1,0,10.72Z"/><path class="cls-3" d="M477.58,291.46a55.38,55.38,0,0,1,0-10.72,55.38,55.38,0,0,1,0,10.72Z"/><path class="cls-3" d="M486.21,291.46a55.38,55.38,0,0,1,0-10.72,55.38,55.38,0,0,1,0,10.72Z"/><path class="cls-3" d="M494.84,291.46a55.38,55.38,0,0,1,0-10.72,55.38,55.38,0,0,1,0,10.72Z"/><path class="cls-3" d="M503.46,291.46a55.38,55.38,0,0,1,0-10.72,55.38,55.38,0,0,1,0,10.72Z"/><path class="cls-3" d="M512.09,291.46a55.38,55.38,0,0,1,0-10.72,55.38,55.38,0,0,1,0,10.72Z"/><path class="cls-3" d="M520.72,291.46a55.38,55.38,0,0,1,0-10.72,55.38,55.38,0,0,1,0,10.72Z"/><path class="cls-3" d="M529.35,291.46a55.38,55.38,0,0,1,0-10.72,55.38,55.38,0,0,1,0,10.72Z"/><path class="cls-3" d="M538,291.46a55.38,55.38,0,0,1,0-10.72,55.38,55.38,0,0,1,0,10.72Z"/><rect class="cls-7" x="329.43" y="301.13" width="281.91" height="120.1"/><rect class="cls-5" x="404.64" y="323.02" width="186.04" height="25.95"/><rect class="cls-8" x="431.66" y="370.24" width="106.11" height="50.99"/><g class="cls-6"><path d="M418.34,374.85s0-.26,0-.71,0-1.16-.05-2c0-1.74-.06-4.17-.1-7.15l.18.18-24.81.08.26-.26h0v5.05c0,1.64,0,3.24,0,4.78l-.25-.25,17.72.12,5.18.07,1.41,0,.5,0a2.11,2.11,0,0,1-.44,0l-1.35,0-5.13.06-17.89.12h-.25v-.25c0-1.54,0-3.14,0-4.78V365h0c-.06.05.49-.5.26-.27l24.81.08h.19V365c0,3-.08,5.49-.1,7.26,0,.8,0,1.44-.05,1.94A2.62,2.62,0,0,1,418.34,374.85Z"/></g><g class="cls-6"><path d="M601.66,316.27s0-.26,0-.71,0-1.16,0-2c0-1.74-.06-4.17-.1-7.16l.18.19-24.81.07c-.23.24.32-.31.26-.25h0v5.05c0,1.64,0,3.24,0,4.78l-.25-.25,17.71.12,5.19.07,1.41,0,.5,0a2.23,2.23,0,0,1-.44,0l-1.36,0-5.13.07-17.88.12h-.25v-.25c0-1.54,0-3.14,0-4.78v-5.05h0c-.06.05.49-.5.26-.27l24.81.08h.19v.18c0,3-.07,5.5-.09,7.27,0,.8,0,1.44,0,1.94A2.71,2.71,0,0,1,601.66,316.27Z"/></g><g class="cls-6"><rect x="405.29" y="354.68" width="24.81" height="9.85"/></g><path class="cls-7" d="M590.68,335.69c0,.14-41.65.26-93,.26s-93-.12-93-.26,41.64-.26,93-.26S590.68,335.54,590.68,335.69Z"/><path class="cls-7" d="M415.19,350.6c-.15,0-.26-6.54-.26-14.61s.11-14.6.26-14.6.26,6.54.26,14.6S415.33,350.6,415.19,350.6Z"/><path class="cls-7" d="M426.42,350.6c-.14,0-.26-6.54-.26-14.61s.12-14.6.26-14.6.26,6.54.26,14.6S426.56,350.6,426.42,350.6Z"/><path class="cls-7" d="M438.15,350.6c-.14,0-.26-6.54-.26-14.61s.12-14.6.26-14.6.26,6.54.26,14.6S438.3,350.6,438.15,350.6Z"/><path class="cls-7" d="M449.89,350.6c-.15,0-.26-6.54-.26-14.61s.11-14.6.26-14.6.26,6.54.26,14.6S450,350.6,449.89,350.6Z"/><path class="cls-7" d="M461.62,350.6c-.14,0-.26-6.54-.26-14.61s.12-14.6.26-14.6.26,6.54.26,14.6S461.76,350.6,461.62,350.6Z"/><path class="cls-7" d="M473.35,350.6c-.14,0-.26-6.54-.26-14.61s.12-14.6.26-14.6.26,6.54.26,14.6S473.5,350.6,473.35,350.6Z"/><path class="cls-7" d="M485.09,350.6c-.15,0-.27-6.54-.27-14.61s.12-14.6.27-14.6.26,6.54.26,14.6S485.23,350.6,485.09,350.6Z"/><path class="cls-7" d="M496.82,350.6c-.15,0-.26-6.54-.26-14.61s.11-14.6.26-14.6.26,6.54.26,14.6S497,350.6,496.82,350.6Z"/><path class="cls-7" d="M508.55,350.6c-.14,0-.26-6.54-.26-14.61s.12-14.6.26-14.6.26,6.54.26,14.6S508.69,350.6,508.55,350.6Z"/><path class="cls-7" d="M520.28,350.6c-.14,0-.26-6.54-.26-14.61s.12-14.6.26-14.6.26,6.54.26,14.6S520.43,350.6,520.28,350.6Z"/><path class="cls-7" d="M532,350.6c-.15,0-.26-6.54-.26-14.61s.11-14.6.26-14.6.26,6.54.26,14.6S532.16,350.6,532,350.6Z"/><path class="cls-7" d="M543.75,350.6c-.14,0-.26-6.54-.26-14.61s.12-14.6.26-14.6.26,6.54.26,14.6S543.89,350.6,543.75,350.6Z"/><path class="cls-7" d="M555.48,350.6c-.14,0-.26-6.54-.26-14.61s.12-14.6.26-14.6.26,6.54.26,14.6S555.63,350.6,555.48,350.6Z"/><path class="cls-7" d="M567.22,350.6c-.15,0-.26-6.54-.26-14.61s.11-14.6.26-14.6.26,6.54.26,14.6S567.36,350.6,567.22,350.6Z"/><path class="cls-7" d="M579,350.6c-.15,0-.26-6.54-.26-14.61s.11-14.6.26-14.6.26,6.54.26,14.6S579.09,350.6,579,350.6Z"/><path class="cls-7" d="M590.68,350.6c-.14,0-.26-6.54-.26-14.61s.12-14.6.26-14.6.26,6.54.26,14.6S590.83,350.6,590.68,350.6Z"/><rect class="cls-9" x="503.34" y="396.12" width="16.29" height="12.56"/><g class="cls-6"><rect x="503.34" y="396.12" width="16.29" height="12.56"/></g><path class="cls-8" d="M515.55,408.59s0-2.8,0-6.25,0-6.25,0-6.25,0,2.79,0,6.25S515.56,408.59,515.55,408.59Z"/><rect class="cls-1" x="517" y="405.82" width="1.25" height="1.41"/><rect class="cls-8" x="508.31" y="396.15" width="1.85" height="2.68"/><rect class="cls-8" x="508.31" y="405.96" width="1.85" height="2.68"/><path class="cls-8" d="M519.49,396.12h0Z"/><rect class="cls-9" x="516.9" y="396.1" width="16.29" height="12.56"/><path class="cls-8" d="M529.1,408.58s0-2.8,0-6.26,0-6.25,0-6.25,0,2.8,0,6.25S529.12,408.58,529.1,408.58Z"/><rect class="cls-1" x="530.56" y="405.81" width="1.25" height="1.41"/><g class="cls-10"><rect class="cls-5" x="521.87" y="396.14" width="1.85" height="2.68"/></g><g class="cls-10"><rect class="cls-5" x="521.87" y="405.95" width="1.85" height="2.68"/></g><path class="cls-8" d="M533,396.1h0Z"/><rect class="cls-9" x="517.81" y="383.54" width="16.29" height="12.56"/><path class="cls-8" d="M530,396s0-2.81,0-6.26,0-6.25,0-6.25,0,2.8,0,6.25S530,396,530,396Z"/><rect class="cls-1" x="531.47" y="393.24" width="1.25" height="1.41"/><rect class="cls-8" x="522.78" y="383.57" width="1.85" height="2.68"/><rect class="cls-8" x="522.78" y="393.39" width="1.85" height="2.68"/><path class="cls-8" d="M534,383.54h0Z"/><rect class="cls-9" x="517.44" y="408.67" width="16.29" height="12.56"/><g class="cls-6"><rect x="517.44" y="408.67" width="16.29" height="12.56"/></g><path class="cls-8" d="M529.65,421.14s0-2.8,0-6.25,0-6.25,0-6.25,0,2.8,0,6.25S529.66,421.14,529.65,421.14Z"/><rect class="cls-1" x="531.1" y="418.37" width="1.25" height="1.41"/><rect class="cls-8" x="522.41" y="408.7" width="1.85" height="2.68"/><rect class="cls-8" x="522.41" y="418.52" width="1.85" height="2.68"/><path class="cls-8" d="M533.59,408.67h0Z"/><rect class="cls-9" x="500.36" y="408.67" width="16.29" height="12.56"/><path class="cls-8" d="M512.56,421.14s0-2.8,0-6.25,0-6.25,0-6.25,0,2.8,0,6.25S512.58,421.14,512.56,421.14Z"/><rect class="cls-1" x="514.02" y="418.37" width="1.25" height="1.41"/><g class="cls-10"><rect class="cls-5" x="505.33" y="408.7" width="1.85" height="2.68"/></g><g class="cls-10"><rect class="cls-5" x="505.33" y="418.52" width="1.85" height="2.68"/></g><path class="cls-8" d="M516.5,408.67h0Z"/><rect class="cls-7" x="482.64" y="369.24" width="3.81" height="51.9"/><path class="cls-8" d="M606,301.13c0,.15-47.31.26-105.66.26s-105.67-.11-105.67-.26,47.3-.26,105.67-.26S606,301,606,301.13Z"/><polygon class="cls-3" points="284.16 80.13 275.36 242.43 329.39 242.43 320.66 80.13 284.16 80.13"/><polygon class="cls-9" points="321.18 89.75 283.64 89.75 284.16 80.13 320.8 80.13 321.18 89.75"/><polygon class="cls-9" points="322.73 118.64 282.08 118.64 282.77 105.75 322.04 105.75 322.73 118.64"/><polygon class="cls-9" points="324.16 145.12 280.64 145.12 281.34 132.23 323.59 132.23 324.16 145.12"/><polygon class="cls-9" points="325.58 171.59 279.2 171.59 279.9 158.7 324.89 158.7 325.58 171.59"/><polygon class="cls-9" points="327.01 198.18 277.77 198.07 278.41 185.18 326.32 185.18 327.01 198.18"/><polygon class="cls-9" points="328.44 224.76 276.33 224.54 277.03 211.65 327.74 211.65 328.44 224.76"/><path class="cls-8" d="M284.16,80.13l.61,0,1.82,0,7.1,0,27-.08h.14v.14c1.93,35.55,5.16,94.72,8.84,162.29l0,.28H275.1v-.27c2.57-46.49,4.81-87.09,6.41-116.08.81-14.46,1.47-26,1.91-34,.23-3.95.41-7,.53-9.1.06-1,.11-1.8.14-2.34s.06-.78.06-.78,0,.28,0,.81-.07,1.34-.12,2.38c-.1,2.1-.26,5.17-.46,9.16-.41,8-1,19.55-1.77,34-1.54,29-3.7,69.49-6.17,115.92l-.26-.27h54l-.26.27c-3.59-67.58-6.73-126.75-8.62-162.31l.15.14-26.88-.08-7.14,0-1.84,0Z"/><path class="cls-3" d="M324.27,101.61H280.48a4.12,4.12,0,0,1-4.12-4.13h0a4.12,4.12,0,0,1,4.12-4.13h43.79a4.13,4.13,0,0,1,4.13,4.13h0A4.13,4.13,0,0,1,324.27,101.61Z"/><path class="cls-8" d="M324.27,101.61a7.47,7.47,0,0,0,1.12-.21,4.13,4.13,0,0,0,2.43-2,4,4,0,0,0-.71-4.69,4,4,0,0,0-2.83-1.17l-3.66,0-40.13.07a4,4,0,0,0-2.52.93,3.87,3.87,0,0,0,1.11,6.55,6.85,6.85,0,0,0,2.62.27h7.91l18,.06,12.16.08,3.31,0,.86,0a1.11,1.11,0,0,1,.29,0,1.11,1.11,0,0,1-.29,0l-.86,0-3.31,0-12.16.09-18,0H281.7c-.46,0-.9,0-1.38,0a4.21,4.21,0,0,1-1.43-.3,4.39,4.39,0,0,1,1.6-8.47l40.13.08,3.66,0a4.27,4.27,0,0,1,3,1.3,4.21,4.21,0,0,1,1.18,2.62,4.19,4.19,0,0,1-3.08,4.39A3.15,3.15,0,0,1,324.27,101.61Z"/><path class="cls-3" d="M25.79,314.5H11.14a6.38,6.38,0,0,1-6.38-6.38V219a6.38,6.38,0,0,1,6.38-6.38H30.07A6.38,6.38,0,0,1,36.45,219v13.17h-2V219a4.38,4.38,0,0,0-4.38-4.38H11.14A4.38,4.38,0,0,0,6.76,219v89.11a4.38,4.38,0,0,0,4.38,4.38H25.79Z"/><rect class="cls-3" x="6.39" y="292.85" width="20.65" height="2"/><rect class="cls-3" x="6.39" y="275.71" width="20.65" height="2"/><rect class="cls-3" x="6.39" y="258.57" width="20.65" height="2"/><rect class="cls-3" x="6.39" y="241.43" width="20.65" height="2"/><polygon class="cls-9" points="26.04 421.23 26.04 234.03 113.64 191.62 113.64 234.96 206.78 191.62 206.78 235.88 393.06 235.88 393.06 421.23 26.04 421.23"/><rect class="cls-5" x="48.6" y="288.39" width="304.57" height="50.22"/><path class="cls-9" d="M364.82,313.5c0,.14-71.09.26-158.76.26s-158.77-.12-158.77-.26,71.07-.26,158.77-.26S364.82,313.35,364.82,313.5Z"/><path class="cls-9" d="M66.85,337.83a5,5,0,0,1,.05.66l0,1.91h-.21c-.09-4.43-.15-14.43-.15-26,0-7.86,0-15,.07-20.22,0-2.54.06-4.62.08-6.13l.05-1.67a2.23,2.23,0,0,1,.06-.58,3.8,3.8,0,0,1,.05.58L67,288c0,1.51,0,3.59.08,6.13,0,5.24,0,12.36.08,20.22,0,11.61-.07,21.61-.16,26h-.21l.05-1.91A2.89,2.89,0,0,1,66.85,337.83Z"/><path class="cls-9" d="M88.87,337.39a2.89,2.89,0,0,1,.06.66c0,.49,0,1.12,0,1.91h-.22c-.09-4.44-.15-14.43-.15-26,0-7.87.06-15,.08-20.23,0-2.53.06-4.61.08-6.13,0-.67,0-1.22,0-1.66a2.65,2.65,0,0,1,.05-.58,2,2,0,0,1,0,.58c0,.44,0,1,0,1.66,0,1.52,0,3.6.08,6.13,0,5.24,0,12.36.08,20.23,0,11.61-.06,21.6-.15,26h-.22c0-.79,0-1.42.06-1.91A2.64,2.64,0,0,1,88.87,337.39Z"/><path class="cls-9" d="M110.9,337.09a4.25,4.25,0,0,1,0,.62c0,.47,0,1.07,0,1.81h-.21c-.09-4.19-.15-13.64-.15-24.61,0-7.43,0-14.16.07-19.12,0-2.39.06-4.35.08-5.79,0-.64,0-1.16,0-1.58a2,2,0,0,1,.06-.55,3.43,3.43,0,0,1,0,.55c0,.42,0,.94,0,1.58,0,1.44,0,3.4.08,5.79,0,5,0,11.69.08,19.12,0,11-.07,20.42-.16,24.61h-.21c0-.74,0-1.34,0-1.81A2.5,2.5,0,0,1,110.9,337.09Z"/><path class="cls-9" d="M132.92,336.51a2.78,2.78,0,0,1,.06.66c0,.49,0,1.12.05,1.91h-.22c-.09-4.44-.15-14.43-.15-26,0-7.87.06-15,.08-20.23,0-2.53.06-4.61.08-6.13,0-.67,0-1.23.05-1.66a2.7,2.7,0,0,1,0-.59,2.08,2.08,0,0,1,.05.59c0,.43,0,1,.05,1.66,0,1.52,0,3.6.09,6.13,0,5.24,0,12.36.07,20.23,0,11.61-.06,21.6-.15,26h-.22c0-.79,0-1.42.06-1.91A2.56,2.56,0,0,1,132.92,336.51Z"/><path class="cls-9" d="M155,336.25a2.92,2.92,0,0,1,.05.61c0,.47,0,1.05.05,1.78h-.21c-.09-4.12-.15-13.41-.15-24.19,0-7.31.05-13.92.07-18.79,0-2.35.06-4.28.09-5.7,0-.62,0-1.13,0-1.55a2,2,0,0,1,.06-.54,3.37,3.37,0,0,1,.05.54c0,.42,0,.93.05,1.55,0,1.42,0,3.35.08,5.7,0,4.87.05,11.48.08,18.79,0,10.78-.07,20.07-.16,24.19h-.21c0-.73,0-1.31,0-1.78A2.45,2.45,0,0,1,155,336.25Z"/><path class="cls-9" d="M177,337.73a3.15,3.15,0,0,1,.06.69c0,.51,0,1.16.05,2h-.22c-.09-4.6-.15-15-.15-27,0-8.17.06-15.57.08-21,0-2.64.06-4.79.08-6.37,0-.7,0-1.27,0-1.73a2.87,2.87,0,0,1,.05-.6,2.2,2.2,0,0,1,.05.6c0,.46,0,1,0,1.73,0,1.58.05,3.73.09,6.37,0,5.43,0,12.83.07,21,0,12.05-.06,22.43-.15,27h-.22c0-.82,0-1.47.06-2A2.88,2.88,0,0,1,177,337.73Z"/><path class="cls-9" d="M199,335.59a2.87,2.87,0,0,1,.05.6c0,.46,0,1,0,1.75h-.21c-.09-4.06-.15-13.22-.15-23.85,0-7.24,0-13.8.07-18.54,0-2.31.06-4.21.09-5.62,0-.61,0-1.12,0-1.52a2,2,0,0,1,.06-.54,3.37,3.37,0,0,1,.05.54c0,.4,0,.91,0,1.52,0,1.41.05,3.31.08,5.62,0,4.74.08,11.3.08,18.54,0,10.63-.07,19.79-.16,23.85h-.21c0-.71,0-1.29.05-1.75A2.41,2.41,0,0,1,199,335.59Z"/><path class="cls-9" d="M221,337.52a2.5,2.5,0,0,1,.06.62c0,.47,0,1.07,0,1.8h-.21c-.1-4.18-.16-13.61-.16-24.56,0-7.42.06-14.14.08-19.09,0-2.38.06-4.34.08-5.78,0-.64,0-1.16.05-1.57a2.39,2.39,0,0,1,.05-.55,1.84,1.84,0,0,1,0,.55c0,.41,0,.93.05,1.57,0,1.44,0,3.4.09,5.78,0,4.95,0,11.67.07,19.09,0,10.95-.06,20.38-.15,24.56h-.21c0-.73,0-1.33.05-1.8A2.29,2.29,0,0,1,221,337.52Z"/><path class="cls-9" d="M243.05,337.08a3,3,0,0,1,0,.62c0,.46,0,1.05.05,1.78h-.21c-.09-4.15-.15-13.49-.15-24.34,0-7.36.05-14,.07-18.92,0-2.36.07-4.3.09-5.73,0-.63,0-1.14,0-1.56a1.88,1.88,0,0,1,.06-.54,2.24,2.24,0,0,1,0,.54c0,.42,0,.93.05,1.56,0,1.43,0,3.37.08,5.73,0,4.91.05,11.56.08,18.92,0,10.85-.07,20.19-.16,24.34h-.21c0-.73,0-1.32.05-1.78A2.5,2.5,0,0,1,243.05,337.08Z"/><path class="cls-9" d="M265.07,336.64a2.45,2.45,0,0,1,.06.61c0,.46,0,1.05.05,1.77H265c-.09-4.11-.16-13.37-.16-24.13,0-7.28.06-13.87.08-18.74,0-2.34.06-4.26.08-5.68,0-.62,0-1.13,0-1.54a2.24,2.24,0,0,1,.05-.54,1.88,1.88,0,0,1,.06.54c0,.41,0,.92,0,1.54,0,1.42.05,3.34.09,5.68,0,4.87,0,11.46.07,18.74,0,10.76-.06,20-.15,24.13H265c0-.72,0-1.31,0-1.77A2.25,2.25,0,0,1,265.07,336.64Z"/><path class="cls-9" d="M287.1,336.2a2.2,2.2,0,0,1,0,.6l.05,1.76H287c-.09-4.07-.15-13.25-.15-23.91,0-7.25,0-13.82.07-18.57,0-2.32.07-4.22.09-5.63,0-.62,0-1.12.05-1.53a1.69,1.69,0,0,1,.05-.53,2.19,2.19,0,0,1,0,.53c0,.41,0,.91.05,1.53,0,1.41.05,3.31.08,5.63.05,4.75.08,11.32.08,18.57,0,10.66-.06,19.84-.16,23.91H287c0-.72,0-1.3.05-1.76A2.41,2.41,0,0,1,287.1,336.2Z"/><path class="cls-9" d="M309.12,335.76a2.31,2.31,0,0,1,.06.6c0,.46,0,1,.05,1.74H309c-.09-4-.16-13.13-.16-23.69,0-7.19,0-13.69.08-18.4,0-2.3.06-4.18.08-5.58,0-.61,0-1.11.05-1.51a3.13,3.13,0,0,1,.05-.53,1.84,1.84,0,0,1,.06.53c0,.4,0,.9,0,1.51,0,1.4,0,3.28.09,5.58,0,4.71.07,11.21.07,18.4,0,10.56-.06,19.65-.15,23.69H309c0-.71,0-1.28.05-1.74A2.75,2.75,0,0,1,309.12,335.76Z"/><path class="cls-9" d="M331.15,335.41a2.08,2.08,0,0,1,.05.59c0,.46,0,1,.06,1.73H331c-.09-4-.15-13-.15-23.51,0-7.14,0-13.59.07-18.27,0-2.28.07-4.15.09-5.53,0-.61,0-1.11.05-1.51a1.65,1.65,0,0,1,0-.52,2.15,2.15,0,0,1,.05.52c0,.4,0,.9.05,1.51,0,1.38.05,3.25.08,5.53.05,4.68.08,11.13.08,18.27,0,10.48-.06,19.5-.15,23.51H331c0-.7,0-1.27,0-1.73A2.27,2.27,0,0,1,331.15,335.41Z"/><g class="cls-6"><path d="M132.57,421.23H116.14V276.73a8.22,8.22,0,0,1,8.21-8.21h0a8.22,8.22,0,0,1,8.22,8.21Z"/></g><g class="cls-6"><path d="M167.14,268.52h0a8.21,8.21,0,0,1,8.21,8.21v144.5a0,0,0,0,1,0,0H158.93a0,0,0,0,1,0,0V276.73a8.21,8.21,0,0,1,8.21-8.21Z"/></g><path class="cls-7" d="M123.61,421.23H107.19V267.78a8.2,8.2,0,0,1,8.21-8.21h0a8.21,8.21,0,0,1,8.21,8.21Z"/><path class="cls-7" d="M164.94,421.23H148.52V267.78a8.21,8.21,0,0,1,8.21-8.21h0a8.2,8.2,0,0,1,8.21,8.21Z"/><g class="cls-6"><polygon points="27.04 234.03 113.64 198.18 113.64 191.62 27.04 234.03"/></g><g class="cls-6"><polygon points="116.74 234.56 206.78 199.05 206.78 192.48 116.74 234.56"/></g><rect class="cls-8" x="20.87" y="210.64" width="102.21" height="2" transform="translate(-85.46 52.94) rotate(-25.99)"/><rect class="cls-8" x="108.85" y="212.29" width="102.73" height="2" transform="translate(-75.05 87.54) rotate(-24.96)"/><g class="cls-6"><path d="M50.85,267.17s0-.26,0-.72l0-2c0-1.75-.06-4.18-.1-7.16l.18.18L26,257.58l.26-.26h0v5c0,1.65,0,3.25,0,4.79l-.25-.25,17.71.11,5.19.07,1.41,0,.5,0a2.23,2.23,0,0,1-.44,0l-1.36,0-5.13.07L26,267.42h-.25v-.25c0-1.54,0-3.14,0-4.79v-5h0l.26-.26,24.81.08H51v.18l-.09,7.27,0,1.93A2.77,2.77,0,0,1,50.85,267.17Z"/></g><g class="cls-6"><rect x="37.24" y="247.51" width="24.81" height="9.85"/></g><g class="cls-6"><path d="M234.32,401.45s0-.26,0-.71,0-1.16,0-2c0-1.74-.06-4.17-.1-7.16l.18.19-24.81.07c-.23.24.32-.31.26-.25h0v5.05c0,1.64,0,3.24,0,4.78l-.25-.25,17.72.12,5.18.07,1.41,0,.5,0a2.11,2.11,0,0,1-.44,0l-1.35,0-5.13.07-17.89.12h-.25v-.25c0-1.54,0-3.14,0-4.78v-5.05h0c-.06.05.49-.5.26-.27l24.81.08h.19v.18c0,3-.08,5.5-.1,7.27,0,.8,0,1.44,0,1.94A2.71,2.71,0,0,1,234.32,401.45Z"/></g><g class="cls-6"><rect x="220.71" y="381.8" width="24.81" height="9.85"/></g><g class="cls-6"><path d="M84.38,371s0-.26,0-.71,0-1.16,0-2c0-1.74-.06-4.17-.1-7.16l.18.18-24.81.08.26-.26h0V371l-.25-.25,17.71.12,5.19.07,1.41,0,.5,0a2.23,2.23,0,0,1-.44,0l-1.36,0-5.13.07-17.88.12h-.25V371c0-1.54,0-3.14,0-4.79v-5h0l.26-.26,24.81.08h.19v.18c0,3-.07,5.5-.1,7.27,0,.8,0,1.44,0,1.93A3.76,3.76,0,0,1,84.38,371Z"/></g><g class="cls-6"><path d="M189,250.76s0-.26,0-.71,0-1.16,0-2c0-1.74-.06-4.17-.1-7.15l.18.18-24.81.08c-.24.23.31-.32.26-.26h0v5c0,1.64,0,3.24,0,4.78l-.24-.25,17.71.12,5.19.07,1.4,0,.51,0a2.29,2.29,0,0,1-.45,0l-1.35,0-5.13.06-17.88.12h-.25v-.25c0-1.54,0-3.14,0-4.78v-5h0l.27-.27,24.81.08h.18v.19c0,3-.07,5.49-.1,7.26,0,.8,0,1.44,0,1.94A5.49,5.49,0,0,1,189,250.76Z"/></g><g class="cls-6"><path d="M338.45,265.65s0-.26,0-.72,0-1.16,0-2c0-1.75-.06-4.18-.1-7.16l.18.18-24.81.08.26-.26h0v2.54c0,.84,0,1.68,0,2.5v4.79l-.25-.25,17.71.11,5.19.07,1.4,0,.51,0a2.29,2.29,0,0,1-.45,0l-1.35,0-5.13.07-17.88.12h-.25v-.25c0-1.54,0-3.14,0-4.79v-5h0l.26-.26,24.81.08h.18v.18c0,3-.07,5.5-.1,7.27,0,.8,0,1.44,0,1.93A3.76,3.76,0,0,1,338.45,265.65Z"/></g><g class="cls-6"><path d="M377.6,358.46a3.82,3.82,0,0,1,0-.71c0-.51,0-1.16-.05-2,0-1.74-.05-4.17-.1-7.16l.19.19-24.82.07c-.23.24.32-.31.26-.26h0v5.05c0,1.64,0,3.24,0,4.78l-.25-.25,17.72.12,5.19.07,1.4,0,.51,0a2.42,2.42,0,0,1-.45,0l-1.35,0-5.13.07-17.89.12h-.25v-.25c0-1.54,0-3.14,0-4.78v-5.05h0l.26-.26,24.82.08h.18v.18c0,3-.08,5.5-.1,7.27,0,.8,0,1.44-.05,1.94A4.89,4.89,0,0,1,377.6,358.46Z"/></g><g class="cls-6"><rect x="220.32" y="267.42" width="24.81" height="9.85"/></g><g class="cls-6"><rect x="338.45" y="246.2" width="24.81" height="9.85"/></g><rect class="cls-8" x="265.07" y="366.6" width="54.63" height="54.63"/><rect class="cls-7" x="662.52" y="408.74" width="20.35" height="6.38"/><polygon class="cls-8" points="648.3 405.85 648.3 414.29 655.25 414.29 658.03 410.25 708.77 410.25 708.77 405.85 648.3 405.85"/><path class="cls-9" d="M647.87,379.14a.53.53,0,0,0-.54-.49c-2.75.12-15.79.71-18.47,2-2.05,1-4.3,4.68-5.88,7.16-1.14,1.78-3.65,5.73-4.16,7.75a35.91,35.91,0,0,0-.66,7l.72,9.32H630.7l1.18-3.08a5.2,5.2,0,0,1,4.85-3.33h11.75V390Z"/><path class="cls-7" d="M627.46,381.68a35.6,35.6,0,0,0-4.48,6.13,43.47,43.47,0,0,0-4,7.27.49.49,0,0,0,0,.11,1.79,1.79,0,0,0,1.08-.64c.26-.52.59-2.29,4.7-9C626,383.53,627.18,382.34,627.46,381.68Z"/><path class="cls-8" d="M641.8,381c-3,.18-9.58.62-11.67,1.34-2.73.93-5.79,8.15-5.93,8.46l-2.06,5.28a.23.23,0,0,0,.22.3h5.33a1.7,1.7,0,0,0,.59-.1l14-5.23a1.61,1.61,0,0,0,1.05-1.52v-7.06A1.48,1.48,0,0,0,641.8,381Z"/><path class="cls-7" d="M622.73,395.86s2-4.44,2.64-5.89c1-2.19,3.35-6.68,4.93-7.15a68.82,68.82,0,0,1,11.53-1.31h0a1,1,0,0,1,1,.95v7.22a.86.86,0,0,1-.56.82l-10.36,1.28a2.88,2.88,0,0,0-2.06,1.28l-1.79,2.74a1,1,0,0,1-.33.06Z"/><path class="cls-8" d="M631.53,391.86,628,395.78l1.94-13,.49-.17-1,9.65a.28.28,0,0,0,.39.29Z"/><path class="cls-2" d="M617.93,403.49c0-.17.05-.31.13-.32L620,403c.16,0,.3.27.32.62l.08,1.45c0,.23-.05.43-.16.45l-1.92.33c-.09,0-.17-.11-.18-.28Z"/><rect class="cls-8" x="617.93" y="410.25" width="13.6" height="5.45"/><path class="cls-8" d="M632.89,413.86a7.44,7.44,0,1,0,7.55-7.34A7.44,7.44,0,0,0,632.89,413.86Z"/><path class="cls-8" d="M632.89,413.84v0a7.44,7.44,0,1,0,14.88.21v0Z"/><path class="cls-4" d="M635.11,413.89a5.23,5.23,0,1,0,5.3-5.15A5.23,5.23,0,0,0,635.11,413.89Z"/><path class="cls-3" d="M640.41,408.74a5.22,5.22,0,0,0-5.3,5.15l10.45.15A5.23,5.23,0,0,0,640.41,408.74Z"/><path class="cls-8" d="M637.15,413.92a3.18,3.18,0,1,0,3.23-3.14A3.18,3.18,0,0,0,637.15,413.92Z"/><rect class="cls-8" x="624.05" y="385.72" width="3.09" height="7.4" rx="1.39"/><path class="cls-8" d="M622.77,397.7h-.15v-7.83a1.41,1.41,0,0,1,1.41-1.4h.37v.15H624a1.25,1.25,0,0,0-1.26,1.25Z"/><path class="cls-8" d="M623.83,397.71l-.43-7.32a.87.87,0,0,1,.25-.68.88.88,0,0,1,.67-.29v.15a.8.8,0,0,0-.56.24.81.81,0,0,0-.21.57l.44,7.32Z"/><rect class="cls-8" x="622.23" y="397" width="2.09" height="2.42"/><rect class="cls-8" x="622.69" y="392.4" width="0.85" height="0.16"/><path class="cls-8" d="M630.65,381.2l.18,0,.55-.07,2.11-.24,7.87-.89c.42-.05.84-.11,1.28-.15a2.57,2.57,0,0,1,.68.05,2.69,2.69,0,0,1,.65.24,2.47,2.47,0,0,1,1,1,2.2,2.2,0,0,1,.22.7,2.34,2.34,0,0,1,0,.38v.37c0,2,0,4.16,0,6.44v15.09H637a8.16,8.16,0,0,0-1.4.07,5.23,5.23,0,0,0-1.34.37,5.54,5.54,0,0,0-2.95,3.05,5.08,5.08,0,0,0-.17.51c0,.18-.1.35-.12.52l0,.27,0,.13v.13l0,.27v.15l0,0H620.57V397.42c0-.25,0-.49.06-.74a7.31,7.31,0,0,1,.88-2.67c.42-.8.84-1.58,1.23-2.33.8-1.49,1.54-2.87,2.2-4.12l1.79-3.35c.13-.24.25-.48.38-.71s.11-.22.18-.33a1.94,1.94,0,0,1,.21-.29,4.27,4.27,0,0,1,.94-.88,4.77,4.77,0,0,1,1.61-.7,3.8,3.8,0,0,1,.6-.1l-.15,0-.45.08a5,5,0,0,0-1.6.71,4.46,4.46,0,0,0-.93.88l-.21.29c-.06.1-.11.22-.18.33l-.37.71L625,387.58l-2.19,4.13c-.39.75-.8,1.52-1.23,2.33a7.33,7.33,0,0,0-.87,2.65,6,6,0,0,0-.05.73c0,.24,0,.49,0,.74v11.43l0,0h10.33l0,0v-.16l0-.27V409l0-.13,0-.27a5,5,0,0,1,.12-.53,5.34,5.34,0,0,1,.18-.52,5.48,5.48,0,0,1,4.35-3.47A8.33,8.33,0,0,1,637,404h8.13l0,0V382.59a4.54,4.54,0,0,0,0-.74,2,2,0,0,0-.22-.68,2.35,2.35,0,0,0-.95-1,3,3,0,0,0-.63-.24,2.1,2.1,0,0,0-.66,0l-1.29.14-7.87.87-2.11.23-.55.06Z"/><path class="cls-8" d="M642.74,398.36l.12,0a.86.86,0,0,0,.32-.12.83.83,0,0,0,.32-.43.72.72,0,0,0,0-.33.8.8,0,0,0-.09-.36.82.82,0,0,0-.7-.43h-3.37a.79.79,0,0,0-.79.7.9.9,0,0,0,.09.54.83.83,0,0,0,.39.35,1.26,1.26,0,0,0,.51.06H641l1.29,0h-2.94a.67.67,0,0,1-.28-.06.84.84,0,0,1-.42-.37,1,1,0,0,1-.11-.58.88.88,0,0,1,.87-.78h3.37a.86.86,0,0,1,.75.46.92.92,0,0,1,.09.39.83.83,0,0,1-.05.35.82.82,0,0,1-.35.43.83.83,0,0,1-.33.12Z"/><path class="cls-5" d="M642.45,396.41a11.71,11.71,0,0,1-1.33,0,11.56,11.56,0,0,1-1.33,0,11.56,11.56,0,0,1,1.33,0A11.71,11.71,0,0,1,642.45,396.41Z"/><path class="cls-8" d="M632.15,415.75l-1.24-.09c.33-4.45.8-7.11,1.46-8.13a5,5,0,0,1,3.88-2.57,18.33,18.33,0,0,1,3.84-.11h.31c2.59.1,8,0,8.07,0l0,1.24c-.06,0-5.52.09-8.14,0H640a17.1,17.1,0,0,0-3.58.1,3.73,3.73,0,0,0-3.05,2C633.11,408.66,632.55,410.27,632.15,415.75Z"/><rect class="cls-7" x="649.13" y="365.08" width="61.17" height="40.73"/><path class="cls-8" d="M709.56,405c0-.26,0-15.2,0-39l0,0H649.78l0,0v39l0,0,59.78,0-59.78,0h0V366H709.6v0C709.58,389.8,709.56,404.74,709.56,405Z"/><path class="cls-4" d="M640.43,384.37l-.06.05-.17.12-.64.44c-.54.37-1.3.87-2.14,1.4s-1.61,1-2.17,1.36l-.66.4-.19.1-.07,0,.06,0,.18-.12.65-.42,2.16-1.37,2.15-1.39.65-.42.18-.11Z"/><path class="cls-4" d="M637.78,385.07l-.06.05-.17.12-.64.44c-.54.37-1.3.87-2.14,1.41l-2.17,1.35-.66.4-.19.1-.06,0,.06,0,.17-.12.65-.42,2.16-1.37,2.15-1.39.65-.42.18-.11Z"/><path class="cls-4" d="M624.71,389.59s0,0-.05-.14-.06-.22-.1-.38a5.37,5.37,0,0,1-.16-1.29,2.72,2.72,0,0,1,.29-1.26,1.86,1.86,0,0,1,.22-.33c.06-.07.1-.1.11-.1s-.13.16-.28.46a2.92,2.92,0,0,0-.26,1.23,6.07,6.07,0,0,0,.14,1.28C624.68,389.39,624.72,389.59,624.71,389.59Z"/><path class="cls-4" d="M618.39,400.6a.54.54,0,0,1,0-.18c0-.11,0-.27,0-.47,0-.4,0-.95.09-1.56s.1-1.15.15-1.55c0-.19,0-.35.07-.46l0-.17s0,.06,0,.17l0,.47c0,.42-.08.95-.13,1.55s-.08,1.14-.11,1.55c0,.19,0,.35,0,.47S618.39,400.6,618.39,400.6Z"/><path class="cls-4" d="M635.4,403.61s-.3.06-.76.21a5.32,5.32,0,0,0-.8.32,8.82,8.82,0,0,0-.89.54,8,8,0,0,0-.79.7,5.63,5.63,0,0,0-.54.66c-.28.39-.41.67-.43.66l.09-.19a1,1,0,0,1,.12-.22,3.09,3.09,0,0,1,.17-.29,7.92,7.92,0,0,1,.54-.68,6.14,6.14,0,0,1,.79-.7,7.6,7.6,0,0,1,.91-.55,5.53,5.53,0,0,1,.81-.3l.32-.09.25-.05Z"/><path class="cls-4" d="M650.69,394.24V394c0-.17,0-.42,0-.75,0-.66,0-1.6,0-2.77,0-2.34-.1-5.57-.16-9.13s-.12-6.8-.14-9.14c0-1.17,0-2.12,0-2.77v-1a.17.17,0,0,1,0-.07v.26c0,.18,0,.43,0,.76,0,.65,0,1.6,0,2.77,0,2.34.1,5.57.16,9.13s.12,6.8.14,9.14c0,1.17,0,2.12,0,2.77v1Z"/><path class="cls-8" d="M687.87,413.86a7.44,7.44,0,1,0,7.55-7.34A7.44,7.44,0,0,0,687.87,413.86Z"/><path class="cls-8" d="M687.87,413.84v0a7.44,7.44,0,1,0,14.88.21v0Z"/><path class="cls-4" d="M690.08,413.89a5.23,5.23,0,1,0,5.3-5.15A5.23,5.23,0,0,0,690.08,413.89Z"/><path class="cls-3" d="M695.38,408.74a5.23,5.23,0,0,0-5.3,5.15l10.45.15A5.21,5.21,0,0,0,695.38,408.74Z"/><path class="cls-8" d="M692.13,413.92a3.18,3.18,0,1,0,3.23-3.14A3.18,3.18,0,0,0,692.13,413.92Z"/><path class="cls-7" d="M685.53,416s-1.14-10.55,9.8-10.55c10.1,0,9.87,9.08,9.77,10.48h-1.58s.81-8.95-8.19-8.95-8.21,9.13-8.21,9.13S686.45,416.08,685.53,416Z"/><path class="cls-4" d="M691.39,406.54l-.09,0-.25.08a8.16,8.16,0,0,0-.89.34,7.28,7.28,0,0,0-2.48,1.9,7.2,7.2,0,0,0-1.43,2.77,6.64,6.64,0,0,0-.19.93,1.58,1.58,0,0,0,0,.26.66.66,0,0,1,0,.09v-.09a1.38,1.38,0,0,1,0-.26,6,6,0,0,1,.16-.95,7.18,7.18,0,0,1,1.43-2.81,7.08,7.08,0,0,1,2.52-1.89,6.8,6.8,0,0,1,.9-.32c.11,0,.2-.05.26-.07Z"/><rect class="cls-7" x="617.38" y="408.74" width="20.35" height="6.38"/><polygon class="cls-8" points="603.16 405.85 603.16 414.29 610.11 414.29 612.89 410.25 663.63 410.25 663.63 405.85 603.16 405.85"/><path class="cls-9" d="M602.73,379.14a.53.53,0,0,0-.54-.49c-2.75.12-15.79.71-18.47,2-2.05,1-4.3,4.68-5.88,7.16-1.14,1.78-3.65,5.73-4.16,7.75a35.91,35.91,0,0,0-.66,7l.72,9.32h11.82l1.18-3.08a5.2,5.2,0,0,1,4.85-3.33h11.75V390Z"/><path class="cls-7" d="M582.32,381.68a36.14,36.14,0,0,0-4.48,6.13,43.47,43.47,0,0,0-4,7.27.49.49,0,0,0,0,.11,1.79,1.79,0,0,0,1.08-.64c.26-.52.59-2.29,4.7-9C580.82,383.53,582,382.34,582.32,381.68Z"/><path class="cls-8" d="M596.66,381c-3,.18-9.58.62-11.67,1.34-2.72.93-5.78,8.15-5.93,8.46L577,396.07a.23.23,0,0,0,.22.3h5.33a1.7,1.7,0,0,0,.59-.1l14-5.23a1.61,1.61,0,0,0,1.05-1.52v-7.06A1.48,1.48,0,0,0,596.66,381Z"/><path class="cls-7" d="M577.59,395.86s2-4.44,2.64-5.89c1-2.19,3.35-6.68,4.93-7.15a68.82,68.82,0,0,1,11.53-1.31h0a1,1,0,0,1,1,.95v7.22a.86.86,0,0,1-.56.82l-10.36,1.28a2.88,2.88,0,0,0-2.06,1.28l-1.79,2.74a1,1,0,0,1-.33.06Z"/><path class="cls-8" d="M586.39,391.86l-3.52,3.92,2-13,.48-.17-1,9.65a.28.28,0,0,0,.39.29Z"/><path class="cls-2" d="M572.79,403.49c0-.17.05-.31.13-.32l1.89-.17c.16,0,.3.27.32.62l.08,1.45c0,.23-.05.43-.16.45l-1.92.33c-.09,0-.17-.11-.18-.28Z"/><rect class="cls-8" x="572.79" y="410.25" width="13.6" height="5.45"/><path class="cls-8" d="M587.75,413.86a7.44,7.44,0,1,0,7.55-7.34A7.45,7.45,0,0,0,587.75,413.86Z"/><path class="cls-8" d="M587.75,413.84v0a7.44,7.44,0,1,0,14.88.21v0Z"/><path class="cls-4" d="M590,413.89a5.23,5.23,0,1,0,5.3-5.15A5.23,5.23,0,0,0,590,413.89Z"/><path class="cls-3" d="M595.27,408.74a5.22,5.22,0,0,0-5.3,5.15l10.45.15A5.23,5.23,0,0,0,595.27,408.74Z"/><path class="cls-8" d="M592,413.92a3.19,3.19,0,1,0,3.23-3.14A3.18,3.18,0,0,0,592,413.92Z"/><rect class="cls-8" x="578.91" y="385.72" width="3.09" height="7.4" rx="1.39"/><path class="cls-8" d="M577.63,397.7h-.15v-7.83a1.41,1.41,0,0,1,1.41-1.4h.37v.15h-.37a1.26,1.26,0,0,0-1.26,1.25Z"/><path class="cls-8" d="M578.69,397.71l-.43-7.32a.87.87,0,0,1,.25-.68.9.9,0,0,1,.67-.29v.15a.8.8,0,0,0-.56.24.81.81,0,0,0-.21.57l.44,7.32Z"/><rect class="cls-8" x="577.09" y="397" width="2.09" height="2.42"/><rect class="cls-8" x="577.56" y="392.4" width="0.85" height="0.16"/><path class="cls-8" d="M585.51,381.2l.18,0,.55-.07,2.11-.24,7.87-.89c.42-.05.84-.11,1.29-.15a2.53,2.53,0,0,1,.67.05,2.69,2.69,0,0,1,.65.24,2.41,2.41,0,0,1,1,1,2.2,2.2,0,0,1,.22.7,2.33,2.33,0,0,1,0,.38v21.9H591.9a8.16,8.16,0,0,0-1.4.07,5.23,5.23,0,0,0-1.34.37,5.58,5.58,0,0,0-2.95,3.05,5.08,5.08,0,0,0-.17.51c0,.18-.1.35-.12.52l0,.27,0,.13v.13l0,.27v.15s-.05.05-.05,0H575.43V397.42c0-.25,0-.49.06-.74a7.31,7.31,0,0,1,.88-2.67c.42-.8.84-1.58,1.24-2.33l2.19-4.12,1.79-3.35.38-.71c.06-.11.11-.22.18-.33a1.94,1.94,0,0,1,.21-.29,4.27,4.27,0,0,1,.94-.88,4.77,4.77,0,0,1,1.61-.7,3.8,3.8,0,0,1,.6-.1l-.15,0-.45.08a5.11,5.11,0,0,0-1.6.71,4.46,4.46,0,0,0-.93.88,3,3,0,0,0-.2.29,3.47,3.47,0,0,0-.18.33l-.38.71c-.52,1-1.11,2.1-1.78,3.35l-2.18,4.13L576.42,394a7.33,7.33,0,0,0-.87,2.65c0,.24,0,.49,0,.73v12.17l0,0h10.32s-.07.07,0,0v-.16l0-.27V409l0-.13,0-.27a5,5,0,0,1,.12-.53,5.34,5.34,0,0,1,.18-.52,5.59,5.59,0,0,1,3-3.09,5.4,5.4,0,0,1,1.36-.38,8.33,8.33,0,0,1,1.41-.07H600l0,0V389c0-2.28,0-4.44,0-6.44a4.53,4.53,0,0,0,0-.74,2.24,2.24,0,0,0-.21-.68,2.44,2.44,0,0,0-1-1,2.82,2.82,0,0,0-.63-.24,2.1,2.1,0,0,0-.66,0l-1.29.14-7.87.87-2.11.23-.55.06Z"/><path class="cls-8" d="M597.6,398.36l.12,0a.86.86,0,0,0,.32-.12.83.83,0,0,0,.32-.43.72.72,0,0,0,0-.33.8.8,0,0,0-.09-.36.82.82,0,0,0-.7-.43h-3.37a.79.79,0,0,0-.79.7.9.9,0,0,0,.09.54.87.87,0,0,0,.39.35,1.26,1.26,0,0,0,.51.06h1.39l1.29,0h-2.94a.63.63,0,0,1-.27-.06.86.86,0,0,1-.43-.37,1,1,0,0,1-.11-.58.88.88,0,0,1,.87-.78h3.37a.86.86,0,0,1,.75.46.92.92,0,0,1,.09.39.83.83,0,0,1-.05.35.82.82,0,0,1-.35.43.83.83,0,0,1-.33.12Z"/><path class="cls-5" d="M597.31,396.41a11.71,11.71,0,0,1-1.33,0,11.56,11.56,0,0,1-1.33,0,11.56,11.56,0,0,1,1.33,0A11.71,11.71,0,0,1,597.31,396.41Z"/><path class="cls-8" d="M587,415.75l-1.24-.09c.33-4.45.8-7.11,1.46-8.13a5,5,0,0,1,3.88-2.57,18.33,18.33,0,0,1,3.84-.11h.31c2.59.1,8,0,8.07,0l0,1.24c-.06,0-5.52.09-8.14,0h-.31a17.1,17.1,0,0,0-3.58.1,3.74,3.74,0,0,0-3.05,2C588,408.66,587.41,410.27,587,415.75Z"/><rect class="cls-9" x="603.99" y="365.08" width="61.17" height="40.73"/><path class="cls-8" d="M664.42,405c0-.26,0-15.2,0-39l0,0H604.64l0,0v39l0,0,59.78,0-59.78,0h0v0c0-11.94,0-25.13,0-39v0h59.86v0C664.44,389.8,664.42,404.74,664.42,405Z"/><path class="cls-4" d="M595.29,384.37l-.06.05-.17.12-.64.44c-.54.37-1.3.87-2.14,1.4s-1.61,1-2.17,1.36l-.66.4-.19.1-.06,0s0,0,0,0l.18-.12.65-.42,2.16-1.37,2.15-1.39.65-.42.18-.11Z"/><path class="cls-4" d="M592.64,385.07l-.06.05-.17.12-.64.44c-.54.37-1.29.87-2.14,1.41l-2.17,1.35-.66.4-.19.1-.06,0,.06,0,.17-.12.65-.42,2.16-1.37,2.15-1.39.65-.42.18-.11Z"/><path class="cls-4" d="M579.57,389.59s0,0-.05-.14-.06-.22-.1-.38a5.37,5.37,0,0,1-.16-1.29,2.72,2.72,0,0,1,.29-1.26,1.86,1.86,0,0,1,.22-.33l.11-.1a4.3,4.3,0,0,0-.27.46,2.77,2.77,0,0,0-.27,1.23,6.82,6.82,0,0,0,.14,1.28C579.54,389.39,579.58,389.59,579.57,389.59Z"/><path class="cls-4" d="M573.25,400.6a.54.54,0,0,1,0-.18c0-.11,0-.27,0-.47,0-.4,0-.95.09-1.56s.11-1.15.16-1.55c0-.19,0-.35.06-.46s0-.17,0-.17,0,.06,0,.17,0,.29,0,.47c0,.42-.08.95-.13,1.55s-.08,1.14-.11,1.55c0,.19,0,.35,0,.47S573.26,400.6,573.25,400.6Z"/><path class="cls-4" d="M590.26,403.61s-.3.06-.76.21a5.32,5.32,0,0,0-.8.32,8.82,8.82,0,0,0-.89.54,8,8,0,0,0-.79.7,5.63,5.63,0,0,0-.54.66c-.28.39-.41.67-.43.66l.09-.19a1.64,1.64,0,0,1,.12-.22,3.09,3.09,0,0,1,.17-.29,7.92,7.92,0,0,1,.54-.68,6.14,6.14,0,0,1,.79-.7,7.6,7.6,0,0,1,.91-.55,5.53,5.53,0,0,1,.81-.3l.32-.09.25-.05Z"/><path class="cls-4" d="M605.55,394.24V394c0-.17,0-.42,0-.75,0-.66,0-1.6,0-2.77,0-2.34-.1-5.57-.16-9.13s-.12-6.8-.14-9.14c0-1.17,0-2.12,0-2.77v-1a.42.42,0,0,0,0-.07v.26c0,.18,0,.43,0,.76,0,.65,0,1.6,0,2.77,0,2.34.1,5.57.16,9.13s.12,6.8.14,9.14c0,1.17,0,2.12,0,2.77v1Z"/><path class="cls-8" d="M642.73,413.86a7.44,7.44,0,1,0,7.55-7.34A7.44,7.44,0,0,0,642.73,413.86Z"/><path class="cls-8" d="M642.73,413.84v0a7.44,7.44,0,1,0,14.88.21v0Z"/><path class="cls-4" d="M645,413.89a5.23,5.23,0,1,0,5.3-5.15A5.22,5.22,0,0,0,645,413.89Z"/><path class="cls-3" d="M650.25,408.74a5.22,5.22,0,0,0-5.3,5.15l10.45.15A5.23,5.23,0,0,0,650.25,408.74Z"/><path class="cls-8" d="M647,413.92a3.18,3.18,0,1,0,3.23-3.14A3.18,3.18,0,0,0,647,413.92Z"/><path class="cls-7" d="M640.39,416s-1.14-10.55,9.8-10.55c10.1,0,9.87,9.08,9.78,10.48h-1.59s.81-8.95-8.19-8.95-8.21,9.13-8.21,9.13S641.31,416.08,640.39,416Z"/><path class="cls-4" d="M646.25,406.54l-.09,0-.25.08a8.16,8.16,0,0,0-.89.34,7.28,7.28,0,0,0-2.48,1.9,7.2,7.2,0,0,0-1.43,2.77,6.64,6.64,0,0,0-.19.93c0,.11,0,.2,0,.26a.66.66,0,0,1,0,.09v-.09c0-.06,0-.15,0-.26a7.44,7.44,0,0,1,.16-.95,7.18,7.18,0,0,1,1.43-2.81,7.08,7.08,0,0,1,2.52-1.89,6.8,6.8,0,0,1,.9-.32c.11,0,.2-.05.26-.07Z"/></g></g></svg>