<?xml version="1.0" encoding="utf-8"?>
<!-- Generator: Adobe Illustrator 26.3.1, SVG Export Plug-In . SVG Version: 6.00 Build 0)  -->
<svg version="1.1" id="Layer_1" xmlns="http://www.w3.org/2000/svg" xmlns:xlink="http://www.w3.org/1999/xlink" x="0px" y="0px"
	 viewBox="0 0 512 512" style="enable-background:new 0 0 512 512;" xml:space="preserve">
<style type="text/css">
	.st0{fill-rule:evenodd;clip-rule:evenodd;fill:#F58220;}
</style>
<path class="st0" d="M498.6,484.2H460V164.1c0-7.4-6-13.4-13.5-13.4h-81.8c-7.4,0-13.4,6-13.4,13.4c0,0,0,0,0,0v320.1h-45V281.8
	c0-7.4-6-13.4-13.4-13.4c0,0,0,0,0,0h-81.8c-7.4,0-13.4,6-13.4,13.4c0,0,0,0,0,0v202.4h-45V357.7c0-7.4-6-13.4-13.4-13.4
	c0,0,0,0,0,0H57.6c-7.4,0-13.4,6-13.4,13.4c0,0,0,0,0,0v126.6H13.4c-7.4,0-13.4,6-13.4,13.4C0,505,6,511,13.4,511h485.2
	c7.4,0,13.4-6,13.4-13.4C512,490.2,506,484.2,498.6,484.2L498.6,484.2z M41.3,272.4c-5.2-5.2-5.2-13.7,0-19L170,124.7
	c5.2-5.2,13.6-5.3,18.9-0.1l60.5,59.5L362.7,34l-34.2,6.9c-7.3,1.5-14.3-3.2-15.8-10.5s3.2-14.3,10.5-15.8l66.4-13.4
	c7.3-1.4,14.3,3.2,15.8,10.5l13.4,66.4c1.4,7.3-3.3,14.3-10.6,15.8c-7.2,1.4-14.3-3.2-15.8-10.4l-7-35L261.6,212.5
	c-4.5,5.9-12.9,7.1-18.8,2.6c-0.5-0.4-0.9-0.7-1.3-1.2l-62-60.9L60.3,272.4C55,277.6,46.5,277.6,41.3,272.4L41.3,272.4z"/>
</svg>
