<?xml version="1.0" encoding="utf-8"?>
<!-- Generator: Adobe Illustrator 26.3.1, SVG Export Plug-In . SVG Version: 6.00 Build 0)  -->
<svg version="1.1"
	 id="Layer_1" text-rendering="geometricPrecision" shape-rendering="geometricPrecision" image-rendering="optimizeQuality"
	 xmlns="http://www.w3.org/2000/svg" xmlns:xlink="http://www.w3.org/1999/xlink" x="0px" y="0px" viewBox="0 0 512 512"
	 style="enable-background:new 0 0 512 512;" xml:space="preserve">
<style type="text/css">
	.st0{fill-rule:evenodd;clip-rule:evenodd;fill:#F58220;}
</style>
<g id="Layer_x0020_1">
	<path class="st0" d="M124.6,495H48.4c-4.8,0-8.6-3.9-8.6-8.6v-82.1H10.3c-3.3,0-6.4-1.9-7.8-5c-1.4-3-1-6.6,1.2-9.2l76.2-90.8
		c1.6-2,4.1-3.1,6.6-3.1c2.6,0,5,1.1,6.6,3.1l75.9,90.4c1.5,1.5,2.4,3.6,2.4,5.9c0,4.8-3.9,8.6-8.6,8.6c0,0,0,0,0,0h-29.5v82.1
		C133.2,491.2,129.3,495,124.6,495z"/>
	<path class="st0" d="M463.6,495h-76.2c-4.8,0-8.6-3.9-8.6-8.6v-82.1h-29.5c-3.4,0-6.4-1.9-7.9-5c-1.4-3-0.9-6.6,1.2-9.2l76.2-90.8
		c1.6-2,4.1-3.1,6.6-3.1c2.6,0,5,1.1,6.6,3.1l75.9,90.4c1.4,1.5,2.4,3.6,2.4,5.9c0,4.8-3.9,8.6-8.6,8.6c0,0,0,0,0,0h-29.5v82.1
		C472.2,491.2,468.4,495,463.6,495z"/>
	<path class="st0" d="M287.4,371.6h-62.8c-4.3,0-8-3.2-8.6-7.5l-6.5-49.4c-12.5-4.8-24.1-11.5-34.6-20l-46.1,19.1
		c-4,1.6-8.6,0.1-10.8-3.7l-31.4-54.4c-2.2-3.7-1.2-8.5,2.2-11.2l39.6-30.3c-1-6.6-1.5-13.3-1.5-20s0.5-13.4,1.5-20L89,144
		c-3.5-2.6-4.4-7.4-2.2-11.2l31.4-54.4c2.2-3.7,6.8-5.3,10.8-3.7L175,93.9c10.5-8.5,22.1-15.2,34.6-20l6.5-49.4
		c0.6-4.3,4.2-7.5,8.6-7.5h62.8c4.3,0,8,3.2,8.6,7.5l6.5,49.4c12.5,4.8,24.1,11.5,34.6,20l46.1-19.1c4-1.6,8.6-0.1,10.8,3.7
		l31.4,54.4c2.2,3.8,1.2,8.6-2.2,11.2l-39.6,30.3c1,6.6,1.5,13.3,1.5,20c0,6.7-0.5,13.4-1.5,20l39.6,30.3c3.4,2.6,4.4,7.4,2.2,11.2
		l-31.4,54.4c-2.2,3.8-6.8,5.3-10.8,3.7L337,294.7c-10.5,8.4-22.1,15.2-34.6,20l-6.5,49.4C295.4,368.4,291.7,371.6,287.4,371.6z
		 M256,282.9c15.8,0,30.6-4.1,43.4-11.4c0.4-0.2,0.7-0.4,1-0.6c26.4-15.4,44.2-44,44.2-76.6c0-48.9-39.7-88.6-88.6-88.6
		s-88.6,39.7-88.6,88.6c0,32.7,17.8,61.3,44.2,76.6c0.3,0.2,0.7,0.4,1,0.6C225.4,278.8,240.2,282.9,256,282.9z M256,114.3
		c44.1,0,80,35.9,80,80c0,26.9-13.4,50.8-33.8,65.3v-37.9c0-2.4-2-4.3-4.3-4.3c-2.4,0-4.3,2-4.3,4.3v43.2c-10,5.3-21.2,8.6-33.2,9.2
		v-79.9c0-2.4-1.9-4.3-4.3-4.3c-2.4,0-4.3,2-4.3,4.3v79.9c-11.9-0.7-23.2-3.9-33.1-9.2v-89.5c0-2.4-1.9-4.3-4.3-4.3
		c-2.4,0-4.3,1.9-4.3,4.3v84.1c-20.5-14.5-33.8-38.4-33.8-65.3C176,150.2,211.9,114.3,256,114.3z"/>
	<path class="st0" d="M350.7,495H161.3c-4.8,0-8.6-3.9-8.6-8.6v-57.7c0-4.8,3.9-8.6,8.6-8.6h189.4c4.8,0,8.6,3.9,8.6,8.6v57.7
		C359.3,491.2,355.4,495,350.7,495z"/>
</g>
</svg>
