<?xml version="1.0" encoding="utf-8"?>
<!-- Generator: Adobe Illustrator 26.3.1, SVG Export Plug-In . SVG Version: 6.00 Build 0)  -->
<svg version="1.1" id="Layer_1" xmlns="http://www.w3.org/2000/svg" xmlns:xlink="http://www.w3.org/1999/xlink" x="0px" y="0px"
	 viewBox="0 0 615 615" style="enable-background:new 0 0 615 615;" xml:space="preserve">
<style type="text/css">
	.st0{fill:#F58220;}
</style>
<path class="st0" d="M119.4,242.3h43.7v52.4h-43.7V242.3z"/>
<path class="st0" d="M84.4,526.9h217.2c-8.8-19.2-13.4-40.1-13.4-61.2c0-2.1,0.1-5,0.1-6.2H109.2c-4.8,0-8.7-3.9-8.7-8.7
	c0-4.8,3.9-8.7,8.7-8.7h180.9c11.4-71.6,73.3-124.3,145.8-124.1c2.7,0,5.5-0.2,8-0.1V146.3h-91.3c-17.7-0.2-32.1-14.6-32.3-32.3V19
	H84.4C63.7,19,47,35.7,47,56.3v433C47,510,63.7,526.7,84.4,526.9z M310.3,198.7c0-4.8,3.9-8.7,8.7-8.7h61.1c4.8,0,8.7,3.9,8.7,8.7
	v104.8c0,4.8-3.9,8.7-8.7,8.7H319c-4.8,0-8.7-3.9-8.7-8.7V198.7z M206.7,141.3c0-4.8,3.9-8.7,8.7-8.7h61.1c4.8,0,8.7,3.9,8.7,8.7
	v162.2c0,4.8-3.9,8.7-8.7,8.7h-61.1c-4.8,0-8.7-3.9-8.7-8.7V141.3z M101.9,233.6c0-4.8,3.9-8.7,8.7-8.7h61.1c4.8,0,8.7,3.9,8.7,8.7
	v69.9c0,4.8-3.9,8.7-8.7,8.7h-61.1c-4.8,0-8.7-3.9-8.7-8.7V233.6z M109.2,379.6H268c4.8,0,8.7,3.9,8.7,8.7c0,4.8-3.9,8.7-8.7,8.7
	H109.2c-4.8,0-8.7-3.9-8.7-8.7C100.5,383.5,104.4,379.6,109.2,379.6z"/>
<path class="st0" d="M224.2,150h42.4v144.8h-42.4V150z"/>
<path class="st0" d="M327.8,207.4h43.7v87.4h-43.7V207.4z"/>
<path class="st0" d="M352.6,128.8h79.4l-94.1-97v82.2C338,122,344.5,128.6,352.6,128.8z"/>
<path class="st0" d="M355.2,517.9l69.9,22.7V437.9l-69.9-22.7V517.9z"/>
<path class="st0" d="M442.6,541.1l72.4-23.2V415.2l-72.4,23.2V541.1z"/>
<path class="st0" d="M434.6,383.7l-60.2,19.4l60.2,19.4l60.2-19.4L434.6,383.7z"/>
<path class="st0" d="M566.1,465.3c0-71.9-58.3-130.3-130.2-130.3c-71.9,0-130.2,58.3-130.2,130.3c0,71.9,58.3,130.2,130.2,130.2
	C507.8,595.5,566.1,537.2,566.1,465.3z M437.3,561.1c-0.9,0.3-1.7,0.4-2.6,0.4c-0.9,0-1.8-0.1-2.6-0.4l-88.6-28.6
	c-3.5-1.2-5.9-4.6-5.8-8.3V403.2c-0.1-3.7,2.2-7.1,5.8-8.3l88.4-28.6c1.8-0.6,3.7-0.6,5.4,0l88.8,28.6c3.7,1.1,6.2,4.5,6.2,8.3
	v121.1c-0.1,3.8-2.6,7.2-6.2,8.3L437.3,561.1z"/>
</svg>
