<?xml version="1.0" encoding="utf-8"?>
<!-- Generator: Adobe Illustrator 26.3.1, SVG Export Plug-In . SVG Version: 6.00 Build 0)  -->
<svg version="1.1" id="Layer_1" xmlns="http://www.w3.org/2000/svg" xmlns:xlink="http://www.w3.org/1999/xlink" x="0px" y="0px"
	 viewBox="0 0 512 512" style="enable-background:new 0 0 512 512;" xml:space="preserve">
<style type="text/css">
	.st0{fill:#F58220;}
</style>
<g>
	<path class="st0" d="M383,473.8h-37v-35.5H166v35.5h-37c-8.3,0-15,6.7-15,15s6.7,15,15,15h254c8.3,0,15-6.7,15-15
		S391.3,473.8,383,473.8z"/>
	<path class="st0" d="M0,378.2c0,16.5,13.5,30,30,30h452c16.5,0,30-13.5,30-30v-30H0V378.2z"/>
	<path class="st0" d="M482,8.2H30c-16.5,0-30,13.5-30,30v280h512v-280C512,21.7,498.5,8.2,482,8.2z M356,143.3c0,8.3-6.7,15-15,15
		H175c-8.3,0-15-6.7-15-15s6.7-15,15-15h166C349.3,128.3,356,135,356,143.3z M135,68.3h63c8.3,0,15,6.7,15,15s-6.7,15-15,15h-63
		c-8.3,0-15-6.7-15-15S126.7,68.3,135,68.3z M75,278.3c-8.3,0-15-6.7-15-15c0-8.3,6.7-15,15-15s15,6.7,15,15
		C90,271.5,83.3,278.3,75,278.3z M75,218.3c-8.3,0-15-6.7-15-15c0-8.3,6.7-15,15-15s15,6.7,15,15C90,211.5,83.3,218.3,75,218.3z
		 M75,158.3c-8.3,0-15-6.7-15-15c0-8.3,6.7-15,15-15s15,6.7,15,15C90,151.5,83.3,158.3,75,158.3z M75,98.3c-8.3,0-15-6.7-15-15
		c0-8.3,6.7-15,15-15s15,6.7,15,15C90,91.5,83.3,98.3,75,98.3z M198,278.3h-63c-8.3,0-15-6.7-15-15s6.7-15,15-15h63
		c8.3,0,15,6.7,15,15S206.3,278.3,198,278.3z M245,218.3h-70c-8.3,0-15-6.7-15-15s6.7-15,15-15h70c8.3,0,15,6.7,15,15
		S253.3,218.3,245,218.3L245,218.3z M348.5,218.3h-51.8c-8.3,0-15-6.7-15-15s6.7-15,15-15h51.8c8.3,0,15,6.7,15,15
		S356.8,218.3,348.5,218.3z M437,218.3h-36c-8.3,0-15-6.7-15-15s6.7-15,15-15h36c8.3,0,15,6.7,15,15S445.3,218.3,437,218.3z
		 M437,158.3h-36c-8.3,0-15-6.7-15-15s6.7-15,15-15h36c8.3,0,15,6.7,15,15S445.3,158.3,437,158.3z"/>
</g>
</svg>
